<?xml version="1.0" encoding="UTF-8" standalone="no"?>
<svg width="502px" height="502px" viewBox="0 0 502 502" version="1.1" xmlns="http://www.w3.org/2000/svg" xmlns:xlink="http://www.w3.org/1999/xlink">
    <!-- Generator: Sketch 3.8.2 (29753) - http://www.bohemiancoding.com/sketch -->
    <title>Group</title>
    <desc>Created with Sketch.</desc>
    <defs></defs>
    <g id="Page-1" stroke="none" stroke-width="1" fill="none" fill-rule="evenodd">
        <g id="Group" transform="translate(8.000000, 8.000000)">
            <circle id="Oval-1" stroke="#844F15" stroke-width="16" fill="#DD9C34" cx="243" cy="243" r="243"></circle>
            <g id="Page-1">
                <path d="M294.1523,387.4409 C273.6893,390.5969 259.0273,395.4419 238.0213,398.4069 C197.4753,404.1159 149.0143,401.1659 102.1933,401.5349 C91.6763,404.1619 81.1703,406.8359 70.6783,409.5639 C69.7283,409.8109 68.8363,410.0399 67.9783,410.2589 C70.6073,412.9819 73.2973,415.6429 76.0493,418.2399 C92.5233,416.3499 107.4283,413.5979 126.8463,413.0959 C135.7063,412.8649 144.5673,412.9419 153.4273,412.8459 C155.5013,412.8239 157.6083,412.8129 159.7433,412.8089 C176.8083,412.7769 195.7003,413.2459 214.2123,413.1959 C230.4103,413.1519 246.3183,412.7099 260.4553,411.1859 C293.5853,407.6269 312.1673,398.6659 350.1703,396.6609 C362.2093,396.0259 374.3263,395.9119 386.4633,395.8909 C392.3493,395.8799 398.2393,395.8899 404.1283,395.8739 C412.6543,395.8519 421.1773,395.7729 429.6763,395.4899 C433.6453,390.6489 437.4233,385.6469 441.0143,380.5029 C438.0513,380.5969 435.0863,380.6799 432.1273,380.7919 C388.8903,382.4229 332.5623,381.5019 294.1523,387.4409" id="Fill-7" fill="#DD9C34"></path>
                <path d="M271.4062,466.8938 C263.6112,468.5918 256.7442,470.9428 249.2212,472.8328 C232.4702,477.0528 213.6352,478.8168 194.1382,479.4738 C207.2812,482.1218 220.8112,483.7008 234.6322,484.1278 C255.9152,481.9428 277.2232,479.8028 298.5312,477.6718 C314.5002,473.8728 329.8512,468.4908 344.4202,461.7048 C341.2942,461.8908 338.1692,462.0358 335.0832,462.1448 C313.4422,462.9118 290.7132,462.6918 271.4062,466.8938" id="Fill-9" fill="#DD9C34"></path>
                <path d="M450.9167,334.0355 C448.5377,334.1625 446.3097,334.2985 444.2107,334.4435 C442.1117,334.5875 440.1407,334.7415 438.2737,334.9055 C435.7847,335.1235 433.4807,335.3595 431.3057,335.6145 C430.2187,335.7415 429.1637,335.8745 428.1337,336.0115 C427.1037,336.1495 426.0987,336.2925 425.1117,336.4405 C424.1247,336.5885 423.1567,336.7415 422.1987,336.9005 C420.7627,337.1395 419.3507,337.3905 417.9407,337.6555 C417.4707,337.7435 417.0007,337.8335 416.5297,337.9245 C413.7047,338.4715 410.8527,339.0745 407.7817,339.7385 C407.2707,339.8495 406.7527,339.9615 406.2277,340.0755 C405.1787,340.3035 404.1017,340.5395 402.9897,340.7815 C402.4327,340.9025 401.8677,341.0255 401.2937,341.1505 C393.8277,342.7745 384.7397,344.7075 372.0937,347.0185 C371.1207,347.1965 370.1267,347.3765 369.1107,347.5585 C367.0797,347.9235 364.9597,348.2975 362.7457,348.6805 C360.5317,349.0625 358.2217,349.4555 355.8117,349.8575 C352.1947,350.4595 348.3487,351.0845 344.2497,351.7305 C320.3797,355.4895 296.5637,359.6165 272.8047,364.0665 C280.7727,363.2715 288.7467,362.4765 296.7127,361.6805 C314.6377,359.8865 332.5397,358.0925 350.4877,356.3565 C386.9267,352.8065 423.4777,349.4575 460.1207,346.3015 C460.4067,346.2765 460.7007,346.2555 460.9877,346.2315 C462.9997,342.0145 464.8857,337.7275 466.6577,333.3805 C464.8037,333.4405 463.0137,333.5025 461.3007,333.5675 C457.5317,333.7105 454.0897,333.8655 450.9167,334.0355" id="Fill-11" fill="#DD9C34"></path>
                <path d="M394.4497,364.0697 C382.5297,365.1057 370.2927,365.4037 358.1467,365.8447 C308.8567,367.6337 260.4707,371.9097 212.0527,376.1787 C180.4487,382.8467 148.9497,390.0557 117.5637,397.7367 C137.8147,397.0147 158.0697,396.2927 178.3087,395.5667 C188.7107,395.1927 199.6107,394.7807 208.4487,393.3797 C215.6087,392.2377 220.6397,390.5587 226.3047,389.0617 C254.6087,381.5787 315.0227,378.3397 355.3367,376.1037 C373.1707,375.1257 395.1297,373.0087 412.8277,373.0087 L412.8457,373.0087 L412.8547,373.0087 C424.0217,373.0087 434.4577,373.9607 444.8677,374.7217 C444.8667,374.7227 444.8667,375.0087 444.8657,375.0087 L444.8677,375.0087 C448.9847,368.0087 452.8177,362.1687 456.3507,355.5137 C447.1867,356.9437 437.9697,358.2577 428.6217,359.6957 C417.4277,361.4227 406.1647,363.0527 394.4497,364.0697" id="Fill-13" fill="#DD9C34"></path>
                <path d="M306.2986,409.3441 C279.2186,413.1341 249.2606,414.3911 219.8926,415.5901 C173.0646,417.5111 126.2306,419.4331 79.3966,421.3541 C83.7476,425.3081 88.2446,429.1031 92.8766,432.7351 C102.5136,431.8031 111.8806,430.4941 121.4306,429.4341 C143.5366,426.9891 178.6956,424.3491 208.8216,424.1231 C209.7936,424.1161 210.7606,424.1111 211.7206,424.1091 C223.7516,424.0821 234.8656,424.4631 243.8716,425.4241 C247.1206,425.7761 250.4426,426.2461 253.9086,426.2041 C254.4026,426.1981 254.9006,426.1821 255.4016,426.1531 C258.1436,425.9901 260.5236,425.4811 262.8576,425.0111 C282.3996,421.0261 306.0026,418.8611 329.2976,418.7451 C339.8866,418.6921 350.4116,419.0631 360.4626,419.8781 C366.1876,420.3391 372.4526,420.9151 378.3476,420.8931 C381.8806,420.8771 385.2816,420.6451 388.3536,420.0411 C396.2326,418.4981 403.6476,417.0771 410.9666,415.8261 C416.8896,410.0751 422.5196,404.0261 427.8326,397.6991 C425.5886,397.6831 423.3406,397.6771 421.0896,397.6831 C397.3556,397.7451 373.2296,399.0631 348.2146,402.6281 C333.9376,404.6721 320.6206,407.3391 306.2986,409.3441" id="Fill-15" fill="#DD9C34"></path>
                <path d="M198.5542,449.009 L214.7632,449.009 L215.8872,449.009 C193.6112,454.009 168.1172,456.153 143.1902,458.119 C140.2382,458.351 137.2842,458.643 134.3302,458.872 C145.6622,464.521 157.4912,469.348 169.7472,473.187 C186.1242,472.077 202.1682,470.344 217.7002,467.583 C233.8792,464.715 249.1532,460.791 266.1032,458.872 C297.4902,455.332 335.1242,458.356 362.3802,452.417 C363.6102,451.713 364.8272,450.99 366.0442,450.266 C340.7382,449.439 315.3172,448.048 290.0502,447.528 C277.5342,447.272 265.0282,447.24 252.5342,447.382 C239.7452,447.58 226.9702,447.946 214.2112,448.347 C208.9892,448.543 203.7702,448.766 198.5542,449.009" id="Fill-17" fill="#DD9C34"></path>
                <path d="M124.7161,434.1448 C115.5401,434.7698 106.3501,435.4298 97.1291,435.9958 C102.2341,439.8208 107.5001,443.4398 112.9051,446.8598 C119.0551,446.3838 125.2061,445.9058 131.3561,445.4358 C154.7651,443.6418 178.2641,441.8868 202.0131,441.2828 C221.5461,440.7838 241.0571,441.1198 260.5691,441.5128 C273.4401,441.7718 297.1431,438.8268 306.9781,440.3038 C314.5701,441.4558 322.1841,442.5968 329.7981,443.7488 C336.1201,444.6978 342.7601,445.6668 349.4221,445.3028 C360.4131,444.7078 369.4551,440.5918 380.5361,440.6978 C380.6371,440.6988 380.7371,440.7068 380.8381,440.7088 C389.5181,434.6428 397.7871,428.0308 405.5841,420.9078 C368.5851,422.4548 331.6061,424.0018 294.6281,425.5488 C237.7721,427.9278 180.8471,430.3068 124.7161,434.1448" id="Fill-19" fill="#DD9C34"></path>
                <path d="M435.314,121.8866 C434.625,121.9926 433.935,122.0996 433.244,122.2056 C430.69,122.6306 428.127,123.0116 425.55,123.3526 C420.3,124.1036 414.993,124.7776 409.589,125.2476 C403.141,125.8076 396.599,126.1426 390.029,126.4106 C390.019,126.4116 390.008,126.4056 389.997,126.3996 C389.987,126.4066 389.976,126.4126 389.966,126.4136 C389.949,126.4166 389.932,126.4206 389.915,126.4236 C389.953,126.4226 389.991,126.4216 390.029,126.4196 C390,126.4256 389.971,126.4326 389.941,126.4386 C373.783,129.7296 357.559,134.1586 341.832,137.3566 C340.905,137.5456 339.977,137.7416 339.049,137.9326 C336.264,138.5116 333.48,139.1066 330.714,139.7666 C344.825,138.8686 358.532,138.1376 370.472,137.4766 C388.313,136.4966 410.272,134.6386 427.962,134.5686 C439.187,134.5196 449.668,135.2376 460.125,136.0036 C457.741,131.1116 455.204,126.3086 452.506,121.6076 L452.506,121.6076 L452.506,121.6086 C448.261,121.4776 444.018,121.4016 439.78,121.4106 C439.814,121.4056 439.846,121.4006 439.879,121.3956 C440.245,121.3406 440.61,121.2856 440.975,121.2316 C440.577,121.2276 440.179,121.2166 439.78,121.2176 C439.814,121.2116 439.846,121.0086 439.879,121.0086 L439.797,121.0086 C439.792,121.0086 439.786,121.2036 439.78,121.2046 C438.294,121.4326 436.805,121.6596 435.314,121.8866" id="Fill-23" fill="#DD9C34"></path>
                <path d="M293.1035,155.4954 C263.2365,166.3734 220.6035,169.4534 188.6965,172.0524 C148.9265,175.2864 108.9825,175.8314 69.2805,180.1354 C58.9835,181.2444 48.7405,182.6074 38.4415,184.0914 C114.9155,179.6254 196.6805,187.9984 267.9285,175.3334 C284.1085,172.4654 299.3815,168.4734 316.3325,166.5544 C335.8495,164.3534 357.7835,164.6964 378.1355,163.8224 C381.0425,163.6974 383.9175,163.5484 386.7495,163.3624 C391.2795,163.0664 395.6965,162.6774 399.9535,162.1534 C408.4675,161.1044 416.3415,159.5094 423.1915,157.0094 L380.6725,157.0094 C395.0285,157.0094 409.4575,156.9694 423.8705,156.8924 C423.8735,156.8904 423.8775,157.0094 423.8805,157.0094 L424.4215,157.0094 C431.6405,157.0094 438.8545,156.8834 446.0525,156.6254 C453.5695,156.3574 461.0695,155.9224 468.5605,155.4534 C466.7495,150.7214 464.8015,146.0574 462.7085,141.4734 C457.5355,141.6154 452.3645,141.7834 447.2015,141.9794 C403.9615,143.6104 347.7225,142.6904 309.3115,148.6304 C308.1225,148.8124 306.9485,149.0034 305.7965,149.1964 C302.6465,150.9384 299.5075,152.7084 296.2255,154.1834 C295.5495,154.4944 294.8695,154.7964 294.1795,155.0734 C293.8215,155.2164 293.4655,155.3634 293.1035,155.4954" id="Fill-25" fill="#DD9C34"></path>
                <path d="M94.3066,90.8746 C108.9686,90.2416 122.5646,88.1296 136.5696,86.5756 C148.7116,85.2326 164.7936,83.8306 181.8146,82.8026 C181.8236,82.8016 181.8316,82.8016 181.8406,82.8006 C200.0776,79.6216 218.2776,76.2466 236.4366,72.6756 C235.9686,72.6946 235.4986,72.7136 235.0306,72.7326 C177.4646,75.0956 119.8896,77.4576 62.3166,79.8196 C59.2676,83.1996 56.3196,86.6706 53.4626,90.2186 C67.0566,90.7146 80.6376,91.4586 94.3066,90.8746" id="Fill-27" fill="#DD9C34"></path>
                <path d="M101.6265,284.9148 C106.3555,284.9328 111.1455,284.9038 116.0195,284.8128 C132.5845,284.5058 148.0845,282.5108 163.9025,281.0998 C186.0195,279.1328 209.3375,278.2988 232.4065,277.4738 C237.1625,277.3028 241.9145,277.1338 246.6705,276.9638 C275.1195,268.7878 308.9455,259.7748 336.0865,259.3898 C342.9615,259.2988 349.6755,260.9518 356.4855,261.5168 C367.0035,262.3998 377.6165,260.7238 388.0915,259.0068 C412.1365,255.0558 438.2725,253.3728 461.6775,246.8358 C400.6785,250.8578 340.6415,257.4018 279.6185,261.6148 C243.5425,264.1088 207.2935,265.7778 170.9225,267.4478 C156.7395,268.0988 71.8435,272.4098 18.4375,272.3688 C12.4985,272.3658 6.9295,272.3098 1.8695,272.1908 C2.3375,275.9588 2.8985,279.6978 3.5385,283.4098 C8.2945,283.2848 12.9595,283.2118 17.5335,283.1908 C47.1745,283.0428 73.2725,284.8088 101.6265,284.9148" id="Fill-29" fill="#DD9C34"></path>
                <path d="M124.4724,264.8379 C145.3884,265.2119 165.2394,261.2499 185.9744,260.0509 C205.8254,258.8989 225.9934,260.2999 245.9804,259.7439 C261.7974,259.3019 277.2294,257.6519 292.5714,256.0399 C328.1944,252.2889 363.9304,248.7199 399.6444,245.1509 C416.8664,243.4339 434.0664,241.7159 451.2664,239.9989 C462.3234,238.8919 473.3764,237.7949 484.4324,236.7029 C484.3044,230.7139 483.9534,224.7809 483.3974,218.9069 C482.6974,219.3709 481.9824,219.7559 481.2244,220.1969 C481.1934,220.2159 481.1654,220.2359 481.1334,220.2539 C468.8834,227.4949 446.4044,229.9899 425.3364,230.8369 C424.6574,230.8639 423.9784,230.8899 423.3024,230.9139 C401.6614,231.6809 378.9324,231.4599 359.6254,235.6619 C351.8294,237.3609 344.9634,239.7109 337.4404,241.6009 C304.6944,249.8519 263.9954,248.7389 225.9254,248.2499 C216.8924,248.1359 207.8594,248.0729 198.8284,248.0599 C135.6334,247.9689 72.5454,250.3489 10.3464,255.1669 C7.0234,255.4259 3.7054,255.6739 0.4004,255.8199 C0.5444,258.3749 0.7324,260.9169 0.9554,263.4499 C20.1024,263.1089 39.2484,262.7569 58.4154,262.4109 C64.0314,262.3099 69.6754,262.2059 75.3054,262.2069 C80.8784,262.2059 86.4364,262.3089 91.9994,262.6219 C102.8994,263.2359 113.4594,264.6369 124.4724,264.8379" id="Fill-31" fill="#DD9C34"></path>
                <path d="M1.6336,250.464 C1.6636,250.465 1.6926,250.466 1.7226,250.467 C2.3106,250.487 2.8776,250.734 3.4416,250.747 C4.1106,250.762 4.7826,251.009 5.4596,251.009 L5.5106,251.009 C5.5696,251.009 5.6256,250.779 5.6846,250.779 C5.8946,250.78 6.1116,250.655 6.3216,250.655 C10.0516,250.651 13.8226,250.476 17.6186,250.263 C17.9546,250.245 18.2956,250.187 18.6326,250.167 C30.3896,249.465 42.3386,247.978 53.8386,246.854 C74.4766,244.836 95.6336,244.036 116.9786,243.763 C119.7296,243.727 122.4836,243.694 125.2406,243.674 C128.6926,243.65 132.1486,243.636 135.6066,243.632 C156.0646,243.601 176.6046,243.86 196.9496,243.804 C234.5406,243.698 271.4606,242.505 305.9186,236.38 C322.0986,233.511 337.3716,229.585 354.3226,227.666 C390.3076,223.608 434.5196,228.009 461.8716,218.009 L483.2496,218.009 L483.3176,218.009 C483.1666,216.479 482.9926,215.009 482.8146,213.009 L482.7816,213.009 C482.7766,212.978 482.7716,212.951 482.7656,212.904 C482.7606,212.904 482.7566,212.906 482.7516,212.906 C482.2226,208.487 481.5846,204.101 480.8206,199.758 C455.5226,200.46 430.7066,201.48 410.7166,204.571 C394.9766,206.991 382.6666,211.009 368.2566,213.009 L291.9346,213.009 L280.0866,213.009 C285.0166,213.009 289.9466,212.871 294.8766,212.691 C305.2766,212.321 316.1766,212.114 325.0066,210.714 C332.1766,209.574 337.2066,207.894 342.8666,206.404 C371.1766,198.914 431.5866,195.864 471.8966,193.634 C473.3826,193.552 474.9076,193.462 476.4486,193.37 C477.4836,193.308 478.5226,193.245 479.5766,193.179 C478.8826,189.789 478.1046,186.431 477.2706,183.094 C476.4366,183.124 475.6026,183.152 474.7696,183.182 C395.9996,186.041 319.6016,195.252 241.6256,200.634 C205.5486,203.129 169.4536,204.798 133.0826,206.467 C120.6886,207.037 54.2496,210.4 2.2496,211.212 L2.2496,211.21 C25.9886,210.838 52.6856,209.936 75.8736,209.011 C52.6006,209.937 25.7876,210.841 1.9396,211.212 C1.0616,218.136 0.4936,225.157 0.2126,232.251 C0.2246,232.252 0.2376,232.253 0.2496,232.254 L0.2496,232.251 C0.2706,232.254 0.2966,232.257 0.3176,232.26 C1.6426,232.415 3.0016,232.543 4.3866,232.645 C4.4416,232.649 4.4986,232.653 4.5536,232.657 C4.5056,232.654 4.4536,232.65 4.4046,232.647 C4.4426,232.649 4.4776,232.654 4.5156,232.657 C5.1366,232.7 5.7586,232.743 6.3866,232.777 C6.9576,232.808 7.5316,232.837 8.1096,232.861 C9.1886,232.906 10.2786,232.958 11.3756,232.976 C11.5746,232.979 11.7716,233.009 11.9716,233.009 L12.0526,233.009 C17.9016,233.009 23.8466,232.75 29.4776,232.201 C42.0386,230.982 53.9036,228.728 66.2146,227.154 C66.3386,227.138 66.4606,227.114 66.5846,227.098 C66.7886,227.073 66.9936,227.047 67.1976,227.021 C69.3726,226.747 71.5586,226.486 73.7796,226.269 C89.6876,224.705 106.2076,224.826 122.5236,224.635 C126.8346,224.582 131.1406,224.492 135.4466,224.391 C137.2666,224.347 139.0866,224.306 140.9056,224.256 C142.5346,224.213 144.1606,224.153 145.7886,224.103 C172.4026,223.268 198.8596,221.561 224.8596,219.012 C226.1246,218.886 227.3946,218.77 228.6566,218.64 C230.7296,218.43 232.8106,218.009 234.8766,218.009 L304.0596,218.009 L304.1056,218.009 C299.3766,219.009 294.4946,219.989 289.5116,220.809 C277.4546,222.798 264.7686,224.164 251.9536,225.307 C246.3766,225.805 240.7796,226.266 235.1976,226.709 C253.6066,225.248 272.2116,223.661 289.5116,220.814 C272.2096,223.669 253.6196,225.248 235.1976,226.709 C233.9546,226.807 232.7116,226.906 231.4706,227.004 C230.3646,227.09 229.2596,227.176 228.1536,227.263 C204.9016,229.085 181.6666,230.874 158.0876,231.652 C121.1046,232.88 81.4346,230.581 46.1966,235.628 C32.3276,237.606 19.0416,240.009 6.9366,239.009 L6.9096,239.009 C4.5956,239.009 2.3066,239.061 0.0366,238.89 C0.0256,239.87 -0.0004,240.937 -0.0004,241.92 C-0.0004,244.734 0.0656,247.577 0.1606,250.368 C0.1906,250.37 0.2206,250.415 0.2496,250.416 L0.2496,250.413 C0.7296,250.432 1.1876,250.448 1.6336,250.464 L1.6336,250.464 Z" id="Fill-33" fill="#DD9C34"></path>
                <path d="M117.4019,315.9072 C117.8429,315.8692 118.2769,315.8222 118.7169,315.7822 C133.9049,311.7982 148.9279,307.2612 163.8979,302.5482 C143.5979,303.3812 123.3269,304.2142 103.0279,305.0472 C86.9619,305.7092 70.8879,306.3612 54.7759,306.4662 C52.4189,306.4812 50.0619,306.4832 47.7059,306.4792 C40.6439,306.4652 33.5759,306.3862 26.5159,306.3672 C20.5729,306.3522 14.6369,306.3932 8.7069,306.5422 C9.7139,310.1952 10.8059,313.8122 11.9779,317.3942 C21.5739,316.6382 31.1299,316.0982 40.4909,316.0322 C42.1489,316.0202 43.7939,316.0182 45.4279,316.0252 C61.7039,316.0852 76.7719,317.0032 92.6819,316.9472 C100.6409,316.9182 108.8009,316.6472 117.4019,315.9072" id="Fill-40" fill="#DD9C34"></path>
                <path d="M49.9111,94.8807 C49.9131,94.8787 49.9141,95.0087 49.9161,95.0087 L49.9111,95.0087 C47.7381,98.0087 45.6251,100.5897 43.5761,103.5207 C69.8541,100.2267 96.0891,96.5407 122.2651,92.5647 C107.5041,93.5587 92.6771,94.4647 77.7131,94.6157 C68.3551,94.7077 59.1121,94.8087 49.9111,94.8807" id="Fill-42" fill="#DD9C34"></path>
                <path d="M193.4482,52.7103 C203.8492,52.3363 214.7492,51.9233 223.5872,50.5223 C230.7482,49.3813 235.7792,47.7023 241.4442,46.2053 C268.7052,38.9973 325.7452,35.9023 365.9312,33.6873 C360.1762,30.2623 354.2712,27.0653 348.2212,24.1173 C278.2332,27.7763 209.7612,35.6293 140.0822,40.4393 C128.2912,41.2543 116.4682,41.9753 104.6252,42.6433 C98.3392,46.9913 92.2682,51.6273 86.4322,56.5343 C88.6202,56.4553 90.8082,56.3763 92.9922,56.2983 C126.4852,55.0993 159.9782,53.9093 193.4482,52.7103" id="Fill-44" fill="#DD9C34"></path>
                <path d="M147.9836,199.0701 C167.8346,197.9191 188.0026,199.3201 207.9896,198.7631 C223.8066,198.3221 239.2396,196.6721 254.5806,195.0601 C290.2036,191.3091 325.9406,187.7391 361.6536,184.1711 C378.8756,182.4531 396.0756,180.7361 413.2756,179.0181 C431.2006,177.2241 449.1026,175.4271 467.0506,173.6901 C467.2506,173.6711 467.4516,173.6421 467.6516,173.6211 C467.3966,173.6451 467.1406,173.6691 466.8916,173.6941 C448.9446,175.4301 431.1376,177.2241 413.2126,179.0181 C431.1376,177.2241 448.9766,175.4271 466.9236,173.6901 C467.1756,173.6661 467.4326,173.6411 467.6896,173.6171 C469.9596,173.3781 472.2326,173.0581 474.5026,172.8391 C472.9266,167.5291 471.1786,162.0091 469.2546,157.0091 L469.1516,157.0091 L446.2286,157.0091 C445.2356,158.0091 444.2396,158.4961 443.1466,159.1381 C430.8076,166.4311 408.0956,169.0381 386.8956,169.8731 C386.3696,169.8941 385.8436,169.9141 385.3196,169.9331 C363.6786,170.7001 340.9566,170.4801 321.6496,174.6821 C313.8546,176.3801 307.0036,178.7311 299.4796,180.6211 C276.9546,186.2961 250.6796,187.5411 224.0806,187.6061 C212.0126,187.6351 199.8776,187.4221 187.9946,187.2691 C178.9486,187.1551 169.8996,187.0921 160.8506,187.0791 C108.7756,187.0051 56.7046,188.6161 5.2066,191.8761 L5.2066,191.8761 C4.5206,195.1391 3.9046,198.4281 3.3506,201.7391 C9.0436,201.6351 14.7296,201.5331 20.4246,201.4301 C26.0406,201.3291 31.6846,201.2261 37.3146,201.2271 C42.8876,201.2261 48.4466,201.3281 54.0086,201.6411 C59.4586,201.9481 64.8236,202.4521 70.2026,202.9041 C75.5816,203.3561 80.9756,203.7571 86.4816,203.8571 C107.3976,204.2321 127.2486,200.2691 147.9836,199.0701" id="Fill-46" fill="#DD9C34"></path>
                <path d="M232.6001,280.8876 C232.9101,280.7976 233.2211,280.7926 233.5341,280.7676 C233.8821,280.6666 234.2301,280.5656 234.5801,280.4646 C234.6501,280.4216 234.7191,280.3826 234.7881,280.3256 C230.3671,280.4896 225.9831,280.6946 221.6281,280.9656 C200.9151,282.2606 181.8881,284.8416 161.7431,286.6356 C140.3171,288.5446 117.6201,289.5406 95.3151,289.5886 C81.9281,289.6196 68.6831,289.3096 55.9451,288.6506 C39.1721,287.7866 22.8311,286.3306 5.4711,286.2266 C4.9981,286.2236 4.5151,286.2356 4.0411,286.2356 C4.9711,291.2736 6.0561,296.2576 7.2921,301.1816 C27.4681,301.7876 47.2261,304.2436 69.2041,304.3966 C72.8921,304.4196 76.6461,304.3786 80.4871,304.2506 C94.7641,303.7706 108.1561,301.7556 122.2741,300.8736 C139.2161,299.8146 156.9071,299.5006 174.5751,299.1616 C174.6591,299.1346 174.7431,299.1076 174.8271,299.0806 C174.7431,299.0826 174.6591,299.0836 174.5751,299.0856 C193.8811,292.9186 213.1421,286.5326 232.6001,280.8876" id="Fill-48" fill="#DD9C34"></path>
                <path d="M141.9851,70.2386 C150.8461,70.0086 159.7061,70.0846 168.5661,69.9886 C193.4051,69.7306 222.9621,70.8816 249.8151,70.0116 C255.8441,68.7916 261.8701,67.5516 267.8891,66.2856 C304.6951,58.5546 342.1331,50.8786 379.4031,42.3156 C378.1041,41.4216 376.7961,40.5426 375.4801,39.6736 C351.5471,40.3936 328.2491,41.6526 309.2911,44.5836 C288.8281,47.7406 274.1671,52.5856 253.1601,55.5496 C232.5101,58.4576 209.8071,59.1186 186.3131,59.1156 C166.4351,59.1126 145.9901,58.6356 125.7441,58.6406 C122.0421,58.6426 118.3471,58.6606 114.6631,58.7006 C103.8611,58.8166 93.1561,59.1216 82.6661,59.7636 C76.3751,65.2766 70.3761,71.1126 64.6861,77.2416 C67.0251,77.1596 69.3701,77.0836 71.6911,76.9836 C97.1391,75.8796 115.2901,70.9296 141.9851,70.2386" id="Fill-50" fill="#DD9C34"></path>
                <path d="M260.2302,23.976 C277.4522,22.259 294.6522,20.541 311.8512,18.824 C318.4862,18.16 325.1182,17.498 331.7502,16.837 C323.4592,13.539 314.9402,10.695 306.2292,8.316 C298.8982,9.071 291.2832,9.502 283.8852,9.765 C264.8132,10.441 244.8972,10.334 227.2212,13.174 C224.8422,13.557 222.5012,13.989 220.2112,14.487 C212.4152,16.186 205.5492,18.536 198.0252,20.426 C177.5562,25.584 153.9792,27.083 129.8792,27.362 C123.3902,30.766 117.0722,34.448 110.9472,38.406 C125.2372,37.812 139.2362,36.328 153.1572,34.865 C188.7802,31.114 224.5162,27.545 260.2302,23.976" id="Fill-52" fill="#DD9C34"></path>
                <path d="M74.1511,318.9198 C53.7241,319.6758 32.9341,320.4708 13.8071,322.7688 C15.7331,328.2158 17.8471,333.5728 20.1431,338.8338 C60.1141,319.4448 56.9041,330.7858 109.1481,318.1998 C110.0511,317.9828 110.9721,317.7578 111.9091,317.5248 C99.3031,317.9898 86.7521,318.4548 74.1511,318.9198" id="Fill-54" fill="#DD9C34"></path>
                <path d="M166.5044,15.207 C182.6844,12.338 197.9574,8.414 214.9084,6.496 C236.8844,4.017 261.9224,4.769 284.3194,3.408 C274.0874,1.616 263.6324,0.473 253.0004,0.009 L232.8794,0.009 L231.4994,0.009 C203.0394,1.252 175.8584,7.407 150.7744,17.645 C156.0674,16.933 161.3164,16.129 166.5044,15.207" id="Fill-56" fill="#DD9C34"></path>
                <path d="M443.7144,107.4555 C443.6954,107.4565 443.6764,107.4565 443.6574,107.4575 C443.6764,107.4855 443.6954,107.5125 443.7144,107.5405 C408.4254,109.1255 372.4514,107.2475 336.5684,105.8345 C336.5654,105.8355 336.5624,106.0085 336.5604,106.0085 L336.5574,106.0085 C335.9414,106.0085 335.3104,106.1685 334.6644,106.3965 C334.4294,106.4845 334.2084,106.5785 333.9694,106.6635 C333.0924,107.0215 332.1894,107.4495 331.2634,107.7385 C319.5604,111.3795 304.1224,112.8705 289.1014,113.5655 C287.3564,113.6495 285.6144,113.7235 283.8864,113.7855 C262.2454,114.5525 239.5154,114.3385 220.2084,118.5405 C212.4124,120.2385 205.5434,122.6005 198.0194,124.4905 C165.2744,132.7415 124.5694,131.6525 86.4994,131.1635 C66.6074,130.9125 46.6954,130.9195 26.7984,131.1625 C24.3894,135.8345 22.1384,140.6005 20.0304,145.4435 C28.8124,144.4665 37.6014,143.4345 46.5534,142.9165 C66.4044,141.7655 86.5764,143.1655 106.5634,142.6095 C122.3804,142.1685 137.8144,140.5175 153.1554,138.9065 C188.7784,135.1545 224.5154,131.5855 260.2294,128.0165 C277.4514,126.2995 294.6524,124.5825 311.8514,122.8645 C329.7764,121.0705 347.6784,119.2765 365.6264,117.5405 C369.9124,117.1225 374.2094,116.7305 378.4994,116.3195 C400.7834,114.1785 423.0994,112.0935 445.4604,110.1075 C444.8824,109.2205 444.3024,108.3345 443.7144,107.4555" id="Fill-58" fill="#DD9C34"></path>
                <path d="M443.7144,107.4555 C443.6954,107.4565 443.6764,107.4565 443.6574,107.4575 C443.6764,107.4855 443.6954,107.5125 443.7144,107.5405 C408.4254,109.1255 372.4514,107.2475 336.5684,105.8345 C336.5654,105.8355 336.5624,106.0085 336.5604,106.0085 L336.5574,106.0085 C335.9414,106.0085 335.3104,106.1685 334.6644,106.3965 C334.4294,106.4845 334.2084,106.5785 333.9694,106.6635 C333.0924,107.0215 332.1894,107.4495 331.2634,107.7385 C319.5604,111.3795 304.1224,112.8705 289.1014,113.5655 C287.3564,113.6495 285.6144,113.7235 283.8864,113.7855 C262.2454,114.5525 239.5154,114.3385 220.2084,118.5405 C212.4124,120.2385 205.5434,122.6005 198.0194,124.4905 C165.2744,132.7415 124.5694,131.6525 86.4994,131.1635 C66.6074,130.9125 46.6954,130.9195 26.7984,131.1625 C24.3894,135.8345 22.1384,140.6005 20.0304,145.4435 C28.8124,144.4665 37.6014,143.4345 46.5534,142.9165 C66.4044,141.7655 86.5764,143.1655 106.5634,142.6095 C122.3804,142.1685 137.8144,140.5175 153.1554,138.9065 C188.7784,135.1545 224.5154,131.5855 260.2294,128.0165 C277.4514,126.2995 294.6524,124.5825 311.8514,122.8645 C329.7764,121.0705 347.6784,119.2765 365.6264,117.5405 C369.9124,117.1225 374.2094,116.7305 378.4994,116.3195 C400.7834,114.1785 423.0994,112.0935 445.4604,110.1075 C444.8824,109.2205 444.3024,108.3345 443.7144,107.4555" id="Fill-60" fill="#EBB55A"></path>
                <path d="M439.7803,121.4107 C444.0183,121.4017 448.2613,121.4777 452.5063,121.6087 L452.5063,121.6077 C452.5033,121.6037 452.5003,121.5987 452.4983,121.5937 C452.1223,120.9397 451.7323,120.2947 451.3503,119.6437 C448.8273,120.0337 446.3023,120.4237 443.7613,120.8137 C442.8333,120.9577 441.9043,121.0937 440.9753,121.2317 C440.6093,121.2857 440.2453,121.3397 439.8793,121.3957 C439.8463,121.4007 439.8133,121.4057 439.7803,121.4107" id="Fill-62" fill="#DD9C34"></path>
                <path d="M439.7803,121.4107 C444.0183,121.4017 448.2613,121.4777 452.5063,121.6087 L452.5063,121.6077 C452.5033,121.6037 452.5003,121.5987 452.4983,121.5937 C452.1223,120.9397 451.7323,120.2947 451.3503,119.6437 C448.8273,120.0337 446.3023,120.4237 443.7613,120.8137 C442.8333,120.9577 441.9043,121.0937 440.9753,121.2317 C440.6093,121.2857 440.2453,121.3397 439.8793,121.3957 C439.8463,121.4007 439.8133,121.4057 439.7803,121.4107" id="Fill-64" fill="#EBB55A"></path>
                <path d="M249.8198,70.0116 C258.8088,69.7206 267.4928,69.2026 275.5968,68.3296 C308.7268,64.7696 327.3068,55.8096 365.3088,53.8036 C374.7828,53.3046 384.3058,53.1296 393.8478,53.0666 C389.1738,49.3116 384.3578,45.7256 379.4078,42.3186 C342.1418,50.8806 304.7008,58.5556 267.8988,66.2856 C261.8798,67.5516 255.8498,68.7916 249.8198,70.0116" id="Fill-66" fill="#DD9C34"></path>
                <path d="M249.8198,70.0116 C258.8088,69.7206 267.4928,69.2026 275.5968,68.3296 C308.7268,64.7696 327.3068,55.8096 365.3088,53.8036 C374.7828,53.3046 384.3058,53.1296 393.8478,53.0666 C389.1738,49.3116 384.3578,45.7256 379.4078,42.3186 C342.1418,50.8806 304.7008,58.5556 267.8988,66.2856 C261.8798,67.5516 255.8498,68.7916 249.8198,70.0116" id="Fill-68" fill="#EBB55A"></path>
                <path d="M84.533,163.523 C121.579,163.073 158.509,161.009 194.49,157.009 L178.663,157.009 C183.593,157.009 188.523,156.794 193.453,156.614 C203.853,156.244 214.752,155.892 223.583,154.492 C230.752,153.352 235.783,151.706 241.442,150.216 C261.367,144.945 297.188,141.891 330.714,139.756 C333.48,139.095 336.264,138.508 339.049,137.933 C339.977,137.741 340.905,137.545 341.832,137.357 C357.559,134.158 373.783,129.73 389.941,126.438 C384.397,126.664 378.832,126.849 373.286,127.051 C294.516,129.91 218.058,139.142 140.082,144.525 C104.005,147.019 67.635,148.732 31.264,150.402 C28.754,150.517 24.029,150.751 17.672,151.056 C15.348,156.788 13.235,162.627 11.347,168.568 C19.397,167.331 27.403,166.043 35.789,165.222 C51.697,163.658 68.217,163.715 84.533,163.523" id="Fill-70" fill="#DD9C34"></path>
                <path d="M84.533,163.523 C121.579,163.073 158.509,161.009 194.49,157.009 L178.663,157.009 C183.593,157.009 188.523,156.794 193.453,156.614 C203.853,156.244 214.752,155.892 223.583,154.492 C230.752,153.352 235.783,151.706 241.442,150.216 C261.367,144.945 297.188,141.891 330.714,139.756 C333.48,139.095 336.264,138.508 339.049,137.933 C339.977,137.741 340.905,137.545 341.832,137.357 C357.559,134.158 373.783,129.73 389.941,126.438 C384.397,126.664 378.832,126.849 373.286,127.051 C294.516,129.91 218.058,139.142 140.082,144.525 C104.005,147.019 67.635,148.732 31.264,150.402 C28.754,150.517 24.029,150.751 17.672,151.056 C15.348,156.788 13.235,162.627 11.347,168.568 C19.397,167.331 27.403,166.043 35.789,165.222 C51.697,163.658 68.217,163.715 84.533,163.523" id="Fill-72" fill="#EBB55A"></path>
                <path d="M37.8599,184.1233 C37.9899,184.1153 38.1199,184.1103 38.2499,184.1023 C38.3139,184.0983 38.3779,184.0953 38.4419,184.0923 C48.7409,182.6083 58.9829,181.2443 69.2809,180.1353 C108.9829,175.8323 148.9269,175.2863 188.6969,172.0533 C220.6029,169.4533 263.2359,166.3733 293.1039,155.4953 C293.4659,155.3633 293.8219,155.2163 294.1789,155.0733 C294.8699,154.7963 295.5489,154.4943 296.2249,154.1833 C299.5099,152.6703 302.6399,150.8063 305.7939,149.0613 C291.6929,151.4313 280.1539,155.0093 266.8329,157.0093 L264.9849,157.0093 C242.9779,162.0093 217.9879,163.9593 193.4789,165.8923 C169.1189,167.8023 144.7949,169.8563 120.0949,170.6713 C83.5619,171.8843 44.4119,169.8433 9.4969,174.6573 C8.3359,178.6783 7.2699,182.7403 6.3149,186.8443 C9.6089,186.4983 12.8759,186.1563 16.0879,185.8423 C23.3649,185.1313 30.4689,184.5613 37.8599,184.1233" id="Fill-74" fill="#DD9C34"></path>
                <path d="M37.8599,184.1233 C37.9899,184.1153 38.1199,184.1103 38.2499,184.1023 C38.3139,184.0983 38.3779,184.0953 38.4419,184.0923 C48.7409,182.6083 58.9829,181.2443 69.2809,180.1353 C108.9829,175.8323 148.9269,175.2863 188.6969,172.0533 C220.6029,169.4533 263.2359,166.3733 293.1039,155.4953 C293.4659,155.3633 293.8219,155.2163 294.1789,155.0733 C294.8699,154.7963 295.5489,154.4943 296.2249,154.1833 C299.5099,152.6703 302.6399,150.8063 305.7939,149.0613 C291.6929,151.4313 280.1539,155.0093 266.8329,157.0093 L264.9849,157.0093 C242.9779,162.0093 217.9879,163.9593 193.4789,165.8923 C169.1189,167.8023 144.7949,169.8563 120.0949,170.6713 C83.5619,171.8843 44.4119,169.8433 9.4969,174.6573 C8.3359,178.6783 7.2699,182.7403 6.3149,186.8443 C9.6089,186.4983 12.8759,186.1563 16.0879,185.8423 C23.3649,185.1313 30.4689,184.5613 37.8599,184.1233" id="Fill-76" fill="#EBB55A"></path>
                <path d="M166.5044,119.234 C182.6844,116.365 197.9574,112.427 214.9084,110.509 C245.0474,107.11 280.9484,109.76 307.8904,104.724 C306.9884,104.688 306.0884,104.579 305.1864,104.56 C297.4534,104.402 289.7254,104.322 282.0004,104.312 C242.7304,104.262 203.5774,106.041 164.6214,108.693 C162.0084,108.871 159.3964,109.052 156.7854,109.238 C152.6774,109.529 148.5714,109.83 144.4684,110.138 C136.5244,110.736 128.5874,111.36 120.6614,112.009 L60.7754,112.009 C52.8164,112.577 44.8394,113.111 36.8384,113.562 C34.1694,117.823 31.6144,122.163 29.2074,126.596 C76.4884,126.843 123.4204,126.892 166.5044,119.234" id="Fill-78" fill="#DD9C34"></path>
                <path d="M166.5044,119.234 C182.6844,116.365 197.9574,112.427 214.9084,110.509 C245.0474,107.11 280.9484,109.76 307.8904,104.724 C306.9884,104.688 306.0884,104.579 305.1864,104.56 C297.4534,104.402 289.7254,104.322 282.0004,104.312 C242.7304,104.262 203.5774,106.041 164.6214,108.693 C162.0084,108.871 159.3964,109.052 156.7854,109.238 C152.6774,109.529 148.5714,109.83 144.4684,110.138 C136.5244,110.736 128.5874,111.36 120.6614,112.009 L60.7754,112.009 C52.8164,112.577 44.8394,113.111 36.8384,113.562 C34.1694,117.823 31.6144,122.163 29.2074,126.596 C76.4884,126.843 123.4204,126.892 166.5044,119.234" id="Fill-80" fill="#EBB55A"></path>
                <path d="M259.0063,82.5607 C262.7223,82.9637 266.5293,83.5137 270.5413,83.2837 C273.2833,83.1207 275.6623,82.5997 277.9963,82.1297 C306.4133,76.3347 343.4183,74.3617 375.5743,76.9717 C384.7523,77.7107 395.2893,78.6967 403.4923,77.0847 C408.2023,76.1617 412.7433,75.2817 417.2003,74.4537 C411.0203,68.0027 404.4823,61.8997 397.6273,56.1617 C386.3393,56.9477 374.9103,58.1147 363.2853,59.7717 C349.0093,61.8147 335.7783,64.4817 321.4573,66.4877 C294.8083,70.2167 265.3643,71.4927 236.4463,72.6757 C218.2883,76.2457 200.0843,79.6217 181.8483,82.8007 C209.3223,81.1417 239.2403,80.4527 259.0063,82.5607" id="Fill-82" fill="#DD9C34"></path>
                <path d="M259.0063,82.5607 C262.7223,82.9637 266.5293,83.5137 270.5413,83.2837 C273.2833,83.1207 275.6623,82.5997 277.9963,82.1297 C306.4133,76.3347 343.4183,74.3617 375.5743,76.9717 C384.7523,77.7107 395.2893,78.6967 403.4923,77.0847 C408.2023,76.1617 412.7433,75.2817 417.2003,74.4537 C411.0203,68.0027 404.4823,61.8997 397.6273,56.1617 C386.3393,56.9477 374.9103,58.1147 363.2853,59.7717 C349.0093,61.8147 335.7783,64.4817 321.4573,66.4877 C294.8083,70.2167 265.3643,71.4927 236.4463,72.6757 C218.2883,76.2457 200.0843,79.6217 181.8483,82.8007 C209.3223,81.1417 239.2403,80.4527 259.0063,82.5607" id="Fill-84" fill="#EBB55A"></path>
                <path d="M95.4622,101.009 L164.6912,101.009 C163.8492,101.009 162.9952,101.313 162.1442,101.498 C169.1972,100.976 176.2622,100.475 183.3432,100.027 C194.5672,99.311 205.8302,98.73 217.1512,98.441 C226.9182,98.192 236.6792,98.155 246.4382,98.23 C256.1962,98.297 265.9522,98.475 275.7072,98.672 C283.5872,98.83 295.5212,97.809 305.8522,97.332 C312.3982,97.025 318.3022,96.936 322.1172,97.509 C329.6932,98.658 337.2932,100.009 344.8912,101.009 L345.1632,101.009 C345.1542,101.009 345.1452,100.999 345.1352,100.991 C345.1282,100.985 345.1212,100.979 345.1142,100.984 C345.1182,100.984 345.1222,100.985 345.1272,100.985 C345.1222,100.983 345.1182,100.977 345.1142,100.98 C346.4702,101.184 347.8432,101.384 349.2262,101.572 C354.2332,102.248 359.3892,102.736 364.5612,102.453 C375.5522,101.858 384.5932,97.749 395.6752,97.855 C397.8752,97.876 400.0412,98.073 402.1822,98.362 C412.5012,99.747 422.2122,103.418 432.0452,101.734 C434.4342,101.321 436.4452,100.626 438.4672,99.937 C432.9252,92.296 426.9512,84.99 420.5752,78.058 C383.6312,79.603 346.6992,81.147 309.7772,82.692 C308.3842,82.75 306.9912,82.809 305.5972,82.867 C250.1282,85.189 194.6132,87.301 139.8532,91.045 C134.0032,91.444 128.1452,92.009 122.2792,92.009 L122.2692,92.009 C96.0792,96.009 69.8292,99.886 43.5362,103.199 C43.0702,103.867 42.6042,104.657 42.1442,105.33 C57.2632,104.476 72.2872,103.417 87.1552,101.861 C89.9292,101.57 92.7002,101.331 95.4622,101.009" id="Fill-86" fill="#DD9C34"></path>
                <path d="M95.4622,101.009 L164.6912,101.009 C163.8492,101.009 162.9952,101.313 162.1442,101.498 C169.1972,100.976 176.2622,100.475 183.3432,100.027 C194.5672,99.311 205.8302,98.73 217.1512,98.441 C226.9182,98.192 236.6792,98.155 246.4382,98.23 C256.1962,98.297 265.9522,98.475 275.7072,98.672 C283.5872,98.83 295.5212,97.809 305.8522,97.332 C312.3982,97.025 318.3022,96.936 322.1172,97.509 C329.6932,98.658 337.2932,100.009 344.8912,101.009 L345.1632,101.009 C345.1542,101.009 345.1452,100.999 345.1352,100.991 C345.1282,100.985 345.1212,100.979 345.1142,100.984 C345.1182,100.984 345.1222,100.985 345.1272,100.985 C345.1222,100.983 345.1182,100.977 345.1142,100.98 C346.4702,101.184 347.8432,101.384 349.2262,101.572 C354.2332,102.248 359.3892,102.736 364.5612,102.453 C375.5522,101.858 384.5932,97.749 395.6752,97.855 C397.8752,97.876 400.0412,98.073 402.1822,98.362 C412.5012,99.747 422.2122,103.418 432.0452,101.734 C434.4342,101.321 436.4452,100.626 438.4672,99.937 C432.9252,92.296 426.9512,84.99 420.5752,78.058 C383.6312,79.603 346.6992,81.147 309.7772,82.692 C308.3842,82.75 306.9912,82.809 305.5972,82.867 C250.1282,85.189 194.6132,87.301 139.8532,91.045 C134.0032,91.444 128.1452,92.009 122.2792,92.009 L122.2692,92.009 C96.0792,96.009 69.8292,99.886 43.5362,103.199 C43.0702,103.867 42.6042,104.657 42.1442,105.33 C57.2632,104.476 72.2872,103.417 87.1552,101.861 C89.9292,101.57 92.7002,101.331 95.4622,101.009" id="Fill-88" fill="#EBB55A"></path>
                <path d="M348.2197,24.1164 C342.8437,21.4964 337.3577,19.0684 331.7677,16.8444 C325.1297,17.5044 318.4927,18.1654 311.8517,18.8304 C294.6517,20.5474 277.4517,22.2624 260.2297,23.9794 C224.5167,27.5484 188.7797,31.1154 153.1577,34.8664 C139.2357,36.3294 125.2367,37.8134 110.9457,38.4064 C108.8147,39.7834 106.7117,41.1994 104.6277,42.6414 C116.4627,41.9744 128.2787,41.2534 140.0577,40.4394 C209.7407,35.6294 278.2257,27.7754 348.2197,24.1164" id="Fill-90" fill="#D3882B"></path>
                <path d="M186.3135,59.1154 C209.8065,59.1184 232.5085,58.4574 253.1575,55.5504 C274.1635,52.5854 288.8265,47.7404 309.2895,44.5844 C328.2485,41.6524 351.5465,40.3944 375.4805,39.6734 C372.4665,37.6854 369.4075,35.7614 366.3025,33.9064 C326.0975,36.1154 268.7875,39.0954 241.4445,46.3254 C235.7795,47.8224 230.7485,49.4414 223.5875,50.5824 C214.7495,51.9834 203.8495,52.3664 193.4485,52.7404 C159.9785,53.9394 126.4855,55.1144 92.9925,56.3134 C90.8015,56.3914 88.6085,56.4704 86.4145,56.5504 C85.1555,57.6094 83.9045,58.6784 82.6675,59.7624 C93.1565,59.1204 103.8615,58.8164 114.6635,58.7004 C118.3475,58.6604 122.0415,58.6424 125.7435,58.6414 C145.9895,58.6354 166.4345,59.1124 186.3135,59.1154" id="Fill-92" fill="#D3882B"></path>
                <path d="M236.4333,72.6754 C265.3523,71.4924 294.7873,70.2164 321.4363,66.4874 C335.7573,64.4824 348.9693,61.6814 363.2463,59.6374 C374.8293,57.9874 386.2253,56.8244 397.4843,56.0414 C396.3153,55.0644 395.1333,54.1014 393.9453,53.1454 C384.3703,53.1974 374.8153,53.3644 365.3083,53.8654 C327.3063,55.8704 308.7243,64.8004 275.5943,68.3604 C267.4903,69.2334 258.8033,69.7354 249.8153,70.0274 C222.9623,70.8974 193.4053,69.7384 168.5663,69.9964 C159.7063,70.0924 150.8453,70.0124 141.9853,70.2424 C115.2903,70.9334 97.1393,75.8814 71.6913,76.9854 C69.3703,77.0854 67.0243,77.1614 64.6843,77.2434 C63.8913,78.0974 63.0983,78.9524 62.3173,79.8194 C119.8883,77.4574 177.4623,75.0954 235.0253,72.7334 C235.4933,72.7144 235.9653,72.6944 236.4333,72.6754" id="Fill-94" fill="#D3882B"></path>
                <path d="M139.8535,91.0453 C194.6135,87.3013 250.1275,85.0673 305.5975,82.7453 C306.9875,82.6873 308.3765,82.6893 309.7665,82.6313 C346.6945,81.0863 383.6245,79.5723 420.5745,78.0273 C419.4885,76.8473 418.3965,75.6873 417.2885,74.5283 C412.8025,75.3573 408.2325,76.2483 403.4925,77.1773 C400.4165,77.7813 397.0115,78.0173 393.4745,78.0323 C391.1155,78.0423 388.6975,77.9573 386.2785,77.8213 C385.0685,77.7523 383.8585,77.6723 382.6545,77.5843 C383.8585,77.6723 385.0685,77.7543 386.2785,77.8223 C388.6975,77.9593 391.1155,78.0463 393.4745,78.0363 C397.0115,78.0213 400.4165,77.7893 403.4925,77.1843 C408.2325,76.2553 412.8025,75.3733 417.2885,74.5433 C417.2595,74.5133 417.2285,74.4833 417.1995,74.4533 C412.7435,75.2823 408.2025,76.1613 403.4925,77.0843 C395.2895,78.6963 384.7515,77.7103 375.5745,76.9713 C343.4185,74.3623 306.4135,76.3343 277.9965,82.1293 C275.6625,82.5993 273.2825,83.1203 270.5405,83.2833 C266.5295,83.5143 262.7225,82.9633 259.0065,82.5603 C239.2405,80.4523 209.3225,81.1413 181.8485,82.8003 C181.8385,82.8023 181.8295,82.8043 181.8195,82.8053 C209.3035,81.1453 239.2325,80.4573 259.0065,82.5673 C239.2325,80.4573 209.3035,81.2493 181.8195,82.9103 C181.8295,82.9083 181.8385,83.0093 181.8485,83.0093 L181.8405,83.0093 C181.8325,83.0093 181.8235,82.9083 181.8145,82.9093 C164.7935,83.9373 148.7115,85.2863 136.5695,86.6293 C122.5645,88.1833 108.9685,90.2683 94.3065,90.9013 C80.6375,91.4853 67.0555,90.7283 53.4625,90.2323 C52.2625,91.7223 51.0815,93.2203 49.9165,94.7393 C49.9145,94.7413 49.9125,94.7433 49.9115,94.7463 C59.1125,94.6743 68.3545,94.3623 77.7125,94.2713 C92.6765,94.1193 107.5035,93.0093 122.2645,92.0093 L122.2695,92.0093 L122.2795,92.0093 C128.1455,92.0093 134.0035,91.4433 139.8535,91.0453" id="Fill-96" fill="#D3882B"></path>
                <path d="M306.2292,8.3156 C306.1532,8.2946 306.0762,8.2746 305.9992,8.2536 C298.9022,6.3226 291.6792,4.6976 284.3382,3.4116 C261.9372,4.7626 236.8902,4.0426 214.9082,6.5216 C197.9582,8.4406 182.6842,12.3516 166.5042,15.2196 C161.3012,16.1446 156.0372,16.9506 150.7272,17.6636 C143.6022,20.5736 136.6462,23.8116 129.8792,27.3616 C153.9762,27.0816 177.5502,25.5826 198.0132,20.4266 C205.5372,18.5366 212.4092,16.1856 220.2052,14.4876 C222.4972,13.9886 224.8402,13.5566 227.2212,13.1736 C244.8972,10.3336 264.8132,10.4406 283.8852,9.7646 C291.2832,9.5026 298.8982,9.0706 306.2292,8.3156" id="Fill-100" fill="#D3882B"></path>
                <path d="M86.4993,131.1631 C124.5693,131.6521 165.2743,132.7411 198.0193,124.4911 C205.5433,122.6011 212.4123,120.2381 220.2083,118.5401 C239.5153,114.3381 262.2453,114.5531 283.8863,113.7851 C285.6143,113.7241 287.3563,113.6491 289.1013,113.5651 C304.1223,112.8701 319.5603,111.3801 331.2633,107.7381 C332.1893,107.4491 333.0923,107.0221 333.9693,106.6631 C334.2033,106.5681 334.4343,106.4781 334.6643,106.3971 C335.3103,106.1681 335.9413,106.0091 336.5573,106.0091 L336.5603,106.0091 C336.5623,106.0091 336.5653,105.8361 336.5683,105.8351 C372.4513,107.2481 408.4253,109.1251 443.7143,107.5401 C443.6953,107.5131 443.6763,107.4851 443.6573,107.4581 C443.6763,107.4571 443.6953,107.4561 443.7143,107.4551 L443.7143,107.4551 C443.6953,107.4561 443.6763,107.4561 443.6573,107.4571 C441.9803,104.9531 440.2553,102.4451 438.4893,100.0101 C436.4593,100.6931 434.4433,101.3611 432.0453,101.7751 C422.2123,103.4591 412.5013,99.7521 402.1823,98.3611 C400.0413,98.0731 397.8753,97.8761 395.6753,97.8541 C384.5933,97.7491 375.5513,101.8581 364.5613,102.4531 C359.3883,102.7361 354.2333,102.2481 349.2263,101.5721 C347.8483,101.3861 346.4793,101.1881 345.1273,100.9851 C345.1223,100.9851 345.1183,100.9841 345.1143,100.9831 C345.1213,100.9791 345.1283,100.9851 345.1353,100.9911 C345.1453,100.9991 345.1543,101.0091 345.1633,101.0091 L344.8913,101.0091 C337.2923,100.0091 329.6933,98.6581 322.1173,97.5091 C318.3023,96.9361 312.3983,97.0251 305.8523,97.3321 C295.5213,97.8161 283.5863,98.8461 275.7073,98.6871 C265.9523,98.4901 256.1963,98.3041 246.4383,98.2301 C236.6793,98.1551 226.9183,98.1921 217.1513,98.4411 C205.8303,98.7291 194.5673,99.3111 183.3433,100.0271 C176.2473,100.4801 169.1663,100.9861 162.0973,101.5091 C162.1133,101.5051 162.1283,101.5011 162.1443,101.4971 C162.9953,101.3131 163.8493,101.0091 164.6913,101.0091 L95.4623,101.0091 C92.6993,101.3311 89.9293,101.6311 87.1553,101.9211 C72.2873,103.4771 57.2623,104.5971 42.1443,105.4521 L42.1443,105.4521 C40.3353,108.0971 38.5813,110.7831 36.8763,113.5021 C44.8653,113.0791 52.8313,112.5761 60.7763,112.0091 L120.6613,112.0091 C128.5873,111.3601 136.5243,110.7361 144.4683,110.1381 C148.5723,109.8301 152.6773,109.5291 156.7853,109.2371 C159.3963,109.0521 162.0093,108.8711 164.6223,108.6931 C203.5773,106.0411 242.7303,104.2611 282.0003,104.3121 C289.7263,104.3211 297.4563,104.4021 305.1893,104.5601 C306.1713,104.5801 307.1533,104.6601 308.1343,104.6831 C308.0553,104.6981 307.9703,104.7091 307.8903,104.7241 C280.9483,109.7601 245.0473,107.1101 214.9083,110.5091 C197.9573,112.4271 182.6843,116.3651 166.5043,119.2341 C123.4203,126.8921 76.4893,126.8431 29.2073,126.5961 C29.2063,126.5991 29.2043,126.6031 29.2023,126.6061 C28.3943,128.0961 27.6063,129.5981 26.8283,131.1061 C26.8183,131.1251 26.8083,131.1441 26.7983,131.1621 C46.6953,130.9191 66.6073,130.9121 86.4993,131.1631" id="Fill-102" fill="#D3882B"></path>
                <path d="M140.0814,144.525 C218.0584,139.142 294.5164,129.91 373.2854,127.051 C378.8324,126.849 384.3964,126.664 389.9414,126.438 C389.9704,126.432 390.0004,126.426 390.0294,126.42 C389.9914,126.421 389.9524,126.423 389.9144,126.424 C384.3784,126.649 378.8234,126.825 373.2854,127.027 C378.8604,126.824 384.4534,126.432 390.0264,126.205 C390.0274,126.206 390.0284,126.21 390.0294,126.21 C396.5984,125.942 403.1404,125.514 409.5884,124.954 C415.5174,124.439 421.3274,123.868 427.0734,123.102 C428.9784,122.848 430.8784,122.575 432.7704,122.271 C435.1134,121.895 437.4504,121.48 439.7804,121.009 C437.6994,121.43 435.6134,121.806 433.5224,122.157 C433.4294,122.173 433.3374,122.19 433.2434,122.205 C433.9344,122.099 434.6244,121.993 435.3144,121.887 C436.8054,121.656 438.2944,121.426 439.7804,121.199 C439.7854,121.198 439.7914,121.009 439.7974,121.009 C441.1204,121.009 442.4414,120.795 443.7614,120.591 C446.2964,120.201 448.8164,119.909 451.3354,119.521 C449.4564,116.319 447.5094,113.211 445.4904,110.105 C445.4804,110.106 445.4704,110.107 445.4604,110.108 C423.0994,112.093 400.7834,114.178 378.4994,116.32 C374.2094,116.732 369.9124,117.13 365.6264,117.547 C347.6784,119.284 329.7764,121.074 311.8514,122.868 C294.6524,124.586 277.4524,126.301 260.2304,128.019 C224.5164,131.587 188.7804,135.156 153.1574,138.907 C137.8154,140.519 122.3834,142.169 106.5664,142.61 C86.5794,143.166 66.4104,141.765 46.5594,142.917 C37.6044,143.435 28.8134,144.468 20.0294,145.445 C19.2354,147.27 18.4634,149.107 17.7134,150.955 C24.0234,150.657 28.7154,150.428 31.2154,150.313 C53.9474,149.269 76.6974,148.226 99.3714,146.981 C76.6974,148.226 53.9474,149.27 31.2154,150.313 C28.7154,150.428 24.0234,150.657 17.7134,150.955 C17.6994,150.989 17.6854,151.022 17.6714,151.056 C24.0294,150.751 28.7534,150.517 31.2634,150.402 C67.6344,148.732 104.0054,147.019 140.0814,144.525" id="Path" fill="#D3882B"></path>
                <path d="M193.479,165.8928 C217.988,163.9588 242.978,162.0088 264.985,157.0088 L266.833,157.0088 C280.154,155.0088 291.686,151.4308 305.786,149.0618 C306.939,148.8678 308.103,148.7448 309.292,148.5618 C347.703,142.6218 403.961,143.5758 447.201,141.9458 C452.36,141.7498 457.525,141.5828 462.693,141.4418 C461.859,139.6168 461.003,137.8048 460.125,136.0048 C449.668,135.2378 439.187,134.5208 427.962,134.5698 C410.272,134.6398 388.312,136.4998 370.472,137.4798 C358.532,138.1408 344.825,138.8748 330.714,139.7728 C297.187,141.9078 261.367,144.9788 241.442,150.2498 C235.782,151.7398 230.752,153.4198 223.583,154.5598 C214.752,155.9598 203.853,156.2448 193.453,156.6148 C188.522,156.7948 183.593,157.0088 178.663,157.0088 L194.489,157.0088 C158.509,161.0088 121.579,163.0728 84.533,163.5228 C68.217,163.7148 51.697,163.6578 35.789,165.2218 C27.403,166.0428 19.397,167.3308 11.347,168.5678 C11.341,168.5868 11.334,168.6068 11.328,168.6258 C10.697,170.6138 10.088,172.6128 9.508,174.6228 C9.504,174.6338 9.5,174.6458 9.497,174.6578 C44.412,169.8428 83.562,171.8848 120.094,170.6718 C144.795,169.8558 169.118,167.8018 193.479,165.8928" id="Fill-110" fill="#D3882B"></path>
                <path d="M160.8506,187.0792 C169.8996,187.0922 178.9486,187.1552 187.9956,187.2692 C199.8776,187.4222 212.0126,187.6352 224.0806,187.6062 C250.6796,187.5412 276.9546,186.2962 299.4796,180.6212 C307.0036,178.7312 313.8546,176.3802 321.6496,174.6822 C340.9566,170.4802 363.6786,170.7002 385.3196,169.9332 C385.8436,169.9142 386.3696,169.8942 386.8956,169.8732 C408.0956,169.0382 430.8086,166.4312 443.1466,159.1382 C444.2396,158.4962 445.2356,158.0092 446.2286,157.0092 L469.1516,157.0092 C468.9566,156.4892 468.7586,155.9712 468.5606,155.4532 C461.0696,155.9222 453.5696,156.3572 446.0526,156.6252 C438.8546,156.8832 431.6406,157.0092 424.4216,157.0092 L423.8806,157.0092 C423.8776,157.0092 423.8736,156.8912 423.8706,156.8922 C409.4576,156.9702 395.0286,157.0092 380.6726,157.0092 L423.1916,157.0092 C416.3406,159.5092 408.4676,161.1042 399.9536,162.1532 C395.6966,162.6782 391.2786,163.0662 386.7496,163.3622 C383.9176,163.5482 381.0426,163.6972 378.1356,163.8222 C357.7836,164.6962 335.8496,164.3542 316.3316,166.5552 C299.3816,168.4732 284.1086,172.4652 267.9286,175.3342 C196.6806,187.9982 114.9156,179.6252 38.4416,184.0922 C38.3776,184.0952 38.3136,184.0982 38.2496,184.1022 C38.1196,184.1102 37.9896,184.1152 37.8596,184.1232 C30.4686,184.5612 23.3646,185.1312 16.0876,185.8422 C12.8756,186.1562 9.6086,186.4982 6.3146,186.8442 C6.3136,186.8502 6.3116,186.8552 6.3106,186.8602 C5.9236,188.5222 5.5616,190.1942 5.2086,191.8692 C5.2086,191.8712 5.2076,191.8732 5.2066,191.8752 L5.2066,191.8762 C56.7046,188.6162 108.7756,187.0052 160.8506,187.0792" id="Fill-116" fill="#D3882B"></path>
                <path d="M279.2769,312.463 C258.7009,313.864 238.0649,315.475 217.1489,315.687 C184.8789,316.003 153.9389,315.974 121.6699,317.164 C118.4319,317.284 115.2219,317.403 111.9819,317.523 C111.9579,317.523 111.9339,317.524 111.9099,317.525 C110.9729,317.758 110.0519,317.982 109.1479,318.2 C56.9279,330.784 60.1109,319.585 20.1979,338.958 C21.0129,340.822 21.8499,342.673 22.7109,344.512 C42.1029,343.317 61.3509,341.597 80.3229,340.009 L149.5529,340.009 C127.2769,345.009 101.7829,346.878 76.8569,348.845 C60.1269,350.156 43.3829,351.424 26.5359,352.359 C28.8299,356.834 31.2729,361.22 33.8319,365.528 C74.3719,365.565 114.2949,364.673 151.3659,358.083 C163.7269,355.891 175.5649,353.174 188.0199,351.155 C191.8669,350.526 195.7689,349.959 199.7689,349.507 C234.6309,345.575 277.2109,349.732 304.7049,340.905 C305.5919,340.62 306.4639,340.322 307.3179,340.009 L330.0249,340.009 C328.9139,340.009 327.8039,341.371 326.5799,342.09 C313.9349,349.564 290.3909,351.905 268.7489,352.672 C247.1079,353.44 224.3789,353.181 205.0719,357.383 C197.2769,359.081 190.4099,361.412 182.8869,363.302 C150.1419,371.553 109.4429,370.431 71.3719,369.941 C59.7209,369.794 48.0639,369.743 36.4069,369.764 C38.8469,373.687 41.3899,377.538 44.0439,381.307 C59.7879,381.091 75.6639,381.865 91.4269,381.426 C107.2449,380.985 122.6769,379.334 138.0179,377.722 C173.6409,373.971 209.3779,370.402 245.0909,366.833 C254.3369,365.911 263.5679,364.989 272.8039,364.067 L272.8049,364.067 L272.8039,364.067 C296.5639,359.617 320.3789,355.489 344.2499,351.731 C348.3489,351.084 352.1949,350.46 355.8109,349.857 C358.2219,349.455 360.5319,349.063 362.7459,348.68 C364.9599,348.297 367.0789,347.923 369.1109,347.559 C370.1269,347.377 371.1209,347.197 372.0939,347.019 C384.7399,344.708 393.8279,342.774 401.2939,341.151 C401.8679,341.026 402.4329,340.903 402.9889,340.782 C404.1009,340.539 405.1789,340.304 406.2279,340.076 C406.7529,339.962 407.2709,339.849 407.7819,339.738 C410.8529,339.074 413.7049,338.472 416.5299,337.924 C417.0009,337.833 417.4709,337.743 417.9409,337.655 C419.3509,337.39 420.7629,337.139 422.1989,336.901 C423.1569,336.742 424.1249,336.588 425.1119,336.44 C426.0989,336.292 427.1029,336.149 428.1329,336.012 C429.1629,335.874 430.2189,335.742 431.3059,335.614 C433.4809,335.359 435.7849,335.123 438.2739,334.905 C440.1409,334.742 442.1119,334.588 444.2109,334.443 C446.3099,334.299 448.5379,334.163 450.9169,334.036 C454.0889,333.866 457.5319,333.71 461.3009,333.567 C463.0139,333.503 464.8039,333.441 466.6579,333.381 C467.5879,331.098 468.4889,328.801 469.3519,326.485 C461.0919,326.129 452.8399,325.817 444.6039,325.648 C382.7389,324.381 321.1239,329.009 260.0759,333.009 L160.1859,333.009 C202.1089,330.009 244.0089,326.799 285.9089,323.595 C309.3179,321.801 332.8179,320.106 356.5659,319.501 C376.0999,319.003 395.6109,319.388 415.1219,319.781 C427.9939,320.04 451.6969,317.12 461.5309,318.597 C464.8889,319.107 468.2599,319.617 471.6239,320.126 C473.5669,314.419 475.3059,308.617 476.8259,302.727 C467.0079,303.107 458.4759,303.487 449.3949,303.867 C392.5389,306.246 335.4079,308.625 279.2769,312.463" id="Fill-123" fill="#DD9C34"></path>
                <path d="M111.909,317.525 C110.972,317.757 110.052,317.982 109.148,318.2 C110.052,317.982 110.972,317.758 111.91,317.525 L111.909,317.525 Z" id="Fill-165"></path>
                <path d="M124.9429,383.2962 C99.6179,385.0472 74.1479,386.3912 48.6339,387.6142 C51.7959,391.8122 55.0909,395.9032 58.5139,399.8822 C64.9589,399.6242 71.4139,399.3852 77.8529,399.1552 C91.0929,398.6812 104.3249,398.2092 117.5629,397.7372 C148.9499,390.0562 180.4489,382.8472 212.0529,376.1782 C183.0949,378.7312 154.1249,381.2822 124.9429,383.2962" id="Fill-168" fill="#DD9C34"></path>
                <path d="M124.943,383.296 C99.618,385.047 74.148,386.391 48.634,387.614 C51.796,391.812 55.091,395.903 58.513,399.882 C64.959,399.624 71.414,399.386 77.853,399.155 C91.093,398.681 104.325,398.209 117.563,397.737 C148.95,390.056 180.448,382.847 212.053,376.178 C183.095,378.731 154.125,381.282 124.943,383.296" id="Fill-170"></path>
                <path d="M102.1936,401.5346 C90.3196,401.6276 78.5506,401.9316 67.0436,402.6476 C65.1106,402.7686 63.2096,402.9146 61.3026,403.0566 C63.4806,405.5016 65.7046,407.9046 67.9786,410.2596 C68.8366,410.0396 69.7286,409.8106 70.6786,409.5636 C81.1696,406.8366 91.6756,404.1626 102.1936,401.5346" id="Fill-172" fill="#DD9C34"></path>
                <path d="M102.194,401.535 C90.32,401.628 78.55,401.931 67.044,402.647 C65.11,402.768 63.209,402.915 61.302,403.056 C63.48,405.502 65.704,407.904 67.978,410.259 C68.836,410.04 69.728,409.811 70.678,409.564 C81.17,406.836 91.676,404.162 102.194,401.535" id="Fill-174"></path>
                <path d="M374.4604,293.908 C304.2854,296.788 234.1144,299.667 163.9334,302.547 L163.8984,302.548 C148.9284,307.261 133.9054,311.798 118.7164,315.782 C134.1544,314.386 148.7184,311.944 164.5824,311.244 C187.6964,310.218 210.5844,313.039 233.7204,312.05 C248.3824,311.417 261.9794,309.306 275.9834,307.752 C307.7314,304.241 366.4004,300.327 398.4204,303.742 C402.1374,304.145 405.9434,304.701 409.9554,304.471 C412.6974,304.308 415.0764,303.8 417.4104,303.329 C435.3724,299.667 456.7634,297.553 478.1924,297.145 C479.1594,292.992 480.0184,288.797 480.7684,284.565 C473.9604,285.654 467.7504,286.73 461.0924,287.662 C434.0124,291.452 403.8294,292.709 374.4604,293.908" id="Fill-176" fill="#DD9C34"></path>
                <path d="M374.46,293.908 C304.286,296.788 234.114,299.667 163.933,302.547 L163.898,302.548 C148.928,307.261 133.905,311.798 118.717,315.782 C134.154,314.386 148.718,311.944 164.582,311.244 C187.696,310.218 210.584,313.039 233.721,312.05 C248.383,311.417 261.979,309.306 275.984,307.752 C307.731,304.241 366.401,300.327 398.421,303.742 C402.137,304.145 405.944,304.701 409.955,304.471 C412.697,304.308 415.076,303.8 417.411,303.329 C435.372,299.667 456.763,297.553 478.193,297.145 C479.16,292.992 480.019,288.797 480.769,284.565 C473.96,285.654 467.75,286.73 461.093,287.662 C434.013,291.452 403.83,292.709 374.46,293.908" id="Fill-178"></path>
                <path d="M461.7603,246.8302 C461.7323,246.8322 461.7053,246.8342 461.6773,246.8362 C438.2723,253.3722 412.1363,255.0552 388.0913,259.0062 C377.6163,260.7242 367.0043,262.4002 356.4853,261.5162 C349.6763,260.9522 342.9613,259.2992 336.0863,259.3902 C308.9453,259.7752 275.1203,268.7882 246.6703,276.9642 C275.4073,275.9372 304.1453,274.9142 332.8623,273.8852 C343.2643,273.5112 354.1633,273.0982 363.0013,271.6982 C370.1623,270.5562 375.1933,268.8772 380.8583,267.3802 C403.5813,261.3722 446.9883,258.2222 484.0843,256.0572 C484.2853,252.5462 484.4063,249.0152 484.4563,245.4652 C481.3143,245.6352 478.1773,245.8182 475.0403,246.0042 C473.9973,246.0652 472.9483,246.1272 471.8953,246.1912 C468.5153,246.3962 465.1363,246.6082 461.7603,246.8302" id="Fill-184" fill="#DD9C34"></path>
                <path d="M461.76,246.83 C461.733,246.832 461.705,246.834 461.678,246.836 C438.272,253.372 412.136,255.056 388.091,259.006 C377.616,260.724 367.004,262.4 356.485,261.517 C349.676,260.952 342.961,259.299 336.086,259.39 C308.945,259.775 275.12,268.788 246.67,276.964 C275.407,275.937 304.145,274.914 332.863,273.885 C343.264,273.511 354.164,273.098 363.002,271.698 C370.163,270.556 375.193,268.877 380.858,267.38 C403.582,261.372 446.988,258.223 484.084,256.057 C484.285,252.546 484.406,249.015 484.456,245.466 C481.314,245.636 478.177,245.818 475.04,246.004 C473.997,246.065 472.949,246.128 471.895,246.191 C468.515,246.396 465.136,246.608 461.76,246.83" id="Fill-186"></path>
                <path d="M473.6143,246.0854 C473.3423,246.1014 473.0703,246.1174 472.7993,246.1334 C473.0713,246.1174 473.3423,246.1014 473.6143,246.0854" id="Fill-188" fill="#DD9C34"></path>
                <path d="M473.614,246.085 C473.343,246.102 473.071,246.117 472.799,246.134 C473.072,246.118 473.342,246.102 473.614,246.085" id="Fill-190"></path>
                <path d="M448.7095,265.7591 C428.2465,268.9151 413.5885,273.7601 392.5815,276.7251 C372.0885,279.6111 349.5745,280.2841 326.2735,280.2931 C322.9975,280.2941 319.7025,280.2741 316.3985,280.2461 C299.5575,280.1401 282.4205,279.8191 265.4015,279.8211 C255.2215,279.8231 245.0915,279.7881 235.1085,280.1531 C235.0015,280.1571 234.8965,280.0091 234.7895,280.0091 L234.7885,280.0091 C234.7195,280.0091 234.6495,280.2631 234.5805,280.3061 C234.2305,280.5221 233.8815,280.6621 233.5335,280.6891 C233.2215,280.7131 232.9095,280.7581 232.6005,280.8481 C213.1425,286.4931 193.8805,292.8991 174.5755,299.0661 C174.6595,299.0641 174.7435,299.0721 174.8275,299.0711 C187.0175,298.8371 199.1945,298.6311 211.1055,298.1151 C236.5535,297.0121 254.7045,292.0831 281.3995,291.3921 C290.2595,291.1621 299.1205,291.2491 307.9805,291.1531 C341.1335,290.8081 382.6935,292.9821 415.0085,289.4991 C440.7945,286.7281 457.7705,280.6901 481.9465,277.2011 C482.6665,272.2571 483.2365,267.2661 483.6535,262.2291 C472.6615,262.9211 462.2075,263.8591 452.7165,265.1731 C451.3605,265.3601 450.0245,265.5561 448.7095,265.7591" id="Fill-193" fill="#DD9C34"></path>
                <path d="M448.709,265.759 C428.246,268.915 413.589,273.761 392.582,276.725 C372.089,279.611 349.575,280.284 326.273,280.293 C322.998,280.294 319.702,280.274 316.399,280.246 C299.557,280.14 282.42,279.819 265.401,279.821 C255.222,279.823 245.092,279.788 235.108,280.153 C235.001,280.157 234.896,280.009 234.79,280.009 L234.788,280.009 C234.719,280.009 234.65,280.263 234.581,280.306 C234.23,280.522 233.881,280.662 233.534,280.689 C233.221,280.713 232.91,280.758 232.6,280.848 C213.142,286.493 193.881,292.899 174.575,299.066 C174.659,299.064 174.743,299.073 174.827,299.071 C187.017,298.837 199.195,298.631 211.105,298.115 C236.553,297.012 254.705,292.083 281.399,291.392 C290.26,291.162 299.12,291.249 307.981,291.153 C341.134,290.808 382.694,292.982 415.008,289.499 C440.795,286.729 457.77,280.69 481.946,277.202 C482.666,272.257 483.237,267.266 483.653,262.229 C472.661,262.921 462.208,263.859 452.717,265.173 C451.361,265.36 450.025,265.556 448.709,265.759" id="Fill-195"></path>
                <path d="M484.4563,245.4634 C484.4723,244.3124 484.5003,243.1644 484.5003,242.0094 C484.5003,240.2354 484.4703,238.4684 484.4333,236.7034 C473.3763,237.7944 462.3233,238.8924 451.2663,239.9994 C434.0663,241.7164 416.8663,243.4334 399.6443,245.1514 C363.9303,248.7194 328.1943,252.2894 292.5713,256.0404 C277.2293,257.6524 261.7973,259.3024 245.9803,259.7434 C225.9933,260.3004 205.8253,258.8994 185.9743,260.0504 C165.2393,261.2494 145.3883,265.2124 124.4723,264.8384 C113.4593,264.6364 102.8993,263.2354 91.9993,262.6214 C86.4363,262.3084 80.8783,262.2064 75.3063,262.2074 C69.7773,262.2074 64.2353,262.3104 58.6603,262.4104 C39.3463,262.7594 20.0863,263.1164 0.9563,263.4594 C1.2123,266.3804 1.5093,269.2904 1.8683,272.1804 C6.9053,272.3044 12.4723,272.3644 18.4373,272.3684 C71.8433,272.4094 156.7393,268.0994 170.9233,267.4474 C207.2933,265.7784 243.5423,264.1084 279.6183,261.6144 C340.6413,257.4024 400.6783,250.8574 461.6773,246.8354 C461.6853,246.8334 461.6923,246.8324 461.6993,246.8304 C464.7203,246.6314 467.7463,246.4434 470.7723,246.2584 C471.1473,246.2354 471.5203,246.2134 471.8953,246.1904 C472.9483,246.1274 473.9973,246.0654 475.0403,246.0044 C475.6293,245.9694 476.2153,245.9344 476.7993,245.9004 C479.3513,245.7524 481.9013,245.6014 484.4563,245.4634" id="Fill-197" fill="#D3882B"></path>
                <path d="M363.0015,271.698 C354.1635,273.098 343.2635,273.511 332.8625,273.885 C304.1445,274.914 275.4075,275.937 246.6705,276.964 C241.9145,277.134 237.1625,277.303 232.4065,277.473 C209.3375,278.298 186.0195,279.133 163.9025,281.1 C148.0845,282.51 132.5845,284.506 116.0195,284.813 C111.1415,284.904 106.3525,284.932 101.6265,284.915 C73.2725,284.809 47.1745,283.043 17.5335,283.191 C12.9635,283.214 8.4025,283.288 3.6435,283.415 C3.8055,284.357 4.2505,285.296 4.2505,286.234 L4.2505,286.235 C4.2505,286.236 5.1035,286.224 5.5755,286.226 C23.0015,286.318 39.2695,287.783 56.1205,288.65 C68.8245,289.308 81.9995,289.618 95.3405,289.589 C112.9805,289.548 130.8435,288.907 148.1405,287.7 C152.7215,287.384 157.2645,287.035 161.7495,286.636 C163.9205,286.442 166.0705,286.234 168.2195,286.022 C185.9915,284.292 203.1395,282.12 221.5985,280.966 C225.9595,280.694 230.3625,280.489 234.7905,280.325 C234.8965,280.321 235.0015,280.315 235.1085,280.311 C245.0915,279.945 255.2215,279.823 265.4015,279.821 C282.4205,279.819 299.5575,280.14 316.3985,280.246 C319.6965,280.267 323.0035,280.294 326.2735,280.293 C349.5755,280.284 372.0885,279.611 392.5815,276.725 C413.5885,273.761 428.2465,268.915 448.7095,265.759 C450.0245,265.556 451.3605,265.36 452.7165,265.173 C462.2075,263.859 472.6615,262.921 483.6535,262.229 L483.6535,262.229 C483.8225,260.179 483.9665,258.122 484.0845,256.057 C446.9885,258.223 403.5815,261.372 380.8585,267.38 C375.1935,268.877 370.1625,270.556 363.0015,271.698 L363.0015,271.698 Z" id="Fill-200" fill="#D3882B"></path>
                <path d="M80.7319,304.2505 C76.8149,304.3815 72.9769,304.4235 69.2039,304.3965 C47.2259,304.2435 27.4679,301.7875 7.2929,301.1825 C7.2929,301.1845 7.2939,301.1865 7.2939,301.1895 C7.7439,302.9795 8.2159,304.7615 8.7049,306.5365 C8.7059,306.5375 8.7059,306.5395 8.7069,306.5415 C14.6369,306.3935 20.5729,306.3515 26.5159,306.3675 C33.5709,306.3855 40.6349,306.4645 47.7059,306.4785 C50.0619,306.4835 52.4189,306.4815 54.7759,306.4665 C70.8879,306.3615 86.9609,305.7085 103.0279,305.0465 C123.3269,304.2135 143.5979,303.3805 163.8979,302.5475 L163.9329,302.5465 C234.1139,299.6675 304.2859,296.7875 374.4609,293.9075 C403.8299,292.7085 434.0129,291.4515 461.0929,287.6625 C467.7499,286.7305 473.9599,285.6545 480.7689,284.5655 C480.9299,284.5395 481.0879,284.5135 481.2499,284.4875 L481.2499,284.4865 C481.0879,284.5125 480.9299,284.5385 480.7689,284.5645 C473.9599,285.6535 467.7449,286.7295 461.0849,287.6625 C438.0829,290.8815 412.8369,292.2715 387.7559,293.3525 C383.3099,293.5445 378.8679,293.7275 374.4449,293.9075 C403.8139,292.7085 433.7719,291.4515 460.8519,287.6625 C467.6689,286.7075 474.2339,285.6025 480.7839,284.4865 C481.2109,282.0725 481.5909,279.6425 481.9459,277.2045 C457.7699,280.6925 440.7949,286.7335 415.0079,289.5045 C382.6939,292.9875 341.1339,290.8185 307.9809,291.1645 C299.1199,291.2605 290.2599,291.1835 281.3989,291.4135 C254.7049,292.1045 236.5529,297.0545 211.1049,298.1585 C199.1129,298.6775 186.8499,298.9255 174.5759,299.1615 C156.9069,299.5005 139.2159,299.8145 122.2739,300.8735 C108.1569,301.7555 95.0079,303.7705 80.7319,304.2505" id="Fill-204" fill="#D3882B"></path>
                <path d="M409.9551,304.4711 C405.9441,304.7011 402.1371,304.1451 398.4211,303.7421 C366.4011,300.3261 307.7311,304.2411 275.9841,307.7521 C261.9791,309.3061 248.3821,311.4171 233.7211,312.0501 C210.5841,313.0391 187.6961,310.2181 164.5821,311.2441 C148.7181,311.9441 134.1541,314.3861 118.7161,315.7821 C118.2771,315.8221 117.8431,315.8691 117.4021,315.9071 C108.7811,316.6491 100.6261,316.9201 92.6821,316.9471 C76.7721,317.0031 61.7041,316.0851 45.4281,316.0251 C43.8751,316.0191 42.3121,316.0201 40.7351,316.0321 C31.2881,316.0991 21.6121,316.6491 11.9851,317.4171 C12.5691,319.2011 13.1731,320.9761 13.7981,322.7421 C13.8011,322.7511 13.8041,322.7601 13.8071,322.7681 C32.9341,320.4701 53.7251,319.6761 74.1511,318.9201 C86.7521,318.4551 99.3031,317.9901 111.9091,317.5251 L111.9101,317.5251 L111.9821,317.5221 C115.2221,317.4031 118.4321,317.2831 121.6701,317.1641 C153.9391,315.9741 184.8791,316.0031 217.1481,315.6871 C238.0641,315.4751 258.7011,313.8641 279.2771,312.4631 C335.4081,308.6251 392.5381,306.2461 449.3951,303.8671 C458.4761,303.4871 467.0071,303.1071 476.8261,302.7271 C476.9691,302.7211 477.1061,302.7161 477.2501,302.7101 L477.2501,302.7081 C477.1061,302.7131 476.9691,302.7191 476.8271,302.7241 C474.4381,302.8171 472.1221,302.9091 469.8601,303.0021 C466.8991,303.1231 464.0251,303.2441 461.1751,303.3651 C457.2511,303.5321 453.3721,303.6991 449.3911,303.8651 C403.5801,305.7821 357.5981,307.7131 312.0961,310.3931 C301.1251,311.0401 290.1741,311.7171 279.2691,312.4621 C335.4011,308.6241 392.3251,306.2441 449.1811,303.8651 C458.3961,303.4801 467.6141,303.0941 476.8311,302.7081 C477.3071,300.8621 477.7591,299.0071 478.1931,297.1451 C456.7631,297.5521 435.3721,299.6661 417.4111,303.3291 C415.0761,303.7991 412.6971,304.3081 409.9551,304.4711" id="Fill-206" fill="#D3882B"></path>
                <path d="M337.4402,241.6008 C344.9632,239.7108 351.8302,237.3608 359.6252,235.6628 C378.9322,231.4608 401.6612,231.6808 423.3022,230.9138 C423.9792,230.8898 424.6572,230.8638 425.3362,230.8368 C446.4042,229.9898 468.8842,227.4898 481.1332,220.2498 C481.1642,220.2308 481.1932,220.2148 481.2242,220.1968 C481.9802,219.7498 482.6922,219.2818 483.3892,218.8148 C483.3642,218.5478 483.3442,218.0088 483.3182,218.0088 L483.3172,218.0088 L483.2502,218.0088 L461.8712,218.0088 C434.5192,228.0088 390.3082,223.6078 354.3222,227.6658 C337.3722,229.5848 322.0982,233.5108 305.9182,236.3798 C271.4612,242.5048 234.5402,243.6968 196.9492,243.8028 C176.6042,243.8588 156.0652,243.5998 135.6072,243.6298 C132.1482,243.6348 128.6922,243.6468 125.2402,243.6708 C122.4832,243.6908 119.7292,243.7198 116.9782,243.7558 C95.7262,244.0318 74.6552,244.8268 54.0832,246.8378 C42.5772,247.9618 30.3952,249.4358 18.6332,250.1388 C18.2962,250.1588 17.9542,250.1868 17.6182,250.2058 C13.7892,250.4198 10.0152,250.5378 6.3222,250.5388 C6.1112,250.5388 5.8942,250.7798 5.6842,250.7788 C5.6252,250.7788 5.5692,251.0088 5.5112,251.0088 L5.4592,251.0088 C4.9182,251.0088 4.3802,250.7648 3.8422,250.7558 C3.7082,250.7528 3.5742,250.6348 3.4412,250.6308 C2.8772,250.6178 2.3102,250.5448 1.7222,250.5248 C1.6932,250.5238 1.6632,250.4938 1.6342,250.4928 C1.1872,250.4778 0.7302,250.4318 0.2502,250.4128 L0.2502,250.4158 L0.2502,250.4248 C0.6852,250.4398 1.0982,250.4538 1.5052,250.4668 C1.0572,250.4528 0.6082,250.4418 0.1612,250.4248 C0.2222,252.2188 0.2982,254.0098 0.3992,255.7948 C0.3512,255.7968 0.2982,255.8008 0.2502,255.8028 L0.2502,255.8208 C3.2502,255.6738 6.9482,255.4258 10.2712,255.1668 C72.4702,250.3488 135.6332,247.9688 198.8282,248.0598 C207.8592,248.0728 216.8922,248.1358 225.9252,248.2498 C263.9962,248.7388 304.6952,249.8518 337.4402,241.6008" id="Fill-208" fill="#D3882B"></path>
                <path d="M46.1962,235.628 C81.4342,230.581 121.1052,232.791 158.0872,231.563 C181.6672,230.784 204.9012,229.04 228.1542,227.218 C229.2592,227.132 230.3652,227.068 231.4712,226.981 C232.7112,226.883 233.9542,226.796 235.1982,226.698 C240.7802,226.255 246.3772,225.8 251.9532,225.301 C264.7662,224.156 277.4572,222.79 289.5122,220.807 C294.4772,219.987 299.3422,219.009 304.0592,218.009 L234.8762,218.009 C232.8102,218.009 230.7292,218.43 228.6572,218.64 C227.3942,218.77 226.1252,218.886 224.8602,219.012 C198.8592,221.597 172.4032,223.282 145.7882,224.103 C144.1612,224.153 142.5342,224.212 140.9062,224.256 C139.0872,224.306 137.2662,224.346 135.4472,224.39 C131.1412,224.492 126.8342,224.581 122.5232,224.634 C106.2072,224.826 89.6872,224.704 73.7802,226.267 C71.5582,226.485 69.3722,226.745 67.1982,227.018 C66.9942,227.044 66.7882,227.067 66.5842,227.093 C66.4602,227.109 66.3382,227.127 66.2142,227.143 C53.9682,228.718 42.2762,230.981 29.7222,232.2 C24.0432,232.753 17.9622,233.009 12.0532,233.009 L11.9712,233.009 C11.7722,233.009 11.5742,232.979 11.3752,232.976 C10.2782,232.958 9.1892,232.916 8.1092,232.872 C7.5312,232.848 6.9582,232.814 6.3872,232.782 C5.7592,232.748 5.1372,232.884 4.5152,232.841 C4.4712,232.838 4.4282,233.009 4.3832,233.009 L4.4052,233.009 C4.4532,233.009 4.5052,232.835 4.5532,232.838 C4.4992,232.834 4.4412,232.739 4.3872,232.736 C4.3772,232.735 4.3672,232.689 4.3582,232.688 C3.0922,232.598 1.8462,232.459 0.6132,232.326 C0.5082,232.312 0.4102,232.286 0.3182,232.272 C0.2962,232.268 0.2702,232.254 0.2502,232.251 L0.2502,232.254 L0.2502,232.268 C0.2712,232.271 0.2982,232.274 0.3192,232.277 C0.2842,232.273 0.2472,232.271 0.2112,232.268 C0.1222,234.519 0.0652,236.6 0.0372,238.867 C2.2832,239.049 4.5722,239.009 6.9092,239.009 L6.9372,239.009 C19.0412,240.009 32.3282,237.606 46.1962,235.628" id="Fill-210" fill="#D3882B"></path>
                <path d="M260.0754,333.009 C321.1244,329.009 382.7394,324.381 444.6034,325.648 C452.8454,325.817 461.1044,326.105 469.3694,326.436 C470.1454,324.351 470.8984,322.256 471.6174,320.145 C468.2554,319.638 464.8864,319.131 461.5314,318.622 C451.6964,317.145 427.9934,320.09 415.1214,319.831 C395.6104,319.438 376.0994,319.102 356.5654,319.601 C332.8174,320.205 309.3174,321.801 285.9084,323.595 C244.0084,326.799 202.1084,330.009 160.1854,333.009 L260.0754,333.009 Z" id="Fill-222" fill="#D3882B"></path>
                <path d="M350.4873,356.4332 C332.5393,358.1702 314.6373,359.9252 296.7123,361.7192 C288.7463,362.5142 280.7723,363.2912 272.8033,364.0862 C263.5673,365.0082 254.3363,365.9202 245.0913,366.8422 C209.3773,370.4112 173.6413,373.9752 138.0183,377.7272 C122.6763,379.3392 107.2443,380.9862 91.4273,381.4282 C75.6643,381.8662 59.7883,381.0922 44.0443,381.3072 C45.5413,383.4352 47.0703,385.5382 48.6343,387.6142 C74.1473,386.3912 99.6183,385.0472 124.9433,383.2962 C154.1253,381.2822 183.0943,378.7312 212.0523,376.1782 C260.4713,371.9092 308.8563,367.6342 358.1463,365.8442 C370.2933,365.4032 382.5303,365.1062 394.4493,364.0702 C406.1653,363.0532 417.4273,361.3262 428.6223,359.5992 C437.9693,358.1612 447.1863,356.7502 456.3503,355.3202 C456.3693,355.3172 456.3873,355.3142 456.4063,355.3112 C456.4153,355.2942 456.4243,355.2782 456.4333,355.2612 C457.9823,352.3372 459.4813,349.3832 460.9133,346.3902 C460.6503,346.4122 460.3823,346.4332 460.1213,346.4552 C423.4783,349.6122 386.9263,352.8832 350.4873,356.4332" id="Fill-224" fill="#D3882B"></path>
                <path d="M67.0439,402.6474 C78.5499,401.9314 90.3199,401.6284 102.1939,401.5344 C149.0139,401.1664 197.4749,404.1164 238.0209,398.4064 C259.0279,395.4424 273.6889,390.5974 294.1519,387.4404 C332.5619,381.5024 388.8899,382.4234 432.1279,380.7924 C435.0859,380.6794 438.0519,380.5974 441.0149,380.5024 C441.0199,380.4954 441.0249,380.4874 441.0299,380.4804 C442.3349,378.6104 443.6129,376.7214 444.8659,374.8134 C434.4559,374.0514 424.0199,373.3394 412.8459,373.3854 C395.1489,373.4534 373.1819,375.3144 355.3499,376.2924 C315.0359,378.5274 254.6159,381.5784 226.3119,389.0624 C220.6469,390.5584 215.6119,392.2374 208.4519,393.3794 C199.6139,394.7804 188.7119,395.1924 178.3109,395.5674 C158.0719,396.2924 137.8149,397.0144 117.5639,397.7364 C104.3259,398.2094 91.0929,398.6814 77.8539,399.1554 C71.4139,399.3854 64.9589,399.6244 58.5129,399.8824 C59.4319,400.9504 60.3659,402.0044 61.3029,403.0564 C63.2099,402.9144 65.1099,402.7684 67.0439,402.6474" id="Fill-226" fill="#D3882B"></path>
                <path d="M350.1965,396.6607 C312.1945,398.6657 293.5985,407.6267 260.4685,411.1857 C246.3275,412.7097 230.4155,413.1517 214.2125,413.1957 C195.7005,413.2467 176.8085,412.7767 159.7435,412.8087 C157.6105,412.8127 155.5055,412.8247 153.4345,412.8457 C144.5735,412.9417 135.7095,412.8647 126.8495,413.0957 C107.4315,413.5977 92.5245,416.3497 76.0505,418.2397 C77.1585,419.2857 78.2695,420.3297 79.3965,421.3547 C126.2305,419.4327 173.0645,417.5117 219.8925,415.5897 C249.2605,414.3907 279.2185,413.1337 306.2985,409.3437 C320.6205,407.3387 333.9375,404.6717 348.2145,402.6287 C373.2295,399.0627 397.3555,397.7457 421.0895,397.6827 C423.3415,397.6767 425.5885,397.6827 427.8335,397.6987 C428.4495,396.9647 429.0675,396.2327 429.6745,395.4917 C421.1785,395.7737 412.6555,395.8517 404.1285,395.8737 C398.2395,395.8897 392.3495,395.8797 386.4635,395.8907 C374.3325,395.9127 362.2235,396.0267 350.1965,396.6607" id="Fill-230" fill="#D3882B"></path>
                <path d="M329.2976,418.7454 C306.0066,418.8624 282.4056,421.0274 262.8706,425.0114 C260.5366,425.4814 258.1506,425.9894 255.4086,426.1534 C254.9056,426.1814 254.4056,426.1984 253.9086,426.2044 C250.4426,426.2464 247.1206,425.7764 243.8706,425.4234 C234.8656,424.4634 223.7516,424.0824 211.7206,424.1094 C210.7606,424.1114 209.7936,424.1164 208.8216,424.1234 C178.6956,424.3484 143.5376,426.9894 121.4326,429.4344 C111.8816,430.4944 102.5146,431.8024 92.8766,432.7354 C94.2816,433.8374 95.6996,434.9244 97.1296,435.9954 C106.3496,435.4304 115.5406,434.7694 124.7156,434.1444 C180.8476,430.3074 237.7716,427.9274 294.6276,425.5484 C331.6056,424.0014 368.5856,422.4544 405.5846,420.9084 C407.4016,419.2484 409.1876,417.5534 410.9536,415.8394 C403.6536,417.0864 396.2586,418.5034 388.4066,420.0414 C385.3216,420.6474 381.9016,420.8794 378.3476,420.8924 C372.4526,420.9154 366.1876,420.3394 360.4626,419.8784 C350.4116,419.0624 339.8866,418.6924 329.2976,418.7454" id="Fill-232" fill="#D3882B"></path>
                <path d="M307.3181,340.009 C306.4631,340.321 305.5921,340.62 304.7051,340.905 C277.2111,349.732 234.6301,345.575 199.7691,349.506 C195.7691,349.959 191.8671,350.526 188.0201,351.155 C175.5651,353.193 163.7271,355.949 151.3661,358.141 C114.2951,364.73 74.3731,365.581 33.8341,365.532 C34.6761,366.95 35.5321,368.359 36.4021,369.758 C48.0611,369.735 59.7201,369.785 71.3721,369.932 C109.4431,370.421 150.1411,371.534 182.8871,363.283 C190.4101,361.393 197.2761,359.042 205.0721,357.344 C224.3791,353.142 247.1081,353.363 268.7491,352.595 C290.3901,351.828 313.9351,349.564 326.5801,342.09 C327.8041,341.371 328.9141,340.009 330.0241,340.009 L307.3181,340.009 Z" id="Fill-234" fill="#D3882B"></path>
                <path d="M80.3232,340.009 C61.3512,341.597 42.1022,343.317 22.7102,344.512 C23.9352,347.131 25.1902,349.734 26.5052,352.301 C43.3632,351.388 60.1162,350.157 76.8562,348.845 C101.7832,346.878 127.2772,345.009 149.5522,340.009 L80.3232,340.009 Z" id="Fill-236" fill="#D3882B"></path>
                <path d="M349.4224,445.3026 C342.7594,445.6676 336.1204,444.6986 329.7974,443.7486 C322.1834,442.5966 314.5694,441.4556 306.9784,440.3046 C297.1434,438.8266 273.4404,441.7716 260.5684,441.5126 C241.0574,441.1196 221.5464,440.7836 202.0124,441.2826 C178.2644,441.8876 154.7644,443.6416 131.3554,445.4356 C125.2054,445.9056 119.0554,446.3836 112.9044,446.8596 C112.9174,446.8676 112.9304,446.8756 112.9424,446.8836 C119.7794,451.2076 126.8484,455.1946 134.1244,458.8306 C137.1354,458.5926 140.1454,458.2346 143.1544,457.9986 C167.6654,456.0646 192.7534,454.0086 214.7634,449.0086 L198.5544,449.0086 L193.3274,449.0086 C200.2824,448.7926 207.2454,448.5656 214.2114,448.3466 C226.9704,447.9456 239.7454,447.5806 252.5344,447.3816 C265.0274,447.1876 277.5344,447.1516 290.0504,447.4076 C315.3494,447.9276 340.8034,449.3756 366.1414,450.2076 C371.1614,447.2146 376.0624,444.0456 380.8374,440.7086 C380.7364,440.7066 380.6364,440.6986 380.5354,440.6976 C369.4544,440.5916 360.4124,444.7076 349.4224,445.3026" id="Fill-238" fill="#D3882B"></path>
                <path d="M215.887,449.009 L214.763,449.009 C215.136,449.009 215.516,449.092 215.887,449.009" id="Fill-240" fill="#D3882B"></path>
                <path d="M217.7,467.5983 C202.168,470.3593 186.125,472.1073 169.747,473.2173 C169.76,473.2213 169.773,473.2253 169.786,473.2293 C177.733,475.7173 185.856,477.8043 194.131,479.4723 C213.62,478.8133 232.448,477.0503 249.185,472.8323 C256.708,470.9423 263.593,468.5923 271.388,466.8943 C290.695,462.6913 313.433,462.9123 335.075,462.1453 C338.164,462.0353 341.292,461.8903 344.421,461.7043 C350.486,458.8783 356.419,455.8183 362.199,452.5183 C362.259,452.4833 362.32,452.4513 362.38,452.4163 C335.124,458.3563 297.49,455.3323 266.104,458.8723 C249.153,460.7903 233.88,464.7293 217.7,467.5983" id="Fill-244" fill="#D3882B"></path>
                <path d="M2.25,211.2121 C54.25,210.4001 120.688,207.0371 133.083,206.4671 C169.454,204.7981 205.549,203.1281 241.625,200.6341 C319.602,195.2521 395.99,186.0411 474.759,183.1821 C475.028,183.1731 475.278,183.1631 475.528,183.1531 C475.982,183.1371 476.436,183.1211 476.89,183.1051 C477.009,183.1021 477.12,183.0981 477.25,183.0941 L477.25,183.0091 L477.27,183.0091 C476.42,180.0091 475.495,176.2791 474.503,172.9371 C472.02,173.1761 469.533,173.4311 467.05,173.6731 C449.103,175.4091 431.2,177.2141 413.275,179.0081 C396.076,180.7251 378.876,182.4481 361.654,184.1651 C325.94,187.7341 290.204,191.3061 254.581,195.0571 C239.239,196.6691 223.807,198.3201 207.99,198.7621 C188.003,199.3181 167.834,197.9181 147.984,199.0691 C127.249,200.2691 107.398,204.2311 86.482,203.8571 C80.975,203.7561 75.582,203.3561 70.203,202.9041 C64.824,202.4521 59.458,201.9481 54.009,201.6411 C48.447,201.3281 42.888,201.2261 37.314,201.2271 C31.784,201.2271 26.24,201.3301 20.665,201.4301 C14.888,201.5351 9.116,201.6401 3.35,201.7451 C2.825,204.8821 2.343,208.0341 1.94,211.2101 C54.292,210.3951 120.303,207.0361 132.687,206.4671 C165.7,204.9521 198.709,203.4301 231.501,201.2981 C198.734,203.4301 165.852,204.9521 132.84,206.4671 C126.109,206.7761 103.479,207.9101 75.874,209.0111 C52.686,209.9361 25.989,210.8381 2.25,211.2101 L2.25,211.2121 Z" id="Fill-248" fill="#D3882B"></path>
                <path d="M471.8962,193.6336 C431.5862,195.8636 371.1762,198.9136 342.8662,206.4036 C337.2062,207.8936 332.1762,209.5736 325.0062,210.7136 C316.1762,212.1136 305.2762,212.3216 294.8762,212.6916 C289.9462,212.8716 285.0162,213.0086 280.0862,213.0086 L291.9352,213.0086 L368.2562,213.0086 C382.6662,211.0086 394.9762,206.9916 410.7162,204.5716 C430.7002,201.4806 455.5062,200.2776 480.7952,199.6026 C480.4152,197.4526 480.0122,195.3096 479.5762,193.1786 L479.5762,193.1786 C478.5222,193.2446 477.4842,193.3076 476.4482,193.3696 C474.9072,193.4626 473.3832,193.5516 471.8962,193.6336" id="Fill-250" fill="#D3882B"></path>
                <path d="M242.25,484.259 C261.628,484.259 280.469,481.97 298.532,477.672 C277.224,479.803 255.915,481.943 234.632,484.128 C237.163,484.206 239.7,484.259 242.25,484.259" id="Fill-254" fill="#D3882B"></path>
            </g>
            <g id="frame" transform="translate(11.000000, 11.000000)">
                <path d="M19.25,230.6207 C19.25,232.4917 17.733,234.0087 15.861,234.0087 L3.639,234.0087 C1.767,234.0087 0.25,232.4917 0.25,230.6207 L0.25,229.3977 C0.25,227.5257 1.767,226.0087 3.639,226.0087 L15.861,226.0087 C17.733,226.0087 19.25,227.5257 19.25,229.3977 L19.25,230.6207 Z" id="Fill-256" fill="#000000"></path>
                <path d="M236.25,15.6197 C236.25,17.4917 234.733,19.0087 232.862,19.0087 L231.638,19.0087 C229.767,19.0087 228.25,17.4917 228.25,15.6197 L228.25,3.3987 C228.25,1.5267 229.767,0.0087 231.638,0.0087 L232.862,0.0087 C234.733,0.0087 236.25,1.5267 236.25,3.3987 L236.25,15.6197 Z" id="Fill-258" fill="#000000"></path>
                <path d="M462.25,230.6207 C462.25,232.4917 460.733,234.0087 458.862,234.0087 L446.638,234.0087 C444.767,234.0087 443.25,232.4917 443.25,230.6207 L443.25,229.3977 C443.25,227.5257 444.767,226.0087 446.638,226.0087 L458.862,226.0087 C460.733,226.0087 462.25,227.5257 462.25,229.3977 L462.25,230.6207 Z" id="Fill-260" fill="#000000"></path>
                <path d="M236.25,458.6187 C236.25,460.4907 234.732,462.0087 232.86,462.0087 L231.64,462.0087 C229.768,462.0087 228.25,460.4907 228.25,458.6187 L228.25,446.3997 C228.25,444.5267 229.768,443.0087 231.64,443.0087 L232.86,443.0087 C234.732,443.0087 236.25,444.5267 236.25,446.3997 L236.25,458.6187 Z" id="Fill-262" fill="#000000"></path>
                <path d="M116.1899,423.888 C115.2649,425.294 115.6539,427.186 117.0609,428.11 C118.4679,429.038 120.3589,428.65 121.2859,427.244 L126.3219,419.602 C127.2489,418.193 126.8609,416.303 125.4509,415.377 C124.0459,414.452 122.1569,414.839 121.2289,416.247 L116.1899,423.888 Z" id="Fill-264" fill="#333333"></path>
                <path d="M35.4545,339.97 C33.9835,340.789 33.4565,342.647 34.2745,344.115 C35.0945,345.59 36.9535,346.116 38.4225,345.299 L46.4165,340.843 C47.8895,340.024 48.4165,338.166 47.5975,336.695 C46.7785,335.224 44.9225,334.696 43.4495,335.516 L35.4545,339.97 Z" id="Fill-266" fill="#333333"></path>
                <path d="M38.3429,113.7051 C36.9339,112.7791 35.0439,113.1681 34.1199,114.5731 C33.1889,115.9811 33.5789,117.8741 34.9859,118.8001 L42.6269,123.8331 C44.0349,124.7631 45.9229,124.3721 46.8519,122.9671 C47.7779,121.5601 47.3899,119.6681 45.9819,118.7411 L38.3429,113.7051 Z" id="Fill-268" fill="#333333"></path>
                <path d="M122.2585,32.9678 C121.4405,31.4958 119.5825,30.9678 118.1135,31.7868 C116.6405,32.6088 116.1115,34.4658 116.9295,35.9368 L121.3845,43.9308 C122.2065,45.4038 124.0615,45.9318 125.5335,45.1088 C127.0055,44.2898 127.5315,42.4328 126.7135,40.9618 L122.2585,32.9678 Z" id="Fill-270" fill="#333333"></path>
                <path d="M348.3058,37.0318 C349.2308,35.6258 348.8418,33.7348 347.4348,32.8108 C346.0298,31.8808 344.1388,32.2698 343.2108,33.6778 L338.1738,41.3188 C337.2488,42.7258 337.6388,44.6158 339.0458,45.5428 C340.4518,46.4698 342.3438,46.0808 343.2718,44.6748 L348.3058,37.0318 Z" id="Fill-272" fill="#333333"></path>
                <path d="M429.0431,120.9499 C430.5161,120.1329 431.0431,118.2729 430.2241,116.8029 C429.4061,115.3299 427.5481,114.8039 426.0751,115.6229 L418.0821,120.0779 C416.6091,120.8969 416.0811,122.7539 416.9031,124.2259 C417.7221,125.6969 419.5791,126.2249 421.0481,125.4049 L429.0431,120.9499 Z" id="Fill-274" fill="#333333"></path>
                <path d="M426.1575,346.1972 C427.5645,347.1242 429.4545,346.7352 430.3785,345.3292 C431.3095,343.9222 430.9215,342.0302 429.5105,341.1022 L421.8705,336.0682 C420.4665,335.1422 418.5745,335.5302 417.6465,336.9362 C416.7195,338.3432 417.1105,340.2342 418.5135,341.1632 L426.1575,346.1972 Z" id="Fill-276" fill="#333333"></path>
                <path d="M342.2395,426.9383 C343.0575,428.4093 344.9155,428.9323 346.3865,428.1183 C347.8605,427.2963 348.3855,425.4383 347.5685,423.9653 L343.1125,415.9733 C342.2935,414.5013 340.4355,413.9733 338.9635,414.7913 C337.4925,415.6133 336.9645,417.4703 337.7845,418.9413 L342.2395,426.9383 Z" id="Fill-278" fill="#333333"></path>
            </g>
        </g>
    </g>
</svg>