<svg xmlns="http://www.w3.org/2000/svg" viewBox="0 0 498.5 498.5"><defs><style>.a{fill:none;stroke:#424242;stroke-miterlimit:10;stroke-width:14px;}.b{fill:#fff;}.c{fill:#3299ba;}.d{fill:#333;}</style></defs><title>frame</title><circle class="a" cx="249.25" cy="249.25" r="242.25"/><circle class="b" cx="249.25" cy="249.25" r="242.25"/><path class="c" d="M542.09-851.56l-4.42,1.35a5.45,5.45,0,0,1-1.35.18,3.32,3.32,0,0,1-3.31-3.19,3.29,3.29,0,0,1,2.52-3.25l6.51-2.09a13.11,13.11,0,0,1,3.68-.67h0.12a3.68,3.68,0,0,1,3.74,3.74v36.32a3.72,3.72,0,0,1-3.74,3.74,3.76,3.76,0,0,1-3.74-3.74v-32.39Z" transform="translate(-312.75 910.25)"/><path class="c" d="M560.07-823l13.19-11.23c5.89-5,8-7.73,8-11.6,0-4.23-3-6.69-6.93-6.69-3.44,0-5.83,1.6-8.47,4.78a3.45,3.45,0,0,1-2.64,1.17,3.43,3.43,0,0,1-3.44-3.44,3.78,3.78,0,0,1,.86-2.33c3.5-4.35,7.49-6.93,14.24-6.93,8.41,0,14.17,5.15,14.17,12.82v0.12c0,6.75-3.56,10.43-11.17,16.63l-8.83,7.36h17.43a3.3,3.3,0,0,1,3.31,3.31,3.3,3.3,0,0,1-3.31,3.32H562.16c-2.33,0-4-1.35-4-3.56A4.68,4.68,0,0,1,560.07-823Z" transform="translate(-312.75 910.25)"/><path class="c" d="M729-644.16a3.63,3.63,0,0,1-1.23-2.7,3.67,3.67,0,0,1,3.62-3.62,3.62,3.62,0,0,1,2.52,1,13.06,13.06,0,0,0,9.76,4.11c4.23,0,7.42-2.58,7.42-6.5V-652c0-4.23-3.87-6.63-9.88-6.63h-1.54a3.27,3.27,0,0,1-3.25-3.25A4.28,4.28,0,0,1,738-665l10.06-10.74H732.5a3.29,3.29,0,0,1-3.31-3.25,3.3,3.3,0,0,1,3.31-3.31h22c2.15,0,3.74,1.29,3.74,3.31,0,1.78-.86,2.82-2.15,4.11l-10.12,10.49c6.5,0.8,12.64,4.11,12.64,12v0.12c0,7.92-6.08,13.62-15,13.62A20.14,20.14,0,0,1,729-644.16Z" transform="translate(-312.75 910.25)"/><path class="c" d="M550.07-466.42c-3.25-3.25-5.21-7.73-5.21-16.38v-0.12c0-13.13,6.26-23.38,18.41-23.38A18.68,18.68,0,0,1,574-503.24a3.62,3.62,0,0,1,1.9,3.25,3.56,3.56,0,0,1-3.62,3.5,4,4,0,0,1-1.9-.55,12.56,12.56,0,0,0-7.36-2.39c-6.38,0-9.94,5.77-10.31,13.62a13.72,13.72,0,0,1,10.31-4.3c8.28,0,15,4.91,15,13.5v0.12c0,8.53-6.93,14.6-16,14.6C556.76-461.88,553-463.54,550.07-466.42Zm20.37-9.76v-0.12c0-4.29-3.44-7.49-8.78-7.49s-8.71,3.44-8.71,7.55v0.12c0,4.36,3.56,7.67,8.9,7.67S570.44-471.76,570.44-476.18Z" transform="translate(-312.75 910.25)"/><path class="c" d="M364.43-641.77a3.58,3.58,0,0,1-1.72-3.13,3.46,3.46,0,0,1,3.56-3.44,3.94,3.94,0,0,1,2.08.62,12.91,12.91,0,0,0,7.86,2.64c6.32,0,10.12-5.58,10.37-13.5A12.66,12.66,0,0,1,376.52-654c-9.14,0-15.22-5.34-15.22-13.62v-0.12c0-8.41,6.5-14.85,16-14.85,5.4,0,8.9,1.54,12,4.54,3.13,3.19,5.15,7.92,5.15,16.38v0.12c0,13.8-6.81,23.38-18.41,23.38A19.74,19.74,0,0,1,364.43-641.77Zm21.91-26.32v-0.12c0-4.48-3.5-7.92-9-7.92s-8.53,3.56-8.53,8V-668c0,4.48,3.44,7.67,8.77,7.67S386.34-663.92,386.34-668.09Z" transform="translate(-312.75 910.25)"/><rect class="c" x="17.25" y="245.25" width="19" height="8" rx="3.39" ry="3.39"/><rect class="c" x="460.25" y="245.25" width="19" height="8" rx="3.39" ry="3.39"/><rect class="c" x="245.25" y="462.25" width="8" height="19" rx="3.39" ry="3.39"/><path class="d" d="M445.94-467.12a3,3,0,0,0,.87,4.22h0a3,3,0,0,0,4.22-.87l5-7.64a3,3,0,0,0-.87-4.22h0a3,3,0,0,0-4.22.87Z" transform="translate(-312.75 910.25)"/><path class="d" d="M365.2-551a3,3,0,0,0-1.18,4.15h0a3.05,3.05,0,0,0,4.15,1.18l8-4.46a3,3,0,0,0,1.18-4.15h0a3,3,0,0,0-4.15-1.18Z" transform="translate(-312.75 910.25)"/><path class="d" d="M368.09-777.3a3,3,0,0,0-4.22.87h0a3,3,0,0,0,.87,4.23l7.64,5a3,3,0,0,0,4.23-.87h0a3.05,3.05,0,0,0-.87-4.23Z" transform="translate(-312.75 910.25)"/><path class="d" d="M452-858a3,3,0,0,0-4.15-1.18h0a3.05,3.05,0,0,0-1.18,4.15l4.45,8a3,3,0,0,0,4.15,1.18h0a3,3,0,0,0,1.18-4.15Z" transform="translate(-312.75 910.25)"/><path class="d" d="M678.06-854a3,3,0,0,0-.87-4.22h0a3,3,0,0,0-4.22.87l-5,7.64a3.05,3.05,0,0,0,.87,4.22h0a3.05,3.05,0,0,0,4.23-.87Z" transform="translate(-312.75 910.25)"/><path class="d" d="M758.79-770.06a3,3,0,0,0,1.18-4.15h0a3,3,0,0,0-4.15-1.18l-8,4.45a3,3,0,0,0-1.18,4.15h0a3,3,0,0,0,4.15,1.18Z" transform="translate(-312.75 910.25)"/><path class="d" d="M755.91-544.81a3,3,0,0,0,4.22-.87h0a3,3,0,0,0-.87-4.23l-7.64-5a3,3,0,0,0-4.22.87h0a3.06,3.06,0,0,0,.87,4.23Z" transform="translate(-312.75 910.25)"/><path class="d" d="M672-464.07a3.05,3.05,0,0,0,4.15,1.18h0a3.06,3.06,0,0,0,1.18-4.15l-4.46-8a3.05,3.05,0,0,0-4.15-1.18h0a3.05,3.05,0,0,0-1.18,4.15Z" transform="translate(-312.75 910.25)"/><circle class="d" cx="249.65" cy="249.25" r="21.8"/></svg>