<svg xmlns="http://www.w3.org/2000/svg" viewBox="0 0 500 500"><defs><style>.a{fill:#f8b115;}.b{fill:#f9f7f0;}.c{fill:#231f20;}</style></defs><title>frame</title><path class="a" d="M1955.34,611.08c0,138.08-111.92,250-250,250s-250-111.93-250-250,111.93-250,250-250S1955.34,473,1955.34,611.08Z" transform="translate(-1455.34 -361.08)"/><path class="b" d="M1909.71,611.08c0,112.88-91.49,204.37-204.37,204.37S1501,724,1501,611.08s91.49-204.37,204.36-204.37S1909.71,498.21,1909.71,611.08Z" transform="translate(-1455.34 -361.08)"/><circle class="c" cx="250" cy="76.15" r="10.04"/><path class="c" d="M1715.38,784.94a10,10,0,1,1-10-10A10,10,0,0,1,1715.38,784.94Z" transform="translate(-1455.34 -361.08)"/><path class="c" d="M1879.19,621.12a10,10,0,1,1,10.05-10A10,10,0,0,1,1879.19,621.12Z" transform="translate(-1455.34 -361.08)"/><path class="c" d="M1531.49,621.12a10,10,0,1,1,10-10A10,10,0,0,1,1531.49,621.12Z" transform="translate(-1455.34 -361.08)"/><path class="c" d="M1797,468.36a5,5,0,0,1-4.21-7.61A5,5,0,1,1,1797,468.36Z" transform="translate(-1455.34 -361.08)"/><path class="c" d="M1613.63,763.79a5,5,0,0,1,0-10A5,5,0,1,1,1613.63,763.79Z" transform="translate(-1455.34 -361.08)"/><path class="c" d="M1853.06,707.75a4.94,4.94,0,0,1-2.64-.76,5,5,0,0,1,2.67-9.21,5.05,5.05,0,0,1,2.59.73A5,5,0,0,1,1853.06,707.75Z" transform="translate(-1455.34 -361.08)"/><path class="c" d="M1557.62,524.38a5,5,0,0,1-4.24-7.62,5,5,0,0,1,6.88-1.6,4.94,4.94,0,0,1,2.22,3.1,5,5,0,0,1-.61,3.77A5,5,0,0,1,1557.62,524.38Z" transform="translate(-1455.34 -361.08)"/><path class="c" d="M1858.53,533.83a5,5,0,0,1-2.38-9.37,4.86,4.86,0,0,1,2.36-.61,5,5,0,0,1,2.37,9.38A4.9,4.9,0,0,1,1858.53,533.83Z" transform="translate(-1455.34 -361.08)"/><path class="c" d="M1552.18,698.32a5,5,0,0,1-2.37-9.37,4.85,4.85,0,0,1,2.35-.61,5,5,0,0,1,4.78,6.43,5,5,0,0,1-2.4,3A4.92,4.92,0,0,1,1552.18,698.32Z" transform="translate(-1455.34 -361.08)"/><path class="c" d="M1787.6,769.25a5,5,0,0,1-2.37-9.4,4.9,4.9,0,0,1,2.33-.58,5,5,0,0,1,2.37,9.38A4.92,4.92,0,0,1,1787.6,769.25Z" transform="translate(-1455.34 -361.08)"/><path class="c" d="M1623.11,462.91a5,5,0,0,1-2.38-9.4,5.22,5.22,0,0,1,2.35-.59,5,5,0,0,1,4.4,2.64,4.86,4.86,0,0,1,.37,3.78,5,5,0,0,1-2.42,3A4.83,4.83,0,0,1,1623.11,462.91Z" transform="translate(-1455.34 -361.08)"/><path class="c" d="M1715.38,610.61a10.31,10.31,0,1,1-10.31-10.31A10.31,10.31,0,0,1,1715.38,610.61Z" transform="translate(-1455.34 -361.08)"/></svg>