<svg xmlns="http://www.w3.org/2000/svg" viewBox="0 0 367.8 367.8"><defs><style>.a{fill:#231f20;}</style></defs><title>plate</title><circle class="a" cx="183.9" cy="10.05" r="10.04"/><path class="a" d="M1923.18,933.86a10,10,0,1,1-10-10A10,10,0,0,1,1923.18,933.86Z" transform="translate(-1729.24 -576.1)"/><path class="a" d="M2087,770A10,10,0,1,1,2097,760,10,10,0,0,1,2087,770Z" transform="translate(-1729.24 -576.1)"/><path class="a" d="M1739.29,770a10,10,0,1,1,10-10A10,10,0,0,1,1739.29,770Z" transform="translate(-1729.24 -576.1)"/><path class="a" d="M2004.8,617.27a5,5,0,0,1-4.21-7.61A5,5,0,1,1,2004.8,617.27Z" transform="translate(-1729.24 -576.1)"/><path class="a" d="M1821.43,912.7a5,5,0,0,1,0-10A5,5,0,1,1,1821.43,912.7Z" transform="translate(-1729.24 -576.1)"/><path class="a" d="M2060.85,856.66a4.94,4.94,0,0,1-2.64-.76,5,5,0,0,1,2.67-9.21,5.05,5.05,0,0,1,2.59.73A5,5,0,0,1,2060.85,856.66Z" transform="translate(-1729.24 -576.1)"/><path class="a" d="M1765.42,673.3a5,5,0,0,1-4.24-7.62,5,5,0,0,1,6.88-1.6,4.94,4.94,0,0,1,2.22,3.1,5,5,0,0,1-.61,3.77A5,5,0,0,1,1765.42,673.3Z" transform="translate(-1729.24 -576.1)"/><path class="a" d="M2066.33,682.74a5,5,0,0,1-2.38-9.37,4.86,4.86,0,0,1,2.36-.61,5,5,0,0,1,2.37,9.38A4.9,4.9,0,0,1,2066.33,682.74Z" transform="translate(-1729.24 -576.1)"/><path class="a" d="M1760,847.23a5,5,0,0,1-2.37-9.37,4.85,4.85,0,0,1,2.35-.61,5,5,0,0,1,4.78,6.43,5,5,0,0,1-2.4,3A4.92,4.92,0,0,1,1760,847.23Z" transform="translate(-1729.24 -576.1)"/><path class="a" d="M1995.4,918.17a5,5,0,0,1-2.37-9.4,4.9,4.9,0,0,1,2.33-.58,5,5,0,0,1,2.37,9.38A4.92,4.92,0,0,1,1995.4,918.17Z" transform="translate(-1729.24 -576.1)"/><path class="a" d="M1830.91,611.83a5,5,0,0,1-2.38-9.4,5.22,5.22,0,0,1,2.35-.59,5,5,0,0,1,4.4,2.64,4.86,4.86,0,0,1,.37,3.78,5,5,0,0,1-2.42,3A4.83,4.83,0,0,1,1830.91,611.83Z" transform="translate(-1729.24 -576.1)"/><path class="a" d="M1923.18,759.53a10.31,10.31,0,1,1-10.31-10.31A10.31,10.31,0,0,1,1923.18,759.53Z" transform="translate(-1729.24 -576.1)"/></svg>