<?xml version="1.0" standalone="no"?>
<!DOCTYPE svg PUBLIC "-//W3C//DTD SVG 1.1//EN" "http://www.w3.org/Graphics/SVG/1.1/DTD/svg11.dtd" >
<svg>
<metadata>
Created by FontForge 20090622 at Thu Sep  1 10:00:55 2016
 By deploy user
Data copyright &#194;&#169; URW Software &#38; Type GbmH., additional data copyright The Font Bureau, Inc. Copyright 1994 Microsoft Corporation. All rights reserved.
</metadata>
<defs>
<font id="CopperplateGothic-Light" horiz-adv-x="1024" >
  <font-face 
    font-family="Copperplate Gothic Light"
    font-weight="400"
    font-stretch="normal"
    units-per-em="2048"
    panose-1="2 14 5 7 2 2 6 2 4 4"
    ascent="1638"
    descent="-410"
    x-height="1120"
    cap-height="1365"
    bbox="-205 -512 2620 1786"
    underline-thickness="103"
    underline-position="-148"
    unicode-range="U+0020-U+F002"
  />
<missing-glyph horiz-adv-x="512" 
d="M51 0v1365h410v-1365h-410zM410 51v1263h-308v-1263h308z" />
    <glyph glyph-name=".notdef" horiz-adv-x="512" 
d="M51 0v1365h410v-1365h-410zM410 51v1263h-308v-1263h308z" />
    <glyph glyph-name="glyph1" horiz-adv-x="0" 
 />
    <glyph glyph-name="glyph2" horiz-adv-x="512" 
 />
    <glyph glyph-name="space" unicode=" " horiz-adv-x="512" 
 />
    <glyph glyph-name="space" unicode="&#xa0;" horiz-adv-x="512" 
 />
    <glyph glyph-name="exclam" unicode="!" horiz-adv-x="699" 
d="M436 382h-173v27l16 4q39 9 38 31l-1 10v15l-53 822q-2 27 -11 34.5t-47 12.5v27h289v-27q-13 -2 -17 -3q-38 -4 -41 -44l-53 -822v-15l-1 -10q0 -15 7.5 -20t46.5 -15v-27zM349 194q46 0 77.5 -32t31.5 -78q0 -44 -32.5 -76t-76.5 -32q-45 0 -77 32t-32 77t31.5 76.5
t77.5 32.5z" />
    <glyph glyph-name="quotedbl" unicode="&#x22;" horiz-adv-x="1070" 
d="M354 843h-173v28q12 2 16 2q38 4 38 20q0 3 -1 10l-51 396q-3 25 -11 30t-49 8v28h289v-28q-13 -1 -17 -1q-26 -2 -33 -8t-10 -29l-51 -396q-2 -17 5.5 -21.5t47.5 -10.5v-28zM889 843h-173v28q12 2 16 2q38 4 38 20q0 2 -1 10l-51 396q-4 25 -11.5 30t-48.5 8v28h289
v-28q-13 -1 -17 -1q-26 -2 -33 -8t-10 -29l-51 -396q-2 -17 5.5 -21.5t47.5 -10.5v-28z" />
    <glyph glyph-name="numbersign" unicode="#" horiz-adv-x="1570" 
d="M381 345h-178q-32 0 -51 -14t-36 -50h-33l50 258h33q3 -36 16.5 -50t45.5 -14h178l81 416h-178q-32 0 -51 -14t-36 -50h-33l50 258h33q3 -36 16.5 -50t45.5 -14h179l45 235q1 5 1 16q0 24 -10 35t-41 21l7 37h258l-7 -37q-39 -11 -55.5 -26.5t-22.5 -45.5l-46 -235h417
l45 235q1 5 1 16q0 24 -10 35t-41 21l8 37h257l-7 -37q-39 -11 -55.5 -26.5t-22.5 -45.5l-46 -235h179q31 0 50.5 14t36.5 50h33l-51 -258h-33q-3 36 -16.5 50t-45.5 14h-178l-81 -416h178q32 0 51 14t36 50h33l-50 -258h-33q-3 36 -16.5 50t-45.5 14h-178l-46 -236
q-1 -7 -1 -18q0 -23 10 -34t41 -20l-7 -37h-258l7 37q39 10 55.5 25.5t22.5 46.5l46 236h-416l-46 -236q-1 -7 -1 -18q0 -23 10 -34t41 -20l-8 -37h-257l7 37q38 10 55 25.5t23 46.5zM536 475h416l81 416h-416z" />
    <glyph glyph-name="dollar" unicode="$" horiz-adv-x="1475" 
d="M802 1234v-463l72 -8q152 -17 214.5 -31t111.5 -40q152 -83 152 -278q0 -187 -147.5 -299t-402.5 -118v-125q0 -30 14 -46t50 -26v-32h-243v32q36 10 50 26t14 46v128q-206 15 -391 107q-92 46 -107 46q-13 0 -41 -34l-25 16l134 241l24 -14q-17 -36 -17 -49
q0 -38 168 -111q129 -57 255 -69v496q-200 25 -292 59q-107 41 -158 119q-49 75 -49 167q0 165 131.5 268t367.5 124v126q0 31 -14 47t-50 26v32h243v-32q-36 -10 -50 -26t-14 -47v-124q209 -8 415 -94q30 -12 36 -12q16 0 44 36l25 -12l-127 -246l-25 14q14 39 14 49
q0 34 -133 81q-108 39 -249 50zM687 1234q-109 -9 -185 -44q-161 -74 -161 -206t166 -174q36 -9 180 -26v450zM802 130q175 8 268 65q129 81 129 207q0 127 -133 173q-46 16 -264 40v-485z" />
    <glyph glyph-name="percent" unicode="%" horiz-adv-x="1842" 
d="M422 1377q140 0 240 -90q116 -104 116 -270q0 -72 -31 -142t-85 -118q-100 -90 -239 -90t-239 90q-116 104 -116 265q0 76 31 147t85 118q100 88 238 90zM422 1296q-105 0 -177 -75q-75 -78 -75 -199q0 -119 71.5 -196.5t181.5 -77.5q107 0 178 75q75 78 75 195
q0 123 -70.5 200t-183.5 78zM567 28v-28h-281v28q69 4 166 124l821 1061q57 74 57 91q0 26 -47 33v28h272v-28q-69 -4 -166 -123l-812 -1062q-58 -76 -58 -91q0 -25 48 -33zM1417 698q140 0 240 -90q116 -104 116 -270q0 -72 -31 -142t-85 -118q-100 -90 -239 -90t-239 90
q-116 104 -116 265q0 76 31.5 147t84.5 118q100 88 238 90zM1417 617q-105 0 -177 -75q-75 -78 -75 -199q0 -119 71.5 -196.5t181.5 -77.5q107 0 178 75q75 78 75 195q0 123 -70.5 200t-183.5 78z" />
    <glyph glyph-name="ampersand" unicode="&#x26;" horiz-adv-x="1528" 
d="M1473 883v-244h-27q-3 49 -24 49q-42 0 -113 -86q-52 -63 -137 -222q55 -130 129 -183q61 -45 111 -45q18 0 22.5 6.5t11.5 44.5h27v-203q-162 3 -255 57.5t-144 177.5q-158 -259 -483 -259q-232 0 -370 132q-128 124 -128 291q0 88 41.5 168t116.5 136q71 53 193 90
q-174 87 -174 254q0 155 121 252q110 90 288 90q211 0 326 -120q91 -94 91 -225q0 -98 -55.5 -170.5t-159.5 -111.5q162 -75 223 -246q145 339 369 367zM673 1266q-104 0 -172 -48q-81 -59 -81 -168q0 -95 73 -152q82 -64 203 -64q114 0 184 61q66 57 66 143q0 90 -62 151
q-77 76 -211 77zM609 702q-158 0 -268 -93q-91 -77 -91 -197t77 -196q104 -104 274 -104q161 0 285 109q97 84 97 163q0 48 -31.5 110.5t-79.5 108.5q-101 97 -263 99z" />
    <glyph glyph-name="quotesingle" unicode="'" horiz-adv-x="535" 
d="M354 843h-173v28q12 2 16 2q38 4 38 20q0 3 -1 10l-51 396q-3 25 -11 30t-49 8v28h289v-28q-13 -1 -17 -1q-26 -2 -33 -8t-10 -29l-51 -396q-2 -17 5.5 -21.5t47.5 -10.5v-28z" />
    <glyph glyph-name="parenleft" unicode="(" horiz-adv-x="649" 
d="M595 1529l54 -59q-111 -89 -213 -267q-139 -242 -139 -521q0 -295 158 -553q94 -155 194 -234l-54 -59q-458 361 -458 846t458 847z" />
    <glyph glyph-name="parenright" unicode=")" horiz-adv-x="649" 
d="M54 1529q458 -362 458 -847t-458 -846l-54 59q112 89 213 266q139 242 139 521q0 295 -158 554q-95 155 -194 234z" />
    <glyph glyph-name="asterisk" unicode="*" horiz-adv-x="858" 
d="M319 1502h221v-27q-37 -10 -49 -47.5t-13 -144.5q99 35 131.5 56t32.5 51q0 4 -1 11l27 9l68 -210l-27 -8q-19 31 -54 31q-44 0 -147 -32q58 -76 85 -101t50 -25q10 0 28 7l16 -22l-178 -130l-16 23q17 21 17 37q0 39 -80 154q-81 -117 -81 -154q0 -16 18 -38l-16 -22
l-179 130l17 22q17 -7 28 -7q41 0 134 126q-106 32 -147 32q-33 0 -55 -32l-26 8l69 210l26 -8q-1 -8 -1 -12q0 -29 34.5 -51.5t129.5 -54.5q-1 107 -13.5 144.5t-48.5 47.5v27z" />
    <glyph glyph-name="plus" unicode="+" horiz-adv-x="1570" 
d="M238 554v258h34q22 -37 54.5 -50.5t96.5 -13.5h298v295q0 64 -14.5 97t-50.5 54v36h258v-36q-36 -22 -49.5 -54t-13.5 -97v-295h294q65 0 98.5 14t53.5 50h36v-258h-36q-22 37 -54 50.5t-97 13.5h-295v-298q0 -64 13.5 -96t49.5 -55v-33h-258v34q37 22 51 54.5t14 96.5
v297h-299q-64 0 -96 -13.5t-55 -50.5h-33z" />
    <glyph glyph-name="comma" unicode="," horiz-adv-x="573" 
d="M215 -232l-30 35q66 41 96 80.5t40 98.5q-27 -6 -42 -6q-46 0 -74 29.5t-28 77.5q0 49 29.5 80.5t75.5 31.5q52 0 83 -43t31 -115q0 -89 -42.5 -152t-138.5 -117z" />
    <glyph glyph-name="hyphen" unicode="-" horiz-adv-x="407" 
d="M407 689v-258h-24q-8 37 -19 50.5t-34 13.5h-254q-22 0 -33.5 -13.5t-19.5 -50.5h-23v258h23q8 -37 19.5 -50.5t33.5 -13.5h254q22 0 34 14t19 50h24z" />
    <glyph glyph-name="period" unicode="." horiz-adv-x="573" 
d="M286 194q46 0 77.5 -32t31.5 -78q0 -44 -32.5 -76t-76.5 -32q-45 0 -77 32.5t-32 76.5q0 45 31.5 76.5t77.5 32.5z" />
    <glyph glyph-name="slash" unicode="/" horiz-adv-x="1460" 
d="M411 28v-28h-315v28q69 4 163 124l794 1061q54 73 54 90q0 27 -48 35v27h307v-27q-69 -4 -163 -124l-785 -1062q-55 -74 -55 -90q0 -26 48 -34z" />
    <glyph glyph-name="zero" unicode="0" horiz-adv-x="1475" 
d="M736 1389q254 0 436 -179q95 -93 151 -228q60 -144 60 -309q0 -206 -109 -388q-99 -164 -264 -245q-130 -64 -273 -64q-169 0 -317 88q-158 93 -246 269q-83 164 -83 350q0 216 109 397q98 164 264 245q126 62 272 64zM736 1252q-212 0 -356 -155q-151 -162 -151 -414
t151 -415q143 -155 357 -155t357 155q151 163 151 407q0 262 -151 422q-144 153 -358 155z" />
    <glyph glyph-name="one" unicode="1" horiz-adv-x="1475" 
d="M710 1119q-84 -52 -147 -61q-28 -4 -35 -11.5t-14 -40.5h-32v256h32q6 -45 11 -53t25 -8q47 0 105 35t58 64q0 20 -56 31v34h267v-34q-38 -9 -51 -26t-13 -58v-1129q0 -41 13 -57.5t51 -26.5v-34h-278v34q38 9 51 26t13 58v1001z" />
    <glyph glyph-name="two" unicode="2" horiz-adv-x="1475" 
d="M345 942l-205 200l23 22q39 -26 59 -26q11 0 29 19q218 232 536 232q213 0 350 -110q142 -113 142 -289q0 -174 -135 -289q-93 -79 -308 -185q-164 -81 -225.5 -118t-122.5 -94q-85 -79 -120 -174h849q42 0 59.5 13t26.5 51h32v-258h-32q-9 38 -26.5 51t-59.5 13h-938
q-42 0 -59.5 -13t-26.5 -51h-32q1 107 31 188.5t100 169.5q77 98 186 174t306 169q118 57 172.5 91t96.5 79q69 74 69 172q0 109 -80 180q-105 94 -275 94q-192 0 -341 -126q-86 -74 -86 -106q0 -23 27 -56z" />
    <glyph glyph-name="three" unicode="3" horiz-adv-x="1475" 
d="M296 966l-181 206l23 22q33 -25 48 -25q11 0 72 44q128 94 245 135t254 41q233 0 383 -115q64 -49 100.5 -118t36.5 -143q0 -195 -226 -275q111 -28 176 -83q111 -96 111 -250q0 -188 -155 -304q-168 -125 -434 -125q-143 0 -271.5 36t-272.5 116q-24 14 -32 14
q-19 0 -50 -31l-27 17l146 242l27 -16q-11 -26 -11 -39q0 -20 33 -49q82 -72 206 -112.5t262 -40.5q211 0 328 95q43 35 68.5 89t25.5 109q0 114 -88 184q-96 76 -298 76h-128q-42 0 -59.5 -13t-26.5 -51h-32v258h32q9 -38 26.5 -51t59.5 -13h106q103 0 161 12t104 44
q82 56 82 154t-87 163q-111 84 -289 84q-211 0 -371 -130q-72 -59 -72 -90q0 -12 18 -45z" />
    <glyph glyph-name="four" unicode="4" horiz-adv-x="1475" 
d="M1123 417h135q42 0 59.5 13t26.5 51h32v-258h-32q-9 38 -26.5 51t-59.5 13h-135v-169q0 -40 13 -57t51 -27v-34h-278v34q38 10 51 26.5t13 57.5v169h-756q-42 0 -59.5 -13t-26.5 -51h-32v165l768 892q12 14 12 23q0 16 -49 28v34h357v-34q-38 -9 -51 -26t-13 -58v-830z
M973 417v795l-673 -795h673z" />
    <glyph glyph-name="five" unicode="5" horiz-adv-x="1475" 
d="M377 1235v-424q181 127 422 127q246 0 399 -120q165 -129 165 -344t-177 -361q-164 -137 -415 -137q-154 0 -277 42t-263 143q-22 16 -35 16q-16 0 -45 -22l-26 17l166 218l25 -20q-17 -31 -17 -49q0 -27 87 -89q165 -119 385 -119q228 0 350 131q85 91 85 227
q0 142 -100 234q-119 110 -311 110q-181 0 -314 -85q-72 -46 -72 -70q0 -20 20 -44l-19 -25l-270 209l22 23h9q36 0 46 17.5t10 78.5v328q0 42 -13 59.5t-51 26.5v32h997q42 0 59.5 13t26.5 52h32v-258h-32q-9 37 -26.5 50t-59.5 13h-783z" />
    <glyph glyph-name="six" unicode="6" horiz-adv-x="1475" 
d="M1318 1286l-129 -243l-27 17q7 28 7 42q0 33 -64 75q-125 82 -285 82q-203 0 -346 -135q-173 -163 -173 -440q0 -21 2 -63q187 280 514 280q228 0 376 -127q150 -129 150 -326t-150 -331q-158 -141 -408 -141q-293 0 -468 194q-86 95 -131 230q-40 121 -40 252
q0 204 93 382q96 183 268 277q144 78 308 78q94 0 163 -18t200 -77q51 -23 68 -23q18 0 44 31zM788 765q-163 0 -283 -93q-62 -48 -98 -110.5t-36 -123.5q0 -53 29 -113t77 -105q114 -107 300 -107q189 0 313 108q96 83 96 210q0 148 -108 239q-111 94 -290 95z" />
    <glyph glyph-name="seven" unicode="7" horiz-adv-x="1475" 
d="M1131 1228h-920q-42 0 -59.5 -12.5t-26.5 -50.5h-32v265h32q9 -39 26.5 -52t59.5 -13h971q42 0 59.5 13t26.5 52h32v-187l-646 -1151q-12 -21 -12 -32q0 -23 61 -26v-34h-307v34q36 4 55 14.5t33 34.5z" />
    <glyph glyph-name="eight" unicode="8" horiz-adv-x="1475" 
d="M385 730q-93 32 -143 80q-91 86 -91 211q0 119 84 209q147 159 502 159q259 0 417 -91q82 -48 129 -126q40 -68 40 -151q0 -104 -59 -177.5t-175 -113.5q88 -29 144 -74q132 -105 132 -262q0 -106 -66 -204q-145 -214 -562 -214q-316 0 -485 132q-66 51 -104.5 128.5
t-38.5 157.5q0 116 72 204t204 132zM734 1252q-211 0 -331 -70q-102 -59 -102 -162q0 -101 102 -161q120 -70 334 -70t335 70q101 59 101 158q0 112 -115 173t-324 62zM734 666q-229 0 -358 -84q-110 -71 -110 -192t110 -193q129 -84 361 -84t361 84q51 33 80.5 84t29.5 105
q0 125 -110 196q-128 83 -364 84z" />
    <glyph glyph-name="nine" unicode="9" horiz-adv-x="1475" 
d="M117 121l150 228l26 -18q-12 -28 -12 -44q0 -22 36 -49q175 -126 363 -126q196 0 333 125q171 158 171 454q0 22 -1 52q-156 -271 -503 -271q-231 0 -379 131q-149 130 -149 322q0 145 89 259q83 107 231 162q114 43 244 43q203 0 358 -104q146 -97 215 -274
q55 -141 55 -302q0 -195 -78 -366q-88 -193 -267 -290q-143 -77 -319 -77q-112 0 -207.5 29t-222.5 102q-47 27 -55 27q-23 0 -52 -32zM709 1252q-184 0 -305 -113q-96 -91 -96 -220t103 -215q113 -96 289 -96q194 0 321 107q100 85 100 206q0 113 -79 197
q-123 132 -333 134z" />
    <glyph glyph-name="colon" unicode=":" horiz-adv-x="573" 
d="M286 194q46 0 77.5 -32t31.5 -78q0 -44 -32.5 -76t-76.5 -32q-45 0 -77 32.5t-32 76.5q0 45 31.5 76.5t77.5 32.5zM286 1143q46 0 77.5 -32t31.5 -78q0 -44 -32.5 -76t-76.5 -32q-45 0 -77 32.5t-32 76.5q0 45 31.5 76.5t77.5 32.5z" />
    <glyph glyph-name="semicolon" unicode=";" horiz-adv-x="573" 
d="M215 -232l-30 35q66 41 96 80.5t40 98.5q-27 -6 -42 -6q-46 0 -74 29.5t-28 77.5q0 49 29.5 80.5t75.5 31.5q52 0 83 -43t31 -115q0 -89 -42.5 -152t-138.5 -117zM286 1143q46 0 77.5 -32t31.5 -78q0 -44 -32.5 -76t-76.5 -32q-45 0 -77 32.5t-32 76.5q0 45 31.5 76.5
t77.5 32.5z" />
    <glyph glyph-name="less" unicode="&#x3c;" 
d="M955 1167v-154l-721 -330l721 -330v-155l-887 418v134z" />
    <glyph glyph-name="equal" unicode="=" horiz-adv-x="1570" 
d="M238 758v258h34q22 -37 54 -50.5t97 -13.5h722q65 0 98 14t54 50h36v-258h-36q-22 37 -54 50.5t-97 13.5h-723q-65 0 -97 -13.5t-55 -50.5h-33zM238 349v258h34q22 -37 54.5 -50.5t96.5 -13.5h722q65 0 98.5 14t53.5 50h36v-258h-36q-22 37 -54 50.5t-97 13.5h-723
q-65 0 -97.5 -13.5t-54.5 -50.5h-33z" />
    <glyph glyph-name="greater" unicode="&#x3e;" 
d="M69 1167l887 -417v-134l-887 -418v155l721 330l-721 330v154z" />
    <glyph glyph-name="question" unicode="?" horiz-adv-x="1051" 
d="M641 390h-242v27q35 2 46 13.5t13 49.5q4 109 43 188q22 44 42.5 71.5t126.5 154.5q74 89 74 166q0 73 -39 122q-66 84 -183 84q-120 0 -215 -89q-52 -49 -52 -89q0 -15 21 -45l-23 -22l-185 199l23 22l25 -15q13 -8 20 -8q10 0 34 19q178 151 373 151q163 0 267 -101
q91 -89 91 -220q0 -97 -57 -176q-29 -40 -136 -148q-55 -56 -89 -133t-34 -145q0 -25 11 -34.5t45 -14.5v-27zM527 191q46 0 77 -31.5t31 -77.5q0 -43 -32 -74.5t-76 -31.5t-75.5 32t-31.5 76t31 75t76 32z" />
    <glyph glyph-name="at" unicode="@" horiz-adv-x="1696" 
d="M1281 968l-115 -459q-2 -9 -2 -21q0 -44 63 -44q61 0 135 49q48 31 76 105t28 167q0 197 -140 334q-94 91 -220 139q-113 42 -229 42q-175 0 -337 -91q-170 -95 -253 -246q-65 -119 -65 -268q0 -251 169 -419q88 -88 201 -129t265 -41q84 0 178.5 18.5t156.5 46.5
q24 12 24 42q0 5 -1 16l20 6l66 -219l-23 -6q-25 48 -54 48q-12 0 -129 -32q-112 -30 -263 -30q-313 0 -508 168q-122 106 -187 270q-51 131 -51 265q0 209 117 381q125 184 356 270q159 59 331 59q310 0 520 -180q193 -166 193 -427q0 -237 -139 -348q-85 -68 -189 -68
q-78 0 -121.5 23t-86.5 88q-65 -49 -158.5 -78t-191.5 -29q-124 0 -200 60q-84 68 -84 183q0 130 94 234q62 69 155.5 108t196.5 39q141 0 245 -98l20 72h137zM863 893q-111 0 -192 -63q-97 -74 -102 -191q-3 -75 48.5 -121.5t137.5 -46.5q140 0 230 70t90 163
q0 91 -54.5 139.5t-157.5 49.5z" />
    <glyph glyph-name="A" unicode="A" horiz-adv-x="1510" 
d="M1119 383h-731l-120 -259q-17 -37 -17 -52q0 -30 59 -40v-32h-304v32q41 7 62.5 30t56.5 100l500 1079q18 39 18 53q0 26 -49 39v32h332v-32q-49 -16 -49 -42q0 -11 18 -50l479 -1040q53 -115 70 -135t74 -34v-32h-324v32q58 8 58 44q0 16 -22 62zM1060 513l-307 674
l-306 -674h613z" />
    <glyph glyph-name="B" unicode="B" horiz-adv-x="1594" 
d="M1246 709q238 -80 238 -330q0 -121 -64 -213q-63 -91 -170 -128.5t-305 -37.5h-795v32q38 10 51 27t13 59v1129q0 42 -13 59.5t-51 26.5v32h814q120 0 198.5 -19t138.5 -63q138 -99 138 -284q0 -197 -193 -290zM371 776h526q112 0 167.5 7t102.5 26q58 24 90 74t32 116
q0 88 -57 150q-46 49 -119.5 67.5t-225.5 18.5h-516v-459zM371 130h548q118 0 175 7.5t106 29.5q60 28 93.5 84t33.5 130q0 98 -59 167q-49 57 -125 77.5t-234 20.5h-538v-516z" />
    <glyph glyph-name="C" unicode="C" horiz-adv-x="1735" 
d="M1589 1247l-148 -247l-27 16q9 30 9 47q0 41 -128 103q-176 86 -384 86q-280 0 -454 -155q-177 -158 -177 -409q0 -250 184 -415q178 -161 439 -161q255 0 450 149q88 67 88 95q0 14 -17 46l24 19l178 -216l-25 -20q-28 25 -46 25q-11 0 -38 -21q-92 -69 -152.5 -103.5
t-132.5 -58.5q-149 -51 -328 -51q-345 0 -561 192q-227 201 -227 513q0 246 142 426q222 282 665 282q293 0 567 -155q18 -10 25 -10q13 0 47 38z" />
    <glyph glyph-name="D" unicode="D" horiz-adv-x="1686" 
d="M214 104v1157q0 30 -14 46t-50 26v32h720q245 0 375 -68q164 -85 250 -262q75 -155 75 -352q0 -233 -101 -402q-91 -150 -230.5 -215.5t-368.5 -65.5h-720v32q36 10 50 26t14 46zM371 130h493q217 0 322 67q124 80 182 245q38 110 38 241q0 238 -121 394q-67 86 -163 122
t-258 36h-493v-1105z" />
    <glyph glyph-name="E" unicode="E" horiz-adv-x="1474" 
d="M371 637v-507h875q42 0 59.5 13t26.5 51h32v-258h-31q-10 38 -27.5 51t-59.5 13h-1096v32q39 10 51.5 27t12.5 59v1129q0 42 -13 59t-51 27v32h1083q42 0 59 13t27 52h32v-258h-32q-9 37 -26.5 50t-59.5 13h-862v-468h565q42 0 59.5 13t26.5 51h32v-258h-32
q-9 38 -26.5 51t-59.5 13h-565z" />
    <glyph glyph-name="F" unicode="F" horiz-adv-x="1460" 
d="M371 1235v-466h592q42 0 59.5 13t26.5 51h32v-258h-32q-9 38 -26.5 51t-59.5 13h-592v-521q0 -42 12.5 -59t51.5 -27v-32h-285v32q38 10 51 27t13 59v1129q0 42 -13 59.5t-51 26.5v32h1110q42 0 59.5 13t26.5 52h32v-258h-32q-9 38 -26.5 50.5t-59.5 12.5h-889z" />
    <glyph glyph-name="G" unicode="G" horiz-adv-x="1720" 
d="M1590 1234l-153 -244l-26 18q18 30 18 45q0 31 -107 88q-206 112 -422 112q-251 0 -423 -141q-197 -160 -197 -432q0 -265 188 -422q173 -145 442 -145q142 0 270.5 44.5t216.5 124.5v252h-323q-42 0 -59.5 -13t-26.5 -51h-32v258h32q9 -38 26.5 -51t59.5 -13h537v-32
q-38 -10 -51 -27t-13 -59v-177q0 -42 13 -59t51 -27v-28q-113 -101 -213 -157q-217 -122 -495 -122q-342 0 -553 185q-104 91 -165 218q-69 145 -69 306q0 231 135 410q125 165 336 241q149 53 320 53q150 0 278 -36t276 -119q43 -24 53 -24q16 0 49 42z" />
    <glyph glyph-name="H" unicode="H" horiz-adv-x="1677" 
d="M1306 637h-935v-519q0 -42 12.5 -59t51.5 -27v-32h-285v32q39 10 51.5 27t12.5 59v1129q0 42 -13 59.5t-51 26.5v32h285v-32q-38 -10 -51 -27t-13 -59v-480h935v480q0 42 -13 59.5t-51 26.5v32h285v-32q-38 -10 -51 -27t-13 -59v-1129q0 -41 13 -58.5t51 -27.5v-32h-285
v32q38 10 51 27t13 59v519z" />
    <glyph glyph-name="I" unicode="I" horiz-adv-x="586" 
d="M214 118v1129q0 42 -13 59.5t-51 26.5v32h285v-32q-38 -10 -51 -27t-13 -59v-1129q0 -42 12.5 -59t51.5 -27v-32h-285v32q39 10 51.5 27t12.5 59z" />
    <glyph glyph-name="J" unicode="J" horiz-adv-x="1192" 
d="M7 61l118 254l29 -14q-11 -32 -11 -45q0 -29 78 -69q147 -75 306 -75q121 0 203 45.5t105 126.5q13 45 13 223v740q0 42 -13 59.5t-51 26.5v32h285v-32q-38 -10 -51 -27.5t-13 -58.5v-775q0 -131 -8 -185t-36 -106q-56 -104 -184 -158q-110 -47 -250 -47
q-105 0 -179.5 17.5t-217.5 76.5q-33 14 -46 14q-16 0 -48 -37z" />
    <glyph glyph-name="K" unicode="K" horiz-adv-x="1527" 
d="M371 524v-406q0 -41 13 -58.5t51 -27.5v-32h-285v32q38 10 51 27t13 59v1129q0 42 -13 59.5t-51 26.5v32h285v-32q-38 -10 -51 -27t-13 -59v-567l736 576q39 30 39 49q0 22 -38 28v32h361v-32q-60 -4 -118 -49l-554 -431l610 -772q22 -28 41 -37.5t58 -11.5v-32h-333v32
q43 10 43 29q0 12 -44 69l-493 631z" />
    <glyph glyph-name="L" unicode="L" horiz-adv-x="1389" 
d="M371 130h872q42 0 59.5 13t26.5 51h32v-258h-32q-9 38 -26.5 51t-59.5 13h-1093v32q39 10 51.5 27t12.5 59v1129q0 42 -13 59t-51 27v32h285v-32q-38 -10 -51 -27t-13 -59v-1117z" />
    <glyph glyph-name="M" unicode="M" horiz-adv-x="1880" 
d="M930 0l-573 1147v-1029q0 -41 13 -58.5t51 -27.5v-32h-271v32q38 10 51 27t13 59v1129q0 42 -13 59.5t-51 26.5v32h354v-32q-49 -17 -49 -42q0 -12 33 -77l454 -901l456 909q24 48 24 68q0 26 -49 43v32h357v-32q-38 -10 -51 -27t-13 -59v-1129q0 -41 13 -58.5t51 -27.5
v-32h-285v32q39 10 51.5 27t12.5 59v1029z" />
    <glyph glyph-name="N" unicode="N" horiz-adv-x="1722" 
d="M357 1192v-1074q0 -41 13 -58.5t51 -27.5v-32h-271v32q39 10 51.5 27t12.5 59v1129q0 42 -13 59.5t-51 26.5v32h392v-32q-47 -16 -47 -45q0 -20 47 -75l822 -962v996q0 42 -13 59.5t-51 26.5v32h271v-32q-38 -9 -51 -26.5t-13 -59.5v-1129q0 -42 13 -59t51 -27v-32h-315
v32q46 12 46 41q0 22 -42 72z" />
    <glyph glyph-name="O" unicode="O" horiz-adv-x="1865" 
d="M930 1389q361 0 582 -189q124 -105 186 -257q51 -125 51 -269q0 -195 -111 -365q-122 -188 -339 -271q-162 -62 -367 -62q-359 0 -579 189q-123 106 -186 257q-51 124 -51 261q0 203 110 374q120 185 340 270q154 59 364 62zM930 1252q-307 0 -486 -172
q-164 -158 -164 -397q0 -240 164 -398q178 -172 488 -172q311 0 490 172q163 158 163 390q0 251 -163 405q-98 92 -210 129q-124 42 -282 43z" />
    <glyph glyph-name="P" unicode="P" horiz-adv-x="1479" 
d="M371 614v-509q0 -31 14 -47t50 -26v-32h-285v32q36 10 50 26t14 47v1156q0 30 -14 46t-50 26v32h718q151 0 235 -16t150 -58q69 -42 111 -115q47 -82 47 -184q0 -140 -86 -240q-66 -77 -167.5 -107.5t-289.5 -30.5h-497zM371 744h512q114 0 169.5 9t99.5 35
q102 60 102 201q0 142 -102 202q-44 26 -99 35t-170 9h-512v-491z" />
    <glyph glyph-name="Q" unicode="Q" horiz-adv-x="1865" 
d="M1282 32q-165 -56 -352 -56q-356 0 -577 189q-124 106 -186 257q-51 125 -51 261q0 204 111 373q123 188 339 271q162 62 367 62q359 0 579 -189q124 -106 186 -257q51 -124 51 -261q0 -180 -86.5 -333.5t-241.5 -249.5l143 -107q18 -14 34 -14q12 0 46 32l26 -20
l-178 -222l-24 27q23 38 23 52q0 20 -19 34zM1149 137l-53 40q-38 29 -84 48.5t-77 19.5q-45 0 -90 -30l-18 27q95 62 194 62q129 0 276 -111q288 167 288 489q0 240 -163 398q-179 172 -489 172q-311 0 -489 -172q-164 -158 -164 -397q0 -240 164 -398q178 -172 483 -172
q109 0 222 24z" />
    <glyph glyph-name="R" unicode="R" horiz-adv-x="1574" 
d="M371 615v-497q0 -41 13 -58.5t51 -27.5v-32h-285v32q38 10 51 27t13 59v1129q0 42 -13 59.5t-51 26.5v32h749q154 0 243.5 -16.5t155.5 -57.5q68 -42 110 -115q48 -83 48 -187q0 -156 -103.5 -254.5t-284.5 -112.5l347 -540q31 -50 90 -50v-32h-316v32q49 8 49 28
q0 10 -35 65l-310 490h-522zM371 744h553q113 0 170.5 9.5t101.5 34.5q103 60 103 201q0 142 -106 202q-47 26 -104.5 35t-178.5 9h-539v-491z" />
    <glyph glyph-name="S" unicode="S" horiz-adv-x="1532" 
d="M1431 1281l-143 -258l-28 15q17 45 17 56q0 30 -74 65q-201 94 -426 94q-185 0 -322 -69q-66 -34 -104.5 -88t-38.5 -114q0 -50 30 -94.5t79 -66.5q54 -25 127.5 -34.5t239.5 -14.5q230 -7 329 -21.5t163 -50.5q170 -95 170 -289q0 -185 -154 -303q-171 -132 -471 -132
q-173 0 -302 35t-308 129q-50 23 -59 23q-15 0 -47 -36l-27 17l150 251l28 -16q-19 -40 -19 -54q0 -32 128 -99q115 -60 221.5 -86.5t231.5 -26.5q253 0 384 111q87 74 87 176q0 134 -149 185q-48 17 -99.5 21.5t-292.5 13.5q-172 7 -269.5 26t-173.5 62q-71 40 -112.5 112
t-41.5 157q0 145 108 249q80 76 221 119.5t309 43.5q137 0 254.5 -27t265.5 -93q33 -14 41 -14q18 0 49 40z" />
    <glyph glyph-name="T" unicode="T" horiz-adv-x="1358" 
d="M757 1235v-1117q0 -41 13 -58.5t51 -27.5v-32h-285v32q38 10 51 27t13 59v1117h-462q-42 0 -59.5 -12.5t-26.5 -50.5h-32v258h32q9 -39 26.5 -52t59.5 -13h1081q42 0 59.5 13t26.5 52h32v-258h-32q-9 38 -26.5 50.5t-59.5 12.5h-462z" />
    <glyph glyph-name="U" unicode="U" horiz-adv-x="1617" 
d="M344 1247v-755q0 -134 14 -188.5t58 -94.5q107 -96 399 -96q318 0 417 113q33 38 44 90.5t11 175.5v755q0 41 -13 58.5t-51 27.5v32h271v-32q-38 -9 -51 -26.5t-13 -59.5v-786q0 -145 -28 -221q-52 -136 -195.5 -200t-397.5 -64q-380 0 -520 147q-57 59 -79.5 134.5
t-22.5 203.5v786q0 42 -13 59.5t-51 26.5v32h285v-32q-38 -10 -51 -27.5t-13 -58.5z" />
    <glyph glyph-name="V" unicode="V" horiz-adv-x="1467" 
d="M739 178l442 1011q28 62 28 92q0 38 -58 52v32h309v-32q-47 -14 -64.5 -37t-65.5 -133l-440 -992q-25 -59 -25 -85q0 -42 57 -54v-32h-380v32q57 12 57 56q0 24 -26 83l-448 1022q-37 83 -55 105t-63 35v32h326v-32q-59 -14 -59 -52q0 -34 26 -92z" />
    <glyph glyph-name="W" unicode="W" horiz-adv-x="2168" 
d="M1090 1160l-346 -997q-20 -59 -20 -82q0 -33 57 -49v-32h-331v32q57 11 57 49q0 21 -22 82l-365 1005q-38 103 -58.5 129.5t-68.5 35.5v32h320v-32q-60 -7 -60 -51q0 -16 27 -93l340 -964l337 964q29 85 29 98q0 36 -57 46v32h348v-32q-57 -14 -57 -51q0 -15 27 -93
l331 -964l328 964q24 72 24 95q0 38 -56 49v32h301v-32q-49 -10 -71.5 -38.5t-55.5 -126.5l-349 -1005q-20 -58 -20 -77q0 -40 57 -54v-32h-326v32q57 13 57 55q0 13 -20 68z" />
    <glyph glyph-name="X" unicode="X" horiz-adv-x="1407" 
d="M789 730l449 -575q93 -118 163 -123v-32h-350v32q48 8 48 34q0 19 -55 89l-351 451l-349 -451q-56 -72 -56 -87q0 -24 48 -36v-32h-329v32q41 6 79.5 34.5t84.5 88.5l434 564l-340 435q-94 124 -119 147.5t-67 31.5v32h348v-32q-49 -15 -49 -44q0 -28 41 -81l283 -366
l283 366q48 62 48 90q0 27 -48 35v32h325v-32q-41 -8 -83 -46.5t-114 -132.5z" />
    <glyph glyph-name="Y" unicode="Y" horiz-adv-x="1333" 
d="M751 604v-486q0 -41 13 -58.5t51 -27.5v-32h-285v32q38 10 51 27t13 59v486l-441 578q-72 94 -99.5 119t-68.5 32v32h346v-32q-47 -12 -47 -39q0 -33 47 -97l347 -472l346 488q44 62 44 84q0 25 -44 36v32h322v-32q-49 -9 -84 -44q-72 -76 -93 -107z" />
    <glyph glyph-name="Z" unicode="Z" horiz-adv-x="1324" 
d="M1263 1365v-28l-938 -1207h827q42 0 59.5 13t26.5 51h32v-258h-32q-9 38 -26.5 51t-59.5 13h-1097v29l941 1206h-812q-42 0 -59.5 -13t-26.5 -50h-32v258h32q9 -39 26.5 -52t59.5 -13h1079z" />
    <glyph glyph-name="bracketleft" unicode="[" horiz-adv-x="649" 
d="M344 1420v-1475h192q41 0 58.5 13.5t27.5 51.5h27v-238h-27q-9 38 -27 51t-59 13h-399v34q38 9 51 26t13 58v1457q0 41 -13 58t-51 26v34h399q41 0 58.5 13t27.5 51h27v-238h-27q-9 38 -26.5 51.5t-59.5 13.5h-192z" />
    <glyph glyph-name="backslash" unicode="\" horiz-adv-x="1460" 
d="M403 1365v-27q-48 -8 -48 -35q0 -17 54 -90l793 -1061q94 -120 163 -124v-28h-315v28q48 8 48 34q0 15 -55 90l-784 1062q-94 120 -163 124v27h307z" />
    <glyph glyph-name="bracketright" unicode="]" horiz-adv-x="649" 
d="M305 1420h-192q-42 0 -59.5 -13.5t-26.5 -51.5h-27v238h27q10 -38 27.5 -51t58.5 -13h399v-34q-38 -9 -51 -26t-13 -58v-1457q0 -41 13 -58t51 -26v-34h-399q-41 0 -59 -13t-27 -51h-27v238h27q10 -38 27.5 -51.5t58.5 -13.5h192v1475z" />
    <glyph glyph-name="asciicircum" unicode="^" 
d="M211 768h-146l358 601h177l358 -601h-148l-300 494z" />
    <glyph glyph-name="underscore" unicode="_" 
d="M0 -147h1024v-103h-1024v103z" />
    <glyph glyph-name="grave" unicode="`" 
d="M277 1533h232v-27q-27 -3 -27 -22q0 -6 3 -12l77 -163q11 -24 19 -30t30 -6v-27h-173v27h5q20 0 20 15q0 9 -6 18l-129 173q-17 24 -51 27v27z" />
    <glyph glyph-name="a" unicode="a" horiz-adv-x="1267" 
d="M917 315h-587l-85 -188q-16 -35 -16 -52q0 -34 52 -48v-27h-276v27q40 7 62.5 31.5t53.5 93.5l371 806q31 67 31 92q0 35 -50 43v27h325v-27q-50 -11 -50 -43q0 -19 40 -107l356 -775q36 -77 62 -106t66 -35v-27h-292v27q47 10 47 34q0 12 -24 66zM870 424l-245 548
l-247 -548h492z" />
    <glyph glyph-name="b" unicode="b" horiz-adv-x="1325" 
d="M1040 587q197 -80 197 -275q0 -142 -100 -227q-56 -47 -129 -66t-195 -19h-693v27q38 10 51 27.5t13 58.5v894q0 42 -13 59t-51 27v27h672q105 0 170 -13.5t113 -45.5q58 -37 91.5 -102t33.5 -138q0 -154 -160 -234zM327 640h425q101 0 148.5 7.5t85.5 29.5q77 43 77 139
q0 107 -89 158q-39 22 -87.5 29.5t-146.5 7.5h-413v-371zM327 109h446q106 0 156 8.5t90 33.5q81 51 81 159q0 121 -94 178q-40 25 -91.5 34t-154.5 9h-433v-422z" />
    <glyph glyph-name="c" unicode="c" horiz-adv-x="1443" 
d="M1317 1037l-125 -215l-23 15q7 26 7 40q0 21 -40 47q-161 104 -378 104q-212 0 -355 -117q-160 -131 -160 -343q0 -230 177 -367q139 -109 332 -109q218 0 379 127q63 50 63 73q0 17 -17 51l23 15l156 -200l-21 -18q-35 31 -50 31q-8 0 -24 -13q-123 -96 -246.5 -139
t-276.5 -43q-267 0 -440 144q-87 72 -139 171q-66 126 -66 271q0 275 215 443q179 139 450 139q240 0 459 -118q19 -10 29 -10q21 0 47 34z" />
    <glyph glyph-name="d" unicode="d" horiz-adv-x="1401" 
d="M184 113v894q0 41 -12.5 58.5t-51.5 27.5v27h566q227 0 338 -53q138 -67 216 -222q68 -134 68 -285q0 -177 -90 -325q-78 -129 -197.5 -182t-334.5 -53h-566v27q39 10 51.5 27.5t12.5 58.5zM327 109h351q199 0 291 54q102 59 152 186q37 96 37 211q0 205 -105 328
q-58 67 -143.5 95t-231.5 28h-351v-902z" />
    <glyph glyph-name="e" unicode="e" horiz-adv-x="1221" 
d="M327 524v-415h692q42 0 59.5 13t26.5 52h28v-238h-28q-9 38 -26 51t-59 13h-900v27q39 10 51.5 27.5t12.5 58.5v894q0 42 -13 59t-51 27v27h893q42 0 59 13t27 51h27v-238h-27q-10 39 -27 52t-59 13h-686v-378h437q42 0 59 13t27 51h27v-238h-27q-10 39 -27.5 52
t-58.5 13h-437z" />
    <glyph glyph-name="f" unicode="f" horiz-adv-x="1208" 
d="M327 525v-412q0 -41 13 -58.5t51 -27.5v-27h-271v27q38 10 51 27.5t13 58.5v894q0 42 -13 59t-51 27v27h910q41 0 58.5 13t27.5 51h27v-238h-27q-10 39 -27.5 52t-58.5 13h-703v-377h457q42 0 59 13t27 52h27v-238h-27q-10 38 -27 51t-59 13h-457z" />
    <glyph glyph-name="g" unicode="g" horiz-adv-x="1434" 
d="M1323 1015l-137 -220l-23 14q10 35 10 47q0 26 -95 81q-154 87 -327 87q-212 0 -352 -122q-156 -135 -156 -349q0 -203 143 -332q141 -129 372 -129q116 0 221 34.5t178 95.5v206h-252q-42 0 -59.5 -13t-26.5 -51h-27v238h27q9 -39 26.5 -52t59.5 -13h442v-27
q-39 -9 -52 -26.5t-13 -59.5v-116q0 -42 13 -59.5t52 -26.5v-23q-260 -223 -605 -223q-272 0 -446 146q-93 79 -146 190q-57 118 -57 245q0 188 114 339q102 134 271 197q126 47 270 47q124 0 226.5 -30t245.5 -107q23 -12 33 -12q12 0 47 40z" />
    <glyph glyph-name="h" unicode="h" horiz-adv-x="1393" 
d="M1065 522h-738v-409q0 -41 13 -58.5t51 -27.5v-27h-271v27q38 10 51 27.5t13 58.5v894q0 42 -13 59t-51 27v27h271v-27q-38 -10 -51 -27t-13 -59v-376h738v376q0 42 -13 59t-51 27v27h271v-27q-38 -10 -51 -27.5t-13 -58.5v-894q0 -41 13 -58.5t51 -27.5v-27h-271v27
q38 10 51 27.5t13 58.5v409z" />
    <glyph glyph-name="i" unicode="i" horiz-adv-x="512" 
d="M184 113v894q0 42 -13 59t-51 27v27h271v-27q-38 -10 -51 -27t-13 -59v-894q0 -41 13 -58.5t51 -27.5v-27h-271v27q38 10 51 27.5t13 58.5z" />
    <glyph glyph-name="j" unicode="j" horiz-adv-x="1005" 
d="M5 36l112 237l26 -11q-8 -33 -8 -47q0 -16 19 -31q50 -40 135.5 -66t166.5 -26q76 0 133.5 26.5t82.5 73.5q27 49 27 189v626q0 42 -13 59t-51 27v27h271v-27q-38 -10 -51 -27t-13 -59v-654q0 -95 -15.5 -154t-50.5 -102q-47 -56 -128.5 -88.5t-176.5 -32.5
q-81 0 -186 22t-183 56q-16 7 -27 7q-24 0 -45 -36z" />
    <glyph glyph-name="k" unicode="k" horiz-adv-x="1263" 
d="M327 433v-320q0 -41 13 -58.5t51 -27.5v-27h-271v27q38 10 51 27.5t13 58.5v894q0 42 -13 59t-51 27v27h271v-27q-38 -10 -51 -27t-13 -59v-442l536 417q55 43 68 56.5t13 26.5q0 21 -36 28v27h315v-27q-40 -8 -55 -15t-47 -32l-447 -349l495 -629q20 -25 34.5 -32.5
t42.5 -8.5v-27h-298v27q44 11 44 27q0 11 -35 58l-389 503z" />
    <glyph glyph-name="l" unicode="l" horiz-adv-x="1146" 
d="M327 109h683q42 0 59.5 13t27.5 52h27v-238h-27q-10 38 -27.5 51t-59.5 13h-890v27q38 10 51 27.5t13 58.5v894q0 42 -13 59t-51 27v27h271v-27q-38 -10 -51 -27t-13 -59v-898z" />
    <glyph glyph-name="m" unicode="m" horiz-adv-x="1583" 
d="M779 0l-476 944v-831q0 -41 13 -58.5t51 -27.5v-27h-247v27q38 10 51 27.5t13 58.5v894q0 42 -13 59t-51 27v27h340v-27q-50 -15 -50 -44q0 -12 25 -63l354 -716l356 716q24 48 24 63q0 29 -50 44v27h343v-27q-38 -10 -51 -27.5t-13 -58.5v-894q0 -41 13 -58.5t51 -27.5
v-27h-271v27q38 10 51 27.5t13 58.5v831z" />
    <glyph glyph-name="n" unicode="n" horiz-adv-x="1434" 
d="M303 945v-832q0 -41 12.5 -58.5t51.5 -27.5v-27h-247v27q39 10 51.5 27.5t12.5 58.5v894q0 42 -13 59t-51 27v27h364v-27q-52 -17 -52 -52q0 -30 38 -72l661 -740v778q0 42 -13 59t-51 27v27h247v-27q-38 -10 -51 -27t-13 -59v-894q0 -41 12.5 -58.5t51.5 -27.5v-27h-293
v27q52 13 52 41q0 21 -48 75z" />
    <glyph glyph-name="o" unicode="o" horiz-adv-x="1536" 
d="M766 1144q299 0 482 -156q195 -165 195 -436q0 -169 -96 -310q-181 -266 -579 -266q-297 0 -480 156q-195 166 -195 428q0 177 95 318q101 149 283 217q125 47 295 49zM766 1028q-244 0 -393 -150q-130 -130 -130 -318t130 -318q149 -150 395 -150t395 150
q130 130 130 312q0 197 -130 324q-150 148 -397 150z" />
    <glyph glyph-name="p" unicode="p" horiz-adv-x="1229" 
d="M327 503v-399q0 -30 13.5 -46t47.5 -26v-32h-268v32q36 10 50 26t14 46v919q0 29 -14.5 43.5t-49.5 23.5v30h620q124 0 187.5 -11t114.5 -42q61 -36 96 -104.5t35 -151.5t-34.5 -150t-97.5 -104q-52 -32 -115 -43t-186 -11h-413zM327 612h394q107 0 158 8.5t87 32.5
q70 46 70 159q0 111 -70 158q-36 24 -86.5 32.5t-158.5 8.5h-394v-399z" />
    <glyph glyph-name="q" unicode="q" horiz-adv-x="1536" 
d="M1065 25q-140 -49 -300 -49q-294 0 -477 156q-195 166 -195 428t195 428q183 156 480 156t480 -156q195 -166 195 -428q0 -305 -262 -477l104 -79q23 -17 43 -17q13 0 40 32l22 -15l-150 -197l-21 17q14 34 14 46q0 22 -31 47zM949 117q-71 51 -107 68t-71 17
q-33 0 -70 -26l-17 22q80 54 161 54q56 0 103.5 -18t120.5 -66q224 144 224 392q0 188 -130 318q-149 150 -395 150t-395 -150q-130 -130 -130 -318t130 -318q149 -150 394 -150q84 0 182 25z" />
    <glyph glyph-name="r" unicode="r" horiz-adv-x="1308" 
d="M327 507v-394q0 -41 13 -58.5t51 -27.5v-27h-271v27q39 10 51.5 27.5t12.5 58.5v894q0 42 -13 59t-51 27v27h665q113 0 184.5 -16t124.5 -54q116 -82 116 -240q0 -129 -81 -203.5t-238 -89.5l281 -446q15 -24 29.5 -32.5t51.5 -13.5v-25h-277v27q39 8 39 25q0 12 -23 48
l-258 407h-407zM327 616h426q103 0 154.5 7.5t87.5 27.5q79 44 79 153q0 105 -74 158q-68 49 -231 49h-442v-395z" />
    <glyph glyph-name="s" unicode="s" horiz-adv-x="1268" 
d="M1185 1062l-110 -218l-24 12q5 29 5 40q0 24 -65 58q-138 74 -336 74q-159 0 -270 -59q-111 -60 -111 -167q0 -48 28 -86.5t75 -54.5t102 -21t236 -12q151 -5 228.5 -19t132.5 -45q59 -33 93 -95.5t34 -136.5q0 -155 -127 -247q-152 -109 -404 -109q-124 0 -260.5 38
t-253.5 104q-16 10 -24 10q-15 0 -45 -35l-23 15l127 213l24 -14l-4 -16q-5 -16 -5 -26q0 -28 102 -82q172 -91 357 -91q169 0 281 58q54 28 86 75.5t32 99.5q0 48 -27 86t-71 54q-41 14 -91.5 20t-190.5 11q-165 7 -236 16.5t-134 32.5q-80 29 -129 94q-49 67 -49 158
q0 161 146 253q149 94 379 94q210 0 422 -94q32 -13 37 -13q16 0 38 37z" />
    <glyph glyph-name="t" unicode="t" horiz-adv-x="1132" 
d="M637 1005v-892q0 -41 12.5 -58.5t51.5 -27.5v-27h-271v27q38 10 51 27.5t13 58.5v892h-365q-42 0 -59 -13t-27 -52h-27v238h27q10 -38 27 -51t59 -13h873q42 0 59 13t27 51h27v-238h-27q-10 39 -27.5 52t-58.5 13h-365z" />
    <glyph glyph-name="u" unicode="u" horiz-adv-x="1342" 
d="M305 1007v-575q0 -133 13 -183.5t57 -84.5q90 -72 308 -72q241 0 326 88q31 33 41 81.5t10 170.5v575q0 41 -13 58.5t-51 27.5v27h247v-27q-38 -10 -51 -27t-13 -59v-604q0 -154 -26 -217q-44 -108 -161 -159t-322 -51q-294 0 -412 109q-57 52 -76.5 117t-19.5 201v604
q0 42 -13 59t-51 27v27h271v-27q-38 -10 -51 -27.5t-13 -58.5z" />
    <glyph glyph-name="v" unicode="v" horiz-adv-x="1231" 
d="M632 159l359 821q15 33 15 57q0 47 -59 56v27h278v-27q-43 -12 -62.5 -36t-58.5 -113l-342 -779q-24 -55 -24 -83q0 -44 56 -55v-27h-346v27q56 12 56 56q0 27 -25 82l-352 779q-41 91 -60 114t-62 35v27h310v-27q-59 -10 -59 -54q0 -25 15 -59z" />
    <glyph glyph-name="w" unicode="w" horiz-adv-x="1823" 
d="M912 919l-273 -763q-20 -56 -20 -71q0 -43 58 -58v-27h-312v27q55 9 55 52q0 27 -18 77l-307 828q-20 56 -38.5 76t-61.5 33v27h293v-27q-57 -14 -57 -54q0 -13 15 -55l286 -791l280 791q14 39 14 54q0 40 -54 55v27h302v-27q-58 -15 -58 -53q0 -20 13 -56l286 -801
l278 801q10 28 10 49q0 46 -63 60v27h289v-27q-43 -10 -66.5 -33.5t-42.5 -75.5l-300 -844q-14 -38 -14 -58q0 -50 56 -55v-27h-309v27q53 9 53 53q0 23 -19 76z" />
    <glyph glyph-name="x" unicode="x" horiz-adv-x="1157" 
d="M657 602l349 -455q54 -71 81 -93t64 -27v-27h-313v27q49 5 49 32q0 16 -34 62l-283 372l-289 -373q-28 -36 -28 -59q0 -25 45 -34v-27h-293v27q41 10 70.5 33.5t79.5 86.5l348 439l-298 384q-55 73 -78.5 93t-63.5 30v27h320v-27q-46 -12 -46 -44q0 -25 23 -56l225 -297
l238 303q24 32 24 51q0 35 -47 43v27h286v-27q-43 -15 -67 -35.5t-76 -88.5z" />
    <glyph glyph-name="y" unicode="y" horiz-adv-x="1114" 
d="M640 494v-381q0 -41 12.5 -58.5t51.5 -27.5v-27h-271v27q38 10 51 27.5t13 58.5v381l-345 450q-63 83 -93 110t-71 39v27h316v-27q-44 -7 -44 -38q0 -28 27 -63l295 -387l267 386q28 41 28 62q0 34 -45 40v27h292v-27q-45 -15 -83 -51.5t-104 -128.5z" />
    <glyph glyph-name="z" unicode="z" horiz-adv-x="1091" 
d="M1045 1120v-17l-760 -994h649q42 0 59.5 13t27.5 52h27v-238h-27q-10 38 -27.5 51t-59.5 13h-890v22l767 989h-643q-42 0 -59 -13t-27 -52h-27v238h27q10 -38 27 -51t59 -13h877z" />
    <glyph glyph-name="braceleft" unicode="{" horiz-adv-x="649" 
d="M0 554v258h24q8 -37 19 -50.5t34 -13.5h62q39 0 49.5 30t12.5 142v454q0 58 56.5 106.5t124.5 48.5h153q43 0 60 13t27 51h27v-238h-27q-10 39 -27 52t-60 13h-82q-57 -1 -89 -52q-13 -21 -16.5 -59.5t-3.5 -175.5v-307q0 -45 -17 -74.5t-65 -68.5q48 -38 65 -68t17 -75
v-451q-3 -133 109 -144h82q42 0 59.5 13t27.5 52h27v-238h-27q-10 38 -27.5 51t-59.5 13h-153q-61 0 -117 42q-64 49 -64 113v455q-2 112 -12.5 142t-49.5 30h-62q-23 0 -34 -13.5t-19 -50.5h-24z" />
    <glyph glyph-name="bar" unicode="|" 
d="M434 1365h155v-1706h-155v1706z" />
    <glyph glyph-name="braceright" unicode="}" horiz-adv-x="649" 
d="M649 554h-24q-8 37 -19.5 50.5t-34.5 13.5h-62q-39 0 -49.5 -30t-12.5 -142v-455q0 -58 -56.5 -106.5t-123.5 -48.5h-154q-42 0 -59 -13t-27 -51h-27v238h27q10 -39 27 -52t59 -13h82q112 11 109 144v451q0 46 17 75.5t65 67.5q-49 39 -65.5 68t-16.5 75v307
q0 145 -4 183t-22 61q-32 43 -83 43h-82q-42 0 -59.5 -13t-26.5 -52h-27v238h27q10 -38 27 -51t59 -13h154q60 0 116 -42q64 -50 64 -113v-454q2 -112 12.5 -142t49.5 -30h62q23 0 34.5 13.5t19.5 50.5h24v-258z" />
    <glyph glyph-name="asciitilde" unicode="~" horiz-adv-x="1365" 
d="M277 534l-84 65q58 118 124 173t151 55q79 0 235 -79q87 -44 124 -57t76 -13q100 0 187 154l83 -66q-42 -86 -83 -134q-82 -95 -192 -95q-41 0 -88.5 16.5t-147.5 65.5q-137 68 -200 68q-53 0 -95 -34.5t-90 -118.5z" />
    <glyph glyph-name="Adieresis" unicode="&#xc4;" horiz-adv-x="1510" 
d="M1119 383h-731l-120 -259q-17 -37 -17 -52q0 -30 59 -40v-32h-304v32q41 7 62.5 30t56.5 100l500 1079q18 39 18 53q0 26 -49 39v32h332v-32q-49 -16 -49 -42q0 -11 18 -50l479 -1040q53 -115 70 -135t74 -34v-32h-324v32q58 8 58 44q0 16 -22 62zM1060 513l-307 674
l-306 -674h613zM603 1698q39 0 66 -27t27 -67q0 -38 -27.5 -65t-65.5 -27t-65.5 27.5t-27.5 65.5q0 39 27 65.5t66 27.5zM920 1698q39 0 66 -27t27 -67q0 -38 -27.5 -65t-65.5 -27t-65.5 27.5t-27.5 65.5q0 39 27 65.5t66 27.5z" />
    <glyph glyph-name="Aring" unicode="&#xc5;" horiz-adv-x="1510" 
d="M1119 383h-731l-120 -259q-17 -37 -17 -52q0 -30 59 -40v-32h-304v32q41 7 62.5 30t56.5 100l500 1079q18 39 18 53q0 26 -49 39v32h332v-32q-49 -16 -49 -42q0 -11 18 -50l479 -1040q53 -115 70 -135t74 -34v-32h-324v32q58 8 58 44q0 16 -22 62zM1060 513l-307 674
l-306 -674h613zM761 1786q83 0 140 -49q57 -50 57 -120q0 -68 -58 -117.5t-138 -49.5q-81 0 -138 50q-58 49 -58 119t56 118t139 49zM762 1705q-43 0 -72 -24.5t-29 -62.5q0 -36 29.5 -61.5t71.5 -25.5q41 0 71 25.5t30 60.5q0 38 -28.5 63t-72.5 25z" />
    <glyph glyph-name="Ccedilla" unicode="&#xc7;" horiz-adv-x="1735" 
d="M1589 1247l-148 -247l-27 16q9 30 9 47q0 41 -128 103q-176 86 -384 86q-280 0 -454 -155q-177 -158 -177 -409q0 -250 184 -415q178 -161 439 -161q255 0 450 149q88 67 88 95q0 14 -17 46l24 19l178 -216l-25 -20q-28 25 -46 25q-11 0 -38 -21q-92 -69 -152.5 -103.5
t-132.5 -58.5q-149 -51 -328 -51q-345 0 -561 192q-227 201 -227 513q0 246 142 426q222 282 665 282q293 0 567 -155q18 -10 25 -10q13 0 47 38zM731 -220l64 114q28 3 42 3q69 0 137 -30q81 -35 81 -126q0 -70 -56 -114q-66 -50 -168 -50q-108 0 -185 29l20 41
q52 -17 99 -17q66 0 103 26t37 72q0 35 -21.5 56t-57.5 21q-22 0 -31 -5t-39 -36z" />
    <glyph glyph-name="Eacute" unicode="&#xc9;" horiz-adv-x="1474" 
d="M371 637v-507h875q42 0 59.5 13t26.5 51h32v-258h-31q-10 38 -27.5 51t-59.5 13h-1096v32q39 10 51.5 27t12.5 59v1129q0 42 -13 59t-51 27v32h1083q42 0 59 13t27 52h32v-258h-32q-9 37 -26.5 50t-59.5 13h-862v-468h565q42 0 59.5 13t26.5 51h32v-258h-32
q-9 38 -26.5 51t-59.5 13h-565zM999 1765v-27q-34 -3 -51 -28l-129 -172q-6 -9 -6 -18q0 -15 21 -15h4v-27h-173v27q22 0 30 6t20 30l76 163q3 6 3 12q0 19 -27 22v27h232z" />
    <glyph glyph-name="Ntilde" unicode="&#xd1;" horiz-adv-x="1722" 
d="M357 1192v-1074q0 -41 13 -58.5t51 -27.5v-32h-271v32q39 10 51.5 27t12.5 59v1129q0 42 -13 59.5t-51 26.5v32h392v-32q-47 -16 -47 -45q0 -20 47 -75l822 -962v996q0 42 -13 59.5t-51 26.5v32h271v-32q-38 -9 -51 -26.5t-13 -59.5v-1129q0 -42 13 -59t51 -27v-32h-315
v32q46 12 46 41q0 22 -42 72zM1077 1733l130 -84l-14 -23q-14 6 -22 6q-12 0 -25 -18q-64 -95 -138 -95q-36 0 -78 15l-144 53q-18 7 -40 7q-20 0 -38 -16t-19 -35q-1 -10 13 -28l-15 -18l-132 90l13 18q14 -4 21 -4q18 0 35 23q58 84 148 84q28 0 58 -11l145 -55
q24 -9 47 -9q20 0 37.5 16t17.5 35q0 14 -16 30z" />
    <glyph glyph-name="Odieresis" unicode="&#xd6;" horiz-adv-x="1865" 
d="M930 1389q361 0 582 -189q124 -105 186 -257q51 -125 51 -269q0 -195 -111 -365q-122 -188 -339 -271q-162 -62 -367 -62q-359 0 -579 189q-123 106 -186 257q-51 124 -51 261q0 203 110 374q120 185 340 270q154 59 364 62zM930 1252q-307 0 -486 -172
q-164 -158 -164 -397q0 -240 164 -398q178 -172 488 -172q311 0 490 172q163 158 163 390q0 251 -163 405q-98 92 -210 129q-124 42 -282 43zM763 1698q39 0 66 -27t27 -67q0 -38 -27.5 -65t-65.5 -27t-65.5 27t-27.5 66t27 65.5t66 27.5zM1115 1698q39 0 66 -27t27 -67
q0 -38 -27.5 -65t-65.5 -27q-39 0 -66 27t-27 66t27 65.5t66 27.5z" />
    <glyph glyph-name="Udieresis" unicode="&#xdc;" horiz-adv-x="1617" 
d="M344 1247v-755q0 -134 14 -188.5t58 -94.5q107 -96 399 -96q318 0 417 113q33 38 44 90.5t11 175.5v755q0 41 -13 58.5t-51 27.5v32h271v-32q-38 -9 -51 -26.5t-13 -59.5v-786q0 -145 -28 -221q-52 -136 -195.5 -200t-397.5 -64q-380 0 -520 147q-57 59 -79.5 134.5
t-22.5 203.5v786q0 42 -13 59.5t-51 26.5v32h285v-32q-38 -10 -51 -27.5t-13 -58.5zM622 1698q39 0 66 -27t27 -67q0 -38 -27.5 -65t-65.5 -27q-39 0 -66 27t-27 66t26.5 65.5t66.5 27.5zM994 1698q39 0 66 -27.5t27 -66.5q0 -38 -27.5 -65t-65.5 -27q-39 0 -66 27t-27 66
t27 65.5t66 27.5z" />
    <glyph glyph-name="aacute" unicode="&#xe1;" horiz-adv-x="1267" 
d="M917 315h-587l-85 -188q-16 -35 -16 -52q0 -34 52 -48v-27h-276v27q40 7 62.5 31.5t53.5 93.5l371 806q31 67 31 92q0 35 -50 43v27h325v-27q-50 -11 -50 -43q0 -19 40 -107l356 -775q36 -77 62 -106t66 -35v-27h-292v27q47 10 47 34q0 12 -24 66zM870 424l-245 548
l-247 -548h492zM875 1533v-27q-34 -3 -51 -27l-129 -173q-6 -9 -6 -18q0 -15 21 -15h4v-27h-173v27q22 0 30 6t20 30l76 163q3 6 3 12q0 19 -27 22v27h232z" />
    <glyph glyph-name="agrave" unicode="&#xe0;" horiz-adv-x="1267" 
d="M917 315h-587l-85 -188q-16 -35 -16 -52q0 -34 52 -48v-27h-276v27q40 7 62.5 31.5t53.5 93.5l371 806q31 67 31 92q0 35 -50 43v27h325v-27q-50 -11 -50 -43q0 -19 40 -107l356 -775q36 -77 62 -106t66 -35v-27h-292v27q47 10 47 34q0 12 -24 66zM870 424l-245 548
l-247 -548h492zM391 1533h232v-27q-27 -3 -27 -22q0 -6 3 -12l77 -163q11 -24 19 -30t30 -6v-27h-173v27h5q20 0 20 15q0 9 -6 18l-129 173q-17 24 -51 27v27z" />
    <glyph glyph-name="acircumflex" unicode="&#xe2;" horiz-adv-x="1267" 
d="M917 315h-587l-85 -188q-16 -35 -16 -52q0 -34 52 -48v-27h-276v27q40 7 62.5 31.5t53.5 93.5l371 806q31 67 31 92q0 35 -50 43v27h325v-27q-50 -11 -50 -43q0 -19 40 -107l356 -775q36 -77 62 -106t66 -35v-27h-292v27q47 10 47 34q0 12 -24 66zM870 424l-245 548
l-247 -548h492zM519 1246h-210v27q26 1 37 7.5t36 34.5l146 149q12 12 12 25q0 17 -35 17v27h262v-27q-33 -4 -33 -18q0 -11 18 -28l169 -167q18 -19 48 -20v-27h-235v27q33 3 33 15q0 6 -17 23l-124 131l-128 -134q-10 -10 -10 -17q0 -16 31 -18v-27z" />
    <glyph glyph-name="adieresis" unicode="&#xe4;" horiz-adv-x="1267" 
d="M917 315h-587l-85 -188q-16 -35 -16 -52q0 -34 52 -48v-27h-276v27q40 7 62.5 31.5t53.5 93.5l371 806q31 67 31 92q0 35 -50 43v27h325v-27q-50 -11 -50 -43q0 -19 40 -107l356 -775q36 -77 62 -106t66 -35v-27h-292v27q47 10 47 34q0 12 -24 66zM870 424l-245 548
l-247 -548h492zM479 1466q39 0 66 -27t27 -67q0 -38 -27.5 -65t-65.5 -27q-39 0 -66 27t-27 66t26.5 65.5t66.5 27.5zM797 1466q39 0 66 -27t27 -67q0 -38 -27.5 -65t-65.5 -27q-39 0 -66 27t-27 66t26.5 65.5t66.5 27.5z" />
    <glyph glyph-name="atilde" unicode="&#xe3;" horiz-adv-x="1267" 
d="M917 315h-587l-85 -188q-16 -35 -16 -52q0 -34 52 -48v-27h-276v27q40 7 62.5 31.5t53.5 93.5l371 806q31 67 31 92q0 35 -50 43v27h325v-27q-50 -11 -50 -43q0 -19 40 -107l356 -775q36 -77 62 -106t66 -35v-27h-292v27q47 10 47 34q0 12 -24 66zM870 424l-245 548
l-247 -548h492zM834 1501l130 -84l-14 -23q-14 6 -22 6q-12 0 -25 -18q-64 -96 -138 -96q-35 0 -78 16l-144 53q-19 7 -40 7q-20 0 -38.5 -16.5t-18.5 -34.5q0 -11 13 -28l-15 -18l-132 90l13 18q13 -4 21 -4q18 0 35 23q57 84 148 84q27 0 58 -12l145 -54q25 -10 47 -10
q20 0 37.5 16t17.5 35q0 14 -16 31z" />
    <glyph glyph-name="aring" unicode="&#xe5;" horiz-adv-x="1267" 
d="M917 315h-587l-85 -188q-16 -35 -16 -52q0 -34 52 -48v-27h-276v27q40 7 62.5 31.5t53.5 93.5l371 806q31 67 31 92q0 35 -50 43v27h325v-27q-50 -11 -50 -43q0 -19 40 -107l356 -775q36 -77 62 -106t66 -35v-27h-292v27q47 10 47 34q0 12 -24 66zM870 424l-245 548
l-247 -548h492zM631 1554q83 0 140 -49q57 -50 57 -120q0 -68 -58 -117.5t-138 -49.5q-81 0 -138 50q-58 49 -58 119t56 118t139 49zM632 1473q-43 0 -72 -24.5t-29 -62.5q0 -36 29.5 -61.5t71.5 -25.5q41 0 71 25.5t30 60.5q0 38 -28.5 63t-72.5 25z" />
    <glyph glyph-name="ccedilla" unicode="&#xe7;" horiz-adv-x="1443" 
d="M1317 1037l-125 -215l-23 15q7 26 7 40q0 21 -40 47q-161 104 -378 104q-212 0 -355 -117q-160 -131 -160 -343q0 -230 177 -367q139 -109 332 -109q218 0 379 127q63 50 63 73q0 17 -17 51l23 15l156 -200l-21 -18q-35 31 -50 31q-8 0 -24 -13q-123 -96 -246.5 -139
t-276.5 -43q-267 0 -440 144q-87 72 -139 171q-66 126 -66 271q0 275 215 443q179 139 450 139q240 0 459 -118q19 -10 29 -10q21 0 47 34zM599 -202l51 104q22 2 40 2q86 0 136 -37t50 -100q0 -68 -50 -109q-49 -41 -141 -41q-90 0 -154 23l16 36q42 -13 79 -13
q113 0 113 82q0 68 -62 68q-33 0 -58 -27z" />
    <glyph glyph-name="eacute" unicode="&#xe9;" horiz-adv-x="1221" 
d="M327 524v-415h692q42 0 59.5 13t26.5 52h28v-238h-28q-9 38 -26 51t-59 13h-900v27q39 10 51.5 27.5t12.5 58.5v894q0 42 -13 59t-51 27v27h893q42 0 59 13t27 51h27v-238h-27q-10 39 -27 52t-59 13h-686v-378h437q42 0 59 13t27 51h27v-238h-27q-10 39 -27.5 52
t-58.5 13h-437zM873 1533v-27q-34 -3 -51 -27l-129 -173q-6 -9 -6 -18q0 -15 21 -15h4v-27h-173v27q22 0 30 6t20 30l76 163q3 6 3 12q0 19 -27 22v27h232z" />
    <glyph glyph-name="egrave" unicode="&#xe8;" horiz-adv-x="1221" 
d="M327 524v-415h692q42 0 59.5 13t26.5 52h28v-238h-28q-9 38 -26 51t-59 13h-900v27q39 10 51.5 27.5t12.5 58.5v894q0 42 -13 59t-51 27v27h893q42 0 59 13t27 51h27v-238h-27q-10 39 -27 52t-59 13h-686v-378h437q42 0 59 13t27 51h27v-238h-27q-10 39 -27.5 52
t-58.5 13h-437zM416 1533h232v-27q-27 -3 -27 -22q0 -6 3 -12l77 -163q11 -24 19 -30t30 -6v-27h-173v27h5q20 0 20 15q0 9 -6 18l-129 173q-17 24 -51 27v27z" />
    <glyph glyph-name="ecircumflex" unicode="&#xea;" horiz-adv-x="1221" 
d="M327 524v-415h692q42 0 59.5 13t26.5 52h28v-238h-28q-9 38 -26 51t-59 13h-900v27q39 10 51.5 27.5t12.5 58.5v894q0 42 -13 59t-51 27v27h893q42 0 59 13t27 51h27v-238h-27q-10 39 -27 52t-59 13h-686v-378h437q42 0 59 13t27 51h27v-238h-27q-10 39 -27.5 52
t-58.5 13h-437zM520 1246h-210v27q26 1 37 7.5t36 34.5l146 149q12 12 12 25q0 17 -35 17v27h262v-27q-33 -4 -33 -18q0 -11 18 -28l169 -167q18 -19 48 -20v-27h-235v27q33 3 33 15q0 6 -17 23l-124 131l-128 -134q-10 -10 -10 -17q0 -16 31 -18v-27z" />
    <glyph glyph-name="edieresis" unicode="&#xeb;" horiz-adv-x="1221" 
d="M327 524v-415h692q42 0 59.5 13t26.5 52h28v-238h-28q-9 38 -26 51t-59 13h-900v27q39 10 51.5 27.5t12.5 58.5v894q0 42 -13 59t-51 27v27h893q42 0 59 13t27 51h27v-238h-27q-10 39 -27 52t-59 13h-686v-378h437q42 0 59 13t27 51h27v-238h-27q-10 39 -27.5 52
t-58.5 13h-437zM461 1466q39 0 66 -27t27 -67q0 -38 -27.5 -65t-65.5 -27t-65.5 27.5t-27.5 65.5q0 39 27 65.5t66 27.5zM813 1466q39 0 66 -27t27 -67q0 -38 -27.5 -65t-65.5 -27q-39 0 -66 27.5t-27 65.5q0 39 27 65.5t66 27.5z" />
    <glyph glyph-name="iacute" unicode="&#xed;" horiz-adv-x="512" 
d="M184 113v894q0 42 -13 59t-51 27v27h271v-27q-38 -10 -51 -27t-13 -59v-894q0 -41 13 -58.5t51 -27.5v-27h-271v27q38 10 51 27.5t13 58.5zM498 1533v-27q-34 -3 -51 -27l-129 -173q-6 -9 -6 -18q0 -15 21 -15h4v-27h-173v27q22 0 30 6t20 30l76 163q3 6 3 12
q0 19 -27 22v27h232z" />
    <glyph glyph-name="igrave" unicode="&#xec;" horiz-adv-x="512" 
d="M185 113v894q0 42 -13 59t-51 27v27h271v-27q-38 -10 -51 -27t-13 -59v-894q0 -41 13 -58.5t51 -27.5v-27h-271v27q38 10 51 27.5t13 58.5zM14 1533h232v-27q-27 -3 -27 -22q0 -6 3 -12l77 -163q11 -24 19 -30t30 -6v-27h-173v27h5q20 0 20 15q0 9 -6 18l-129 173
q-17 24 -51 27v27z" />
    <glyph glyph-name="icircumflex" unicode="&#xee;" horiz-adv-x="512" 
d="M185 113v894q0 42 -13 59t-51 27v27h271v-27q-38 -10 -51 -27t-13 -59v-894q0 -41 13 -58.5t51 -27.5v-27h-271v27q38 10 51 27.5t13 58.5zM170 1246h-196v27q41 1 73 42l98 149q12 18 12 24q0 18 -35 18v27h262v-27q-32 -3 -32 -18q0 -9 14 -28l117 -167q28 -18 55 -20
v-27h-221v27q34 3 33 15q0 6 -7 13l-10 10l-90 138l-94 -141q-10 -14 -10 -17q0 -16 31 -18v-27z" />
    <glyph glyph-name="idieresis" unicode="&#xef;" horiz-adv-x="512" 
d="M184 113v894q0 42 -13 59t-51 27v27h271v-27q-38 -10 -51 -27t-13 -59v-894q0 -41 13 -58.5t51 -27.5v-27h-271v27q38 10 51 27.5t13 58.5zM127 1466q39 0 66 -27t27 -67q0 -38 -27.5 -65t-65.5 -27t-65.5 27.5t-27.5 65.5q0 39 27 65.5t66 27.5zM383 1466q39 0 66 -27
t27 -67q0 -38 -27.5 -65t-65.5 -27t-65.5 27.5t-27.5 65.5q0 39 27 65.5t66 27.5z" />
    <glyph glyph-name="ntilde" unicode="&#xf1;" horiz-adv-x="1434" 
d="M303 945v-832q0 -41 12.5 -58.5t51.5 -27.5v-27h-247v27q39 10 51.5 27.5t12.5 58.5v894q0 42 -13 59t-51 27v27h364v-27q-52 -17 -52 -52q0 -30 38 -72l661 -740v778q0 42 -13 59t-51 27v27h247v-27q-38 -10 -51 -27t-13 -59v-894q0 -41 12.5 -58.5t51.5 -27.5v-27h-293
v27q52 13 52 41q0 21 -48 75zM926 1501l130 -84l-14 -23q-14 6 -22 6q-12 0 -25 -18q-64 -96 -138 -96q-35 0 -78 16l-144 53q-19 7 -40 7q-20 0 -38.5 -16.5t-18.5 -34.5q0 -11 13 -28l-15 -18l-132 90l13 18q13 -4 21 -4q18 0 35 23q57 84 148 84q27 0 58 -12l145 -54
q25 -10 47 -10q20 0 37.5 16t17.5 35q0 14 -16 31z" />
    <glyph glyph-name="oacute" unicode="&#xf3;" horiz-adv-x="1536" 
d="M766 1144q299 0 482 -156q195 -165 195 -436q0 -169 -96 -310q-181 -266 -579 -266q-297 0 -480 156q-195 166 -195 428q0 177 95 318q101 149 283 217q125 47 295 49zM766 1028q-244 0 -393 -150q-130 -130 -130 -318t130 -318q149 -150 395 -150t395 150
q130 130 130 312q0 197 -130 324q-150 148 -397 150zM1003 1533v-27q-34 -3 -51 -27l-129 -173q-6 -9 -6 -18q0 -15 21 -15h4v-27h-173v27q22 0 30 6t20 30l76 163q3 6 3 12q0 19 -27 22v27h232z" />
    <glyph glyph-name="ograve" unicode="&#xf2;" horiz-adv-x="1536" 
d="M766 1144q299 0 482 -156q195 -165 195 -436q0 -169 -96 -310q-181 -266 -579 -266q-297 0 -480 156q-195 166 -195 428q0 177 95 318q101 149 283 217q125 47 295 49zM766 1028q-244 0 -393 -150q-130 -130 -130 -318t130 -318q149 -150 395 -150t395 150
q130 130 130 312q0 197 -130 324q-150 148 -397 150zM539 1533h232v-27q-27 -3 -27 -22q0 -6 3 -12l77 -163q11 -24 19 -30t30 -6v-27h-173v27h5q20 0 20 15q0 9 -6 18l-129 173q-17 24 -51 27v27z" />
    <glyph glyph-name="ocircumflex" unicode="&#xf4;" horiz-adv-x="1536" 
d="M766 1144q299 0 482 -156q195 -165 195 -436q0 -169 -96 -310q-181 -266 -579 -266q-297 0 -480 156q-195 166 -195 428q0 177 95 318q101 149 283 217q125 47 295 49zM766 1028q-244 0 -393 -150q-130 -130 -130 -318t130 -318q149 -150 395 -150t395 150
q130 130 130 312q0 197 -130 324q-150 148 -397 150zM655 1246h-210v27q26 1 37 7.5t36 34.5l146 149q12 12 12 25q0 17 -35 17v27h262v-27q-33 -4 -33 -18q0 -11 18 -28l169 -167q18 -19 48 -20v-27h-235v27q33 3 33 15q0 6 -17 23l-124 131l-128 -134q-10 -10 -10 -17
q0 -16 31 -18v-27z" />
    <glyph glyph-name="odieresis" unicode="&#xf6;" horiz-adv-x="1536" 
d="M766 1144q299 0 482 -156q195 -165 195 -436q0 -169 -96 -310q-181 -266 -579 -266q-297 0 -480 156q-195 166 -195 428q0 177 95 318q101 149 283 217q125 47 295 49zM766 1028q-244 0 -393 -150q-130 -130 -130 -318t130 -318q149 -150 395 -150t395 150
q130 130 130 312q0 197 -130 324q-150 148 -397 150zM595 1466q39 0 66 -27t27 -67q0 -38 -27.5 -65t-65.5 -27q-39 0 -66 27t-27 66t27 65.5t66 27.5zM953 1466q39 0 66 -27t27 -67q0 -38 -27.5 -65t-65.5 -27q-39 0 -66 27t-27 66t27 65.5t66 27.5z" />
    <glyph glyph-name="otilde" unicode="&#xf5;" horiz-adv-x="1536" 
d="M766 1144q299 0 482 -156q195 -165 195 -436q0 -169 -96 -310q-181 -266 -579 -266q-297 0 -480 156q-195 166 -195 428q0 177 95 318q101 149 283 217q125 47 295 49zM766 1028q-244 0 -393 -150q-130 -130 -130 -318t130 -318q149 -150 395 -150t395 150
q130 130 130 312q0 197 -130 324q-150 148 -397 150zM977 1501l130 -84l-14 -23q-14 6 -22 6q-12 0 -25 -18q-64 -96 -138 -96q-35 0 -78 16l-144 53q-19 7 -40 7q-20 0 -38.5 -16.5t-18.5 -34.5q0 -11 13 -28l-15 -18l-132 90l13 18q13 -4 21 -4q18 0 35 23q57 84 148 84
q27 0 58 -12l145 -54q25 -10 47 -10q20 0 37.5 16t17.5 35q0 14 -16 31z" />
    <glyph glyph-name="uacute" unicode="&#xfa;" horiz-adv-x="1342" 
d="M305 1007v-575q0 -133 13 -183.5t57 -84.5q90 -72 308 -72q241 0 326 88q31 33 41 81.5t10 170.5v575q0 41 -13 58.5t-51 27.5v27h247v-27q-38 -10 -51 -27t-13 -59v-604q0 -154 -26 -217q-44 -108 -161 -159t-322 -51q-294 0 -412 109q-57 52 -76.5 117t-19.5 201v604
q0 42 -13 59t-51 27v27h271v-27q-38 -10 -51 -27.5t-13 -58.5zM903 1533v-27q-34 -3 -51 -27l-129 -173q-6 -9 -6 -18q0 -15 21 -15h4v-27h-173v27q22 0 30 6t20 30l76 163q3 6 3 12q0 19 -27 22v27h232z" />
    <glyph glyph-name="ugrave" unicode="&#xf9;" horiz-adv-x="1342" 
d="M305 1007v-575q0 -133 13 -183.5t57 -84.5q90 -72 308 -72q241 0 326 88q31 33 41 81.5t10 170.5v575q0 41 -13 58.5t-51 27.5v27h247v-27q-38 -10 -51 -27t-13 -59v-604q0 -154 -26 -217q-44 -108 -161 -159t-322 -51q-294 0 -412 109q-57 52 -76.5 117t-19.5 201v604
q0 42 -13 59t-51 27v27h271v-27q-38 -10 -51 -27.5t-13 -58.5zM449 1533h232v-27q-27 -3 -27 -22q0 -6 3 -12l77 -163q11 -24 19 -30t30 -6v-27h-173v27h5q20 0 20 15q0 9 -6 18l-129 173q-17 24 -51 27v27z" />
    <glyph glyph-name="ucircumflex" unicode="&#xfb;" horiz-adv-x="1342" 
d="M305 1007v-575q0 -133 13 -183.5t57 -84.5q90 -72 308 -72q241 0 326 88q31 33 41 81.5t10 170.5v575q0 41 -13 58.5t-51 27.5v27h247v-27q-38 -10 -51 -27t-13 -59v-604q0 -154 -26 -217q-44 -108 -161 -159t-322 -51q-294 0 -412 109q-57 52 -76.5 117t-19.5 201v604
q0 42 -13 59t-51 27v27h271v-27q-38 -10 -51 -27.5t-13 -58.5zM558 1246h-210v27q26 1 37 7.5t36 34.5l146 149q12 12 12 25q0 17 -35 17v27h262v-27q-33 -4 -33 -18q0 -11 18 -28l169 -167q18 -19 48 -20v-27h-235v27q33 3 33 15q0 6 -17 23l-124 131l-128 -134
q-10 -10 -10 -17q0 -16 31 -18v-27z" />
    <glyph glyph-name="udieresis" unicode="&#xfc;" horiz-adv-x="1342" 
d="M305 1007v-575q0 -133 13 -183.5t57 -84.5q90 -72 308 -72q241 0 326 88q31 33 41 81.5t10 170.5v575q0 41 -13 58.5t-51 27.5v27h247v-27q-38 -10 -51 -27t-13 -59v-604q0 -154 -26 -217q-44 -108 -161 -159t-322 -51q-294 0 -412 109q-57 52 -76.5 117t-19.5 201v604
q0 42 -13 59t-51 27v27h271v-27q-38 -10 -51 -27.5t-13 -58.5zM504 1466q39 0 66 -27t27 -67q0 -38 -27.5 -65t-65.5 -27t-65.5 27.5t-27.5 65.5q0 39 27 65.5t66 27.5zM856 1466q39 0 66 -27t27 -67q0 -38 -27.5 -65t-65.5 -27q-39 0 -66 27.5t-27 65.5q0 39 27 65.5
t66 27.5z" />
    <glyph glyph-name="dagger" unicode="&#x2020;" horiz-adv-x="1238" 
d="M483 1502h272v-27q-38 -9 -50 -25t-14 -61l-28 -341h361q31 0 47 14t26 50h32v-238h-32q-10 37 -26 51t-47 14h-361l28 -963q1 -43 13 -59.5t51 -26.5v-27h-272v27q39 10 51 26.5t13 59.5l28 963h-361q-31 0 -47 -14t-26 -51h-32v238h32q10 -36 26 -50t47 -14h361
l-28 341q-2 45 -14 60.5t-50 25.5v27z" />
    <glyph glyph-name="degree" unicode="&#xb0;" horiz-adv-x="969" 
d="M486 1389q131 0 224 -98q82 -86 82 -213t-93 -217q-89 -87 -213 -87q-137 0 -229 100q-79 88 -79 206q0 67 28 130t77 104q87 73 203 75zM482 1310q-84 0 -147 -61q-74 -70 -74 -168q0 -83 54 -149q66 -79 169 -79q87 0 154 63q71 68 71 160q0 96 -62 161q-68 72 -165 73
z" />
    <glyph glyph-name="cent" unicode="&#xa2;" horiz-adv-x="1475" 
d="M821 1150v-934q163 12 288 84q51 30 88 64t37 51q0 16 -18 51l23 15l156 -200l-20 -18q-37 31 -51 31q-8 0 -24 -13q-212 -169 -479 -181v-125q0 -31 14 -47t50 -25v-33h-243v33q36 9 50 25t14 47v127q-166 15 -287 85q-124 70 -199 189q-88 140 -88 309q0 223 147 380
q157 169 427 197v129q0 30 -14 46t-50 26v32h243v-32q-36 -10 -50 -26t-14 -46v-125q123 -3 223 -30t212 -87q20 -10 30 -10q20 0 46 34l24 -13l-125 -215l-23 15q7 25 7 40q0 21 -40 47q-145 93 -354 103zM706 1145q-158 -24 -264 -111q-160 -131 -160 -343
q0 -184 114.5 -310.5t309.5 -159.5v924z" />
    <glyph glyph-name="sterling" unicode="&#xa3;" horiz-adv-x="1475" 
d="M990 844v-257h-32q-10 36 -26 50t-47 14h-270q12 -64 12 -136q0 -111 -34.5 -192.5t-121.5 -174.5q146 39 261 39q97 0 217 -32q87 -23 138 -23q54 0 91 29t37 71q0 26 -24 56l20 27l235 -236l-24 -21q-34 20 -55 20t-62 -24q-70 -39 -112.5 -52.5t-99.5 -13.5
q-55 0 -202 38q-92 24 -197 24q-172 0 -317 -76l-91 177q100 66 146.5 154.5t46.5 211.5q0 51 -14 134h-86q-31 0 -47 -14t-26 -50h-32v257h32q10 -35 26 -49t47 -14h63l-3 14q-31 140 -31 194q0 128 82 233q131 167 398 167q110 0 191.5 -29t195.5 -108q47 -31 60 -37
t35 -6q13 0 34 4l21 -25l-221 -190l-21 25q19 20 19 41q0 50 -71 110q-92 78 -230 78q-154 0 -250 -76t-96 -197q0 -44 31 -194v-4h299q31 0 47 14t26 49h32z" />
    <glyph glyph-name="section" unicode="&#xa7;" horiz-adv-x="1258" 
d="M1118 1406l-153 -221l-28 19q22 30 22 56q0 15 -14.5 29.5t-58.5 41.5q-120 75 -254 75q-109 0 -180 -45t-71 -113q0 -54 46.5 -94.5t170.5 -93.5l246 -105q146 -63 224 -139q80 -78 80 -190q0 -79 -43 -150t-145 -160q106 -83 106 -193q0 -119 -101 -195
q-115 -86 -299 -86q-122 0 -220.5 32t-218.5 111q-23 15 -36 15q-19 0 -56 -31l-26 17l154 229l24 -19q-29 -37 -29 -56q0 -32 116 -100q137 -81 287 -81q118 0 190 41.5t72 110.5q0 95 -161 165l-323 138q-279 120 -279 313q0 83 52 161.5t148 139.5q-66 48 -94 94.5
t-28 109.5q0 120 103 201q113 89 291 89q101 0 183 -25t192 -89q26 -15 37 -15q18 0 48 32zM478 965q-168 -99 -168 -232q0 -71 62.5 -122t248.5 -131l223 -96q74 50 114 110.5t40 124.5q0 72 -55.5 121.5t-209.5 115.5z" />
    <glyph glyph-name="bullet" unicode="&#x2022;" horiz-adv-x="1365" 
d="M689 978q113 0 196 -83q84 -83 84 -201t-84 -201q-82 -83 -200 -83t-200 83q-84 83 -84 200q0 121 84 202q84 83 204 83z" />
    <glyph glyph-name="paragraph" unicode="&#xb6;" horiz-adv-x="1307" 
d="M641 635h-181q-61 0 -136 22t-120 53q-163 113 -163 300q0 114 69 200q48 60 105.5 92.5t138.5 45.5q101 17 123 17h734v-32q-39 -10 -51.5 -27t-12.5 -59v-1293q0 -42 12.5 -59t51.5 -27v-32h-221v1406h-192v-1406h-221v32q39 10 51.5 27t12.5 59v681z" />
    <glyph glyph-name="germandbls" unicode="&#xdf;" horiz-adv-x="2535" 
d="M1185 1062l-110 -218l-24 12q5 29 5 40q0 24 -65 58q-138 74 -336 74q-159 0 -270 -59q-111 -60 -111 -167q0 -48 28 -86.5t75 -54.5t102 -21t236 -12q151 -5 228.5 -19t132.5 -45q59 -33 93 -95.5t34 -136.5q0 -155 -127 -247q-152 -109 -404 -109q-124 0 -260.5 38
t-253.5 104q-16 10 -24 10q-15 0 -45 -35l-23 15l127 213l24 -14l-4 -16q-5 -16 -5 -26q0 -28 102 -82q172 -91 357 -91q169 0 281 58q54 28 86 75.5t32 99.5q0 48 -27 86t-71 54q-41 14 -91.5 20t-190.5 11q-165 7 -236 16.5t-134 32.5q-80 29 -129 94q-49 67 -49 158
q0 161 146 253q149 94 379 94q210 0 422 -94q32 -13 37 -13q16 0 38 37zM2452 1062l-109 -218l-25 12q5 30 5 40q0 14 -13 26t-52 32q-138 74 -336 74q-158 0 -269 -59t-111 -167q0 -48 28 -86.5t75 -54.5t101.5 -21t236.5 -12q150 -5 227.5 -19t132.5 -45q59 -33 93 -95.5
t34 -136.5q0 -155 -127 -247q-151 -109 -403 -109q-125 0 -261.5 38t-252.5 104q-17 10 -24 10q-15 0 -46 -35l-22 15l127 213l24 -14q-4 -12 -5 -16q-5 -16 -5 -26q0 -28 102 -82q172 -91 357 -91q169 0 281 58q54 28 86 75.5t32 99.5q0 48 -27 86t-70 54q-42 14 -92 20
t-191 11q-165 7 -235.5 16.5t-134.5 32.5q-79 29 -128 94q-49 67 -49 158q0 161 146 253q148 94 379 94q210 0 422 -94q31 -13 37 -13q15 0 38 37z" />
    <glyph glyph-name="registered" unicode="&#xae;" horiz-adv-x="1865" 
d="M930 1389q361 0 582 -189q124 -105 186 -257q51 -125 51 -269q0 -195 -111 -365q-122 -188 -339 -271q-162 -62 -367 -62q-359 0 -579 189q-123 106 -186 257q-51 124 -51 261q0 203 110 374q120 185 340 270q154 59 364 62zM930 1310q-338 0 -535 -190
q-180 -173 -180 -437q0 -263 180 -437q197 -190 537 -190q342 0 538 190q180 174 180 428q0 277 -180 446q-107 101 -231 143q-136 46 -309 47zM670 635v-286q0 -23 7.5 -31.5t32.5 -13.5v-31h-191v31q26 6 33 14t7 31v667q0 24 -7.5 32.5t-32.5 12.5v32l471 -1
q98 0 153.5 -10t97.5 -35q101 -59 101 -184q0 -92 -64 -153t-170 -70l208 -308q19 -28 57 -27v-32h-210v32q31 4 31 11q0 2 -21 34l-190 285h-313zM670 725h336q119 0 165 26q60 33 60 112q0 80 -62 113q-48 26 -172 26h-327v-277z" />
    <glyph glyph-name="copyright" unicode="&#xa9;" horiz-adv-x="1865" 
d="M930 1389q361 0 582 -189q124 -105 186 -257q51 -125 51 -269q0 -195 -111 -365q-122 -188 -339 -271q-162 -62 -367 -62q-359 0 -579 189q-123 106 -186 257q-51 124 -51 261q0 203 110 374q120 185 340 270q154 59 364 62zM930 1310q-338 0 -535 -190
q-180 -173 -180 -437q0 -263 180 -437q197 -190 537 -190q342 0 538 190q180 174 180 428q0 277 -180 446q-107 101 -231 143q-136 46 -309 47zM1386 1019l-99 -158l-28 15q7 22 7 32q0 19 -75 55q-108 50 -235 50q-172 0 -278 -90q-107 -91 -107 -236t112 -241
q109 -93 268 -93q156 0 275 87q52 37 52 50q0 8 -13 29l25 19l119 -138l-25 -19q-20 17 -28 17q-6 0 -20 -11q-166 -128 -384 -128q-217 0 -353 115q-143 121 -143 308q0 147 90 256q138 169 417 169q188 0 355 -92q9 -5 12 -5q5 0 28 23z" />
    <glyph glyph-name="trademark" unicode="&#x2122;" horiz-adv-x="1911" 
d="M453 1279v-619q0 -22 7 -30t31 -13v-30h-182v30q24 6 31 13.5t7 29.5v619h-266q-23 0 -31 -6.5t-14 -29.5h-31v158h31q5 -23 13.5 -29.5t31.5 -6.5h638q24 0 32 6.5t14 29.5h31v-158h-31q-5 23 -13.5 29.5t-32.5 6.5h-266zM1350 579l-331 629v-548q0 -22 7 -29.5
t31 -13.5v-30h-174v30q24 6 31 13.5t7 29.5v632q0 22 -7 30t-31 13v30h223v-30q-29 -9 -29 -19q0 -4 19 -39l261 -493l263 497q13 28 13 35q0 9 -29 19v30h225v-30q-24 -5 -31 -13t-7 -30v-632q0 -22 7 -29.5t31 -13.5v-30h-182v30q24 5 31 13t7 30v549z" />
    <glyph glyph-name="acute" unicode="&#xb4;" 
d="M747 1533v-27q-34 -3 -51 -27l-129 -173q-6 -9 -6 -18q0 -15 21 -15h4v-27h-173v27q22 0 30 6t20 30l76 163q3 6 3 12q0 19 -27 22v27h232z" />
    <glyph glyph-name="dieresis" unicode="&#xa8;" 
d="M335 1466q39 0 66 -27t27 -67q0 -38 -27.5 -65t-65.5 -27t-65.5 27.5t-27.5 65.5q0 39 27 65.5t66 27.5zM687 1466q39 0 66 -27t27 -67q0 -38 -27.5 -65t-65.5 -27q-39 0 -66 27.5t-27 65.5q0 39 27 65.5t66 27.5z" />
    <glyph glyph-name="notequal" unicode="&#x2260;" horiz-adv-x="1570" 
d="M845 952l70 143q30 62 30 102q0 30 -21 62l15 33l232 -113l-15 -32q-43 -4 -69.5 -27t-54.5 -81l-43 -87h156q65 0 98 14t54 50h36v-258h-36q-22 37 -54 50.5t-97 13.5h-220l-137 -279h356q65 0 98.5 14t53.5 50h36v-258h-36q-22 37 -54 50.5t-97 13.5h-420l-71 -146
q-31 -63 -31 -102q0 -28 22 -62l-15 -30l-232 113l15 30q43 4 69.5 27t54.5 81l44 89h-159q-65 0 -97.5 -13.5t-54.5 -50.5h-33v258h34q22 -37 54.5 -50.5t96.5 -13.5h222l136 279h-358q-65 0 -97 -13.5t-55 -50.5h-33v258h34q22 -37 54 -50.5t97 -13.5h422z" />
    <glyph glyph-name="AE" unicode="&#xc6;" horiz-adv-x="2026" 
d="M904 389h-496l-142 -265q-28 -52 -28 -61q0 -24 46 -31v-32h-304v32q80 16 143 130l579 1078q26 48 26 59q0 25 -43 34v32h1128q42 0 59.5 13t26.5 52h32v-258h-32q-9 38 -26.5 50.5t-59.5 12.5h-752v-468h455q42 0 59 13t27 51h32v-258h-32q-10 38 -27 51t-59 13h-455
v-507h765q42 0 59.5 13t26.5 51h33v-258h-32q-10 38 -27.5 51t-59.5 13h-986v32q38 10 51 27t13 59v271zM904 519v714h-51l-378 -714h429z" />
    <glyph glyph-name="Oslash" unicode="&#xd8;" horiz-adv-x="1865" 
d="M1358 1503h306v-32q-37 -8 -49 -18t-74 -88l-34 -49l-52 -72q294 -218 294 -561q0 -204 -111 -374q-217 -333 -708 -333q-118 0 -203.5 17t-201.5 62l-17 -23q-52 -70 -52 -97q0 -31 46 -40v-33h-302l1 32q70 10 168 151l52 68q-128 93 -195 196q-110 171 -110 374
t111 373q217 333 710 333q225 0 407 -81l40 52q22 28 22 65q0 31 -48 46v32zM615 170q147 -57 319 -57q309 0 488 173q163 157 163 397q0 141 -52 246.5t-168 198.5zM1255 1193q-150 59 -324 59q-309 0 -488 -172q-163 -158 -163 -397q0 -145 54 -251.5t177 -202.5z" />
    <glyph glyph-name="infinity" unicode="&#x221e;" horiz-adv-x="1365" 
d="M685 622q-53 -75 -96 -120q-107 -113 -251 -113q-140 0 -225 98q-74 85 -74 214q0 130 79 213q87 91 221 91q185 0 342 -233q51 74 95 119q109 113 252 113q144 0 229 -101q70 -84 70 -209q0 -134 -83 -218q-85 -87 -216 -87q-100 0 -179.5 54t-163.5 179zM738 697
q75 -115 138 -162.5t141 -47.5q86 0 141.5 59t55.5 152q0 100 -66 158q-56 50 -133 50q-117 0 -215 -121l-37 -51.5t-25 -36.5zM627 696q-73 115 -137 163t-143 48q-86 0 -140.5 -59t-54.5 -152q0 -101 66 -159q56 -49 133 -49q117 0 214 121q13 15 38 50.5t24 36.5z" />
    <glyph glyph-name="plusminus" unicode="&#xb1;" horiz-adv-x="1570" 
d="M238 554v258h34q22 -37 54.5 -50.5t96.5 -13.5h298v295q0 64 -14.5 97t-50.5 54v36h258v-36q-36 -22 -49.5 -54t-13.5 -97v-295h294q65 0 98.5 14t53.5 50h36v-258h-36q-22 36 -54.5 50t-96.5 14h-295v-243q0 -65 13.5 -97t49.5 -55v-33h-258v34q37 22 51 54.5t14 96.5
v243h-299q-64 0 -96 -13.5t-55 -50.5h-33zM238 -129v258h34q22 -37 54.5 -50.5t96.5 -13.5h722q65 0 98.5 14t53.5 50h36v-258h-36q-22 37 -54 50.5t-97 13.5h-723q-65 0 -97.5 -13.5t-54.5 -50.5h-33z" />
    <glyph glyph-name="lessequal" unicode="&#x2264;" 
d="M955 1214v-147l-717 -283l717 -281v-147l-887 362v134zM955 297v-137h-887v137h887z" />
    <glyph glyph-name="greaterequal" unicode="&#x2265;" 
d="M68 1214l887 -362v-134l-887 -362v147l717 281l-717 283v147zM68 297h887v-137h-887v137z" />
    <glyph glyph-name="yen" unicode="&#xa5;" horiz-adv-x="1475" 
d="M813 467v-349q0 -41 15 -58.5t59 -27.5v-32h-285v32q44 10 59 27t15 59v349h-298q-36 0 -54 -13.5t-30 -50.5h-37v258h37q12 -36 30 -50t54 -14h288l-149 239h-207q-36 0 -54 -13.5t-31 -50.5h-37v258h37q12 -36 30.5 -50t54.5 -14h122l-148 216q-44 51 -90 110
q-34 34 -78 41v32h336v-32q-29 -7 -38 -15t-9 -26q0 -14 6 -26t41 -69l298 -478l296 494q33 51 38.5 61.5t5.5 22.5q0 25 -44 36v32h313v-32q-50 -8 -84 -43q-79 -86 -93 -108l-140 -216h123q36 0 54.5 14t29.5 50h37v-258h-37q-11 36 -29.5 50t-54.5 14h-196l-146 -239h274
q36 0 54 14t30 50h37v-258h-37q-12 37 -30 50.5t-54 13.5h-284z" />
    <glyph glyph-name="mu" unicode="&#xb5;" horiz-adv-x="908" 
d="M929 106v-33l-165 -93q-4 -2 -9 -2q-19 0 -41 14.5t-32 33.5q-15 28 -30 124q-90 -87 -133 -117q-89 -63 -184 -63q-87 0 -141 44t-83 137q-1 -44 -1 -60q0 -67 3.5 -102.5t23.5 -177.5q10 -67 10 -98q0 -44 -21 -72.5t-54 -28.5t-55 27t-22 67t14 123q57 383 57 743v365
h143v-587q0 -99 11.5 -148.5t41.5 -84.5q47 -53 130 -53q73 0 132 38.5t120 125.5v709h142v-698q0 -92 16.5 -124t64.5 -32q27 0 62 23z" />
    <glyph glyph-name="partialdiff" unicode="&#x2202;" 
d="M179 1252l18 120q166 -24 278 -72q256 -109 382 -362q100 -200 100 -445q0 -216 -99 -347q-61 -81 -153.5 -126t-196.5 -45q-186 0 -312 134q-130 138 -130 333q0 156 90 278q59 80 149.5 125t193.5 45q134 0 214 -66q27 -23 88 -93l-9 22q-46 123 -72.5 170t-83.5 108
q-179 185 -457 221zM526 777q-113 0 -198 -68q-58 -47 -91.5 -120t-33.5 -153q0 -152 102 -253q89 -88 212 -88q105 0 187 71q116 100 116 280q0 159 -97 251q-81 77 -197 80z" />
    <glyph glyph-name="summation" unicode="&#x2211;" horiz-adv-x="1365" 
d="M1220 1536v-466h-135l-14 329h-837l511 -846l-510 -929h855l8 331h141v-467h-1169v158l501 906l-501 830v154h1150z" />
    <glyph glyph-name="product" unicode="&#x220f;" horiz-adv-x="1365" 
d="M56 1536h1253v-121h-151v-1806h151v-121h-442v121h157v1806h-683v-1806h155v-121h-440v121h152v1806h-152v121z" />
    <glyph glyph-name="pi" unicode="&#x3c0;" horiz-adv-x="1129" 
d="M187 0v867h-148v113h1050v-113h-147v-867h-139v867h-477v-867h-139z" />
    <glyph glyph-name="integral" unicode="&#x222b;" 
d="M206 -490l32 138q44 -22 79 -22q79 0 103 60q14 35 14 193v1241q0 202 17 262q20 70 85 112t154 42q47 0 129 -22l-31 -138q-47 21 -83 21q-73 0 -98 -54q-16 -37 -16 -158v-1316q0 -140 -9 -191.5t-41 -92.5q-36 -44 -100.5 -70.5t-137.5 -26.5q-31 0 -97 22z" />
    <glyph glyph-name="ordfeminine" unicode="&#xaa;" horiz-adv-x="1046" 
d="M267 1255l-75 87l33 13q11 -11 18 -11q4 0 13 4q37 17 103 29t122 12q150 0 237.5 -57.5t87.5 -156.5v-300q0 -18 9.5 -25.5t38.5 -11.5v-27h-135v63q-50 -44 -97 -61t-118 -17q-123 0 -213 58q-86 55 -86 145q0 88 85.5 145.5t216.5 57.5q69 0 115.5 -15.5t96.5 -55.5
v53q0 63 -64 101.5t-169 38.5q-61 0 -126.5 -14t-66.5 -27l6 -15zM515 1124q-111 0 -175 -44q-50 -34 -50 -86q0 -50 64.5 -84.5t157.5 -34.5q102 0 162 44q45 32 45 75q0 58 -55.5 93.5t-148.5 36.5zM851 747v-210h-24q-8 37 -19 50.5t-34 13.5h-502q-22 0 -33.5 -13.5
t-19.5 -50.5h-23v210h23q8 -37 19.5 -50.5t33.5 -13.5h502q22 0 34 14t19 50h24z" />
    <glyph glyph-name="ordmasculine" unicode="&#xba;" horiz-adv-x="1046" 
d="M522 1376q145 0 234 -76q95 -80 95 -212q0 -124 -95 -205q-89 -76 -233 -76t-233 76q-95 81 -95 209q0 126 90 204t237 80zM522 1310q-114 0 -184 -70q-60 -61 -60 -149q0 -87 60 -148q69 -70 185 -70t185 70q60 61 60 146q0 98 -68 159t-178 62zM851 747v-210h-24
q-8 37 -19 50.5t-34 13.5h-502q-22 0 -33.5 -13.5t-19.5 -50.5h-23v210h23q8 -37 19.5 -50.5t33.5 -13.5h502q22 0 34 14t19 50h24z" />
    <glyph glyph-name="Omega" unicode="&#x2126;" horiz-adv-x="1365" 
d="M57 0v129h380q-149 85 -247 209q-136 172 -136 404q0 306 218 501q173 155 409 155q246 0 421 -161q103 -94 158 -229q51 -126 51 -267q0 -194 -97 -349t-286 -263h380v-129h-532v121q144 80 226 176q160 186 160 424q0 249 -162 412q-132 134 -315 134q-187 0 -321 -134
q-161 -161 -161 -413q0 -386 386 -599v-121h-532z" />
    <glyph glyph-name="ae" unicode="&#xe6;" horiz-adv-x="1771" 
d="M840 320h-416l-103 -193q-25 -47 -25 -63q0 -25 42 -37v-27h-282v27q50 13 80 41t67 96l436 792q45 81 45 101q0 27 -39 36v27h949q42 0 59 13t27 51h27v-238h-27q-9 39 -26.5 52t-59.5 13h-611v-378h361q42 0 59.5 13t27.5 51h27v-238h-27q-10 39 -27.5 52t-59.5 13
h-361v-415h617q42 0 60 13.5t26 51.5h28v-238h-28q-8 38 -25.5 51t-59.5 13h-825v27q38 10 51 27.5t13 58.5v207zM840 429v579h-47l-310 -579h357z" />
    <glyph glyph-name="oslash" unicode="&#xf8;" horiz-adv-x="1536" 
d="M428 42l-20 -25q-46 -58 -46 -74q0 -27 47 -35v-27h-285l1 27q70 5 168 126l46 59q-246 180 -246 467q0 262 195 428q182 156 485 156q95 0 161.5 -13t171.5 -53l14 18q38 53 38 76q0 26 -49 39v27h289v-27q-41 -7 -73 -35t-97 -115l-28 -37q75 -51 125 -116
q118 -152 118 -348q0 -262 -195 -428q-183 -156 -486 -156q-185 0 -334 66zM510 146q122 -54 257 -54q247 0 396 150q130 130 130 318q0 213 -175 358zM421 199l605 776q-84 32 -134.5 42.5t-117.5 10.5q-253 0 -401 -150q-130 -130 -130 -318q0 -111 42.5 -197.5
t135.5 -163.5z" />
    <glyph glyph-name="questiondown" unicode="&#xbf;" horiz-adv-x="1051" 
d="M410 975h242v-27q-35 -2 -46 -13.5t-13 -49.5q-4 -109 -43 -188q-22 -44 -42.5 -71.5t-126.5 -154.5q-74 -89 -74 -166q0 -73 39 -122q66 -84 183 -84q120 0 215 89q52 49 52 89q0 15 -21 45l23 22l185 -199l-23 -22l-25 15q-13 8 -20 8q-10 0 -34 -20
q-178 -150 -373 -150q-163 0 -267 101q-91 89 -91 220q0 97 57 176q29 40 136 148q55 56 89 133t34 145q0 25 -11 34.5t-45 14.5v27zM525 1389q44 0 75.5 -32t31.5 -76t-31.5 -75.5t-75.5 -31.5q-46 0 -77 31.5t-31 76.5q0 44 31.5 75t76.5 32z" />
    <glyph glyph-name="exclamdown" unicode="&#xa1;" horiz-adv-x="699" 
d="M436 983v-27l-16 -4q-40 -9 -38 -31l1 -10v-15l53 -823q2 -26 11 -33.5t47 -12.5v-27h-289v27q13 2 18 2q22 3 30.5 12t9.5 32l53 823v15l1 10q0 15 -7.5 20t-46.5 15v27h173zM349 1388q45 0 77 -32t32 -79q0 -44 -32 -75.5t-77 -31.5t-77 32t-32 77t31.5 76.5t77.5 32.5
z" />
    <glyph glyph-name="logicalnot" unicode="&#xac;" 
d="M804 0v431h-736v136h887v-567h-151z" />
    <glyph glyph-name="radical" unicode="&#x221a;" horiz-adv-x="1365" 
d="M1365 1693v-124h-398l-468 -1569h-159l-178 607h-162v124h251l88 -291q9 -28 33 -125l36 -151h7q10 40 49 184l56 209l103 343l236 793h506z" />
    <glyph glyph-name="florin" unicode="&#x192;" horiz-adv-x="1474" 
d="M-5 -34l158 237l24 -11q-9 -19 -9 -34q0 -55 42.5 -95.5t100.5 -40.5q62 0 123 28.5t95 71.5q36 48 64 189l80 408h-82q-30 0 -48.5 -13.5t-36.5 -49.5h-32l50 257h33q3 -36 16 -50t44 -14h82l46 234q35 178 117 255q58 55 145 88t174 33q119 0 208 -79q9 -7 18 -7
q22 0 51 37l22 -11l-158 -236l-23 11q17 41 17 55q0 22 -18 47q-47 67 -132 67q-63 0 -124.5 -28t-94.5 -72q-36 -47 -64 -188l-41 -206h213q31 0 50 14.5t35 49.5h33l-51 -257h-32q-3 35 -16 49t-44 14h-213l-86 -436q-36 -179 -117 -256q-59 -55 -146 -88t-174 -33
q-122 0 -208 72q-8 7 -18 7q-22 0 -51 -30z" />
    <glyph glyph-name="approxequal" unicode="&#x2248;" 
d="M106 712l-84 58q40 82 80 130q83 98 196 98q76 0 232 -79q87 -44 125 -57.5t76 -13.5q55 0 98 33t90 113l83 -57q-42 -87 -85 -136q-80 -93 -189 -93q-42 0 -89.5 16.5t-144.5 64.5q-139 69 -203 69q-53 0 -95 -33t-90 -113zM106 367l-84 57q40 81 81 130q82 98 195 98
q76 0 232 -79q87 -43 125 -56.5t76 -13.5q55 0 97.5 32.5t90.5 112.5l83 -57q-42 -87 -85 -136q-80 -93 -189 -93q-42 0 -89.5 16.5t-144.5 64.5q-139 69 -203 69q-53 0 -95 -33t-90 -112z" />
    <glyph glyph-name="Delta" unicode="&#x2206;" horiz-adv-x="1271" 
d="M12 0l546 1365h152l548 -1365h-1246zM204 129h859l-428 1076z" />
    <glyph glyph-name="guillemotleft" unicode="&#xab;" 
d="M345 159l-195 401l195 400h138l-196 -400l196 -401h-138zM708 159l-195 401l195 400h138l-197 -400l197 -401h-138z" />
    <glyph glyph-name="guillemotright" unicode="&#xbb;" 
d="M678 159h-138l196 401l-196 400h138l195 -400zM315 159h-138l197 401l-197 400h138l195 -400z" />
    <glyph glyph-name="ellipsis" unicode="&#x2026;" horiz-adv-x="1720" 
d="M286 194q46 0 77.5 -32t31.5 -78q0 -44 -32.5 -76t-76.5 -32q-45 0 -77 32.5t-32 76.5q0 45 31.5 76.5t77.5 32.5zM859 194q46 0 77.5 -32t31.5 -78q0 -44 -32.5 -76t-76.5 -32q-45 0 -77 32t-32 77t31.5 76.5t77.5 32.5zM1433 194q46 0 77.5 -32t31.5 -78
q0 -44 -32.5 -76t-76.5 -32q-45 0 -77 32t-32 77t31.5 76.5t77.5 32.5z" />
    <glyph glyph-name="Agrave" unicode="&#xc0;" horiz-adv-x="1510" 
d="M1119 383h-731l-120 -259q-17 -37 -17 -52q0 -30 59 -40v-32h-304v32q41 7 62.5 30t56.5 100l500 1079q18 39 18 53q0 26 -49 39v32h332v-32q-49 -16 -49 -42q0 -11 18 -50l479 -1040q53 -115 70 -135t74 -34v-32h-324v32q58 8 58 44q0 16 -22 62zM1060 513l-307 674
l-306 -674h613zM520 1765h232v-27q-27 -3 -27 -22q0 -6 3 -12l77 -163q11 -24 19 -30t30 -6v-27h-173v27h5q20 0 20 15q0 9 -6 18l-129 172q-17 25 -51 28v27z" />
    <glyph glyph-name="Atilde" unicode="&#xc3;" horiz-adv-x="1510" 
d="M1119 383h-731l-120 -259q-17 -37 -17 -52q0 -30 59 -40v-32h-304v32q41 7 62.5 30t56.5 100l500 1079q18 39 18 53q0 26 -49 39v32h332v-32q-49 -16 -49 -42q0 -11 18 -50l479 -1040q53 -115 70 -135t74 -34v-32h-324v32q58 8 58 44q0 16 -22 62zM1060 513l-307 674
l-306 -674h613zM958 1733l130 -84l-14 -23q-14 6 -22 6q-12 0 -25 -18q-64 -95 -138 -95q-36 0 -78 15l-144 53q-18 7 -40 7q-20 0 -38 -16t-19 -35q-1 -10 13 -28l-15 -18l-132 90l13 18q14 -4 21 -4q18 0 35 23q58 84 148 84q28 0 58 -11l145 -55q24 -9 47 -9
q20 0 37.5 16t17.5 35q0 14 -16 30z" />
    <glyph glyph-name="Otilde" unicode="&#xd5;" horiz-adv-x="1865" 
d="M930 1389q361 0 582 -189q124 -105 186 -257q51 -125 51 -269q0 -195 -111 -365q-122 -188 -339 -271q-162 -62 -367 -62q-359 0 -579 189q-123 106 -186 257q-51 124 -51 261q0 203 110 374q120 185 340 270q154 59 364 62zM930 1252q-307 0 -486 -172
q-164 -158 -164 -397q0 -240 164 -398q178 -172 488 -172q311 0 490 172q163 158 163 390q0 251 -163 405q-98 92 -210 129q-124 42 -282 43zM1142 1733l130 -84l-14 -23q-14 6 -22 6q-12 0 -25 -18q-64 -95 -138 -95q-36 0 -78 15l-144 53q-18 7 -40 7q-20 0 -38 -16
t-19 -35q-1 -10 13 -28l-15 -18l-132 90l13 18q14 -4 21 -4q18 0 35 23q58 84 148 84q28 0 58 -11l145 -55q24 -9 47 -9q20 0 37.5 16t17.5 35q0 14 -16 30z" />
    <glyph glyph-name="OE" unicode="&#x152;" horiz-adv-x="2186" 
d="M1220 637v-507h766q42 0 59.5 13t26.5 51h32v-258h-31q-10 38 -27.5 51t-58.5 13h-771q-4 1 -85 -3q-132 -7 -204 -7q-327 0 -532 145q-128 92 -200 225q-79 147 -79 323q0 245 146 424q133 162 339 226q138 43 330 43l285 -11h757q42 0 59 13t27 52h32v-258h-32
q-9 37 -26.5 50t-59.5 13h-753v-468h456q42 0 59.5 13t26.5 51h32v-258h-32q-9 38 -26.5 51t-59.5 13h-456zM1063 1235q-72 4 -128 4q-289 0 -456 -133q-90 -72 -143 -180q-56 -115 -56 -243q0 -178 104 -322q170 -234 551 -234q46 0 128 3v1105z" />
    <glyph glyph-name="oe" unicode="&#x153;" horiz-adv-x="1738" 
d="M950 524v-415h617q42 0 59.5 13t26.5 52h28v-238h-28q-9 38 -26 51t-59 13h-562q-73 0 -178 -6q-64 -4 -111 -4q-267 0 -443 136q-103 79 -161 196q-56 114 -56 238q0 178 110 325q182 245 551 245q47 0 110 -4q108 -6 178 -6h555q42 0 59 13t27 51h27v-238h-27
q-9 39 -26.5 52t-59.5 13h-611v-378h361q42 0 59.5 13t27.5 51h27v-238h-27q-10 39 -27.5 52t-59.5 13h-361zM807 1011q-48 3 -79 3q-230 0 -370 -116q-151 -125 -151 -338q0 -214 151 -338q141 -116 368 -116q35 0 81 3v902z" />
    <glyph glyph-name="endash" unicode="&#x2013;" horiz-adv-x="1571" 
d="M1487 689v-258h-37q-12 36 -30 50t-54 14h-1160q-36 0 -54 -14t-30 -50h-37v258h37q12 -36 30 -50t54 -14h1160q36 0 54 14t30 50h37z" />
    <glyph glyph-name="emdash" unicode="&#x2014;" horiz-adv-x="1215" 
d="M1215 689v-258h-37q-12 36 -30 50t-54 14h-973q-36 0 -54 -14t-30 -50h-37v258h37q12 -36 30 -50t54 -14h973q36 0 54 14t30 50h37z" />
    <glyph glyph-name="quotedblleft" unicode="&#x201c;" horiz-adv-x="969" 
d="M357 1389l31 -35q-67 -41 -97 -80.5t-40 -98.5q28 6 43 6q46 0 73.5 -29.5t27.5 -77.5q0 -49 -29.5 -80.5t-75.5 -31.5q-52 0 -82.5 43t-30.5 115q0 88 42.5 151.5t137.5 117.5zM753 1389l31 -35q-67 -41 -97 -80.5t-40 -98.5q28 6 43 6q46 0 73.5 -29.5t27.5 -77.5
q0 -49 -29.5 -80.5t-75.5 -31.5q-51 0 -82 43t-31 115q0 88 42.5 151.5t137.5 117.5z" />
    <glyph glyph-name="quotedblright" unicode="&#x201d;" horiz-adv-x="969" 
d="M215 962l-30 35q66 41 96 80.5t40 99.5q-27 -7 -42 -7q-46 0 -74 29.5t-28 77.5q0 49 29.5 80.5t75.5 31.5q52 0 83 -43t31 -115q0 -89 -42.5 -152t-138.5 -117zM611 962l-31 35q67 41 97 80.5t40 99.5q-27 -7 -42 -7q-47 0 -74.5 29.5t-27.5 77.5q0 49 29.5 80.5
t75.5 31.5q52 0 83 -43t31 -115q0 -89 -42.5 -152t-138.5 -117z" />
    <glyph glyph-name="quoteleft" unicode="&#x2018;" horiz-adv-x="573" 
d="M357 1389l31 -35q-67 -41 -97 -80.5t-40 -98.5q28 6 43 6q46 0 73.5 -29.5t27.5 -77.5q0 -49 -29.5 -80.5t-75.5 -31.5q-52 0 -82.5 43t-30.5 115q0 88 42.5 151.5t137.5 117.5z" />
    <glyph glyph-name="quoteright" unicode="&#x2019;" horiz-adv-x="573" 
d="M215 962l-30 35q66 41 96 80.5t40 99.5q-27 -7 -42 -7q-46 0 -74 29.5t-28 77.5q0 49 29.5 80.5t75.5 31.5q52 0 83 -43t31 -115q0 -89 -42.5 -152t-138.5 -117z" />
    <glyph glyph-name="divide" unicode="&#xf7;" horiz-adv-x="1570" 
d="M238 554v258h34q22 -37 54 -50.5t97 -13.5h722q65 0 98 14t54 50h36v-258h-36q-22 37 -54 50.5t-97 13.5h-723q-65 0 -97.5 -13.5t-54.5 -50.5h-33zM785 369q50 0 85 -35t35 -86q0 -49 -35.5 -84t-84.5 -35t-84.5 35.5t-35.5 85.5q0 49 34.5 83.5t85.5 35.5zM785 1236
q50 0 85 -35t35 -86q0 -49 -35.5 -84t-84.5 -35t-84.5 35.5t-35.5 85.5q0 49 34.5 83.5t85.5 35.5z" />
    <glyph glyph-name="lozenge" unicode="&#x25ca;" horiz-adv-x="1365" 
d="M683 1419l532 -736l-532 -736l-532 736zM683 1237l-404 -554l404 -555l403 555z" />
    <glyph glyph-name="ydieresis" unicode="&#xff;" horiz-adv-x="1114" 
d="M640 494v-381q0 -41 12.5 -58.5t51.5 -27.5v-27h-271v27q38 10 51 27.5t13 58.5v381l-345 450q-63 83 -93 110t-71 39v27h316v-27q-44 -7 -44 -38q0 -28 27 -63l295 -387l267 386q28 41 28 62q0 34 -45 40v27h292v-27q-45 -15 -83 -51.5t-104 -128.5zM391 1466
q39 0 66 -27t27 -67q0 -38 -27.5 -65t-65.5 -27t-65.5 27.5t-27.5 65.5q0 39 27 65.5t66 27.5zM743 1466q39 0 66 -27t27 -67q0 -38 -27.5 -65t-65.5 -27q-39 0 -66 27.5t-27 65.5q0 39 27 65.5t66 27.5z" />
    <glyph glyph-name="Ydieresis" unicode="&#x178;" horiz-adv-x="1333" 
d="M751 604v-486q0 -41 13 -58.5t51 -27.5v-32h-285v32q38 10 51 27t13 59v486l-441 578q-72 94 -99.5 119t-68.5 32v32h346v-32q-47 -12 -47 -39q0 -33 47 -97l347 -472l346 488q44 62 44 84q0 25 -44 36v32h322v-32q-49 -9 -84 -44q-72 -76 -93 -107zM503 1698
q39 0 66 -27t27 -67q0 -38 -27.5 -65t-65.5 -27t-65.5 27.5t-27.5 65.5q0 39 27 65.5t66 27.5zM855 1698q39 0 66 -27t27 -67q0 -38 -27.5 -65t-65.5 -27t-65.5 27t-27.5 66t27 65.5t66 27.5z" />
    <glyph glyph-name="fraction" unicode="&#x2215;" horiz-adv-x="508" 
d="M396 1365h317v-27q-68 -5 -130 -124l-500 -1062q-32 -69 -32 -83q0 -35 65 -41v-28h-321v28q68 5 129 124l509 1061q32 67 32 83q0 37 -69 42v27z" />
    <glyph glyph-name="Euro" unicode="&#x20ac;" horiz-adv-x="1475" 
d="M1424 128l-27 -15q-34 38 -47 38q-11 0 -25 -10q-226 -165 -434 -165q-218 0 -386 137q-159 129 -224 338h-91q-56 0 -86 -64h-33l50 258h33q5 -64 62 -64h37q-7 54 -7 101q0 58 7 108h-63q-56 0 -86 -64h-33l50 258h33q5 -64 62 -64h67q66 206 224 334q168 135 384 135
q208 0 434 -165q14 -10 25 -10q13 0 47 38l27 -15l-138 -237l-27 16q9 30 9 47q0 18 -17 35q-150 153 -360 154q-165 1 -291 -94q-116 -88 -173 -238h592q57 0 87 64h33l-51 -258h-33q-5 64 -62 64h-601q-8 -51 -8 -107q0 -49 8 -102h565q57 0 87 64h33l-51 -258h-33
q-5 64 -62 64h-506q56 -152 173 -242q126 -97 293 -96q210 1 360 154q17 17 17 35q0 17 -9 47l27 16z" />
    <glyph glyph-name="guilsinglleft" unicode="&#x2039;" horiz-adv-x="661" 
d="M345 159l-195 401l195 400h138l-196 -400l196 -401h-138z" />
    <glyph glyph-name="guilsinglright" unicode="&#x203a;" horiz-adv-x="661" 
d="M315 159h-138l197 401l-197 400h138l195 -400z" />
    <glyph glyph-name="fi" unicode="&#xf001;" horiz-adv-x="1720" 
d="M327 525v-412q0 -41 13 -58.5t51 -27.5v-27h-271v27q38 10 51 27.5t13 58.5v894q0 42 -13 59t-51 27v27h910q41 0 58.5 13t27.5 51h27v-238h-27q-10 39 -27.5 52t-58.5 13h-703v-377h457q42 0 59 13t27 52h27v-238h-27q-10 38 -27 51t-59 13h-457zM1393 113v894
q0 42 -13 59t-51 27v27h271v-27q-38 -10 -51 -27t-13 -59v-894q0 -41 13 -58.5t51 -27.5v-27h-271v27q38 10 51 27.5t13 58.5z" />
    <glyph glyph-name="fl" unicode="&#xf002;" horiz-adv-x="2354" 
d="M327 525v-412q0 -41 13 -58.5t51 -27.5v-27h-271v27q38 10 51 27.5t13 58.5v894q0 42 -13 59t-51 27v27h910q42 0 59 13t27 51h27v-238h-27q-10 39 -27.5 52t-58.5 13h-703v-377h457q41 0 58.5 13t27.5 52h27v-238h-27q-10 38 -27.5 51t-58.5 13h-457zM1536 109h683
q41 0 58.5 13t27.5 52h27v-238h-27q-10 38 -27 51t-59 13h-890v27q38 10 51 27.5t13 58.5v894q0 42 -13 59t-51 27v27h271v-27q-38 -10 -51 -27t-13 -59v-898z" />
    <glyph glyph-name="daggerdbl" unicode="&#x2021;" horiz-adv-x="1238" 
d="M483 1502h272v-27q-38 -9 -50 -25t-14 -61l-28 -286h361q31 0 47 14t26 50h32v-238h-32q-10 37 -26 51t-47 14h-361l14 -431h347q31 0 47 14t26 51h32v-238h-32q-10 36 -26 50t-47 14h-347l14 -478q1 -43 13.5 -59.5t50.5 -26.5v-27h-272v27q38 10 50.5 26.5t13.5 59.5
l14 478h-347q-31 0 -47 -14t-26 -50h-32v238h32q10 -37 25.5 -51t47.5 -14h347l14 431h-361q-31 0 -47 -14t-26 -51h-32v238h32q10 -36 26 -50t47 -14h361l-28 286q-2 45 -14 61t-50 25v27z" />
    <glyph glyph-name="periodcentered" unicode="&#x2219;" horiz-adv-x="573" 
d="M286 669q46 0 77.5 -32t31.5 -78q0 -44 -32.5 -76t-76.5 -32q-45 0 -77 32.5t-32 76.5q0 45 31.5 76.5t77.5 32.5z" />
    <glyph glyph-name="quotesinglbase" unicode="&#x201a;" horiz-adv-x="573" 
d="M215 -232l-30 35q66 41 96 80.5t40 98.5q-27 -6 -42 -6q-46 0 -74 29.5t-28 77.5q0 49 29.5 80.5t75.5 31.5q52 0 83 -43t31 -115q0 -89 -42.5 -152t-138.5 -117z" />
    <glyph glyph-name="quotedblbase" unicode="&#x201e;" horiz-adv-x="969" 
d="M215 -232l-30 35q66 41 96 80.5t40 98.5q-27 -6 -42 -6q-46 0 -74 29.5t-28 77.5q0 49 29.5 80.5t75.5 31.5q52 0 83 -43t31 -115q0 -89 -42.5 -152t-138.5 -117zM611 -232l-31 35q67 41 97 80.5t40 98.5q-27 -6 -42 -6q-47 0 -74.5 29.5t-27.5 77.5q0 49 29.5 80.5
t75.5 31.5q52 0 83 -43t31 -115q0 -89 -42.5 -152t-138.5 -117z" />
    <glyph glyph-name="perthousand" unicode="&#x2030;" horiz-adv-x="2688" 
d="M422 1379q140 0 240 -90q116 -104 116 -270q0 -73 -31 -143t-85 -118q-100 -90 -239 -90t-239 90q-116 105 -116 265q0 76 31 147.5t85 118.5q100 88 238 90zM422 1298q-105 0 -177 -75q-75 -78 -75 -200q0 -119 71.5 -196.5t181.5 -77.5q107 0 178 75q75 79 75 195
q0 123 -70 200.5t-184 78.5zM567 27v-27h-281v28q69 4 166 124l821 1061q57 74 57 91q0 25 -47 33v28h272v-28q-69 -4 -166 -123l-812 -1063q-58 -75 -58 -90q0 -26 48 -34zM1417 697q140 0 240 -90q116 -104 116 -270q0 -73 -31 -143t-85 -118q-100 -90 -239 -90t-239 90
q-116 105 -116 265q0 76 31 147.5t85 118.5q101 88 238 90zM1417 616q-105 0 -177 -75q-75 -78 -75 -200q0 -119 71.5 -196.5t181.5 -77.5q107 0 178 75q75 79 75 196q0 122 -70.5 199.5t-183.5 78.5zM2264 697q140 0 240 -90q116 -104 116 -270q0 -73 -31 -143t-85 -118
q-100 -90 -239 -90t-239 90q-116 105 -116 265q0 76 31 147.5t85 118.5q100 88 238 90zM2264 616q-105 0 -177 -75q-75 -78 -75 -200q0 -119 71.5 -196.5t181.5 -77.5q107 0 178 75q75 79 75 196q0 122 -70.5 199.5t-183.5 78.5z" />
    <glyph glyph-name="Acircumflex" unicode="&#xc2;" horiz-adv-x="1510" 
d="M1119 383h-731l-120 -259q-17 -37 -17 -52q0 -30 59 -40v-32h-304v32q41 7 62.5 30t56.5 100l500 1079q18 39 18 53q0 26 -49 39v32h332v-32q-49 -16 -49 -42q0 -11 18 -50l479 -1040q53 -115 70 -135t74 -34v-32h-324v32q58 8 58 44q0 16 -22 62zM1060 513l-307 674
l-306 -674h613zM642 1478h-210v27q26 1 37 7.5t36 34.5l146 149q12 12 12 25q0 17 -35 17v27h262v-27q-33 -4 -33 -18q0 -11 18 -28l169 -167q18 -19 48 -20v-27h-235v27q33 3 33 15q0 6 -17 23l-124 131l-128 -134q-10 -10 -10 -18q0 -15 31 -17v-27z" />
    <glyph glyph-name="Ecircumflex" unicode="&#xca;" horiz-adv-x="1474" 
d="M371 637v-507h875q42 0 59.5 13t26.5 51h32v-258h-31q-10 38 -27.5 51t-59.5 13h-1096v32q39 10 51.5 27t12.5 59v1129q0 42 -13 59t-51 27v32h1083q42 0 59 13t27 52h32v-258h-32q-9 37 -26.5 50t-59.5 13h-862v-468h565q42 0 59.5 13t26.5 51h32v-258h-32
q-9 38 -26.5 51t-59.5 13h-565zM651 1478h-210v27q26 1 37 7.5t36 34.5l146 149q12 12 12 25q0 17 -35 17v27h262v-27q-33 -4 -33 -18q0 -11 18 -28l169 -167q18 -19 48 -20v-27h-235v27q33 3 33 15q0 6 -17 23l-124 131l-128 -134q-10 -10 -10 -18q0 -15 31 -17v-27z" />
    <glyph glyph-name="Aacute" unicode="&#xc1;" horiz-adv-x="1510" 
d="M1119 383h-731l-120 -259q-17 -37 -17 -52q0 -30 59 -40v-32h-304v32q41 7 62.5 30t56.5 100l500 1079q18 39 18 53q0 26 -49 39v32h332v-32q-49 -16 -49 -42q0 -11 18 -50l479 -1040q53 -115 70 -135t74 -34v-32h-324v32q58 8 58 44q0 16 -22 62zM1060 513l-307 674
l-306 -674h613zM990 1765v-27q-34 -3 -51 -28l-129 -172q-6 -9 -6 -18q0 -15 21 -15h4v-27h-173v27q22 0 30 6t20 30l76 163q3 6 3 12q0 19 -27 22v27h232z" />
    <glyph glyph-name="Edieresis" unicode="&#xcb;" horiz-adv-x="1474" 
d="M371 637v-507h875q42 0 59.5 13t26.5 51h32v-258h-31q-10 38 -27.5 51t-59.5 13h-1096v32q39 10 51.5 27t12.5 59v1129q0 42 -13 59t-51 27v32h1083q42 0 59 13t27 52h32v-258h-32q-9 37 -26.5 50t-59.5 13h-862v-468h565q42 0 59.5 13t26.5 51h32v-258h-32
q-9 38 -26.5 51t-59.5 13h-565zM594 1698q39 0 66 -27t27 -67q0 -38 -27.5 -65t-65.5 -27q-39 0 -66 27t-27 66t26.5 65.5t66.5 27.5zM946 1698q39 0 66 -27t27 -67q0 -38 -27.5 -65t-65.5 -27q-39 0 -66 27t-27 66t27 65.5t66 27.5z" />
    <glyph glyph-name="Egrave" unicode="&#xc8;" horiz-adv-x="1474" 
d="M371 637v-507h875q42 0 59.5 13t26.5 51h32v-258h-31q-10 38 -27.5 51t-59.5 13h-1096v32q39 10 51.5 27t12.5 59v1129q0 42 -13 59t-51 27v32h1083q42 0 59 13t27 52h32v-258h-32q-9 37 -26.5 50t-59.5 13h-862v-468h565q42 0 59.5 13t26.5 51h32v-258h-32
q-9 38 -26.5 51t-59.5 13h-565zM542 1765h232v-27q-27 -3 -27 -22q0 -6 3 -12l77 -163q11 -24 19 -30t30 -6v-27h-173v27h5q20 0 20 15q0 9 -6 18l-129 172q-17 25 -51 28v27z" />
    <glyph glyph-name="Iacute" unicode="&#xcd;" horiz-adv-x="586" 
d="M214 118v1129q0 42 -13 59.5t-51 26.5v32h285v-32q-38 -10 -51 -27t-13 -59v-1129q0 -42 12.5 -59t51.5 -27v-32h-285v32q39 10 51.5 27t12.5 59zM535 1765v-27q-34 -3 -51 -28l-129 -172q-6 -9 -6 -18q0 -15 21 -15h4v-27h-173v27q22 0 30 6t20 30l76 163q3 6 3 12
q0 19 -27 22v27h232z" />
    <glyph glyph-name="Icircumflex" unicode="&#xce;" horiz-adv-x="586" 
d="M215 118v1129q0 42 -13 59t-51 27v32h285v-32q-38 -9 -51 -26.5t-13 -59.5v-1129q0 -42 12.5 -59t51.5 -27v-32h-285v32q39 10 51.5 27t12.5 59zM207 1478h-203v27q40 1 73 42l105 149q12 17 12 25q0 17 -35 17v27h262v-27q-32 -3 -32 -18q0 -10 14 -28l124 -167
q32 -20 55 -20v-27h-228v27q33 3 33 15q0 6 -7 13q-8 8 -10 11l-90 137l-94 -140q-10 -15 -10 -18q0 -16 31 -18v-27z" />
    <glyph glyph-name="Idieresis" unicode="&#xcf;" horiz-adv-x="586" 
d="M214 118v1129q0 42 -13 59.5t-51 26.5v32h285v-32q-38 -10 -51 -27t-13 -59v-1129q0 -42 12.5 -59t51.5 -27v-32h-285v32q39 10 51.5 27t12.5 59zM157 1698q39 0 66 -27t27 -67q0 -38 -27.5 -65t-65.5 -27t-65.5 27t-27.5 66t27 65.5t66 27.5zM427 1698q39 0 66 -27
t27 -67q0 -38 -27.5 -65t-65.5 -27q-39 0 -66 27t-27 66t26.5 65.5t66.5 27.5z" />
    <glyph glyph-name="Igrave" unicode="&#xcc;" horiz-adv-x="586" 
d="M215 118v1129q0 42 -13 59.5t-51 26.5v32h285v-32q-38 -10 -51 -27t-13 -59v-1129q0 -42 12.5 -59t51.5 -27v-32h-285v32q39 10 51.5 27t12.5 59zM51 1765h232v-27q-27 -3 -27 -22q0 -6 3 -12l77 -163q11 -24 19 -30t30 -6v-27h-173v27h5q20 0 20 15q0 9 -6 18l-129 172
q-17 25 -51 28v27z" />
    <glyph glyph-name="Oacute" unicode="&#xd3;" horiz-adv-x="1865" 
d="M930 1389q361 0 582 -189q124 -105 186 -257q51 -125 51 -269q0 -195 -111 -365q-122 -188 -339 -271q-162 -62 -367 -62q-359 0 -579 189q-123 106 -186 257q-51 124 -51 261q0 203 110 374q120 185 340 270q154 59 364 62zM930 1252q-307 0 -486 -172
q-164 -158 -164 -397q0 -240 164 -398q178 -172 488 -172q311 0 490 172q163 158 163 390q0 251 -163 405q-98 92 -210 129q-124 42 -282 43zM1168 1765v-27q-34 -3 -51 -28l-129 -172q-6 -9 -6 -18q0 -15 21 -15h4v-27h-173v27q22 0 30 6t20 30l76 163q3 6 3 12
q0 19 -27 22v27h232z" />
    <glyph glyph-name="Ocircumflex" unicode="&#xd4;" horiz-adv-x="1865" 
d="M930 1389q361 0 582 -189q124 -105 186 -257q51 -125 51 -269q0 -195 -111 -365q-122 -188 -339 -271q-162 -62 -367 -62q-359 0 -579 189q-123 106 -186 257q-51 124 -51 261q0 203 110 374q120 185 340 270q154 59 364 62zM930 1252q-307 0 -486 -172
q-164 -158 -164 -397q0 -240 164 -398q178 -172 488 -172q311 0 490 172q163 158 163 390q0 251 -163 405q-98 92 -210 129q-124 42 -282 43zM819 1478h-210v27q26 1 37 7.5t36 34.5l146 149q12 12 12 25q0 17 -35 17v27h262v-27q-33 -4 -33 -18q0 -11 18 -28l169 -167
q18 -19 48 -20v-27h-235v27q33 3 33 15q0 6 -17 23l-124 131l-128 -134q-10 -10 -10 -18q0 -15 31 -17v-27z" />
    <glyph glyph-name="Ograve" unicode="&#xd2;" horiz-adv-x="1865" 
d="M930 1389q361 0 582 -189q124 -105 186 -257q51 -125 51 -269q0 -195 -111 -365q-122 -188 -339 -271q-162 -62 -367 -62q-359 0 -579 189q-123 106 -186 257q-51 124 -51 261q0 203 110 374q120 185 340 270q154 59 364 62zM930 1252q-307 0 -486 -172
q-164 -158 -164 -397q0 -240 164 -398q178 -172 488 -172q311 0 490 172q163 158 163 390q0 251 -163 405q-98 92 -210 129q-124 42 -282 43zM704 1765h232v-27q-27 -3 -27 -22q0 -6 3 -12l77 -163q11 -24 19 -30t30 -6v-27h-173v27h5q20 0 20 15q0 9 -6 18l-129 172
q-17 25 -51 28v27z" />
    <glyph glyph-name="Uacute" unicode="&#xda;" horiz-adv-x="1617" 
d="M344 1247v-755q0 -134 14 -188.5t58 -94.5q107 -96 399 -96q318 0 417 113q33 38 44 90.5t11 175.5v755q0 41 -13 58.5t-51 27.5v32h271v-32q-38 -9 -51 -26.5t-13 -59.5v-786q0 -145 -28 -221q-52 -136 -195.5 -200t-397.5 -64q-380 0 -520 147q-57 59 -79.5 134.5
t-22.5 203.5v786q0 42 -13 59.5t-51 26.5v32h285v-32q-38 -10 -51 -27.5t-13 -58.5zM1030 1765v-27q-34 -3 -51 -28l-129 -172q-6 -9 -6 -18q0 -15 21 -15h4v-27h-173v27q22 0 30 6t20 30l76 163q3 6 3 12q0 19 -27 22v27h232z" />
    <glyph glyph-name="Ucircumflex" unicode="&#xdb;" horiz-adv-x="1617" 
d="M344 1247v-755q0 -134 14 -188.5t58 -94.5q107 -96 399 -96q318 0 417 113q33 38 44 90.5t11 175.5v755q0 41 -13 58.5t-51 27.5v32h271v-32q-38 -9 -51 -26.5t-13 -59.5v-786q0 -145 -28 -221q-52 -136 -195.5 -200t-397.5 -64q-380 0 -520 147q-57 59 -79.5 134.5
t-22.5 203.5v786q0 42 -13 59.5t-51 26.5v32h285v-32q-38 -10 -51 -27.5t-13 -58.5zM689 1478h-210v27q26 1 37 7.5t36 34.5l146 149q12 12 12 25q0 17 -35 17v27h262v-27q-33 -4 -33 -18q0 -11 18 -28l169 -167q18 -19 48 -20v-27h-235v27q33 3 33 15q0 6 -17 23l-124 131
l-128 -134q-10 -10 -10 -18q0 -15 31 -17v-27z" />
    <glyph glyph-name="Ugrave" unicode="&#xd9;" horiz-adv-x="1617" 
d="M344 1247v-755q0 -134 14 -188.5t58 -94.5q107 -96 399 -96q318 0 417 113q33 38 44 90.5t11 175.5v755q0 41 -13 58.5t-51 27.5v32h271v-32q-38 -9 -51 -26.5t-13 -59.5v-786q0 -145 -28 -221q-52 -136 -195.5 -200t-397.5 -64q-380 0 -520 147q-57 59 -79.5 134.5
t-22.5 203.5v786q0 42 -13 59.5t-51 26.5v32h285v-32q-38 -10 -51 -27.5t-13 -58.5zM587 1765h232v-27q-27 -3 -27 -22q0 -6 3 -12l77 -163q11 -24 19 -30t30 -6v-27h-173v27h5q20 0 20 15q0 9 -6 18l-129 172q-17 25 -51 28v27z" />
    <glyph glyph-name="dotlessi" unicode="&#x131;" horiz-adv-x="512" 
d="M184 113v894q0 42 -13 59t-51 27v27h271v-27q-38 -10 -51 -27t-13 -59v-894q0 -41 13 -58.5t51 -27.5v-27h-271v27q38 10 51 27.5t13 58.5z" />
    <glyph glyph-name="circumflex" unicode="&#x2c6;" 
d="M392 1246h-210v27q26 1 37 7.5t36 34.5l146 149q12 12 12 25q0 17 -35 17v27h262v-27q-33 -4 -33 -18q0 -11 18 -28l169 -167q18 -19 48 -20v-27h-235v27q33 3 33 15q0 6 -17 23l-124 131l-128 -134q-10 -10 -10 -17q0 -16 31 -18v-27z" />
    <glyph glyph-name="tilde" unicode="&#x2dc;" 
d="M708 1501l130 -84l-14 -23q-14 6 -22 6q-12 0 -25 -18q-64 -96 -138 -96q-35 0 -78 16l-144 53q-19 7 -40 7q-20 0 -38.5 -16.5t-18.5 -34.5q0 -11 13 -28l-15 -18l-132 90l13 18q13 -4 21 -4q18 0 35 23q57 84 148 84q27 0 58 -12l145 -54q25 -10 47 -10q20 0 37.5 16
t17.5 35q0 14 -16 31z" />
    <glyph glyph-name="uni02C9" unicode="&#x2c9;" 
d="M779 1477v-210h-23q-7 30 -21.5 40.5t-49.5 10.5h-347q-34 0 -49 -10.5t-22 -40.5h-23v210h23q7 -30 22 -40t49 -10h347q35 0 49.5 10t21.5 40h23z" />
    <glyph glyph-name="breve" unicode="&#x2d8;" 
d="M211 1504v27h172v-27q-20 -1 -25.5 -5t-5.5 -17q0 -38 31 -74q44 -51 132 -51q83 0 126 51q31 36 31 74q0 13 -6 17t-25 5v27h172v-27q-34 0 -36 -22q-8 -75 -43 -127q-74 -109 -222 -109q-112 0 -183 63t-82 173q-2 22 -36 22z" />
    <glyph glyph-name="dotaccent" unicode="&#x2d9;" 
d="M511 1466q39 0 66 -27t27 -67q0 -38 -27.5 -65t-65.5 -27t-65.5 27.5t-27.5 65.5q0 39 27 65.5t66 27.5z" />
    <glyph glyph-name="ring" unicode="&#x2da;" 
d="M511 1554q83 0 140 -49q57 -50 57 -120q0 -68 -58 -117.5t-138 -49.5q-81 0 -138 50q-58 49 -58 119t56 118t139 49zM512 1473q-43 0 -72 -24.5t-29 -62.5q0 -36 29.5 -61.5t71.5 -25.5q41 0 71 25.5t30 60.5q0 38 -28.5 63t-72.5 25z" />
    <glyph glyph-name="cedilla" unicode="&#xb8;" 
d="M408 -202l51 104q22 2 40 2q86 0 136 -37t50 -100q0 -68 -50 -109q-49 -41 -141 -41q-90 0 -154 23l16 36q42 -13 79 -13q113 0 113 82q0 68 -62 68q-33 0 -58 -27z" />
    <glyph glyph-name="hungarumlaut" unicode="&#x2dd;" 
d="M625 1533v-27q-34 -3 -51 -27l-129 -173q-6 -9 -6 -18q0 -15 21 -15h4v-27h-164v27q22 0 30 6t20 30l77 163q2 5 2 12q0 19 -27 22v27h223zM943 1533v-27q-34 -3 -51 -27l-129 -173q-6 -9 -6 -18q0 -15 21 -15h4v-27h-164v27q22 0 30 6t20 30l77 163q2 5 2 12
q0 19 -27 22v27h223z" />
    <glyph glyph-name="ogonek" unicode="&#x2db;" 
d="M876 0h91q-50 -31 -79.5 -74.5t-29.5 -87.5q0 -43 33.5 -69.5t88.5 -26.5q22 0 66 10l15 -39q-77 -21 -135 -21q-206 0 -206 140q0 56 34 92.5t122 75.5z" />
    <glyph glyph-name="caron" unicode="&#x2c7;" 
d="M632 1533h210v-27q-26 -1 -37 -7.5t-36 -34.5l-146 -149q-12 -12 -12 -25q0 -17 35 -17v-27h-262v27q33 3 33 18q0 11 -18 29l-169 166q-18 19 -48 20v27h235v-27q-33 -3 -33 -15q0 -6 17 -23l124 -131l128 134q10 10 10 17q0 16 -31 18v27z" />
    <glyph glyph-name="brokenbar" unicode="&#xa6;" 
d="M434 1365h155v-683h-155v683zM434 314h155v-655h-155v655z" />
    <glyph glyph-name="sfthyphen" unicode="&#xad;" horiz-adv-x="407" 
d="M407 689v-258h-24q-8 37 -19 50.5t-34 13.5h-254q-22 0 -33.5 -13.5t-19.5 -50.5h-23v258h23q8 -37 19.5 -50.5t33.5 -13.5h254q22 0 34 14t19 50h24z" />
    <glyph glyph-name="macron" unicode="&#xaf;" 
d="M0 1615h1024v-103h-1024v103z" />
    <glyph glyph-name="twosuperior" unicode="&#xb2;" horiz-adv-x="929" 
d="M225 1099l-135 127l23 22q25 -17 37 -17q4 0 13 9q62 66 149 102.5t183 36.5q132 0 218 -66q89 -69 89 -176q0 -90 -58 -150.5t-216 -135.5q-139 -66 -195.5 -109.5t-82.5 -105.5h507q24 0 33 7t14 31h32v-166h-32q-5 24 -14 31t-33 7h-572q-24 0 -32.5 -7t-14.5 -31h-32
q-4 258 385 427q116 53 159 94.5t43 100.5q0 68 -59 111.5t-151 43.5q-115 0 -204 -73q-50 -41 -50 -57q0 -13 19 -34z" />
    <glyph glyph-name="threesuperior" unicode="&#xb3;" horiz-adv-x="928" 
d="M194 1113l-119 132l22 21q23 -17 30 -17q4 0 16 8q101 70 171 96t162 26q144 0 237 -69q87 -64 87 -159q0 -56 -29 -94.5t-93 -67.5q73 -19 116 -72.5t43 -125.5q0 -114 -98 -184q-104 -75 -268 -75q-168 0 -335 91q-13 7 -17 7q-10 0 -29 -20l-27 16l96 154l28 -15
q-9 -20 -9 -26q0 -9 18 -24q103 -89 281 -89q126 0 195 55q55 43 55 111q0 71 -59 109t-169 38h-78q-25 0 -33.5 -7t-13.5 -31h-32v166h32q5 -24 14 -31t33 -7h64q110 0 159 32q47 31 47 85q0 60 -63 99.5t-159 39.5q-127 0 -222 -75q-42 -33 -42 -48q0 -5 12 -28z" />
    <glyph glyph-name="onesuperior" unicode="&#xb9;" horiz-adv-x="928" 
d="M402 546v32q25 6 32 14t7 30v579q-50 -26 -82 -30q-15 -2 -17.5 -5t-7.5 -26h-32v165h32q2 -13 3 -17l2 -11q1 -8 10 -8q25 0 59 18.5t34 31.5q0 8 -33 14v32h177v-32q-25 -5 -32.5 -13t-7.5 -31v-667q0 -22 7 -30t33 -14v-32h-184z" />
    <glyph glyph-name="onequarter" unicode="&#xbc;" horiz-adv-x="2365" 
d="M402 546v32q25 6 32 14t7 30v579q-50 -26 -82 -30q-15 -2 -17.5 -5t-7.5 -26h-32v165h32q4 -27 6 -31.5t9 -4.5q25 0 59 18.5t34 31.5q0 8 -33 14v32h177v-32q-25 -5 -32.5 -13t-7.5 -31v-667q0 -22 7 -30t33 -14v-32h-184zM1324 1365h317v-27q-68 -5 -130 -124
l-500 -1062q-32 -69 -32 -83q0 -35 65 -41v-28h-321v28q68 5 129 124l509 1061q32 67 32 83q0 37 -69 42v27zM2143 259h75q24 0 32.5 7t14.5 31h32v-166h-32q-5 24 -14 31t-33 7h-75v-93q0 -22 7 -30t32 -14v-32h-183v32q25 6 32 14t7 30v93h-455q-24 0 -33 -7t-14 -31h-32
v107l471 529q5 6 5 9t-30 11v32h232v-32q-24 -5 -31.5 -13.5t-7.5 -31.5v-483zM2038 259v445l-389 -445h389z" />
    <glyph glyph-name="onehalf" unicode="&#xbd;" horiz-adv-x="2365" 
d="M402 546v32q24 6 31.5 14t7.5 31v578q-50 -26 -82 -30q-15 -2 -17.5 -5t-7.5 -26h-32v165h32q4 -27 6 -31.5t9 -4.5q25 0 59 18.5t34 32.5q0 7 -33 13v32h177v-32q-25 -5 -32.5 -13t-7.5 -31v-666q0 -23 7.5 -31t32.5 -14v-32h-184zM1324 1365h317v-27q-68 -5 -130 -124
l-500 -1062q-32 -69 -32 -83q0 -35 65 -41v-28h-321v28q68 5 129 124l509 1061q32 67 32 83q0 37 -69 42v27zM1661 553l-135 127l23 22q26 -17 37 -17q4 0 13 9q62 66 149 102.5t183 36.5q132 0 218 -66q89 -69 89 -176q0 -90 -58 -150.5t-216 -135.5
q-139 -66 -195.5 -109.5t-82.5 -105.5h507q24 0 33 7t14 31h32v-166h-32q-5 24 -14 31t-33 7h-572q-24 0 -32.5 -7t-14.5 -31h-32q-4 257 384 427q117 53 160 94.5t43 100.5q0 68 -59 111.5t-151 43.5q-115 0 -204 -73q-50 -41 -50 -57q0 -13 19 -33z" />
    <glyph glyph-name="threequarters" unicode="&#xbe;" horiz-adv-x="2365" 
d="M194 1113l-119 132l22 21q23 -17 30 -17q5 0 40 25q151 105 309 105q144 0 237 -69q87 -64 87 -159q0 -56 -29 -94.5t-93 -67.5q75 -21 117 -73t42 -125q0 -114 -98 -184q-104 -75 -268 -75q-168 0 -335 91q-13 7 -17 7q-9 0 -29 -20l-27 16l96 154l28 -15q-9 -20 -9 -26
q0 -9 18 -24q103 -89 281 -89q126 0 195 55q55 43 55 111q0 71 -59 109t-169 38h-78q-25 0 -33.5 -7t-13.5 -31h-32v166h32q5 -24 14 -31t33 -7h64q110 0 159 32q47 32 47 85q0 61 -63 100t-159 39q-127 0 -222 -75q-42 -33 -42 -48q0 -5 12 -27zM1324 1365h317v-27
q-68 -5 -130 -124l-500 -1062q-32 -69 -32 -83q0 -35 65 -41v-28h-321v28q68 5 129 124l509 1061q32 67 32 83q0 37 -69 42v27zM2142 259h75q24 0 32.5 7t14.5 31h32v-166h-32q-5 24 -14 31t-33 7h-75v-93q0 -22 7 -30t32 -14v-32h-183v32q25 6 32 14t7 30v93h-454
q-24 0 -33 -7t-14 -31h-32v107l470 529q5 6 5 9t-30 11v32h232v-32q-24 -5 -31.5 -13.5t-7.5 -31.5v-483zM2037 259v445l-389 -445h389z" />
    <glyph glyph-name="Eth" unicode="&#xd0;" horiz-adv-x="1686" 
d="M37 577v251h37q12 -37 30 -51t54 -14h57v498q0 30 -14 46t-50 26v32h720q245 0 375 -68q164 -85 250 -261q75 -156 75 -354q0 -232 -101 -401q-91 -150 -230.5 -215.5t-368.5 -65.5h-720v32q36 10 50 26t14 46v536h-57q-36 0 -54 -13.5t-30 -49.5h-37zM372 763h357
q36 0 54 14t30 51h37v-251h-37q-12 36 -30 49.5t-54 13.5h-357v-510h493q218 0 322 67q124 80 182 246q38 109 38 239q0 240 -121 395q-67 86 -163 122t-258 36h-493v-472z" />
    <glyph glyph-name="multiply" unicode="&#xd7;" horiz-adv-x="1570" 
d="M451 166l-183 182l26 27q21 -5 32 -5q55 0 132 77l235 236l-234 234q-76 76 -133 76q-11 0 -30 -4l-28 28l183 183l27 -28q-4 -20 -4 -32q0 -55 77 -131l234 -235l234 234q77 77 77 134q0 11 -5 29l29 29l182 -183l-28 -28q-20 4 -32 4q-55 0 -131 -76l-234 -234
l236 -237q76 -76 131 -76q12 0 32 4l26 -26l-183 -182l-26 26q4 21 4 32q0 55 -76 131l-236 236l-236 -236q-76 -76 -76 -131q0 -10 4 -32z" />
    <glyph glyph-name="Yacute" unicode="&#xdd;" horiz-adv-x="1333" 
d="M751 604v-486q0 -41 13 -58.5t51 -27.5v-32h-285v32q38 10 51 27t13 59v486l-441 578q-72 94 -99.5 119t-68.5 32v32h346v-32q-47 -12 -47 -39q0 -33 47 -97l347 -472l346 488q44 62 44 84q0 25 -44 36v32h322v-32q-49 -9 -84 -44q-72 -76 -93 -107zM901 1765v-27
q-34 -3 -51 -28l-129 -172q-6 -9 -6 -18q0 -15 21 -15h4v-27h-173v27q22 0 30 6t20 30l76 163q3 6 3 12q0 19 -27 22v27h232z" />
    <glyph glyph-name="Thorn" unicode="&#xde;" horiz-adv-x="1398" 
d="M371 1120h428q152 0 235.5 -16t149.5 -57q69 -43 111 -116q47 -82 47 -185q0 -140 -86 -240q-66 -77 -167.5 -107.5t-289.5 -30.5h-428v-250q0 -42 12.5 -59t51.5 -27v-32h-285v32q39 10 51.5 27t12.5 59v1129q0 42 -13 59.5t-51 26.5v32h285v-32q-38 -10 -51 -27
t-13 -59v-127zM371 498h444q114 0 169.5 9t99.5 35q101 60 101 202t-101 202q-44 26 -99.5 35t-169.5 9h-444v-492z" />
    <glyph glyph-name="eth" unicode="&#xf0;" horiz-adv-x="1401" 
d="M184 526h-81q-22 0 -33.5 -14t-19.5 -51h-23v231h23q8 -37 19.5 -50.5t33.5 -13.5h81v379q0 41 -13 58.5t-51 27.5v27h566q227 0 338 -53q138 -67 216 -222q68 -134 68 -285q0 -177 -90 -325q-78 -129 -197.5 -182t-334.5 -53h-566v27q38 10 51 27.5t13 58.5v413z
M327 1011v-383h292q22 0 33.5 14t19.5 50h24v-231h-24q-8 37 -19 51t-34 14h-292v-417h351q199 0 291 54q103 60 152 186q37 95 37 211q0 204 -105 327q-58 68 -143 96t-232 28h-351z" />
    <glyph glyph-name="yacute" unicode="&#xfd;" horiz-adv-x="1114" 
d="M640 494v-381q0 -41 12.5 -58.5t51.5 -27.5v-27h-271v27q38 10 51 27.5t13 58.5v381l-345 450q-63 83 -93 110t-71 39v27h316v-27q-44 -7 -44 -38q0 -28 27 -63l295 -387l267 386q28 41 28 62q0 34 -45 40v27h292v-27q-45 -15 -83 -51.5t-104 -128.5zM799 1533v-27
q-34 -3 -51 -27l-129 -173q-6 -9 -6 -18q0 -15 21 -15h4v-27h-173v27q22 0 30 6t20 30l76 163q3 6 3 12q0 19 -27 22v27h232z" />
    <glyph glyph-name="thorn" unicode="&#xfe;" horiz-adv-x="1160" 
d="M327 922h345q123 0 187 -11t115 -42q61 -36 96 -104.5t35 -151.5t-34.5 -150t-97.5 -104q-52 -32 -115 -43t-186 -11h-345v-192q0 -42 12.5 -59t51.5 -27v-27h-271v27q38 10 51 27.5t13 58.5v894q0 42 -13 59t-51 27v27h271v-27q-38 -10 -51 -27t-13 -59v-85zM327 414
h326q107 0 158 8.5t87 32.5q70 47 70 158q0 112 -70 159q-36 24 -87 32.5t-158 8.5h-326v-399z" />
    <glyph glyph-name="Scaron" unicode="&#x160;" horiz-adv-x="1532" 
d="M1431 1281l-143 -258l-28 15q17 45 17 56q0 30 -74 65q-201 94 -426 94q-185 0 -322 -69q-66 -34 -104.5 -88t-38.5 -114q0 -50 30 -94.5t79 -66.5q54 -25 127.5 -34.5t239.5 -14.5q230 -7 329 -21.5t163 -50.5q170 -95 170 -289q0 -185 -154 -303q-171 -132 -471 -132
q-173 0 -302 35t-308 129q-50 23 -59 23q-15 0 -47 -36l-27 17l150 251l28 -16q-19 -40 -19 -54q0 -32 128 -99q115 -60 221.5 -86.5t231.5 -26.5q253 0 384 111q87 74 87 176q0 134 -149 185q-48 17 -99.5 21.5t-292.5 13.5q-172 7 -269.5 26t-173.5 62q-71 40 -112.5 112
t-41.5 157q0 145 108 249q80 76 221 119.5t309 43.5q137 0 254.5 -27t265.5 -93q33 -14 41 -14q18 0 49 40zM920 1765h210v-27q-26 -1 -37 -7.5t-36 -34.5l-146 -149q-12 -12 -12 -25q0 -17 35 -17v-27h-262v27q33 3 33 18q0 11 -18 29l-169 166q-18 19 -48 20v27h235v-27
q-33 -3 -33 -15q0 -6 17 -23l124 -131l128 134q10 10 10 17q0 16 -31 18v27z" />
    <glyph glyph-name="scaron" unicode="&#x161;" horiz-adv-x="1268" 
d="M1185 1062l-110 -218l-24 12q5 29 5 40q0 24 -65 58q-138 74 -336 74q-159 0 -270 -59q-111 -60 -111 -167q0 -48 28 -86.5t75 -54.5t102 -21t236 -12q151 -5 228.5 -19t132.5 -45q59 -33 93 -95.5t34 -136.5q0 -155 -127 -247q-152 -109 -404 -109q-124 0 -260.5 38
t-253.5 104q-16 10 -24 10q-15 0 -45 -35l-23 15l127 213l24 -14l-4 -16q-5 -16 -5 -26q0 -28 102 -82q172 -91 357 -91q169 0 281 58q54 28 86 75.5t32 99.5q0 48 -27 86t-71 54q-41 14 -91.5 20t-190.5 11q-165 7 -236 16.5t-134 32.5q-80 29 -129 94q-49 67 -49 158
q0 161 146 253q149 94 379 94q210 0 422 -94q32 -13 37 -13q16 0 38 37zM799 1533h210v-27q-26 -1 -37 -7.5t-36 -34.5l-146 -149q-12 -12 -12 -25q0 -17 35 -17v-27h-262v27q33 3 33 18q0 11 -18 29l-169 166q-18 19 -48 20v27h235v-27q-33 -3 -33 -15q0 -6 17 -23
l124 -131l128 134q10 10 10 17q0 16 -31 18v27z" />
    <glyph glyph-name="glyph242" 
d="M376 1698q39 0 66 -27t27 -67q0 -38 -27.5 -65t-65.5 -27t-65.5 27t-27.5 66t27 65.5t66 27.5zM646 1698q39 0 66 -27t27 -67q0 -38 -27.5 -65t-65.5 -27q-39 0 -66 27t-27 66t26.5 65.5t66.5 27.5z" />
    <glyph glyph-name="glyph243" 
d="M511 1786q83 0 140 -49q57 -50 57 -120q0 -68 -58 -117.5t-138 -49.5q-81 0 -138 50q-58 49 -58 119t56 118t139 49zM512 1705q-43 0 -72 -24.5t-29 -62.5q0 -36 29.5 -61.5t71.5 -25.5q41 0 71 25.5t30 60.5q0 38 -28.5 63t-72.5 25z" />
    <glyph glyph-name="glyph244" 
d="M632 1765h210v-27q-26 -1 -37 -7.5t-36 -34.5l-146 -149q-12 -12 -12 -25q0 -17 35 -17v-27h-262v27q33 3 33 18q0 11 -18 29l-169 166q-18 19 -48 20v27h235v-27q-33 -3 -33 -15q0 -6 17 -23l124 -131l128 134q10 10 10 17q0 16 -31 18v27z" />
    <glyph glyph-name="glyph245" 
d="M392 -220l64 114q28 3 42 3q69 0 137 -30q81 -35 81 -126q0 -70 -56 -114q-66 -50 -168 -50q-108 0 -185 29l20 41q52 -17 99 -17q66 0 103 26t37 72q0 35 -21.5 56t-57.5 21q-22 0 -31 -5t-39 -36z" />
    <glyph glyph-name="glyph246" 
d="M392 1478h-210v27q26 1 37 7.5t36 34.5l146 149q12 12 12 25q0 17 -35 17v27h262v-27q-33 -4 -33 -18q0 -11 18 -28l169 -167q18 -19 48 -20v-27h-235v27q33 3 33 15q0 6 -17 23l-124 131l-128 -134q-10 -10 -10 -18q0 -15 31 -17v-27z" />
    <glyph glyph-name="glyph247" 
d="M747 1765v-27q-34 -3 -51 -28l-129 -172q-6 -9 -6 -18q0 -15 21 -15h4v-27h-173v27q22 0 30 6t20 30l76 163q3 6 3 12q0 19 -27 22v27h232z" />
    <glyph glyph-name="glyph248" 
d="M383 1466q39 0 66 -27t27 -67q0 -38 -27.5 -65t-65.5 -27t-65.5 27.5t-27.5 65.5q0 39 27 65.5t66 27.5zM639 1466q39 0 66 -27t27 -67q0 -38 -27.5 -65t-65.5 -27t-65.5 27.5t-27.5 65.5q0 39 27 65.5t66 27.5z" />
    <glyph glyph-name="glyph249" 
d="M708 1733l130 -84l-14 -23q-14 6 -22 6q-12 0 -25 -18q-64 -95 -138 -95q-36 0 -78 15l-144 53q-18 7 -40 7q-20 0 -38 -16t-19 -35q-1 -10 13 -28l-15 -18l-132 90l13 18q14 -4 21 -4q18 0 35 23q58 84 148 84q28 0 58 -11l145 -55q24 -9 47 -9q20 0 37.5 16t17.5 35
q0 14 -16 30z" />
    <glyph glyph-name="glyph250" 
d="M335 1698q39 0 66 -27t27 -67q0 -38 -27.5 -65t-65.5 -27t-65.5 27t-27.5 66t27 65.5t66 27.5zM687 1698q39 0 66 -27t27 -67q0 -38 -27.5 -65t-65.5 -27q-39 0 -66 27t-27 66t27 65.5t66 27.5z" />
    <glyph glyph-name="glyph251" 
d="M277 1765h232v-27q-27 -3 -27 -22q0 -6 3 -12l77 -163q11 -24 19 -30t30 -6v-27h-173v27h5q20 0 20 15q0 9 -6 18l-129 172q-17 25 -51 28v27z" />
    <glyph glyph-name="currency" unicode="&#xa4;" horiz-adv-x="1447" 
d="M1210 318l124 -137q13 -15 29 -15t45 23l16 -18l-165 -182l-15 17q20 33 20 51t-13 32l-127 141q-163 -131 -402 -131q-238 0 -399 127l-128 -142q-13 -15 -13 -32q0 -18 20 -51l-15 -17l-164 183l15 16q31 -22 46 -22q16 0 28 14l124 138q-122 158 -122 370
q0 220 130 380l-123 137q-13 14 -29 14t-46 -22l-14 16l164 182l15 -16q-20 -36 -20 -51q0 -18 13 -32l129 -143q157 118 389 118q235 0 397 -126l128 141q13 15 13 32q0 18 -20 51l15 17l164 -182l-15 -17q-30 22 -46 22t-29 -14l-123 -137q123 -158 123 -370
q0 -205 -119 -365zM720 1150q-219 0 -354 -149q-117 -130 -117 -318q0 -189 117 -318q134 -150 355 -150q222 0 356 150q117 129 117 312q0 197 -117 324q-136 147 -357 149z" />
    </font>
</defs>
</svg>
