<?xml version="1.0" standalone="no"?>
<!DOCTYPE svg PUBLIC "-//W3C//DTD SVG 1.1//EN" "http://www.w3.org/Graphics/SVG/1.1/DTD/svg11.dtd" >
<svg>
<metadata>
Created by FontForge 20090622 at Thu Sep  1 09:54:02 2016
 By deploy user
&#194;&#169; 1987, 2001 Adobe Systems Incorporated. All rights reserved.
</metadata>
<defs>
<font id="OratorStd" horiz-adv-x="600" >
  <font-face 
    font-family="Orator Std"
    font-weight="400"
    font-stretch="normal"
    units-per-em="1000"
    panose-1="2 13 5 9 2 2 3 3 2 4"
    ascent="667"
    descent="-333"
    x-height="521"
    cap-height="667"
    bbox="-3 -288 604 1046"
    underline-thickness="63"
    underline-position="-28"
    unicode-range="U+0020-U+FB02"
  />
<missing-glyph 
d="M50 0v700h500v-700h-500zM300 395l170 255h-340zM330 350l170 -255v510zM130 50h340l-170 255zM100 605v-510l170 255z" />
    <glyph glyph-name=".notdef" 
d="M50 0v700h500v-700h-500zM300 395l170 255h-340zM330 350l170 -255v510zM130 50h340l-170 255zM100 605v-510l170 255z" />
    <glyph glyph-name=".null" horiz-adv-x="0" 
 />
    <glyph glyph-name="nonmarkingreturn" 
 />
    <glyph glyph-name="space" unicode=" " 
 />
    <glyph glyph-name="exclam" unicode="!" 
d="M331 207h-64l-18 460h102zM254 0v148h92v-148h-92z" />
    <glyph glyph-name="quotedbl" unicode="&#x22;" 
d="M176 676h92v-111l-27 -135h-38l-27 135v111zM333 676h92v-111l-27 -135h-38l-27 135v111z" />
    <glyph glyph-name="numbersign" unicode="#" 
d="M267 805h44l-162 -901h-45l61 335h-134l8 44h134l28 157h-134l8 44h134zM329 -96h-45l165 901h44l-58 -321h135l-9 -44h-134l-28 -157h134l-8 -44h-134z" />
    <glyph glyph-name="dollar" unicode="$" 
d="M332 298v-161q34 2 58 24t24 56q0 32 -24.5 54t-57.5 27zM262 385v145q-24 -6 -40 -27.5t-16 -46.5q0 -24 15.5 -43.5t40.5 -27.5zM262 137v181q-55 14 -90.5 50.5t-35.5 90.5q0 51 37 88t89 46v83h70v-83q78 -7 140 -87l-49 -43q-55 62 -91 67v-164q66 -10 109 -48.5
t43 -101.5q0 -60 -45.5 -100.5t-106.5 -41.5v-83h-70v83q-44 2 -82 29.5t-64 69.5l55 40q16 -23 25 -34.5t27.5 -25t38.5 -16.5z" />
    <glyph glyph-name="percent" unicode="%" 
d="M433 116q0 30 -11.5 52.5t-37.5 22.5q-27 0 -38.5 -22.5t-11.5 -52.5t11.5 -52.5t38.5 -22.5q26 0 37.5 22.5t11.5 52.5zM482 675l36 -20l-376 -664l-60 32l330 580q-19 -8 -45 -8q-27 0 -53 9q9 -25 9 -53q0 -53 -29 -89.5t-80 -36.5q-52 0 -81 36.5t-29 89.5
q0 52 29 88.5t81 36.5q21 0 67 -14q51 -17 82 -17q73 0 119 30zM493 116q0 -52 -29 -88.5t-80 -36.5q-52 0 -81 36.5t-29 88.5t29 88.5t81 36.5q51 0 80 -36.5t29 -88.5zM263 551q0 29 -11.5 52t-37.5 23q-27 0 -38.5 -23t-11.5 -52q0 -30 11.5 -53t38.5 -23q26 0 37.5 23
t11.5 53z" />
    <glyph glyph-name="ampersand" unicode="&#x26;" 
d="M358 87l-110 149q-32 -22 -47 -41.5t-15 -50.5q0 -40 26 -65t66 -25q45 0 80 33zM264 319l21 15q20 14 31 24t20.5 27.5t9.5 37.5q0 34 -19 55t-53 21q-30 0 -47 -19.5t-17 -49.5q0 -43 54 -111zM211 284l-15 20q-26 34 -37.5 60t-11.5 62q0 61 35.5 98.5t94.5 37.5
q58 0 95 -39.5t37 -96.5q0 -47 -24.5 -81.5t-84.5 -74.5l98 -133q24 36 29 98l66 -13q-10 -83 -53 -142l41 -57l-51 -37l-36 49q-57 -44 -120 -44q-66 0 -112 43t-46 109q0 46 24.5 77.5t70.5 63.5z" />
    <glyph glyph-name="quotesingle" unicode="'" 
d="M254 676h92v-111l-27 -135h-38l-27 135v111z" />
    <glyph glyph-name="parenleft" unicode="(" 
d="M362 676l40 -39q-124 -118 -124 -332t124 -332l-40 -40q-75 64 -114.5 165.5t-39.5 206.5t39.5 206.5t114.5 164.5z" />
    <glyph glyph-name="parenright" unicode=")" 
d="M198 637l40 39q75 -63 114.5 -164.5t39.5 -206.5t-39.5 -206.5t-114.5 -165.5l-40 40q124 118 124 332t-124 332z" />
    <glyph glyph-name="asterisk" unicode="*" 
d="M143 564l100 -10l-63 74l68 48l52 -94l52 94l68 -48l-63 -74l100 10v-88l-100 9l63 -73l-68 -49l-52 95l-52 -95l-68 49l63 73l-100 -9v88zM300 548q-11 0 -19.5 -8.5t-8.5 -19.5q0 -12 8.5 -20t19.5 -8t19.5 8t8.5 20q0 11 -8.5 19.5t-19.5 8.5z" />
    <glyph glyph-name="plus" unicode="+" 
d="M566 382v-44h-244v-244h-44v244h-244v44h244v244h44v-244h244z" />
    <glyph glyph-name="comma" unicode="," 
d="M265 148h92v-45q0 -49 -31.5 -93t-79.5 -69l-23 55q42 27 42 91v61z" />
    <glyph glyph-name="hyphen" unicode="-" 
d="M189 229v63h222v-63h-222z" />
    <glyph glyph-name="period" unicode="." 
d="M254 0v148h92v-148h-92z" />
    <glyph glyph-name="slash" unicode="/" 
d="M175 -27h-46l296 774h46z" />
    <glyph glyph-name="zero" unicode="0" 
d="M300 676q38 0 68.5 -12.5t50 -29.5t33.5 -47.5t20.5 -53t10.5 -60t4 -54.5t-0.5 -50.5t-0.5 -35.5v-24q-1 -25 0 -54t-3 -59.5t-10 -60t-20 -55.5t-33 -46t-50 -31.5t-70 -11.5t-70 11t-50 30.5t-33 45t-20 54.5t-10 59.5t-3 60t0 55.5v26q0 145 12 198q27 129 141 143
q16 2 33 2zM300 613q-87 0 -108 -101q-8 -47 -8 -179q0 -77 6 -129.5t15 -82t25.5 -45t31 -19t38.5 -3.5q32 0 51 9t35 37.5t23 85t7 147.5q0 76 -5.5 128t-14.5 82t-25 45.5t-31.5 20t-39.5 4.5z" />
    <glyph glyph-name="one" unicode="1" 
d="M279 60v526l-122 -47l-21 61l210 80v-620h143v-60h-378v60h168z" />
    <glyph glyph-name="two" unicode="2" 
d="M114 0v60l247 319q21 27 29.5 40t17.5 36.5t9 48.5q0 48 -29.5 78.5t-77.5 30.5q-56 0 -88.5 -37.5t-40.5 -96.5l-66 9q13 87 61.5 137.5t133.5 50.5q80 0 128.5 -45.5t48.5 -124.5q0 -73 -70 -163l-218 -283h287v-60h-372z" />
    <glyph glyph-name="three" unicode="3" 
d="M192 350v54l197 203h-278v60h370v-60l-185 -189q82 2 137.5 -44t55.5 -126q0 -129 -121 -203q-87 -54 -248 -54v63q136 0 192 32q47 25 77 67.5t30 92.5q0 59 -43 85.5t-106 26.5q-9 0 -78 -8z" />
    <glyph glyph-name="four" unicode="4" 
d="M371 167h-261l99 513l67 -18l-86 -435h181v339h67v-339h53v-60h-53v-167h-67v167z" />
    <glyph glyph-name="five" unicode="5" 
d="M137 325v342h342v-60h-275v-205q58 21 99 21q76 0 128.5 -48t52.5 -129q0 -64 -31.5 -117t-86.5 -88q-79 -50 -250 -50v63q141 0 195 29q46 25 74.5 68.5t28.5 94.5q0 53 -32.5 83.5t-85.5 30.5q-45 0 -111 -35h-48z" />
    <glyph glyph-name="six" unicode="6" 
d="M460 618l-38 -55q-57 50 -107 50q-29 0 -51.5 -11t-36 -33t-22.5 -43.5t-13.5 -53.5t-6 -52t-2.5 -50q64 54 133 54q88 0 130 -61t42 -153q0 -94 -50 -156.5t-142 -62.5q-49 0 -85 23.5t-54 56.5t-28.5 83t-13 87t-2.5 85q0 350 199 350q85 0 148 -58zM183 296
q0 -75 9.5 -125.5t27.5 -74.5t36.5 -33t44.5 -9q58 0 87.5 43.5t29.5 109.5q0 154 -112 154q-54 0 -123 -65z" />
    <glyph glyph-name="seven" unicode="7" 
d="M153 14l266 593h-275v60h372l-303 -680z" />
    <glyph glyph-name="eight" unicode="8" 
d="M300 311l-25 -15t-25.5 -16.5t-21 -15.5t-21 -19l-14 -21t-11.5 -27t-3 -30q0 -51 35 -82t86 -31t86 31t35 82q0 16 -3 30t-11.5 27l-14 21t-21 19t-21 15.5t-25.5 16.5zM300 380l18 12t18.5 12.5t15.5 12t16 14t12 14.5t11 18t5.5 19.5t2.5 23.5q0 46 -26.5 76.5
t-72.5 30.5t-72.5 -30.5t-26.5 -76.5q0 -12 2.5 -23.5t5.5 -19.5t11 -18t12 -14.5t16 -14t15.5 -12t18.5 -12.5zM358 345q65 -33 99 -72t34 -103q0 -80 -55 -129.5t-136 -49.5t-136 49.5t-55 129.5q0 64 34 103t100 72q-53 33 -82.5 70.5t-29.5 90.5q0 73 48 121.5t121 48.5
t121 -48.5t48 -121.5q0 -53 -29 -90.5t-82 -70.5z" />
    <glyph glyph-name="nine" unicode="9" 
d="M140 49l38 55q55 -50 108 -50q29 0 51.5 11t36 33t22 43.5t13 54t6 52t2.5 49.5q-62 -54 -132 -54q-88 0 -130 61t-42 153q0 94 49.5 156.5t141.5 62.5q42 0 73.5 -15t51 -44t32 -60t18 -73.5t7 -73t1.5 -69.5q0 -350 -199 -350q-85 0 -148 58zM417 370q0 74 -9 124
t-26.5 75t-36.5 34.5t-45 9.5q-58 0 -87.5 -44t-29.5 -110q0 -153 112 -153q54 0 122 64z" />
    <glyph glyph-name="colon" unicode=":" 
d="M254 0v148h92v-148h-92zM254 284v148h92v-148h-92z" />
    <glyph glyph-name="semicolon" unicode=";" 
d="M265 148h92v-45q0 -49 -31.5 -93t-79.5 -69l-23 55q42 27 42 91v61zM265 284v148h92v-148h-92z" />
    <glyph glyph-name="less" unicode="&#x3c;" 
d="M98 360l379 360l25 -32l-340 -328l340 -328l-25 -32z" />
    <glyph glyph-name="equal" unicode="=" 
d="M566 449v-44h-532v44h532zM566 315v-44h-532v44h532z" />
    <glyph glyph-name="greater" unicode="&#x3e;" 
d="M123 720l379 -360l-379 -360l-25 32l340 328l-340 328z" />
    <glyph glyph-name="question" unicode="?" 
d="M331 220h-69v17q0 54 10.5 77t52.5 59l43.5 38.5t28 38.5t15.5 55q0 48 -26.5 78t-74.5 30q-55 0 -86 -39t-41 -99l-66 17q36 184 191 184q78 0 125.5 -46t47.5 -123q0 -53 -25 -91t-74 -80q-34 -30 -43 -45.5t-9 -56.5v-14zM250 0v148h92v-148h-92z" />
    <glyph glyph-name="at" unicode="@" 
d="M502 131l24 -63q-117 -77 -246 -77q-105 0 -183 73.5t-78 213.5q0 70 19.5 139t56 128t96.5 95t134 36q42 0 85 -16t82.5 -48t64 -87.5t24.5 -126.5q0 -51 -14 -100t-50 -88.5t-88 -39.5q-29 0 -44.5 8.5t-38.5 32.5q-26 -22 -44.5 -31.5t-47.5 -9.5q-40 0 -65.5 25
t-25.5 65q0 39 15 83.5t39 75.5q25 32 70.5 47t140.5 12l-25 -151q-7 -46 -7 -54q0 -40 34 -40q22 0 39 17.5t25.5 44.5t12.5 52t4 46q0 99 -53 159.5t-139 60.5q-93 0 -161.5 -91t-68.5 -246q0 -103 53 -162.5t143 -59.5q98 0 217 77zM346 389l5 26q-2 0 -14.5 -2.5
t-17.5 -4t-14 -4.5t-15.5 -7.5t-11.5 -10.5q-18 -22 -31.5 -57t-13.5 -64q0 -32 26 -32q57 0 87 156z" />
    <glyph glyph-name="A" unicode="A" 
d="M391 206h-182l-52 -219l-66 18l169 662h80l169 -662l-66 -18zM375 266l-74 312h-2l-74 -312h150z" />
    <glyph glyph-name="B" unicode="B" 
d="M243 60h91q47 0 74 35.5t27 105.5q0 132 -119 132h-73v-273zM243 393h60q101 0 101 106q0 60 -29.5 84t-92.5 24h-39v-214zM337 0h-215v60h54v547h-54v60h204q59 0 103.5 -46t44.5 -122q0 -90 -71 -129q102 -45 102 -170q0 -99 -47 -149.5t-121 -50.5z" />
    <glyph glyph-name="C" unicode="C" 
d="M432 138l55 -38q-67 -109 -173 -109q-50 0 -87.5 23.5t-58.5 58.5t-33.5 83.5t-16.5 89.5t-4 87t4 87.5t16.5 90t33.5 83.5t58.5 58.5t87.5 23.5q104 0 163 -108l-57 -34q-40 79 -106 79q-130 0 -130 -280q0 -279 130 -279q67 0 118 84z" />
    <glyph glyph-name="D" unicode="D" 
d="M173 607h-54v60h176q54 0 90.5 -14t65.5 -49.5t43 -102.5t14 -168q0 -39 -1 -65.5t-5.5 -64.5t-12.5 -63.5t-23.5 -54t-37.5 -45.5t-55.5 -28.5t-75.5 -11.5h-178v60h54v547zM240 607v-547h55q28 0 46.5 4t38.5 19.5t31.5 44.5t19 80t7.5 125q0 73 -8 125.5t-19.5 81
t-30 44t-33.5 19.5t-36 4h-71z" />
    <glyph glyph-name="E" unicode="E" 
d="M157 0v667h325v-60h-258v-220h213v-60h-213v-267h258v-60h-325z" />
    <glyph glyph-name="F" unicode="F" 
d="M176 0v667h328v-60h-261v-220h219v-60h-219v-327h-67z" />
    <glyph glyph-name="G" unicode="G" 
d="M476 346v-297q-71 -58 -155 -58q-49 0 -86.5 23t-59 58t-34.5 83t-17.5 90t-4.5 87q0 55 7.5 107.5t27 109.5t60.5 92t100 35q102 0 167 -107l-59 -36q-45 80 -112 80q-39 0 -65.5 -31.5t-37 -82.5t-14.5 -90t-4 -79q0 -276 133 -276q49 0 87 31v201h-125v60h192z" />
    <glyph glyph-name="H" unicode="H" 
d="M130 0v667h67v-280h206v280h67v-667h-67v327h-206v-327h-67z" />
    <glyph glyph-name="I" unicode="I" 
d="M266 60v547h-90v60h248v-60h-91v-547h91v-60h-248v60h90z" />
    <glyph glyph-name="J" unicode="J" 
d="M109 242h67v-67q0 -48 23.5 -84.5t75.5 -36.5q44 0 70 36t26 94v483h67v-490q0 -90 -49 -138t-119 -48q-67 0 -114 48.5t-47 140.5v62z" />
    <glyph glyph-name="K" unicode="K" 
d="M229 667v-275h18l186 288l54 -34l-183 -282l219 -343l-56 -34l-215 345h-23v-332h-67v667h67z" />
    <glyph glyph-name="L" unicode="L" 
d="M169 0v667h67v-607h274v-60h-341z" />
    <glyph glyph-name="M" unicode="M" 
d="M300 384l96 283h84l20 -667h-71l-13 556h-2l-114 -335l-114 335h-2l-13 -556h-70l20 667h83z" />
    <glyph glyph-name="N" unicode="N" 
d="M126 0v667h84l198 -561l2 2l-3 149v410h67v-667h-84l-198 562l-2 -2l3 -151v-409h-67z" />
    <glyph glyph-name="O" unicode="O" 
d="M300 676q39 0 69.5 -15.5t49.5 -36t32.5 -56t20 -62t9.5 -67.5t3.5 -57.5t0.5 -47.5q0 -30 -0.5 -46.5t-3.5 -57.5t-9.5 -67.5t-20 -62t-32.5 -57t-49.5 -37t-69.5 -15.5q-31 0 -56.5 9.5t-43.5 23t-32.5 38t-23 43.5t-15 51.5t-9 49.5t-4 50.5t-1.5 42v35.5
q0 36 1.5 64.5t6.5 72.5t18 76.5t32 63.5t51.5 48t75.5 17zM300 613q-17 0 -31.5 -4.5t-25.5 -15.5t-20 -21t-14.5 -29.5t-10 -31.5t-7 -37t-4 -36t-2 -38t-0.5 -33.5v-32.5q0 -145 24 -212.5t91 -67.5q21 0 38 6.5t29 21.5t20.5 29.5t13.5 40t8 42.5t4.5 48t1.5 46v46v9
q0 42 -0.5 64.5t-3.5 60t-10.5 58.5t-19.5 43.5t-32.5 33t-48.5 10.5z" />
    <glyph glyph-name="P" unicode="P" 
d="M229 297v-297h-67v667h145q89 0 136.5 -46t47.5 -131q0 -90 -45.5 -141.5t-116.5 -51.5h-100zM229 607v-250l94 1q47 1 72.5 35t25.5 97q0 117 -115 117h-77z" />
    <glyph glyph-name="Q" unicode="Q" 
d="M435 81l49 -58l-51 -42l-39 47q-42 -37 -94 -37q-78 0 -131.5 84t-53.5 258q0 168 51.5 255.5t133.5 87.5q78 0 131.5 -83.5t53.5 -259.5q0 -163 -50 -252zM353 76l-85 101l51 43l70 -83q26 79 26 194q0 41 -3 78t-13 89t-36 83.5t-64 31.5q-114 0 -114 -285
q0 -37 3.5 -74.5t13.5 -87.5t34 -81t59 -31q36 0 58 22z" />
    <glyph glyph-name="R" unicode="R" 
d="M229 607v-250h98q45 0 69.5 33.5t24.5 99.5q0 63 -28 90t-82 27h-82zM162 0v667h180q56 0 102.5 -47t46.5 -130q0 -66 -28.5 -117t-86.5 -71l138 -286l-60 -29l-150 310h-75v-297h-67z" />
    <glyph glyph-name="S" unicode="S" 
d="M461 525l-65 -10q-22 98 -92 98q-44 0 -66 -30.5t-22 -76.5q0 -41 19.5 -64.5t96.5 -69.5q72 -43 105 -82.5t33 -110.5q0 -83 -43.5 -135.5t-124.5 -52.5q-154 0 -171 184l67 9q8 -65 29 -97.5t77 -32.5q45 0 72 30.5t27 88.5q0 21 -3.5 38.5t-14.5 33l-18 25t-27.5 23
l-28.5 18.5t-34 20q-36 21 -54 33.5t-38 33.5t-28 46.5t-8 61.5q0 70 43 120t112 50q126 0 157 -151z" />
    <glyph glyph-name="T" unicode="T" 
d="M268 0v607h-144v60h352v-60h-141v-607h-67z" />
    <glyph glyph-name="U" unicode="U" 
d="M137 667h67v-485q0 -59 19.5 -93.5t76.5 -34.5t77 35t20 93v485h67v-505q0 -78 -45 -124.5t-119 -46.5q-75 0 -119 46.5t-44 121.5v508z" />
    <glyph glyph-name="V" unicode="V" 
d="M299 181h2l137 499l68 -14l-198 -679h-16l-198 679l68 14z" />
    <glyph glyph-name="W" unicode="W" 
d="M441 680l67 -13l-67 -680h-29l-111 403h-2l-111 -403h-29l-67 680l67 13l32 -501h2l97 351h20l97 -351h2z" />
    <glyph glyph-name="X" unicode="X" 
d="M301 292l-148 -305l-60 28l174 348l-143 286l62 31l114 -249l114 249l62 -31l-143 -286l174 -348l-60 -28z" />
    <glyph glyph-name="Y" unicode="Y" 
d="M300 341l144 339l62 -25l-173 -392v-263h-67v263l-172 392l62 25z" />
    <glyph glyph-name="Z" unicode="Z" 
d="M104 0l283 607h-254v60h355l-282 -607h290v-60h-392z" />
    <glyph glyph-name="bracketleft" unicode="[" 
d="M178 676h270v-60h-203v-594h203v-60h-270v714z" />
    <glyph glyph-name="backslash" unicode="\" 
d="M425 -27l-296 774h46l296 -774h-46z" />
    <glyph glyph-name="bracketright" unicode="]" 
d="M422 676v-714h-270v60h203v594h-203v60h270z" />
    <glyph glyph-name="asciicircum" unicode="^" 
d="M160 357h-50l164 323h52l161 -323h-50l-137 275z" />
    <glyph glyph-name="underscore" unicode="_" 
d="M600 -108h-600v36h600v-36z" />
    <glyph glyph-name="grave" unicode="`" 
d="M236 695l177 -101l-26 -44l-187 82z" />
    <glyph glyph-name="a" unicode="a" 
d="M393 142h-185l-49 -155l-66 24l164 510h86l164 -510l-66 -24zM374 202l-74 241l-74 -241h148z" />
    <glyph glyph-name="b" unicode="b" 
d="M243 60h78q52 0 83 17.5t31 66.5q0 41 -26 67.5t-72 26.5h-94v-178zM243 298h75q42 0 64.5 23.5t22.5 60.5q0 79 -91 79h-71v-163zM334 0h-212v60h54v401h-54v60h164q189 0 189 -139q0 -75 -59 -107q42 -13 65.5 -47t23.5 -79q0 -71 -44.5 -110t-126.5 -39z" />
    <glyph glyph-name="c" unicode="c" 
d="M432 138l55 -38q-69 -109 -173 -109q-55 0 -95 23.5t-62 63.5t-32.5 85t-10.5 97q0 74 18 129t48 84.5t62 43t66 13.5q58 0 96.5 -28t68.5 -83l-61 -31q-41 79 -103 79q-37 0 -63 -20t-38.5 -53.5t-18 -66t-5.5 -66.5q0 -35 5 -67t17.5 -66t38.5 -54t64 -20q42 0 68.5 21
t54.5 63z" />
    <glyph glyph-name="d" unicode="d" 
d="M119 461v60h174q114 0 164.5 -56.5t50.5 -197.5q0 -53 -4.5 -90.5t-17.5 -73t-36.5 -57t-62.5 -34t-94 -12.5h-174v60h54v401h-54zM240 461v-401h71q67 0 97 45t30 155q0 114 -31.5 157.5t-97.5 43.5h-69z" />
    <glyph glyph-name="e" unicode="e" 
d="M157 0v521h325v-60h-258v-156h213v-60h-213v-185h258v-60h-325z" />
    <glyph glyph-name="f" unicode="f" 
d="M176 0v521h328v-60h-261v-156h219v-60h-219v-245h-67z" />
    <glyph glyph-name="g" unicode="g" 
d="M476 278v-230q-32 -26 -76 -41.5t-84 -15.5q-55 0 -95 23.5t-61.5 64t-31 85.5t-9.5 97q0 51 10 96t31.5 85t61 64t92.5 24q51 0 95 -27t72 -73l-57 -37q-44 74 -114 74q-36 0 -62 -20.5t-37.5 -54.5t-16.5 -66t-5 -67t5 -67t17 -65t38 -53t63 -20q54 0 97 27v137h-125
v60h192z" />
    <glyph glyph-name="h" unicode="h" 
d="M130 0v521h67v-216h206v216h67v-521h-67v245h-206v-245h-67z" />
    <glyph glyph-name="i" unicode="i" 
d="M193 0v60h73v401h-73v60h214v-60h-74v-401h74v-60h-214z" />
    <glyph glyph-name="j" unicode="j" 
d="M109 194h67q-3 -76 19.5 -108t74.5 -32q50 0 75.5 27.5t25.5 76.5v363h67v-376q0 -62 -43.5 -108t-124.5 -46q-84 0 -122.5 49t-38.5 154z" />
    <glyph glyph-name="k" unicode="k" 
d="M229 521v-222h25l179 235l51 -40l-173 -219l203 -245l-51 -43l-211 257h-23v-244h-67v521h67z" />
    <glyph glyph-name="l" unicode="l" 
d="M170 0v521h67v-461h273v-60h-340z" />
    <glyph glyph-name="m" unicode="m" 
d="M300 147l-117 275h-2l-13 -422h-71l21 521h88l94 -226l94 226h88l21 -521h-71l-13 422h-2z" />
    <glyph glyph-name="n" unicode="n" 
d="M126 0v521h83l202 -439l2 2l-6 135v302h67v-521h-83l-202 439l-2 -2l6 -136v-301h-67z" />
    <glyph glyph-name="o" unicode="o" 
d="M300 530q34 0 64.5 -13.5t58.5 -42.5t45 -84t17 -130q0 -15 -0.5 -28.5t-4.5 -42.5t-10.5 -53t-20.5 -52t-32.5 -47.5t-49 -32.5t-67.5 -13q-27 0 -51.5 7.5t-49.5 27t-43 49t-29.5 77.5t-11.5 108q0 74 16.5 129t44 84.5t58.5 43t66 13.5zM300 467q-36 0 -60.5 -20.5
t-35.5 -55t-15 -65.5t-4 -66q0 -34 4 -65t15 -65.5t35.5 -55t60.5 -20.5t60.5 20.5t35.5 55t15 65.5t4 65q0 35 -4 66t-15 65.5t-35.5 55t-60.5 20.5z" />
    <glyph glyph-name="p" unicode="p" 
d="M229 224v-224h-67v521h162q85 0 126.5 -40t41.5 -102q0 -77 -45 -116t-106 -39h-112zM229 284h92q101 0 101 90q0 87 -101 87h-92v-177z" />
    <glyph glyph-name="q" unicode="q" 
d="M441 70l59 -54l-42 -45l-58 53q-44 -33 -100 -33q-34 0 -64.5 13.5t-58.5 42t-45 83.5t-17 130q0 139 53 204.5t132 65.5q34 0 64.5 -13.5t58.5 -42.5t45 -84t17 -130q0 -125 -44 -190zM352 68l-87 79l41 46l84 -77q25 59 25 144q0 35 -4 66t-15 65.5t-35.5 55
t-60.5 20.5t-60.5 -20.5t-35.5 -55t-15 -65.5t-4 -66q0 -34 4 -65t15 -65.5t35.5 -55t60.5 -20.5q27 0 52 14z" />
    <glyph glyph-name="r" unicode="r" 
d="M216 283h88q49 0 78.5 26t29.5 70q0 37 -22.5 59.5t-65.5 22.5h-108v-178zM149 0v521h177q70 0 113 -35t43 -107q0 -49 -29.5 -90.5t-76.5 -55.5l128 -211l-58 -35l-133 236h-97v-223h-67z" />
    <glyph glyph-name="s" unicode="s" 
d="M131 146l60 19q23 -111 114 -111q43 0 70.5 23t27.5 65q0 9 -2 17.5t-4 15.5t-7 13.5t-9 10.5t-12 9.5t-12 8t-14 7.5t-14 6.5t-15.5 6.5t-15.5 6l-24.5 10t-25.5 11l-22 10.5t-21.5 12.5t-17 13.5t-16 17l-11 20.5t-8.5 25.5t-2 29.5q0 64 44.5 100.5t108.5 36.5
q125 0 159 -131l-64 -19q-20 87 -96 87q-35 0 -60 -18t-25 -51q0 -18 4.5 -30.5t16 -22t21 -14.5t28.5 -14l111 -49q72 -40 72 -122q0 -73 -45.5 -114t-119.5 -41q-71 0 -116.5 42t-57.5 113z" />
    <glyph glyph-name="t" unicode="t" 
d="M268 0v461h-144v60h352v-60h-141v-461h-67z" />
    <glyph glyph-name="u" unicode="u" 
d="M137 521h67v-355q0 -59 20.5 -85.5t70.5 -26.5q60 0 81 26t21 86v355h67v-387q0 -58 -42 -100.5t-122 -42.5t-121.5 42.5t-41.5 104.5v383z" />
    <glyph glyph-name="v" unicode="v" 
d="M300 152l142 382l64 -24l-200 -523h-12l-200 523l64 24z" />
    <glyph glyph-name="w" unicode="w" 
d="M93 526l69 8l40 -366h2l87 256h18l87 -256h2l41 366l68 -8l-75 -539h-23l-109 321l-109 -321h-23z" />
    <glyph glyph-name="x" unicode="x" 
d="M300 217l-139 -230l-60 34l161 255l-147 223l61 35l124 -198l124 198l61 -35l-147 -223l161 -255l-60 -34z" />
    <glyph glyph-name="y" unicode="y" 
d="M300 266l139 268l63 -33l-169 -300v-201h-67v201l-168 300l63 33z" />
    <glyph glyph-name="z" unicode="z" 
d="M104 0l273 461h-244v60h355l-271 -461h279v-60h-392z" />
    <glyph glyph-name="braceleft" unicode="{" 
d="M323 199v-140q0 -57 23.5 -79t91.5 -22h23v-25h-33q-101 0 -136.5 30.5t-35.5 109.5v132q0 27 -3 43t-14 25t-18.5 12t-31 8.5t-38.5 10.5q14 5 37.5 11.5t31.5 9.5t19 12.5t14 25t3 41.5v133q0 76 33.5 107.5t115.5 31.5h56v-25h-24q-70 0 -92 -21.5t-22 -78.5v-140
q0 -21 -1 -33t-5 -27.5t-14 -26.5t-26 -20q30 -16 38 -39.5t8 -65.5z" />
    <glyph glyph-name="bar" unicode="|" 
d="M278 -288v1080h44v-1080h-44z" />
    <glyph glyph-name="braceright" unicode="}" 
d="M277 410v140q0 57 -23.5 79t-91.5 22h-23v25h33q101 0 136.5 -30.5t35.5 -109.5v-132q0 -27 3 -43t14 -25t18.5 -12t31 -8.5t38.5 -10.5q-14 -5 -37.5 -11.5t-31.5 -9.5t-19 -12.5t-14 -25t-3 -41.5v-133q0 -76 -33.5 -107.5t-115.5 -31.5h-56v25h24q70 0 92 21.5
t22 78.5v140q0 21 1 33t5 27.5t14 26.5t26 20q-30 16 -38 39.5t-8 65.5z" />
    <glyph glyph-name="asciitilde" unicode="~" 
d="M538 441l32 -23q-25 -47 -64.5 -80.5t-85.5 -33.5q-30 0 -122.5 37.5t-117.5 37.5q-27 0 -50.5 -16t-34.5 -30.5t-29 -45.5q-3 -5 -5 -8l-31 23q68 121 145 121q44 0 131.5 -37.5t112.5 -37.5q36 0 68.5 28t50.5 65z" />
    <glyph glyph-name="uni00A0" unicode="&#xa0;" 
 />
    <glyph glyph-name="exclamdown" unicode="&#xa1;" 
d="M249 519v148h92v-148h-92zM326 460l20 -460h-102l18 460h64z" />
    <glyph glyph-name="cent" unicode="&#xa2;" 
d="M340 68v-77h-67v79q-44 9 -76.5 36t-50 65.5t-25 79t-7.5 85.5t7.5 86t25 79.5t50 65.5t76.5 36v73h67v-72q42 -5 76.5 -35.5t56.5 -72.5l-61 -32q-30 58 -72 74v-405q49 12 92 81l55 -38q-62 -98 -147 -108zM273 136v401q-89 -34 -89 -200q0 -169 89 -201z" />
    <glyph glyph-name="sterling" unicode="&#xa3;" 
d="M236 404h184v-60h-166q2 -9 7.5 -29.5t9 -32.5t6 -29.5t2.5 -31.5q0 -25 -8.5 -51.5t-15 -39t-25.5 -46.5q34 8 66 8q31 0 69 -19q42 -20 50 -20q6 0 11 1t10.5 3.5t9 4.5t9.5 6.5l8 6t8.5 7.5t7.5 7l40 -44q-28 -27 -50.5 -40.5t-52.5 -13.5q-27 0 -65 19q-42 19 -71 19
q-43 0 -113 -38l-36 47q45 75 61.5 112t16.5 66q0 43 -23 128h-106v60h89q-23 75 -23 111q0 69 51.5 115t121.5 46q60 0 107 -31t69 -85l-61 -22q-37 78 -111 78q-48 0 -77.5 -29.5t-29.5 -78.5q0 -33 20 -104z" />
    <glyph glyph-name="currency" unicode="&#xa4;" 
d="M120 506l-109 107l33 32l108 -107q64 52 148 52t148 -52l108 107l33 -32l-109 -107q50 -68 50 -146t-50 -146l109 -107l-33 -32l-108 107q-64 -52 -148 -52t-148 52l-108 -107l-33 32l109 107q-50 68 -50 146t50 146zM300 169q81 0 136 55t55 136t-55 136.5t-136 55.5
t-136 -55.5t-55 -136.5t55 -136t136 -55z" />
    <glyph glyph-name="yen" unicode="&#xa5;" 
d="M358 327h122v-60h-147v-267h-67v267h-146v60h122l-148 328l62 25l144 -339l144 339l62 -25z" />
    <glyph glyph-name="brokenbar" unicode="&#xa6;" 
d="M278 792h44v-360h-44v360zM278 72h44v-360h-44v360z" />
    <glyph glyph-name="section" unicode="&#xa7;" 
d="M308 471l44 -22q29 -15 41.5 -22t33.5 -23t29.5 -35t8.5 -43q0 -60 -54 -101q55 -42 55 -98q0 -62 -47 -99t-111 -37q-62 0 -110 35.5t-64 95.5l67 23q13 -42 41.5 -68t71.5 -26q34 0 58 18.5t24 51.5q0 9 -2 16.5t-4.5 13t-8 12t-9 9.5t-12.5 8.5t-12 7.5t-13.5 7.5
t-13.5 6.5l-48 25q-3 2 -19.5 10t-20.5 10.5l-17.5 10.5t-18.5 12.5l-15 13t-13.5 15.5t-9 17t-7.5 21t-2 24q0 62 51 97q-42 36 -42 91q0 57 45 92t103 35q49 0 90 -28.5t60 -74.5l-59 -26q-30 69 -93 69q-33 0 -54.5 -18.5t-21.5 -50.5q0 -11 4 -20t8.5 -15t15.5 -13.5
t16 -10l18.5 -9.5t16.5 -8zM322 394l-71 36q-31 -29 -31 -67q0 -34 40 -55l102 -54q33 25 33 65q0 14 -6 26t-20 22t-22 14z" />
    <glyph glyph-name="dieresis" unicode="&#xa8;" 
d="M208 680q23 0 35.5 -19.5t12.5 -43.5t-12.5 -43.5t-35.5 -19.5t-35.5 19.5t-12.5 43.5t12.5 43.5t35.5 19.5zM392 680q23 0 35.5 -19.5t12.5 -43.5t-12.5 -43.5t-35.5 -19.5t-35.5 19.5t-12.5 43.5t12.5 43.5t35.5 19.5z" />
    <glyph glyph-name="copyright" unicode="&#xa9;" 
d="M301 676q124 0 210 -99.5t86 -242.5t-86 -243t-210 -100t-211 100.5t-87 242.5t87 242t211 100zM301 626q-97 0 -172.5 -80.5t-75.5 -211.5q0 -119 74 -206t174 -87q41 0 84 21t79.5 57.5t59.5 93t23 121.5q0 116 -73 204t-173 88zM399 272h50q-6 -59 -44.5 -96.5
t-90.5 -37.5q-72 0 -118.5 57t-46.5 142q0 86 44.5 141.5t118.5 55.5q54 0 91.5 -34.5t45.5 -94.5h-50q-12 79 -86 79q-56 0 -85 -39.5t-29 -106.5q0 -64 30 -107t85 -43q76 0 85 84z" />
    <glyph glyph-name="ordfeminine" unicode="&#xaa;" 
d="M351 428h-102l-32 -90l-63 20l111 309h70l111 -309l-63 -20zM333 483l-33 97l-33 -97h66zM140 236v55h320v-55h-320z" />
    <glyph glyph-name="guillemotleft" unicode="&#xab;" 
d="M293 570l47 -49l-205 -191l205 -192l-47 -50l-254 242zM517 570l47 -49l-205 -191l205 -192l-47 -50l-254 242z" />
    <glyph glyph-name="logicalnot" unicode="&#xac;" 
d="M522 173v232h-488v44h532v-276h-44z" />
    <glyph glyph-name="uni00AD" unicode="&#xad;" 
d="M189 229v63h222v-63h-222z" />
    <glyph glyph-name="registered" unicode="&#xae;" 
d="M301 -9q-125 0 -213 99.5t-88 241.5q0 141 88 240.5t213 99.5q124 0 211.5 -99.5t87.5 -240.5q0 -142 -87.5 -241.5t-211.5 -99.5zM301 41q99 0 174 83.5t75 207.5q0 123 -78 206.5t-171 83.5q-96 0 -173.5 -83t-77.5 -207q0 -119 74 -205t177 -86zM349 317l101 -176h-59
l-95 176h-56v-176h-50v381h145q118 0 118 -101q0 -100 -104 -104zM240 472v-105h91q72 0 72 56q0 31 -19 40t-58 9h-86z" />
    <glyph glyph-name="macron" unicode="&#xaf;" 
d="M444 586h-287v60h287v-60z" />
    <glyph glyph-name="degree" unicode="&#xb0;" 
d="M107 549q0 80 56.5 136.5t136.5 56.5t136.5 -56.5t56.5 -136.5t-56.5 -136.5t-136.5 -56.5t-136.5 56.5t-56.5 136.5zM149 549q0 -62 44.5 -106.5t106.5 -44.5t106.5 44.5t44.5 106.5t-44.5 106.5t-106.5 44.5t-106.5 -44.5t-44.5 -106.5z" />
    <glyph glyph-name="plusminus" unicode="&#xb1;" 
d="M566 429v-44h-244v-244h-44v244h-244v44h244v244h44v-244h244zM566 91v-44h-532v44h532z" />
    <glyph glyph-name="twosuperior" unicode="&#xb2;" 
d="M189 332v42l132 152q1 2 8.5 10t9.5 11t6 10t5.5 13t1.5 13q0 20 -13 31.5t-33 11.5q-54 0 -61 -65l-57 7q6 51 36 79.5t81 28.5q45 0 76 -24t31 -67q0 -39 -45 -90l-100 -113h144v-50h-222z" />
    <glyph glyph-name="threesuperior" unicode="&#xb3;" 
d="M408 676v-42l-86 -79q38 -4 65 -28t27 -61q0 -19 -9 -40.5t-30.5 -45.5t-69 -38t-113.5 -10v50q162 -2 162 83q0 46 -70 46q-17 0 -53 -6v39l92 82h-136v50h221z" />
    <glyph glyph-name="acute" unicode="&#xb4;" 
d="M377 695l36 -63l-187 -82l-26 44z" />
    <glyph glyph-name="mu" unicode="&#xb5;" 
d="M402 0v44q-38 -53 -100 -53q-65 0 -103 49v-251h-67v732h67v-344q0 -35 11 -61t28 -38.5t32 -18t27 -5.5q52 0 78.5 44.5t26.5 99.5v323h67v-521h-67z" />
    <glyph glyph-name="paragraph" unicode="&#xb6;" 
d="M278 -67v356q-91 -7 -156 47t-65 145q0 23 3 44t17.5 50.5t38.5 50t71 35.5t110 15h246v-60h-46v-683h-67v683h-85v-683h-67z" />
    <glyph glyph-name="periodcentered" unicode="&#xb7;" 
d="M250 360q0 21 14.5 35.5t35.5 14.5t35.5 -14.5t14.5 -35.5t-14.5 -35.5t-35.5 -14.5t-35.5 14.5t-14.5 35.5z" />
    <glyph glyph-name="cedilla" unicode="&#xb8;" 
d="M346 13l-18 -55q34 -2 57 -20t23 -51q0 -34 -29 -55.5t-64 -21.5q-38 0 -102 29l20 51q42 -20 74 -20q31 0 31 20q0 9 -6.5 15.5t-18.5 9.5t-21 4.5t-23 2t-16 0.5l33 91h60z" />
    <glyph glyph-name="onesuperior" unicode="&#xb9;" 
d="M281 382v227l-62 -21l-18 45l140 47v-298h58v-50h-192v50h74z" />
    <glyph glyph-name="ordmasculine" unicode="&#xba;" 
d="M140 236v55h320v-55h-320zM300 676q66 0 98 -48t32 -117t-32 -116.5t-98 -47.5t-97.5 47.5t-31.5 116.5q0 70 31.5 117.5t97.5 47.5zM300 621q-62 0 -62 -110q0 -109 62 -109q63 0 63 109q0 110 -63 110z" />
    <glyph glyph-name="guillemotright" unicode="&#xbb;" 
d="M83 570l254 -240l-254 -242l-47 50l205 192l-205 191zM307 570l254 -240l-254 -242l-47 50l205 192l-205 191z" />
    <glyph glyph-name="onequarter" unicode="&#xbc;" 
d="M476 78h-143l58 267l57 -10l-46 -207h74v162h60v-162h28v-50h-28v-78h-60v78zM116 382v227l-62 -21l-18 45l140 47v-298h58v-50h-192v50h74zM460 680l53 -29l-377 -664l-53 26z" />
    <glyph glyph-name="onehalf" unicode="&#xbd;" 
d="M123 382v227l-62 -21l-18 45l140 47v-298h58v-50h-192v50h74zM464 680l53 -29l-377 -664l-53 26zM334 0v42l132 152q1 2 8.5 10t9.5 11t6 10t5.5 13t1.5 13q0 20 -13 31.5t-33 11.5q-54 0 -61 -65l-57 7q6 51 36 79.5t81 28.5q45 0 76 -24t31 -67q0 -39 -45 -90
l-100 -113h144v-50h-222z" />
    <glyph glyph-name="threequarters" unicode="&#xbe;" 
d="M477 78h-143l58 267l57 -10l-46 -207h74v162h60v-162h28v-50h-28v-78h-60v78zM461 680l53 -29l-377 -664l-53 26zM257 676v-42l-86 -79q38 -4 65 -28t27 -61q0 -15 -4.5 -31t-19.5 -36.5t-38 -35.5t-65 -24t-95 -6v50q162 -2 162 82q0 46 -70 46q-17 0 -53 -6v39l92 82
h-136v50h221z" />
    <glyph glyph-name="questiondown" unicode="&#xbf;" 
d="M269 447h69v-17q0 -54 -10.5 -77t-52.5 -59l-43.5 -38.5t-28 -38.5t-15.5 -55q0 -48 26.5 -78t74.5 -30q55 0 86 39t41 99l66 -17q-36 -184 -191 -184q-78 0 -125.5 46t-47.5 123q0 53 25 91t74 80q34 30 43 45.5t9 56.5v14zM257 519v148h92v-148h-92z" />
    <glyph glyph-name="Agrave" unicode="&#xc0;" 
d="M391 206h-182l-52 -219l-66 18l169 662h80l169 -662l-66 -18zM375 266l-74 312h-2l-74 -312h150zM236 841l177 -101l-26 -44l-187 82z" />
    <glyph glyph-name="Aacute" unicode="&#xc1;" 
d="M391 206h-182l-52 -219l-66 18l169 662h80l169 -662l-66 -18zM375 266l-74 312h-2l-74 -312h150zM377 841l36 -63l-187 -82l-26 44z" />
    <glyph glyph-name="Acircumflex" unicode="&#xc2;" 
d="M391 206h-182l-52 -219l-66 18l169 662h80l169 -662l-66 -18zM375 266l-74 312h-2l-74 -312h150zM300 759l-127 -62l-24 36l151 102l151 -102l-23 -36z" />
    <glyph glyph-name="Atilde" unicode="&#xc3;" 
d="M391 206h-182l-52 -219l-66 18l169 662h80l169 -662l-66 -18zM375 266l-74 312h-2l-74 -312h150zM403 826l51 -16q-6 -23 -11.5 -37t-16 -32t-26 -27t-36.5 -9q-32 0 -72 31q-32 26 -49 26q-9 0 -15.5 -4t-12 -12t-8 -14l-7 -17.5t-5.5 -14.5l-49 19q12 31 20.5 49t29 36
t47.5 18q26 0 66 -30q36 -28 52 -28q6 0 11 2t8.5 7l6.5 9t6 11.5t4 11.5l3 11.5t3 9.5z" />
    <glyph glyph-name="Adieresis" unicode="&#xc4;" 
d="M391 206h-182l-52 -219l-66 18l169 662h80l169 -662l-66 -18zM375 266l-74 312h-2l-74 -312h150zM208 826q23 0 35.5 -19.5t12.5 -43.5t-12.5 -43.5t-35.5 -19.5t-35.5 19.5t-12.5 43.5t12.5 43.5t35.5 19.5zM392 826q23 0 35.5 -19.5t12.5 -43.5t-12.5 -43.5
t-35.5 -19.5t-35.5 19.5t-12.5 43.5t12.5 43.5t35.5 19.5z" />
    <glyph glyph-name="Aring" unicode="&#xc5;" 
d="M391 206h-182l-52 -219l-66 18l169 662h80l169 -662l-66 -18zM375 266l-74 312h-2l-74 -312h150zM300 847q36 0 61.5 -25.5t25.5 -60.5q0 -36 -25.5 -61.5t-61.5 -25.5t-61.5 25.5t-25.5 61.5q0 35 25.5 60.5t61.5 25.5zM300 807q-19 0 -33 -13.5t-14 -32.5t13.5 -33
t33.5 -14t33.5 14t13.5 33t-14 32.5t-33 13.5z" />
    <glyph glyph-name="AE" unicode="&#xc6;" 
d="M284 266v341h-27l-80 -341h107zM284 0v206h-120l-53 -219l-68 18l168 662h297v-60h-157v-220h145v-60h-145v-267h157v-60h-224z" />
    <glyph glyph-name="Ccedilla" unicode="&#xc7;" 
d="M432 138l55 -38q-59 -94 -148 -107l-11 -35q34 -2 57 -20t23 -51q0 -34 -29 -55.5t-64 -21.5q-38 0 -102 29l20 51q42 -20 74 -20q31 0 31 20q0 9 -6.5 15.5t-18.5 9.5t-21 4.5t-23 2t-16 0.5l26 72q-41 7 -72 33.5t-48 61t-28 80t-14 84t-3 80.5q0 46 4 87.5t16.5 90
t33.5 83.5t58.5 58.5t87.5 23.5q104 0 163 -108l-57 -34q-40 79 -106 79q-130 0 -130 -280q0 -279 130 -279q67 0 118 84z" />
    <glyph glyph-name="Egrave" unicode="&#xc8;" 
d="M157 0v667h325v-60h-258v-220h213v-60h-213v-267h258v-60h-325zM236 841l177 -101l-26 -44l-187 82z" />
    <glyph glyph-name="Eacute" unicode="&#xc9;" 
d="M157 0v667h325v-60h-258v-220h213v-60h-213v-267h258v-60h-325zM377 841l36 -63l-187 -82l-26 44z" />
    <glyph glyph-name="Ecircumflex" unicode="&#xca;" 
d="M157 0v667h325v-60h-258v-220h213v-60h-213v-267h258v-60h-325zM300 759l-127 -62l-24 36l151 102l151 -102l-23 -36z" />
    <glyph glyph-name="Edieresis" unicode="&#xcb;" 
d="M157 0v667h325v-60h-258v-220h213v-60h-213v-267h258v-60h-325zM208 826q23 0 35.5 -19.5t12.5 -43.5t-12.5 -43.5t-35.5 -19.5t-35.5 19.5t-12.5 43.5t12.5 43.5t35.5 19.5zM392 826q23 0 35.5 -19.5t12.5 -43.5t-12.5 -43.5t-35.5 -19.5t-35.5 19.5t-12.5 43.5
t12.5 43.5t35.5 19.5z" />
    <glyph glyph-name="Igrave" unicode="&#xcc;" 
d="M266 60v547h-90v60h248v-60h-91v-547h91v-60h-248v60h90zM236 841l177 -101l-26 -44l-187 82z" />
    <glyph glyph-name="Iacute" unicode="&#xcd;" 
d="M266 60v547h-90v60h248v-60h-91v-547h91v-60h-248v60h90zM377 841l36 -63l-187 -82l-26 44z" />
    <glyph glyph-name="Icircumflex" unicode="&#xce;" 
d="M266 60v547h-90v60h248v-60h-91v-547h91v-60h-248v60h90zM300 759l-127 -62l-24 36l151 102l151 -102l-23 -36z" />
    <glyph glyph-name="Idieresis" unicode="&#xcf;" 
d="M266 60v547h-90v60h248v-60h-91v-547h91v-60h-248v60h90zM208 826q23 0 35.5 -19.5t12.5 -43.5t-12.5 -43.5t-35.5 -19.5t-35.5 19.5t-12.5 43.5t12.5 43.5t35.5 19.5zM392 826q23 0 35.5 -19.5t12.5 -43.5t-12.5 -43.5t-35.5 -19.5t-35.5 19.5t-12.5 43.5t12.5 43.5
t35.5 19.5z" />
    <glyph glyph-name="Eth" unicode="&#xd0;" 
d="M173 607h-54v60h176q54 0 90.5 -14t65.5 -49.5t43 -102.5t14 -168q0 -39 -1 -65.5t-5.5 -64.5t-12.5 -63.5t-23.5 -54t-37.5 -45.5t-55.5 -28.5t-75.5 -11.5h-178v60h54v243h-54v60h54v244zM240 607v-244h79v-60h-79v-243h55q28 0 46.5 4t38.5 19.5t31.5 44.5t19 80
t7.5 125q0 73 -8 125.5t-19.5 81t-30 44t-33.5 19.5t-36 4h-71z" />
    <glyph glyph-name="Ntilde" unicode="&#xd1;" 
d="M126 0v667h84l198 -561l2 2l-3 149v410h67v-667h-84l-198 562l-2 -2l3 -151v-409h-67zM403 826l51 -16q-6 -23 -11.5 -37t-16 -32t-26 -27t-36.5 -9q-32 0 -72 31q-32 26 -49 26q-9 0 -15.5 -4t-12 -12t-8 -14l-7 -17.5t-5.5 -14.5l-49 19q12 31 20.5 49t29 36t47.5 18
q26 0 66 -30q36 -28 52 -28q6 0 11 2t8.5 7l6.5 9t6 11.5t4 11.5l3 11.5t3 9.5z" />
    <glyph glyph-name="Ograve" unicode="&#xd2;" 
d="M300 676q39 0 69.5 -15.5t49.5 -36t32.5 -56t20 -62t9.5 -67.5t3.5 -57.5t0.5 -47.5q0 -30 -0.5 -46.5t-3.5 -57.5t-9.5 -67.5t-20 -62t-32.5 -57t-49.5 -37t-69.5 -15.5q-31 0 -56.5 9.5t-43.5 23t-32.5 38t-23 43.5t-15 51.5t-9 49.5t-4 50.5t-1.5 42v35.5
q0 36 1.5 64.5t6.5 72.5t18 76.5t32 63.5t51.5 48t75.5 17zM300 613q-17 0 -31.5 -4.5t-25.5 -15.5t-20 -21t-14.5 -29.5t-10 -31.5t-7 -37t-4 -36t-2 -38t-0.5 -33.5v-32.5q0 -145 24 -212.5t91 -67.5q21 0 38 6.5t29 21.5t20.5 29.5t13.5 40t8 42.5t4.5 48t1.5 46v46v9
q0 42 -0.5 64.5t-3.5 60t-10.5 58.5t-19.5 43.5t-32.5 33t-48.5 10.5zM236 841l177 -101l-26 -44l-187 82z" />
    <glyph glyph-name="Oacute" unicode="&#xd3;" 
d="M300 676q39 0 69.5 -15.5t49.5 -36t32.5 -56t20 -62t9.5 -67.5t3.5 -57.5t0.5 -47.5q0 -30 -0.5 -46.5t-3.5 -57.5t-9.5 -67.5t-20 -62t-32.5 -57t-49.5 -37t-69.5 -15.5q-31 0 -56.5 9.5t-43.5 23t-32.5 38t-23 43.5t-15 51.5t-9 49.5t-4 50.5t-1.5 42v35.5
q0 36 1.5 64.5t6.5 72.5t18 76.5t32 63.5t51.5 48t75.5 17zM300 613q-17 0 -31.5 -4.5t-25.5 -15.5t-20 -21t-14.5 -29.5t-10 -31.5t-7 -37t-4 -36t-2 -38t-0.5 -33.5v-32.5q0 -145 24 -212.5t91 -67.5q21 0 38 6.5t29 21.5t20.5 29.5t13.5 40t8 42.5t4.5 48t1.5 46v46v9
q0 42 -0.5 64.5t-3.5 60t-10.5 58.5t-19.5 43.5t-32.5 33t-48.5 10.5zM377 841l36 -63l-187 -82l-26 44z" />
    <glyph glyph-name="Ocircumflex" unicode="&#xd4;" 
d="M300 676q39 0 69.5 -15.5t49.5 -36t32.5 -56t20 -62t9.5 -67.5t3.5 -57.5t0.5 -47.5q0 -30 -0.5 -46.5t-3.5 -57.5t-9.5 -67.5t-20 -62t-32.5 -57t-49.5 -37t-69.5 -15.5q-31 0 -56.5 9.5t-43.5 23t-32.5 38t-23 43.5t-15 51.5t-9 49.5t-4 50.5t-1.5 42v35.5
q0 36 1.5 64.5t6.5 72.5t18 76.5t32 63.5t51.5 48t75.5 17zM300 613q-17 0 -31.5 -4.5t-25.5 -15.5t-20 -21t-14.5 -29.5t-10 -31.5t-7 -37t-4 -36t-2 -38t-0.5 -33.5v-32.5q0 -145 24 -212.5t91 -67.5q21 0 38 6.5t29 21.5t20.5 29.5t13.5 40t8 42.5t4.5 48t1.5 46v46v9
q0 42 -0.5 64.5t-3.5 60t-10.5 58.5t-19.5 43.5t-32.5 33t-48.5 10.5zM300 759l-127 -62l-24 36l151 102l151 -102l-23 -36z" />
    <glyph glyph-name="Otilde" unicode="&#xd5;" 
d="M300 676q39 0 69.5 -15.5t49.5 -36t32.5 -56t20 -62t9.5 -67.5t3.5 -57.5t0.5 -47.5q0 -30 -0.5 -46.5t-3.5 -57.5t-9.5 -67.5t-20 -62t-32.5 -57t-49.5 -37t-69.5 -15.5q-31 0 -56.5 9.5t-43.5 23t-32.5 38t-23 43.5t-15 51.5t-9 49.5t-4 50.5t-1.5 42v35.5
q0 36 1.5 64.5t6.5 72.5t18 76.5t32 63.5t51.5 48t75.5 17zM300 613q-17 0 -31.5 -4.5t-25.5 -15.5t-20 -21t-14.5 -29.5t-10 -31.5t-7 -37t-4 -36t-2 -38t-0.5 -33.5v-32.5q0 -145 24 -212.5t91 -67.5q21 0 38 6.5t29 21.5t20.5 29.5t13.5 40t8 42.5t4.5 48t1.5 46v46v9
q0 42 -0.5 64.5t-3.5 60t-10.5 58.5t-19.5 43.5t-32.5 33t-48.5 10.5zM403 826l51 -16q-6 -23 -11.5 -37t-16 -32t-26 -27t-36.5 -9q-32 0 -72 31q-32 26 -49 26q-9 0 -15.5 -4t-12 -12t-8 -14l-7 -17.5t-5.5 -14.5l-49 19q12 31 20.5 49t29 36t47.5 18q26 0 66 -30
q36 -28 52 -28q6 0 11 2t8.5 7l6.5 9t6 11.5t4 11.5l3 11.5t3 9.5z" />
    <glyph glyph-name="Odieresis" unicode="&#xd6;" 
d="M300 676q39 0 69.5 -15.5t49.5 -36t32.5 -56t20 -62t9.5 -67.5t3.5 -57.5t0.5 -47.5q0 -30 -0.5 -46.5t-3.5 -57.5t-9.5 -67.5t-20 -62t-32.5 -57t-49.5 -37t-69.5 -15.5q-31 0 -56.5 9.5t-43.5 23t-32.5 38t-23 43.5t-15 51.5t-9 49.5t-4 50.5t-1.5 42v35.5
q0 36 1.5 64.5t6.5 72.5t18 76.5t32 63.5t51.5 48t75.5 17zM300 613q-17 0 -31.5 -4.5t-25.5 -15.5t-20 -21t-14.5 -29.5t-10 -31.5t-7 -37t-4 -36t-2 -38t-0.5 -33.5v-32.5q0 -145 24 -212.5t91 -67.5q21 0 38 6.5t29 21.5t20.5 29.5t13.5 40t8 42.5t4.5 48t1.5 46v46v9
q0 42 -0.5 64.5t-3.5 60t-10.5 58.5t-19.5 43.5t-32.5 33t-48.5 10.5zM208 826q23 0 35.5 -19.5t12.5 -43.5t-12.5 -43.5t-35.5 -19.5t-35.5 19.5t-12.5 43.5t12.5 43.5t35.5 19.5zM392 826q23 0 35.5 -19.5t12.5 -43.5t-12.5 -43.5t-35.5 -19.5t-35.5 19.5t-12.5 43.5
t12.5 43.5t35.5 19.5z" />
    <glyph glyph-name="multiply" unicode="&#xd7;" 
d="M566 126l-31 -32l-235 235l-235 -235l-31 32l235 234l-235 235l31 31l235 -235l235 235l31 -31l-235 -235z" />
    <glyph glyph-name="Oslash" unicode="&#xd8;" 
d="M197 212l193 353q-28 48 -83 48q-20 0 -34.5 -4.5t-30.5 -21t-26.5 -44.5t-17 -78t-6.5 -119q0 -96 5 -134zM412 487l-197 -363v-2q28 -68 92 -68q18 0 30.5 3t29.5 18t28 42t19 79.5t8 125.5q0 90 -8 163v2h-2zM178 56l-33 -59l-51 26l52 97q-24 82 -24 214v49t3.5 58
t9.5 67t20 61t33 56.5t49.5 35.5t69.5 15q68 0 116 -50l32 58l52 -27l-48 -88q33 -83 33 -235q0 -37 -1.5 -66.5t-7 -73.5t-18 -76t-31.5 -63t-52 -47.5t-75 -16.5q-37 0 -72 18t-57 47z" />
    <glyph glyph-name="Ugrave" unicode="&#xd9;" 
d="M137 667h67v-485q0 -59 19.5 -93.5t76.5 -34.5t77 35t20 93v485h67v-505q0 -78 -45 -124.5t-119 -46.5q-75 0 -119 46.5t-44 121.5v508zM236 841l177 -101l-26 -44l-187 82z" />
    <glyph glyph-name="Uacute" unicode="&#xda;" 
d="M137 667h67v-485q0 -59 19.5 -93.5t76.5 -34.5t77 35t20 93v485h67v-505q0 -78 -45 -124.5t-119 -46.5q-75 0 -119 46.5t-44 121.5v508zM377 841l36 -63l-187 -82l-26 44z" />
    <glyph glyph-name="Ucircumflex" unicode="&#xdb;" 
d="M137 667h67v-485q0 -59 19.5 -93.5t76.5 -34.5t77 35t20 93v485h67v-505q0 -78 -45 -124.5t-119 -46.5q-75 0 -119 46.5t-44 121.5v508zM300 759l-127 -62l-24 36l151 102l151 -102l-23 -36z" />
    <glyph glyph-name="Udieresis" unicode="&#xdc;" 
d="M137 667h67v-485q0 -59 19.5 -93.5t76.5 -34.5t77 35t20 93v485h67v-505q0 -78 -45 -124.5t-119 -46.5q-75 0 -119 46.5t-44 121.5v508zM208 826q23 0 35.5 -19.5t12.5 -43.5t-12.5 -43.5t-35.5 -19.5t-35.5 19.5t-12.5 43.5t12.5 43.5t35.5 19.5zM392 826
q23 0 35.5 -19.5t12.5 -43.5t-12.5 -43.5t-35.5 -19.5t-35.5 19.5t-12.5 43.5t12.5 43.5t35.5 19.5z" />
    <glyph glyph-name="Yacute" unicode="&#xdd;" 
d="M300 341l144 339l62 -25l-173 -392v-263h-67v263l-172 392l62 25zM377 841l36 -63l-187 -82l-26 44z" />
    <glyph glyph-name="Thorn" unicode="&#xde;" 
d="M229 149v-149h-67v667h67v-148h78q89 0 136.5 -46t47.5 -131q0 -90 -45.5 -141.5t-116.5 -51.5h-100zM229 459v-250h94q46 0 72 35t26 98q0 117 -115 117h-77z" />
    <glyph glyph-name="germandbls" unicode="&#xdf;" 
d="M277 248v60q31 4 48 28.5t17 58.5q0 72 -64 72q-22 0 -36 -7t-20 -22.5t-7.5 -29t-1.5 -36.5v-372h-67v419q0 37 36.5 74t102.5 37q57 0 92 -35.5t35 -92.5q0 -79 -55 -111q46 -12 71.5 -51.5t25.5 -88.5q0 -76 -41.5 -113.5t-93.5 -37.5h-61v60h46q80 0 80 88
q0 103 -107 100z" />
    <glyph glyph-name="agrave" unicode="&#xe0;" 
d="M393 142h-185l-49 -155l-66 24l164 510h86l164 -510l-66 -24zM374 202l-74 241l-74 -241h148zM236 695l177 -101l-26 -44l-187 82z" />
    <glyph glyph-name="aacute" unicode="&#xe1;" 
d="M393 142h-185l-49 -155l-66 24l164 510h86l164 -510l-66 -24zM374 202l-74 241l-74 -241h148zM377 695l36 -63l-187 -82l-26 44z" />
    <glyph glyph-name="acircumflex" unicode="&#xe2;" 
d="M393 142h-185l-49 -155l-66 24l164 510h86l164 -510l-66 -24zM374 202l-74 241l-74 -241h148zM300 613l-127 -62l-24 36l151 102l151 -102l-23 -36z" />
    <glyph glyph-name="atilde" unicode="&#xe3;" 
d="M393 142h-185l-49 -155l-66 24l164 510h86l164 -510l-66 -24zM374 202l-74 241l-74 -241h148zM403 680l51 -16q-6 -23 -11.5 -37t-16 -32t-26 -27t-36.5 -9q-32 0 -72 31q-32 26 -49 26q-9 0 -15.5 -4t-12 -12t-8 -14l-7 -17.5t-5.5 -14.5l-49 19q12 31 20.5 49t29 36
t47.5 18q26 0 66 -30q36 -28 52 -28q6 0 11 2t8.5 7l6.5 9t6 11.5t4 11.5l3 11.5t3 9.5z" />
    <glyph glyph-name="adieresis" unicode="&#xe4;" 
d="M393 142h-185l-49 -155l-66 24l164 510h86l164 -510l-66 -24zM374 202l-74 241l-74 -241h148zM208 680q23 0 35.5 -19.5t12.5 -43.5t-12.5 -43.5t-35.5 -19.5t-35.5 19.5t-12.5 43.5t12.5 43.5t35.5 19.5zM392 680q23 0 35.5 -19.5t12.5 -43.5t-12.5 -43.5t-35.5 -19.5
t-35.5 19.5t-12.5 43.5t12.5 43.5t35.5 19.5z" />
    <glyph glyph-name="aring" unicode="&#xe5;" 
d="M300 681q36 0 61.5 -25.5t25.5 -60.5q0 -51 -44 -76l164 -508l-66 -24l-48 155h-185l-49 -155l-66 24l163 508q-43 25 -43 76q0 35 25.5 60.5t61.5 25.5zM374 202l-74 241l-74 -241h148zM300 641q-19 0 -33 -13.5t-14 -32.5t13.5 -33t33.5 -14t33.5 14t13.5 33t-14 32.5
t-33 13.5z" />
    <glyph glyph-name="ae" unicode="&#xe6;" 
d="M291 202v259h-42l-76 -259h118zM291 0v142h-137l-48 -155l-66 24l164 510h332v-60h-178v-156h145v-60h-145v-185h178v-60h-245z" />
    <glyph glyph-name="ccedilla" unicode="&#xe7;" 
d="M432 138l55 -38q-63 -98 -148 -107l-11 -35q34 -2 57 -20t23 -51q0 -34 -29 -55.5t-64 -21.5q-38 0 -102 29l20 51q42 -20 74 -20q31 0 31 20q0 9 -6.5 15.5t-18.5 9.5t-21 4.5t-23 2t-16 0.5l26 72q-45 7 -78 32.5t-51.5 63.5t-27 80.5t-8.5 89.5q0 74 18 129t48 84.5
t62 43t66 13.5q58 0 96.5 -28t68.5 -83l-61 -31q-41 79 -103 79q-37 0 -63 -20t-38.5 -53.5t-18 -66t-5.5 -66.5q0 -35 5 -67t17.5 -66t38.5 -54t64 -20q42 0 68.5 21t54.5 63z" />
    <glyph glyph-name="egrave" unicode="&#xe8;" 
d="M157 0v521h325v-60h-258v-156h213v-60h-213v-185h258v-60h-325zM236 695l177 -101l-26 -44l-187 82z" />
    <glyph glyph-name="eacute" unicode="&#xe9;" 
d="M157 0v521h325v-60h-258v-156h213v-60h-213v-185h258v-60h-325zM377 695l36 -63l-187 -82l-26 44z" />
    <glyph glyph-name="ecircumflex" unicode="&#xea;" 
d="M157 0v521h325v-60h-258v-156h213v-60h-213v-185h258v-60h-325zM300 613l-127 -62l-24 36l151 102l151 -102l-23 -36z" />
    <glyph glyph-name="edieresis" unicode="&#xeb;" 
d="M157 0v521h325v-60h-258v-156h213v-60h-213v-185h258v-60h-325zM208 680q23 0 35.5 -19.5t12.5 -43.5t-12.5 -43.5t-35.5 -19.5t-35.5 19.5t-12.5 43.5t12.5 43.5t35.5 19.5zM392 680q23 0 35.5 -19.5t12.5 -43.5t-12.5 -43.5t-35.5 -19.5t-35.5 19.5t-12.5 43.5
t12.5 43.5t35.5 19.5z" />
    <glyph glyph-name="igrave" unicode="&#xec;" 
d="M193 0v60h73v401h-73v60h214v-60h-74v-401h74v-60h-214zM236 695l177 -101l-26 -44l-187 82z" />
    <glyph glyph-name="iacute" unicode="&#xed;" 
d="M193 0v60h73v401h-73v60h214v-60h-74v-401h74v-60h-214zM377 695l36 -63l-187 -82l-26 44z" />
    <glyph glyph-name="icircumflex" unicode="&#xee;" 
d="M193 0v60h73v401h-73v60h214v-60h-74v-401h74v-60h-214zM300 613l-127 -62l-24 36l151 102l151 -102l-23 -36z" />
    <glyph glyph-name="idieresis" unicode="&#xef;" 
d="M193 0v60h73v401h-73v60h214v-60h-74v-401h74v-60h-214zM208 680q23 0 35.5 -19.5t12.5 -43.5t-12.5 -43.5t-35.5 -19.5t-35.5 19.5t-12.5 43.5t12.5 43.5t35.5 19.5zM392 680q23 0 35.5 -19.5t12.5 -43.5t-12.5 -43.5t-35.5 -19.5t-35.5 19.5t-12.5 43.5t12.5 43.5
t35.5 19.5z" />
    <glyph glyph-name="eth" unicode="&#xf0;" 
d="M173 290v171h-54v60h174q114 0 164.5 -56.5t50.5 -197.5q0 -53 -4.5 -90.5t-17.5 -73t-36.5 -57t-62.5 -34t-94 -12.5h-174v60h54v170h-54v60h54zM240 290h79v-60h-79v-170h71q67 0 97 45t30 155q0 114 -31.5 157.5t-97.5 43.5h-69v-171z" />
    <glyph glyph-name="ntilde" unicode="&#xf1;" 
d="M126 0v521h83l202 -439l2 2l-6 135v302h67v-521h-83l-202 439l-2 -2l6 -136v-301h-67zM403 680l51 -16q-6 -23 -11.5 -37t-16 -32t-26 -27t-36.5 -9q-32 0 -72 31q-32 26 -49 26q-9 0 -15.5 -4t-12 -12t-8 -14l-7 -17.5t-5.5 -14.5l-49 19q12 31 20.5 49t29 36t47.5 18
q26 0 66 -30q36 -28 52 -28q6 0 11 2t8.5 7l6.5 9t6 11.5t4 11.5l3 11.5t3 9.5z" />
    <glyph glyph-name="ograve" unicode="&#xf2;" 
d="M300 530q34 0 64.5 -13.5t58.5 -42.5t45 -84t17 -130q0 -15 -0.5 -28.5t-4.5 -42.5t-10.5 -53t-20.5 -52t-32.5 -47.5t-49 -32.5t-67.5 -13q-27 0 -51.5 7.5t-49.5 27t-43 49t-29.5 77.5t-11.5 108q0 74 16.5 129t44 84.5t58.5 43t66 13.5zM300 467q-36 0 -60.5 -20.5
t-35.5 -55t-15 -65.5t-4 -66q0 -34 4 -65t15 -65.5t35.5 -55t60.5 -20.5t60.5 20.5t35.5 55t15 65.5t4 65q0 35 -4 66t-15 65.5t-35.5 55t-60.5 20.5zM236 695l177 -101l-26 -44l-187 82z" />
    <glyph glyph-name="oacute" unicode="&#xf3;" 
d="M300 530q34 0 64.5 -13.5t58.5 -42.5t45 -84t17 -130q0 -15 -0.5 -28.5t-4.5 -42.5t-10.5 -53t-20.5 -52t-32.5 -47.5t-49 -32.5t-67.5 -13q-27 0 -51.5 7.5t-49.5 27t-43 49t-29.5 77.5t-11.5 108q0 74 16.5 129t44 84.5t58.5 43t66 13.5zM300 467q-36 0 -60.5 -20.5
t-35.5 -55t-15 -65.5t-4 -66q0 -34 4 -65t15 -65.5t35.5 -55t60.5 -20.5t60.5 20.5t35.5 55t15 65.5t4 65q0 35 -4 66t-15 65.5t-35.5 55t-60.5 20.5zM377 695l36 -63l-187 -82l-26 44z" />
    <glyph glyph-name="ocircumflex" unicode="&#xf4;" 
d="M300 530q34 0 64.5 -13.5t58.5 -42.5t45 -84t17 -130q0 -15 -0.5 -28.5t-4.5 -42.5t-10.5 -53t-20.5 -52t-32.5 -47.5t-49 -32.5t-67.5 -13q-27 0 -51.5 7.5t-49.5 27t-43 49t-29.5 77.5t-11.5 108q0 74 16.5 129t44 84.5t58.5 43t66 13.5zM300 467q-36 0 -60.5 -20.5
t-35.5 -55t-15 -65.5t-4 -66q0 -34 4 -65t15 -65.5t35.5 -55t60.5 -20.5t60.5 20.5t35.5 55t15 65.5t4 65q0 35 -4 66t-15 65.5t-35.5 55t-60.5 20.5zM300 613l-127 -62l-24 36l151 102l151 -102l-23 -36z" />
    <glyph glyph-name="otilde" unicode="&#xf5;" 
d="M300 530q34 0 64.5 -13.5t58.5 -42.5t45 -84t17 -130q0 -15 -0.5 -28.5t-4.5 -42.5t-10.5 -53t-20.5 -52t-32.5 -47.5t-49 -32.5t-67.5 -13q-27 0 -51.5 7.5t-49.5 27t-43 49t-29.5 77.5t-11.5 108q0 74 16.5 129t44 84.5t58.5 43t66 13.5zM300 467q-36 0 -60.5 -20.5
t-35.5 -55t-15 -65.5t-4 -66q0 -34 4 -65t15 -65.5t35.5 -55t60.5 -20.5t60.5 20.5t35.5 55t15 65.5t4 65q0 35 -4 66t-15 65.5t-35.5 55t-60.5 20.5zM403 680l51 -16q-6 -23 -11.5 -37t-16 -32t-26 -27t-36.5 -9q-32 0 -72 31q-32 26 -49 26q-9 0 -15.5 -4t-12 -12t-8 -14
l-7 -17.5t-5.5 -14.5l-49 19q12 31 20.5 49t29 36t47.5 18q26 0 66 -30q36 -28 52 -28q6 0 11 2t8.5 7l6.5 9t6 11.5t4 11.5l3 11.5t3 9.5z" />
    <glyph glyph-name="odieresis" unicode="&#xf6;" 
d="M300 530q34 0 64.5 -13.5t58.5 -42.5t45 -84t17 -130q0 -15 -0.5 -28.5t-4.5 -42.5t-10.5 -53t-20.5 -52t-32.5 -47.5t-49 -32.5t-67.5 -13q-27 0 -51.5 7.5t-49.5 27t-43 49t-29.5 77.5t-11.5 108q0 74 16.5 129t44 84.5t58.5 43t66 13.5zM300 467q-36 0 -60.5 -20.5
t-35.5 -55t-15 -65.5t-4 -66q0 -34 4 -65t15 -65.5t35.5 -55t60.5 -20.5t60.5 20.5t35.5 55t15 65.5t4 65q0 35 -4 66t-15 65.5t-35.5 55t-60.5 20.5zM208 680q23 0 35.5 -19.5t12.5 -43.5t-12.5 -43.5t-35.5 -19.5t-35.5 19.5t-12.5 43.5t12.5 43.5t35.5 19.5zM392 680
q23 0 35.5 -19.5t12.5 -43.5t-12.5 -43.5t-35.5 -19.5t-35.5 19.5t-12.5 43.5t12.5 43.5t35.5 19.5z" />
    <glyph glyph-name="divide" unicode="&#xf7;" 
d="M566 382v-44h-532v44h532zM343 205q0 -18 -12.5 -30.5t-30.5 -12.5t-30.5 12.5t-12.5 30.5t12.5 30.5t30.5 12.5t30.5 -12.5t12.5 -30.5zM343 515q0 -18 -12.5 -30.5t-30.5 -12.5t-30.5 12.5t-12.5 30.5t12.5 30.5t30.5 12.5t30.5 -12.5t12.5 -30.5z" />
    <glyph glyph-name="oslash" unicode="&#xf8;" 
d="M200 141l165 301q-25 25 -65 25q-36 0 -60.5 -20.5t-35.5 -55t-15 -65.5t-4 -66q0 -67 15 -119zM399 383l-166 -303q29 -26 67 -26q36 0 60.5 20.5t35.5 55t15 65.5t4 65q0 71 -16 123zM396 500l21 38l50 -28l-29 -55q47 -71 47 -195q0 -138 -53 -203.5t-132 -65.5
q-57 0 -98 32l-21 -39l-51 27l31 57q-46 67 -46 192q0 139 53 204.5t132 65.5q55 0 96 -30z" />
    <glyph glyph-name="ugrave" unicode="&#xf9;" 
d="M137 521h67v-355q0 -59 20.5 -85.5t70.5 -26.5q60 0 81 26t21 86v355h67v-387q0 -58 -42 -100.5t-122 -42.5t-121.5 42.5t-41.5 104.5v383zM236 695l177 -101l-26 -44l-187 82z" />
    <glyph glyph-name="uacute" unicode="&#xfa;" 
d="M137 521h67v-355q0 -59 20.5 -85.5t70.5 -26.5q60 0 81 26t21 86v355h67v-387q0 -58 -42 -100.5t-122 -42.5t-121.5 42.5t-41.5 104.5v383zM377 695l36 -63l-187 -82l-26 44z" />
    <glyph glyph-name="ucircumflex" unicode="&#xfb;" 
d="M137 521h67v-355q0 -59 20.5 -85.5t70.5 -26.5q60 0 81 26t21 86v355h67v-387q0 -58 -42 -100.5t-122 -42.5t-121.5 42.5t-41.5 104.5v383zM300 613l-127 -62l-24 36l151 102l151 -102l-23 -36z" />
    <glyph glyph-name="udieresis" unicode="&#xfc;" 
d="M137 521h67v-355q0 -59 20.5 -85.5t70.5 -26.5q60 0 81 26t21 86v355h67v-387q0 -58 -42 -100.5t-122 -42.5t-121.5 42.5t-41.5 104.5v383zM208 680q23 0 35.5 -19.5t12.5 -43.5t-12.5 -43.5t-35.5 -19.5t-35.5 19.5t-12.5 43.5t12.5 43.5t35.5 19.5zM392 680
q23 0 35.5 -19.5t12.5 -43.5t-12.5 -43.5t-35.5 -19.5t-35.5 19.5t-12.5 43.5t12.5 43.5t35.5 19.5z" />
    <glyph glyph-name="yacute" unicode="&#xfd;" 
d="M300 266l139 268l63 -33l-169 -300v-201h-67v201l-168 300l63 33zM377 695l36 -63l-187 -82l-26 44z" />
    <glyph glyph-name="thorn" unicode="&#xfe;" 
d="M229 112v-112h-67v521h67v-112h95q85 0 126.5 -40t41.5 -102q0 -77 -45 -116t-106 -39h-112zM229 172h92q101 0 101 90q0 87 -101 87h-92v-177z" />
    <glyph glyph-name="ydieresis" unicode="&#xff;" 
d="M300 266l139 268l63 -33l-169 -300v-201h-67v201l-168 300l63 33zM208 680q23 0 35.5 -19.5t12.5 -43.5t-12.5 -43.5t-35.5 -19.5t-35.5 19.5t-12.5 43.5t12.5 43.5t35.5 19.5zM392 680q23 0 35.5 -19.5t12.5 -43.5t-12.5 -43.5t-35.5 -19.5t-35.5 19.5t-12.5 43.5
t12.5 43.5t35.5 19.5z" />
    <glyph glyph-name="Dcroat" unicode="&#x110;" 
d="M173 607h-54v60h176q54 0 90.5 -14t65.5 -49.5t43 -102.5t14 -168q0 -39 -1 -65.5t-5.5 -64.5t-12.5 -63.5t-23.5 -54t-37.5 -45.5t-55.5 -28.5t-75.5 -11.5h-178v60h54v243h-54v60h54v244zM240 607v-244h79v-60h-79v-243h55q28 0 46.5 4t38.5 19.5t31.5 44.5t19 80
t7.5 125q0 73 -8 125.5t-19.5 81t-30 44t-33.5 19.5t-36 4h-71z" />
    <glyph glyph-name="dcroat" unicode="&#x111;" 
d="M173 290v171h-54v60h174q114 0 164.5 -56.5t50.5 -197.5q0 -53 -4.5 -90.5t-17.5 -73t-36.5 -57t-62.5 -34t-94 -12.5h-174v60h54v170h-54v60h54zM240 290h79v-60h-79v-170h71q67 0 97 45t30 155q0 114 -31.5 157.5t-97.5 43.5h-69v-171z" />
    <glyph glyph-name="Hbar" unicode="&#x126;" 
d="M403 387v110h-206v-110h206zM197 557h206v110h67v-110h65v-60h-65v-497h-67v327h-206v-327h-67v497h-65v60h65v110h67v-110z" />
    <glyph glyph-name="hbar" unicode="&#x127;" 
d="M403 382h-206v-77h206v77zM403 245h-206v-245h-67v382h-70v60h70v79h67v-79h206v79h67v-79h70v-60h-70v-382h-67v245z" />
    <glyph glyph-name="dotlessi" unicode="&#x131;" 
d="M193 0v60h73v401h-73v60h214v-60h-74v-401h74v-60h-214z" />
    <glyph glyph-name="IJ" unicode="&#x132;" 
d="M26 0v60h74v547h-74v60h215v-60h-74v-547h74v-60h-215zM249 242h67q-6 -105 15 -146.5t66 -41.5q28 0 46 14.5t25 42t8.5 47t1.5 49.5v460h67v-473q0 -203 -146 -203q-38 0 -62.5 8.5t-46 34t-31.5 77t-10 131.5z" />
    <glyph glyph-name="ij" unicode="&#x133;" 
d="M23 0v60h63v401h-63v60h194v-60h-64v-401h64v-60h-194zM239 242h67v-60q0 -128 81 -128t81 137v330h67v-335q0 -195 -146 -195q-150 0 -150 178v73z" />
    <glyph glyph-name="kgreenlandic" unicode="&#x138;" 
d="M229 521v-222h25l127 167q39 48 69 56q28 8 78 8v-55q-39 2 -62 -9q-16 -8 -42 -42l-113 -149l203 -245l-51 -43l-211 257h-23v-244h-67v521h67z" />
    <glyph glyph-name="Ldot" unicode="&#x13f;" 
d="M169 0v667h67v-607h274v-60h-341zM454 304v128h82v-128h-82z" />
    <glyph glyph-name="ldot" unicode="&#x140;" 
d="M170 0v521h67v-461h273v-60h-340zM460 228v123h82v-123h-82z" />
    <glyph glyph-name="Lslash" unicode="&#x141;" 
d="M183 304l-100 -37v66l100 38v296h67v-271l99 38v-67l-99 -38v-269h274v-60h-341v304z" />
    <glyph glyph-name="lslash" unicode="&#x142;" 
d="M237 521v-183l87 33v-67l-87 -33v-211h273v-60h-340v246l-87 -33v67l87 33v208h67z" />
    <glyph glyph-name="napostrophe" unicode="&#x149;" 
d="M212 0v521h83l202 -439l2 2l-6 135v302h67v-521h-83l-202 439l-2 -2l6 -136v-301h-67zM89 667h92v-45q0 -49 -31.5 -93t-79.5 -69l-23 55q42 27 42 91v61z" />
    <glyph glyph-name="Eng" unicode="&#x14a;" 
d="M193 500v-500h-67v667h67v-40q40 49 115 49q35 0 62 -7.5t45 -18.5t31 -30t19.5 -36.5t10 -43.5t4.5 -45.5t1 -47.5v-324q0 -30 -1 -47t-6 -45t-16.5 -44.5t-31 -34.5t-52 -27.5t-76.5 -11.5v63q72 3 94 30.5t22 116.5v324q0 103 -23.5 134.5t-92.5 31.5q-90 0 -105 -113
z" />
    <glyph glyph-name="eng" unicode="&#x14b;" 
d="M193 521v-38q47 47 115 47q40 0 70.5 -12.5t48.5 -37.5t29.5 -51t16.5 -64.5t6.5 -66t1.5 -66.5q0 -127 -17 -182q-37 -119 -166 -118v60q33 0 51.5 6.5t35 30.5t23 73t6.5 131q0 135 -29.5 186t-86.5 51q-40 0 -72.5 -25.5t-32.5 -64.5v-380h-67v521h67z" />
    <glyph glyph-name="OE" unicode="&#x152;" 
d="M315 667h216v-60h-154v-220h142v-60h-142v-267h154v-60h-220q-9 -4 -25 -7q-16 -2 -26 -2q-192 0 -191 337v7q0 341 186 341q41 0 60 -9zM310 73v524q-18 16 -55 16q-27 0 -45.5 -9.5t-36 -36.5t-26 -85t-8.5 -147q0 -50 2 -85.5t9 -75t19 -64t34 -40.5t52 -16
q31 0 55 19z" />
    <glyph glyph-name="oe" unicode="&#x153;" 
d="M303 521h238v-60h-178v-156h146v-60h-146v-185h178v-60h-238q-9 -4 -25 -7q-18 -2 -27 -2q-54 0 -93 24t-59.5 65t-29.5 85t-9 95q0 75 17 130t45 84t58.5 42.5t64.5 13.5q35 0 58 -9zM296 68v385q-23 14 -51 14q-36 0 -60.5 -20.5t-35.5 -55t-15 -65.5t-4 -66
q0 -34 4 -65t15 -65.5t35.5 -55t60.5 -20.5q28 0 51 14z" />
    <glyph glyph-name="Scaron" unicode="&#x160;" 
d="M461 525l-65 -10q-22 98 -92 98q-44 0 -66 -30.5t-22 -76.5q0 -41 19.5 -64.5t96.5 -69.5q72 -43 105 -82.5t33 -110.5q0 -83 -43.5 -135.5t-124.5 -52.5q-154 0 -171 184l67 9q8 -65 29 -97.5t77 -32.5q45 0 72 30.5t27 88.5q0 21 -3.5 38.5t-14.5 33l-18 25t-27.5 23
l-28.5 18.5t-34 20q-36 21 -54 33.5t-38 33.5t-28 46.5t-8 61.5q0 70 43 120t112 50q126 0 157 -151zM173 833l127 -62l128 62l23 -36l-151 -102l-151 102z" />
    <glyph glyph-name="scaron" unicode="&#x161;" 
d="M131 146l60 19q23 -111 114 -111q43 0 70.5 23t27.5 65q0 9 -2 17.5t-4 15.5t-7 13.5t-9 10.5t-12 9.5t-12 8t-14 7.5t-14 6.5t-15.5 6.5t-15.5 6l-24.5 10t-25.5 11l-22 10.5t-21.5 12.5t-17 13.5t-16 17l-11 20.5t-8.5 25.5t-2 29.5q0 64 44.5 100.5t108.5 36.5
q125 0 159 -131l-64 -19q-20 87 -96 87q-35 0 -60 -18t-25 -51q0 -18 4.5 -30.5t16 -22t21 -14.5t28.5 -14l111 -49q72 -40 72 -122q0 -73 -45.5 -114t-119.5 -41q-71 0 -116.5 42t-57.5 113zM173 687l127 -62l128 62l23 -36l-151 -102l-151 102z" />
    <glyph glyph-name="Tbar" unicode="&#x166;" 
d="M476 607h-141v-224h118v-60h-118v-323h-67v323h-118v60h118v224h-144v60h352v-60z" />
    <glyph glyph-name="tbar" unicode="&#x167;" 
d="M476 461h-141v-147h100v-60h-100v-254h-67v254h-100v60h100v147h-144v60h352v-60z" />
    <glyph glyph-name="Ydieresis" unicode="&#x178;" 
d="M300 341l144 339l62 -25l-173 -392v-263h-67v263l-172 392l62 25zM208 826q23 0 35.5 -19.5t12.5 -43.5t-12.5 -43.5t-35.5 -19.5t-35.5 19.5t-12.5 43.5t12.5 43.5t35.5 19.5zM392 826q23 0 35.5 -19.5t12.5 -43.5t-12.5 -43.5t-35.5 -19.5t-35.5 19.5t-12.5 43.5
t12.5 43.5t35.5 19.5z" />
    <glyph glyph-name="Zcaron" unicode="&#x17d;" 
d="M104 0l283 607h-254v60h355l-282 -607h290v-60h-392zM173 833l127 -62l128 62l23 -36l-151 -102l-151 102z" />
    <glyph glyph-name="zcaron" unicode="&#x17e;" 
d="M104 0l273 461h-244v60h355l-271 -461h279v-60h-392zM173 687l127 -62l128 62l23 -36l-151 -102l-151 102z" />
    <glyph glyph-name="florin" unicode="&#x192;" 
d="M361 494l-13 -103h96v-60h-103l-35 -292l-1 -11q-1 -10 -2 -16.5t-4 -20.5t-6 -23.5t-9.5 -23.5t-13.5 -24t-18 -21t-24 -17.5t-30.5 -11t-37.5 -4.5h-51v60h43q47 0 63.5 29.5t23.5 92.5l34 283h-107v60h114l14 112l1 11q1 10 2 16.5t4 20.5t6 23.5t9.5 23.5t13.5 24
t18 21t24 17.5t30.5 11t37.5 4.5h51v-60h-43q-20 0 -35 -6.5t-23.5 -15.5t-14.5 -27.5t-8.5 -32.5t-5.5 -40z" />
    <glyph glyph-name="circumflex" unicode="&#x2c6;" 
d="M300 613l-127 -62l-24 36l151 102l151 -102l-23 -36z" />
    <glyph glyph-name="caron" unicode="&#x2c7;" 
d="M173 687l127 -62l128 62l23 -36l-151 -102l-151 102z" />
    <glyph glyph-name="uni02C9" unicode="&#x2c9;" 
d="M444 586h-287v60h287v-60z" />
    <glyph glyph-name="breve" unicode="&#x2d8;" 
d="M392 682h60q-1 -61 -41 -92.5t-104 -31.5q-155 0 -159 124h60q-1 -39 24.5 -56.5t67.5 -17.5q92 0 92 74z" />
    <glyph glyph-name="dotaccent" unicode="&#x2d9;" 
d="M300 680q23 0 35.5 -19.5t12.5 -43.5t-12.5 -43.5t-35.5 -19.5t-35.5 19.5t-12.5 43.5t12.5 43.5t35.5 19.5z" />
    <glyph glyph-name="ring" unicode="&#x2da;" 
d="M300 681q36 0 61.5 -25.5t25.5 -60.5q0 -36 -25.5 -61.5t-61.5 -25.5t-61.5 25.5t-25.5 61.5q0 35 25.5 60.5t61.5 25.5zM300 641q-19 0 -33 -13.5t-14 -32.5t13.5 -33t33.5 -14t33.5 14t13.5 33t-14 32.5t-33 13.5z" />
    <glyph glyph-name="ogonek" unicode="&#x2db;" 
d="M361 -96v-59q-58 -22 -96 -22q-50 0 -85 23t-35 70q0 69 86 107h98q-3 -2 -39 -24.5t-55.5 -42t-19.5 -38.5q0 -40 48 -40q49 0 98 26z" />
    <glyph glyph-name="tilde" unicode="&#x2dc;" 
d="M403 680l51 -16q-6 -23 -11.5 -37t-16 -32t-26 -27t-36.5 -9q-32 0 -72 31q-32 26 -49 26q-9 0 -15.5 -4t-12 -12t-8 -14l-7 -17.5t-5.5 -14.5l-49 19q12 31 20.5 49t29 36t47.5 18q26 0 66 -30q36 -28 52 -28q6 0 11 2t8.5 7l6.5 9t6 11.5t4 11.5l3 11.5t3 9.5z" />
    <glyph glyph-name="hungarumlaut" unicode="&#x2dd;" 
d="M265 683l41 -58l-186 -82l-31 41zM470 683l41 -58l-186 -82l-31 41z" />
    <glyph glyph-name="Gamma" unicode="&#x393;" 
d="M160 667h333v-60h-266v-607h-67v667z" />
    <glyph glyph-name="Theta" unicode="&#x398;" 
d="M300 -9q-44 0 -88 22t-82 63t-61.5 108t-23.5 149q0 84 24.5 152.5t63 108.5t82 61t85.5 21q44 0 88.5 -22t82 -63t61 -108t23.5 -150t-24 -150.5t-62.5 -108t-82 -62t-86.5 -21.5zM300 616q-69 0 -128.5 -73.5t-59.5 -209.5q0 -77 20 -135.5t51 -88.5t61 -44t56 -14
q28 0 59 16t61 48t49 89t19 129q0 75 -20 133t-50.5 89t-61 46t-56.5 15zM181 369h237v-60h-237v60z" />
    <glyph glyph-name="Phi" unicode="&#x3a6;" 
d="M266 680h66v-62q105 -1 166.5 -87.5t61.5 -195.5q0 -69 -25 -133t-78 -108.5t-124 -44.5l-1 -62h-66v62q-71 1 -124 44t-78 105.5t-25 132.5q0 69 25 133t78 109t124 45v62zM266 104v459q-40 0 -71.5 -22.5t-49.5 -58.5t-27 -74.5t-9 -76.5q0 -51 15 -100.5t52.5 -88
t89.5 -38.5zM333 563v-458q52 0 89.5 38.5t52.5 88t15 101.5t-14.5 101.5t-52 89t-90.5 39.5z" />
    <glyph glyph-name="uni03A9" unicode="&#x3a9;" 
d="M169 51v2q-66 48 -108.5 124t-42.5 173q0 78 25.5 141t66.5 101t90.5 58t101.5 20q126 0 203 -89t77 -228q0 -100 -44.5 -178t-108.5 -122v-2h168v-51h-255v38q74 39 124.5 118t49.5 188q0 121 -56.5 198.5t-156.5 77.5q-97 0 -158.5 -75t-61.5 -204q0 -104 51.5 -185
t123.5 -118v-38h-255v51h166z" />
    <glyph glyph-name="alpha" unicode="&#x3b1;" 
d="M253 470q-41 0 -75.5 -58t-34.5 -161q0 -94 31.5 -147t77.5 -53q43 0 79 64t36 159q0 39 -10.5 81.5t-38 78.5t-65.5 36zM415 375l50 163l63 -17l-88 -252l71 -269h-66l-35 154h-2q-40 -163 -159 -163q-22 0 -44 7t-46.5 26t-43 47t-30.5 75t-12 105q0 138 57 208.5
t122 70.5q64 0 104.5 -43t57.5 -112h1z" />
    <glyph glyph-name="delta" unicode="&#x3b4;" 
d="M430 223q0 65 -35 116.5t-97 51.5q-61 0 -94.5 -54t-33.5 -119q0 -62 34.5 -114.5t93.5 -52.5q62 0 97 53.5t35 118.5zM217 607l200 -199q83 -86 83 -184q0 -92 -56 -162.5t-146 -70.5q-87 0 -142.5 70t-55.5 158q0 108 52 164.5t134 67.5l-131 135v81h293v-60h-231z" />
    <glyph glyph-name="epsilon" unicode="&#x3b5;" 
d="M332 310v-60q-66 2 -118.5 -33t-52.5 -80q0 -31 37.5 -58.5t107.5 -27.5q88 0 155 75l48 -45q-79 -90 -205 -90q-93 0 -153 42.5t-60 109.5q0 51 39.5 87.5t108.5 52.5q-52 17 -83.5 47t-31.5 70q0 54 53 92t128 38q100 0 150 -45l-42 -41q-14 11 -46.5 18.5t-57.5 7.5
q-115 0 -115 -68q0 -38 37.5 -64.5t100.5 -27.5z" />
    <glyph glyph-name="uni03BC" unicode="&#x3bc;" 
d="M402 0v44q-38 -53 -100 -53q-65 0 -103 49v-251h-67v732h67v-344q0 -35 11 -61t28 -38.5t32 -18t27 -5.5q52 0 78.5 44.5t26.5 99.5v323h67v-521h-67z" />
    <glyph glyph-name="pi" unicode="&#x3c0;" 
d="M549 437h-80v-291q0 -96 16 -146h-64q-17 26 -17 137v300h-168q-6 -105 -30 -241.5t-51 -195.5h-64q29 71 52 202t28 235q-79 0 -116 -14l-11 41q47 26 138 26h374z" />
    <glyph glyph-name="sigma" unicode="&#x3c3;" 
d="M527 530v-63l-150 11q45 -37 68.5 -97t23.5 -126q0 -71 -22.5 -126t-55.5 -83t-63.5 -41.5t-53.5 -13.5q-61 0 -108.5 42.5t-70 103.5t-22.5 125q0 54 18.5 109t51.5 93q26 31 61.5 46t62 17.5t75.5 2.5h185zM399 265q0 43 -13 87.5t-43.5 79.5t-71.5 35q-42 0 -72.5 -35
t-43 -80t-12.5 -88q0 -85 37.5 -147.5t91.5 -62.5q43 0 85 53t42 158z" />
    <glyph glyph-name="tau" unicode="&#x3c4;" 
d="M492 521v-60h-154v-461h-67v461h-69q-61 0 -95 -12v56q50 16 86 16h299z" />
    <glyph glyph-name="uni03D5" unicode="&#x3d5;" 
d="M270 59v404q-85 -28 -85 -203t85 -201zM330 462v-403q85 26 85 201q0 176 -85 202zM330 610v-80q65 -11 110 -76.5t45 -193.5q0 -21 -1.5 -42t-10 -62.5t-23 -72.5t-46 -58.5t-74.5 -33.5v-71h-60v71q-66 11 -110.5 76t-44.5 193t44 193t111 77v80h60z" />
    <glyph glyph-name="uni2010" unicode="&#x2010;" 
d="M189 229v63h222v-63h-222z" />
    <glyph glyph-name="endash" unicode="&#x2013;" 
d="M78 229v63h444v-63h-444z" />
    <glyph glyph-name="emdash" unicode="&#x2014;" 
d="M0 229v63h600v-63h-600z" />
    <glyph glyph-name="underscoredbl" unicode="&#x2017;" 
d="M600 -108h-600v36h600v-36zM600 -216h-600v36h600v-36z" />
    <glyph glyph-name="quoteleft" unicode="&#x2018;" 
d="M308 469h-92v45q0 49 31.5 93t79.5 69l23 -55q-42 -27 -42 -91v-61z" />
    <glyph glyph-name="quoteright" unicode="&#x2019;" 
d="M265 667h92v-45q0 -49 -31.5 -93t-79.5 -69l-23 55q42 27 42 91v61z" />
    <glyph glyph-name="quotesinglbase" unicode="&#x201a;" 
d="M265 148h92v-45q0 -49 -31.5 -93t-79.5 -69l-23 55q42 27 42 91v61z" />
    <glyph glyph-name="quotereversed" unicode="&#x201b;" 
d="M216 667h92v-61q0 -64 42 -91l-23 -55q-48 25 -79.5 69t-31.5 93v45z" />
    <glyph glyph-name="quotedblleft" unicode="&#x201c;" 
d="M235 469h-92v45q0 49 31.5 93t79.5 69l23 -55q-42 -27 -42 -91v-61zM421 469h-92v45q0 49 31.5 93t79.5 69l23 -55q-42 -27 -42 -91v-61z" />
    <glyph glyph-name="quotedblright" unicode="&#x201d;" 
d="M179 667h92v-45q0 -49 -31.5 -93t-79.5 -69l-23 55q42 27 42 91v61zM365 667h92v-45q0 -49 -31.5 -93t-79.5 -69l-23 55q42 27 42 91v61z" />
    <glyph glyph-name="quotedblbase" unicode="&#x201e;" 
d="M179 148h92v-45q0 -49 -31.5 -93t-79.5 -69l-23 55q42 27 42 91v61zM365 148h92v-45q0 -49 -31.5 -93t-79.5 -69l-23 55q42 27 42 91v61z" />
    <glyph glyph-name="dagger" unicode="&#x2020;" 
d="M262 347l5 76l-118 -6v73l119 -6l-10 183h85l-10 -183l119 6v-73l-118 6l5 -76l-10 -347h-57z" />
    <glyph glyph-name="daggerdbl" unicode="&#x2021;" 
d="M267 439l-121 -6v72l119 -6l-6 168h83l-6 -168l119 6v-72l-121 6v-211l121 6v-73l-119 7l6 -168h-83l6 168l-119 -7v73l121 -6v211z" />
    <glyph glyph-name="bullet" unicode="&#x2022;" 
d="M177 252q0 50 36.5 86.5t86.5 36.5t86.5 -36.5t36.5 -86.5q0 -51 -36 -87t-87 -36q-52 0 -87.5 35.5t-35.5 87.5z" />
    <glyph glyph-name="ellipsis" unicode="&#x2026;" 
d="M254 0v148h92v-148h-92zM54 0v148h92v-148h-92zM454 0v148h92v-148h-92z" />
    <glyph glyph-name="perthousand" unicode="&#x2030;" 
d="M168 551q0 75 -44 75t-44 -75q0 -76 44 -76t44 76zM320 116q0 75 -44 75t-44 -75t44 -75t44 75zM363 676l33 -21l-336 -664l-53 32l294 580q-17 -8 -40 -8q-25 0 -47 9q8 -27 8 -53q0 -50 -25 -88t-73 -38t-73 38t-25 88t25.5 87.5t72.5 37.5q26 0 52 -12q39 -19 81 -19
q66 0 106 31zM374 116q0 -50 -25 -87.5t-73 -37.5t-73 37.5t-25 87.5t25 87.5t73 37.5t73 -37.5t25 -87.5zM593 116q0 -50 -25 -87.5t-73 -37.5t-73 37.5t-25 87.5t25 87.5t73 37.5t73 -37.5t25 -87.5zM539 116q0 75 -44 75t-44 -75t44 -75t44 75z" />
    <glyph glyph-name="guilsinglleft" unicode="&#x2039;" 
d="M396 570l47 -49l-205 -191l205 -192l-47 -50l-254 242z" />
    <glyph glyph-name="guilsinglright" unicode="&#x203a;" 
d="M204 570l254 -240l-254 -242l-47 50l205 192l-205 191z" />
    <glyph glyph-name="exclamdbl" unicode="&#x203c;" 
d="M204 207h-64l-18 460h102zM127 0v148h92v-148h-92zM458 207h-64l-18 460h102zM381 0v148h92v-148h-92z" />
    <glyph glyph-name="uni203E" unicode="&#x203e;" 
d="M450 728h-300v36h300v-36z" />
    <glyph glyph-name="fraction" unicode="&#x2044;" 
d="M462 680l53 -29l-377 -664l-53 26z" />
    <glyph glyph-name="n.superior" unicode="&#x207f;" 
d="M186 328v339h64l117 -274l1 1l-4 76v197h50v-339h-64l-116 270h-2l4 -74v-196h-50z" />
    <glyph glyph-name="franc" unicode="&#x20a3;" 
d="M332 283h70q80 5 80 96q0 82 -65 82h-85v-178zM272 0v521h147q55 0 89 -35t34 -107q0 -49 -23.5 -90.5t-60.5 -55.5l101 -211l-51 -35l-105 236h-71v-223h-60zM16 0v667h268v-60h-201v-220h159v-60h-159v-327h-67z" />
    <glyph glyph-name="peseta" unicode="&#x20a7;" 
d="M417 0v268h-77v55h213v-55h-76v-268h-60zM114 297v-297h-67v667h145q89 0 136.5 -46t47.5 -131q0 -90 -45.5 -141.5t-116.5 -51.5h-100zM114 607v-250h94q46 0 72 35t26 98q0 117 -115 117h-77z" />
    <glyph glyph-name="Euro" unicode="&#x20ac;" 
d="M553 622v-70q-65 61 -171 61q-92 0 -145 -53t-64 -136h332l-21 -53h-319q-2 -18 -2 -36t2 -38h290l-21 -53h-261q15 -91 68.5 -141.5t141.5 -50.5q102 0 170 61v-71q-24 -20 -71 -35t-107 -15q-113 0 -182.5 63.5t-88.5 188.5h-76l21 53h49q-1 9 -1 38q0 27 1 36h-70
l21 53h54q18 112 84.5 181.5t187.5 69.5q115 0 178 -53z" />
    <glyph glyph-name="uni2113" unicode="&#x2113;" 
d="M492 148l33 -28q-69 -124 -196 -124q-81 0 -123.5 50.5t-46.5 124.5q-1 4 -1 11l-29 -22.5t-33 -24.5l-21 38l38.5 29.5t44.5 35.5v264q0 121 46 175t110 54q63 0 96 -44t33 -110q0 -87 -57.5 -173t-167.5 -184l1 -24q3 -75 38 -112.5t85 -37.5q48 0 87.5 30.5t62.5 71.5
zM218 512v-231q85 84 130.5 153.5t45.5 138.5q0 111 -81 111q-37 0 -66 -41.5t-29 -130.5z" />
    <glyph glyph-name="trademark" unicode="&#x2122;" 
d="M581 676v-282h-40v242h-2l-96 -242h-26l-93 242h-2v-242h-40v282h68l81 -199l84 199h66zM248 676v-40h-94v-242h-40v242h-95v40h229z" />
    <glyph glyph-name="Omega" unicode="&#x2126;" 
d="M169 51v2q-66 48 -108.5 124t-42.5 173q0 78 25.5 141t66.5 101t90.5 58t101.5 20q126 0 203 -89t77 -228q0 -100 -44.5 -178t-108.5 -122v-2h168v-51h-255v38q74 39 124.5 118t49.5 188q0 121 -56.5 198.5t-156.5 77.5q-97 0 -158.5 -75t-61.5 -204q0 -104 51.5 -185
t123.5 -118v-38h-255v51h166z" />
    <glyph glyph-name="estimated" unicode="&#x212e;" 
d="M604 258h-491q-4 0 -4 -3v-149q0 -9 6 -17q78 -80 186 -80q116 0 195 90h44q-41 -49 -104.5 -77t-135.5 -28q-125 0 -214 79.5t-89 191.5q0 113 89 193t214 80q126 0 215 -80t89 -193v-7zM492 277v150q0 11 -7 17q-80 78 -184 78q-107 0 -185 -80q-7 -7 -7 -18v-147
q0 -5 4 -5h376q3 0 3 5z" />
    <glyph glyph-name="oneeighth" unicode="&#x215b;" 
d="M499 172q64 -32 64 -85q0 -44 -34.5 -70t-80.5 -26t-80 26t-34 70q0 55 63 85q-52 33 -52 76q0 41 30.5 66.5t72.5 25.5t72.5 -25.5t30.5 -66.5q0 -44 -52 -76zM448 144q-3 -2 -12 -7t-13 -7t-10.5 -7.5t-10 -10t-6 -11.5t-2.5 -15q0 -21 16 -33t38 -12t38.5 12t16.5 33
q0 9 -3 16.5t-10.5 14.5t-11.5 10t-16 9.5t-14 7.5zM448 199q2 1 11.5 7t12.5 8.5t9 8t8 11.5t2 14q0 19 -11.5 30.5t-31.5 11.5t-31.5 -11.5t-11.5 -30.5q0 -8 2 -14t8 -11.5t9 -8t12.5 -8.5t11.5 -7zM118 382v227l-62 -21l-18 45l140 47v-298h58v-50h-192v50h74zM459 680
l53 -29l-377 -664l-53 26z" />
    <glyph glyph-name="threeeighths" unicode="&#x215c;" 
d="M509 172q64 -32 64 -85q0 -44 -34.5 -70t-80.5 -26t-80 26t-34 70q0 55 63 85q-52 33 -52 76q0 41 30.5 66.5t72.5 25.5t72.5 -25.5t30.5 -66.5q0 -44 -52 -76zM458 144q-3 -2 -12 -7t-13 -7t-10.5 -7.5t-10 -10t-6 -11.5t-2.5 -15q0 -21 16 -33t38 -12t38.5 12t16.5 33
q0 9 -3 16.5t-10.5 14.5t-11.5 10t-16 9.5t-14 7.5zM458 199q2 1 11.5 7t12.5 8.5t9 8t8 11.5t2 14q0 19 -11.5 30.5t-31.5 11.5t-31.5 -11.5t-11.5 -30.5q0 -8 2 -14t8 -11.5t9 -8t12.5 -8.5t11.5 -7zM462 680l53 -29l-377 -664l-53 26zM258 676v-42l-86 -79q38 -4 65 -28
t27 -61q0 -15 -4.5 -31t-19.5 -36.5t-38 -35.5t-65 -24t-95 -6v50q162 -2 162 82q0 46 -70 46q-17 0 -53 -6v39l92 82h-136v50h221z" />
    <glyph glyph-name="fiveeighths" unicode="&#x215d;" 
d="M500 172q64 -32 64 -85q0 -44 -34.5 -70t-80.5 -26t-80 26t-34 70q0 55 63 85q-52 33 -52 76q0 41 30.5 66.5t72.5 25.5t72.5 -25.5t30.5 -66.5q0 -44 -52 -76zM449 144q-3 -2 -12 -7t-13 -7t-10.5 -7.5t-10 -10t-6 -11.5t-2.5 -15q0 -21 15.5 -33t38.5 -12q22 0 38.5 12
t16.5 33q0 9 -3 16.5t-10.5 14.5t-11.5 10t-16 9.5t-14 7.5zM449 199q2 1 11.5 7t12.5 8.5t9 8t8 11.5t2 14q0 19 -11.5 30.5t-31.5 11.5t-31.5 -11.5t-11.5 -30.5q0 -8 2 -14t8 -11.5t9 -8t12.5 -8.5t11.5 -7zM44 494v182h209v-50h-149v-73q25 7 43 7q47 0 78 -26.5
t31 -72.5q0 -47 -47 -88.5t-121 -41.5h-52v50h34q56 0 91 22.5t35 61.5q0 22 -15 33.5t-37 11.5q-24 0 -58 -16h-42zM451 680l53 -29l-377 -664l-53 26z" />
    <glyph glyph-name="seveneighths" unicode="&#x215e;" 
d="M487 172q64 -32 64 -85q0 -44 -34.5 -70t-80.5 -26t-80 26t-34 70q0 55 63 85q-52 33 -52 76q0 41 30.5 66.5t72.5 25.5t72.5 -25.5t30.5 -66.5q0 -44 -52 -76zM436 144q-3 -2 -12 -7t-13 -7t-10.5 -7.5t-10 -10t-6 -11.5t-2.5 -15q0 -21 16 -33t38 -12t38.5 12t16.5 33
q0 9 -3 16.5t-10.5 14.5t-11.5 10t-16 9.5t-14 7.5zM436 199q2 1 11.5 7t12.5 8.5t9 8t8 11.5t2 14q0 19 -11.5 30.5t-31.5 11.5t-31.5 -11.5t-11.5 -30.5q0 -8 2 -14t8 -11.5t9 -8t12.5 -8.5t11.5 -7zM70 350l141 276h-143v50h228l-175 -346zM427 680l53 -29l-377 -664
l-53 26z" />
    <glyph glyph-name="uni2190" unicode="&#x2190;" 
d="M136 382h460v-44h-460q13 -20 31 -63t18 -60q0 -16 -14 -16q-8 0 -21 20q-56 83 -125 123q-21 10 -21 18t21 18q69 40 125 123q13 20 21 20q14 0 14 -16q0 -17 -18 -60t-31 -63z" />
    <glyph glyph-name="arrowup" unicode="&#x2191;" 
d="M322 524v-460h-44v460q-20 -13 -63 -31t-60 -18q-16 0 -16 14q0 8 20 21q83 56 123 125q10 21 18 21t18 -21q40 -69 123 -125q20 -13 20 -21q0 -14 -16 -14q-17 0 -60 18t-63 31z" />
    <glyph glyph-name="uni2192" unicode="&#x2192;" 
d="M4 382h460q-13 20 -31 63t-18 60q0 16 14 16q8 0 21 -20q56 -83 125 -123q21 -10 21 -18t-21 -18q-69 -40 -125 -123q-13 -20 -21 -20q-14 0 -14 16q0 17 18 60t31 63h-460v44z" />
    <glyph glyph-name="arrowdown" unicode="&#x2193;" 
d="M322 656v-460q20 13 63 31t60 18q16 0 16 -14q0 -8 -20 -21q-83 -56 -123 -125q-10 -21 -18 -21t-18 21q-40 69 -123 125q-20 13 -20 21q0 14 16 14q17 0 60 -18t63 -31v460h44z" />
    <glyph glyph-name="arrowboth" unicode="&#x2194;" 
d="M464 338h-328q13 -20 31 -63t18 -60q0 -16 -14 -16q-8 0 -21 20q-56 83 -125 123q-21 10 -21 18t21 18q69 40 125 123q13 20 21 20q14 0 14 -16q0 -17 -18 -60t-31 -63h328q-13 20 -31 63t-18 60q0 16 14 16q8 0 21 -20q56 -83 125 -123q21 -10 21 -18t-21 -18
q-69 -40 -125 -123q-13 -20 -21 -20q-14 0 -14 16q0 17 18 60t31 63z" />
    <glyph glyph-name="arrowupdn" unicode="&#x2195;" 
d="M278 196v328q-20 -13 -63 -31t-60 -18q-16 0 -16 14q0 8 20 21q83 56 123 125q10 21 18 21t18 -21q40 -69 123 -125q20 -13 20 -21q0 -14 -16 -14q-17 0 -60 18t-63 31v-328q20 13 63 31t60 18q16 0 16 -14q0 -8 -20 -21q-83 -56 -123 -125q-10 -21 -18 -21t-18 21
q-40 69 -123 125q-20 13 -20 21q0 14 16 14q17 0 60 -18t63 -31z" />
    <glyph glyph-name="arrowupdnbse" unicode="&#x21a8;" 
d="M278 261v328q-20 -13 -63 -31t-60 -18q-16 0 -16 14q0 8 20 21q83 56 123 125q10 21 18 21t18 -21q40 -69 123 -125q20 -13 20 -21q0 -14 -16 -14q-17 0 -60 18t-63 31v-328q20 13 63 31t60 18q16 0 16 -14q0 -8 -20 -21q-83 -56 -123 -125q-10 -21 -18 -21t-18 21
q-40 69 -123 125q-20 13 -20 21q0 14 16 14q17 0 60 -18t63 -31zM461 44v-44h-322v44h322z" />
    <glyph glyph-name="partialdiff" unicode="&#x2202;" 
d="M125 643l-25 43q71 54 174 54q109 0 186 -95t77 -264q0 -103 -29 -189t-92 -142t-151 -56q-97 0 -149.5 67.5t-52.5 152.5q0 105 65.5 171t157.5 66q69 0 118.5 -36t67.5 -71h1q2 14 2 48q0 134 -60.5 216t-145.5 82q-79 0 -144 -47zM270 45h1q76 0 128 70t64 168
q-15 41 -61 79.5t-106 38.5q-69 0 -119 -54t-50 -131q0 -73 40 -122t103 -49z" />
    <glyph glyph-name="Delta" unicode="&#x2206;" 
d="M17 0l-1 46l247 633h75l246 -632v-47h-567zM83 51h430l-147 383q-33 86 -65 181h-4q-4 -14 -14.5 -42.5l-25 -66.5l-20.5 -54z" />
    <glyph glyph-name="product" unicode="&#x220f;" 
d="M594 609h-82v-695h-63v695h-298v-695h-63v695h-82v55h588v-55z" />
    <glyph glyph-name="summation" unicode="&#x2211;" 
d="M199 607l185 -256l-191 -291h279v-60h-344v67l184 286l-184 248v66h341v-60h-270z" />
    <glyph glyph-name="minus" unicode="&#x2212;" 
d="M566 382v-44h-532v44h532z" />
    <glyph glyph-name="uni2215" unicode="&#x2215;" 
d="M462 680l53 -29l-377 -664l-53 26z" />
    <glyph glyph-name="uni2219" unicode="&#x2219;" 
d="M254 279v108h92v-108h-92z" />
    <glyph glyph-name="radical" unicode="&#x221a;" 
d="M581 786l-236 -924h-60l-172 443l-79 -30l-15 39l134 52l144 -377q1 -4 17 -60h1q3 17 14 61l202 796h50z" />
    <glyph glyph-name="infinity" unicode="&#x221e;" 
d="M459 125q-45 0 -80.5 29t-77.5 88q-47 -63 -67 -81q-41 -36 -94 -36q-59 0 -100.5 43.5t-41.5 106.5q0 73 44.5 112.5t103.5 39.5q67 0 127 -75q6 -7 17 -22t15 -20q40 58 75.5 87.5t85.5 29.5q58 0 97 -42t39 -106v-1q0 -68 -41.5 -110.5t-101.5 -42.5zM138 385
q-38 0 -65.5 -28.5t-27.5 -82.5q0 -45 27.5 -75.5t73.5 -30.5h1q16 0 31 5.5t31 21.5l23 23t24.5 31t18.5 25q-23 34 -39.5 54t-43.5 38.5t-54 18.5zM462 385h-1q-51 0 -105 -69l-28 -38q41 -58 70.5 -84t64.5 -26q44 0 68 32t24 75q0 51 -26.5 80.5t-66.5 29.5z" />
    <glyph glyph-name="intersection" unicode="&#x2229;" 
d="M590 0h-44v444q0 101 -75.5 176t-170.5 75t-170.5 -75t-75.5 -176v-444h-44v433q0 127 83.5 214t206.5 87t206.5 -87t83.5 -214v-433z" />
    <glyph glyph-name="integral" unicode="&#x222b;" 
d="M468 794l-12 -43q-15 11 -40 11q-35 0 -53 -21q-38 -41 -38 -171q0 -73 7.5 -238.5t7.5 -240.5q0 -128 -46 -190q-32 -46 -95 -46q-40 0 -67 18l13 44q29 -13 50 -13q30 0 49 21q39 46 39 167q0 77 -7.5 244t-7.5 240q0 147 54 198q36 35 90 35q31 0 56 -15z" />
    <glyph glyph-name="approxequal" unicode="&#x2248;" 
d="M520 493l27 -24q-53 -93 -133 -93q-28 0 -52 9t-63 29q-7 4 -11 6q-66 35 -101 35q-34 0 -58 -19.5t-50 -56.5l-28 24q53 93 143 93q18 0 37 -5t29.5 -10t29 -15.5t23.5 -12.5q5 -3 17.5 -9l17.5 -8.5t15 -7t17 -6t16.5 -3t19.5 -1.5q32 0 56 18t48 57zM520 342l27 -25
q-53 -92 -133 -92q-28 0 -52 9t-63 29q-7 4 -11 6q-64 35 -101 35q-34 0 -58 -19.5t-50 -57.5l-28 25q53 93 143 93q15 0 28.5 -2.5t28 -8.5l21.5 -9t23 -12t18 -10q5 -3 16.5 -9t17 -8.5l15.5 -7t17 -6.5t17.5 -3.5t20.5 -1.5q32 0 55 17.5t48 57.5z" />
    <glyph glyph-name="notequal" unicode="&#x2260;" 
d="M424 556l-58 -105h199v-44h-223l-52 -93h275v-44h-298l-66 -125l-34 17l57 108h-190v44h215l51 93h-266v44h289l67 122z" />
    <glyph glyph-name="equivalence" unicode="&#x2261;" 
d="M566 516v-44h-532v44h532zM566 382v-44h-532v44h532zM566 248v-44h-532v44h532z" />
    <glyph glyph-name="lessequal" unicode="&#x2264;" 
d="M542 86l-482 228v44l482 228v-50l-433 -198v-2l433 -200v-50zM545 1h-491v43h491v-43z" />
    <glyph glyph-name="greaterequal" unicode="&#x2265;" 
d="M61 586l481 -228v-44l-481 -228v50l432 199v2l-432 199v50zM544 1h-489v43h489v-43z" />
    <glyph glyph-name="dotmath" unicode="&#x22c5;" 
d="M250 360q0 15 10.5 25.5t25.5 10.5t25.5 -10.5t10.5 -25.5t-10.5 -25.5t-25.5 -10.5t-25.5 10.5t-10.5 25.5z" />
    <glyph glyph-name="house" unicode="&#x2302;" 
d="M590 0h-580v406l290 169l290 -169v-406zM40 30h520v361l-260 152l-260 -152v-361z" />
    <glyph glyph-name="uni2304" unicode="&#x2304;" 
d="M110 680h50l140 -275l137 275h50l-161 -323h-52z" />
    <glyph glyph-name="revlogicalnot" unicode="&#x2310;" 
d="M74 0h-44v276h540v-44h-496v-232z" />
    <glyph glyph-name="uni2319" unicode="&#x2319;" 
d="M30 276h44v-232h496v-44h-540v276z" />
    <glyph glyph-name="integraltp" unicode="&#x2320;" 
d="M279 274v264v22v75.5t3.5 85.5t10 94.5t20 85.5t32.5 76.5t49.5 48.5t69.5 20q56 0 96 -43t40 -96q0 -58 -41 -58q-24 0 -35.5 24.5t-14 54t-16 54t-40.5 24.5q-52 0 -82 -67q-20 -46 -34 -121t-14 -130v-414h-44z" />
    <glyph glyph-name="integralbt" unicode="&#x2321;" 
d="M321 538v-264v-22v-75.5t-3.5 -85.5t-10 -94.5t-20 -85.5t-32.5 -76.5t-49.5 -48.5t-69.5 -20q-56 0 -96 43t-40 96q0 58 41 58q24 0 35.5 -24.5t14 -54t16 -54t40.5 -24.5q52 0 82 67q20 46 34 121t14 130v414h44z" />
    <glyph glyph-name="uni2500" unicode="&#x2500;" 
d="M0 216v72h600v-72h-600z" />
    <glyph glyph-name="uni2502" unicode="&#x2502;" 
d="M264 -288v1080h72v-1080h-72z" />
    <glyph glyph-name="uni250C" unicode="&#x250c;" 
d="M264 -288v576h336v-72h-264v-504h-72z" />
    <glyph glyph-name="uni2510" unicode="&#x2510;" 
d="M336 288v-576h-72v504h-264v72h336z" />
    <glyph glyph-name="uni2514" unicode="&#x2514;" 
d="M264 216v576h72v-504h264v-72h-336z" />
    <glyph glyph-name="uni2518" unicode="&#x2518;" 
d="M336 792v-576h-336v72h264v504h72z" />
    <glyph glyph-name="uni251C" unicode="&#x251c;" 
d="M264 -288v1080h72v-504h264v-72h-264v-504h-72z" />
    <glyph glyph-name="uni2524" unicode="&#x2524;" 
d="M0 216v72h264v504h72v-1080h-72v504h-264z" />
    <glyph glyph-name="uni252C" unicode="&#x252c;" 
d="M0 216v72h600v-72h-264v-504h-72v504h-264z" />
    <glyph glyph-name="uni2534" unicode="&#x2534;" 
d="M0 216v72h264v504h72v-504h264v-72h-600z" />
    <glyph glyph-name="uni253C" unicode="&#x253c;" 
d="M0 216v72h264v504h72v-504h264v-72h-264v-504h-72v504h-264z" />
    <glyph glyph-name="uni2550" unicode="&#x2550;" 
d="M0 144v72h600v-72h-600zM0 288v72h600v-72h-600z" />
    <glyph glyph-name="uni2551" unicode="&#x2551;" 
d="M192 -288v1080h72v-1080h-72zM336 -288v1080h72v-1080h-72z" />
    <glyph glyph-name="uni2552" unicode="&#x2552;" 
d="M264 -288v648h336v-72h-264v-72h264v-72h-264v-432h-72z" />
    <glyph glyph-name="uni2553" unicode="&#x2553;" 
d="M600 288v-72h-192v-504h-72v504h-72v-504h-72v576h408z" />
    <glyph glyph-name="uni2554" unicode="&#x2554;" 
d="M192 -288v648h408v-72h-336v-576h-72zM336 -288v504h264v-72h-192v-432h-72z" />
    <glyph glyph-name="uni2555" unicode="&#x2555;" 
d="M336 360v-648h-72v432h-264v72h264v72h-264v72h336z" />
    <glyph glyph-name="uni2556" unicode="&#x2556;" 
d="M0 216v72h408v-576h-72v504h-72v-504h-72v504h-192z" />
    <glyph glyph-name="uni2557" unicode="&#x2557;" 
d="M0 144v72h264v-504h-72v432h-192zM0 288v72h408v-648h-72v576h-336z" />
    <glyph glyph-name="uni2558" unicode="&#x2558;" 
d="M264 144v648h72v-432h264v-72h-264v-72h264v-72h-336z" />
    <glyph glyph-name="uni2559" unicode="&#x2559;" 
d="M192 216v576h72v-504h72v504h72v-504h192v-72h-408z" />
    <glyph glyph-name="uni255A" unicode="&#x255a;" 
d="M192 144v648h72v-576h336v-72h-408zM336 288v504h72v-432h192v-72h-264z" />
    <glyph glyph-name="uni255B" unicode="&#x255b;" 
d="M336 792v-648h-336v72h264v72h-264v72h264v432h72z" />
    <glyph glyph-name="uni255C" unicode="&#x255c;" 
d="M408 792v-576h-408v72h192v504h72v-504h72v504h72z" />
    <glyph glyph-name="uni255D" unicode="&#x255d;" 
d="M0 144v72h336v576h72v-648h-408zM0 288v72h192v432h72v-504h-264z" />
    <glyph glyph-name="uni255E" unicode="&#x255e;" 
d="M600 216v-72h-264v-432h-72v1080h72v-432h264v-72h-264v-72h264z" />
    <glyph glyph-name="uni255F" unicode="&#x255f;" 
d="M192 -288v1080h72v-1080h-72zM336 -288v1080h72v-504h192v-72h-192v-504h-72z" />
    <glyph glyph-name="uni2560" unicode="&#x2560;" 
d="M192 -288v1080h72v-1080h-72zM336 -288v504h264v-72h-192v-432h-72zM336 288v504h72v-432h192v-72h-264z" />
    <glyph glyph-name="uni2561" unicode="&#x2561;" 
d="M0 144v72h264v72h-264v72h264v432h72v-1080h-72v432h-264z" />
    <glyph glyph-name="uni2562" unicode="&#x2562;" 
d="M0 216v72h192v504h72v-1080h-72v504h-192zM336 -288v1080h72v-1080h-72z" />
    <glyph glyph-name="uni2563" unicode="&#x2563;" 
d="M336 -288v1080h72v-1080h-72zM264 792v-504h-264v72h192v432h72zM264 216v-504h-72v432h-192v72h264z" />
    <glyph glyph-name="uni2564" unicode="&#x2564;" 
d="M0 144v72h600v-72h-264v-432h-72v432h-264zM0 288v72h600v-72h-600z" />
    <glyph glyph-name="uni2565" unicode="&#x2565;" 
d="M0 216v72h600v-72h-192v-504h-72v504h-72v-504h-72v504h-192z" />
    <glyph glyph-name="uni2566" unicode="&#x2566;" 
d="M0 144v72h264v-504h-72v432h-192zM0 288v72h600v-72h-600zM336 -288v504h264v-72h-192v-432h-72z" />
    <glyph glyph-name="uni2567" unicode="&#x2567;" 
d="M0 144v72h600v-72h-600zM0 288v72h264v432h72v-432h264v-72h-600z" />
    <glyph glyph-name="uni2568" unicode="&#x2568;" 
d="M0 216v72h192v504h72v-504h72v504h72v-504h192v-72h-600z" />
    <glyph glyph-name="uni2569" unicode="&#x2569;" 
d="M0 144v72h600v-72h-600zM0 288v72h192v432h72v-504h-264zM336 288v504h72v-432h192v-72h-264z" />
    <glyph glyph-name="uni256A" unicode="&#x256a;" 
d="M0 144v72h264v72h-264v72h264v432h72v-432h264v-72h-264v-72h264v-72h-264v-432h-72v432h-264z" />
    <glyph glyph-name="uni256B" unicode="&#x256b;" 
d="M0 216v72h192v504h72v-504h72v504h72v-504h192v-72h-192v-504h-72v504h-72v-504h-72v504h-192z" />
    <glyph glyph-name="uni256C" unicode="&#x256c;" 
d="M0 144v72h264v-504h-72v432h-192zM0 288v72h192v432h72v-504h-264zM336 -288v504h264v-72h-192v-432h-72zM336 288v504h72v-432h192v-72h-264z" />
    <glyph glyph-name="upblock" unicode="&#x2580;" 
d="M0 252v540h600v-540h-600z" />
    <glyph glyph-name="dnblock" unicode="&#x2584;" 
d="M0 -288v540h600v-540h-600z" />
    <glyph glyph-name="block" unicode="&#x2588;" 
d="M0 -288v1080h600v-1080h-600z" />
    <glyph glyph-name="lfblock" unicode="&#x258c;" 
d="M0 -288v1080h300v-1080h-300z" />
    <glyph glyph-name="rtblock" unicode="&#x2590;" 
d="M300 -288v1080h300v-1080h-300z" />
    <glyph glyph-name="ltshade" unicode="&#x2591;" 
d="M0 -288v98h100v-98h-100zM200 -288v98h100v-98h-100zM400 -288v98h100v-98h-100zM0 694v98h100v-98h-100zM200 694v98h100v-98h-100zM400 694v98h100v-98h-100zM0 497v98h100v-98h-100zM200 497v98h100v-98h-100zM400 497v98h100v-98h-100zM0 -91v98h100v-98h-100z
M200 -91v98h100v-98h-100zM400 -91v98h100v-98h-100zM0 105v98h100v-98h-100zM200 105v98h100v-98h-100zM400 105v98h100v-98h-100zM0 301v98h100v-98h-100zM200 301v98h100v-98h-100zM400 301v98h100v-98h-100z" />
    <glyph glyph-name="shade" unicode="&#x2592;" 
d="M0 -288v97h99v-97h-99zM200 -288v97h99v-97h-99zM400 -288v97h99v-97h-99zM0 695v97h99v-97h-99zM200 695v97h99v-97h-99zM400 695v97h99v-97h-99zM0 499v97h99v-97h-99zM200 499v97h99v-97h-99zM400 499v97h99v-97h-99zM0 -92v97h99v-97h-99zM200 -92v97h99v-97h-99z
M400 -92v97h99v-97h-99zM0 105v97h99v-97h-99zM200 105v97h99v-97h-99zM400 105v97h99v-97h-99zM0 302v97h99v-97h-99zM200 302v97h99v-97h-99zM400 302v97h99v-97h-99zM100 597v97h99v-97h-99zM300 597v97h99v-97h-99zM500 597v97h100v-97h-100zM100 400v97h99v-97h-99z
M300 400v97h99v-97h-99zM500 400v97h100v-97h-100zM500 203v97h100v-97h-100zM300 203v97h99v-97h-99zM100 203v97h99v-97h-99zM100 6v97h99v-97h-99zM300 6v97h99v-97h-99zM500 6v97h100v-97h-100zM500 -190v97h100v-97h-100zM300 -190v97h99v-97h-99zM100 -190v97h99v-97
h-99z" />
    <glyph glyph-name="dkshade" unicode="&#x2593;" 
d="M138 -92h-138v97h138v-97zM200 -190h-138v97h138v-97zM200 6h-138v97h138v-97zM138 -288h-138v97h138v-97zM338 -92h-138v97h138v-97zM400 -190h-138v97h138v-97zM400 6h-138v97h138v-97zM338 -288h-138v97h138v-97zM538 -92h-138v97h138v-97zM600 -190h-138v97h138v-97z
M600 6h-138v97h138v-97zM538 -288h-138v97h138v-97zM200 597h-138v97h138v-97zM138 695h-138v97h138v-97zM138 499h-138v97h138v-97zM400 597h-138v97h138v-97zM338 695h-138v97h138v-97zM338 499h-138v97h138v-97zM600 597h-138v97h138v-97zM538 695h-138v97h138v-97z
M538 499h-138v97h138v-97zM138 105h-138v97h138v-97zM200 203h-138v97h138v-97zM338 105h-138v97h138v-97zM400 203h-138v97h138v-97zM538 105h-138v97h138v-97zM600 203h-138v97h138v-97zM138 302h-138v97h138v-97zM200 400h-138v97h138v-97zM338 302h-138v97h138v-97z
M400 400h-138v97h138v-97zM538 302h-138v97h138v-97zM600 400h-138v97h138v-97z" />
    <glyph glyph-name="uni25A0" unicode="&#x25a0;" 
d="M100 100v400h400v-400h-400z" />
    <glyph glyph-name="filledrect" unicode="&#x25ac;" 
d="M100 260v200h400v-200h-400z" />
    <glyph glyph-name="triagup" unicode="&#x25b2;" 
d="M46 122l254 474l254 -474h-508z" />
    <glyph glyph-name="uni25B6" unicode="&#x25b6;" 
d="M63 106v508l474 -254z" />
    <glyph glyph-name="triagdn" unicode="&#x25bc;" 
d="M300 122l-254 474h508z" />
    <glyph glyph-name="uni25C0" unicode="&#x25c0;" 
d="M537 614v-508l-474 254z" />
    <glyph glyph-name="lozenge" unicode="&#x25ca;" 
d="M540 334l-215 -377h-51l-214 377l214 378h51zM481 333l-161 283q-12 21 -20 45h-2q-6 -18 -20 -45l-160 -280l162 -285q14 -25 18 -44h4q7 25 18 44z" />
    <glyph glyph-name="circle" unicode="&#x25cb;" 
d="M71 252q0 94 67.5 161.5t161.5 67.5t161.5 -67.5t67.5 -161.5t-67.5 -161.5t-161.5 -67.5t-161.5 67.5t-67.5 161.5zM113 252q0 -77 55 -132t132 -55t132 55t55 132t-55 132t-132 55t-132 -55t-55 -132z" />
    <glyph glyph-name="invbullet" unicode="&#x25d8;" 
d="M0 -288v1080h600v-1080h-600zM177 252q0 -52 35.5 -87.5t87.5 -35.5q51 0 87 36t36 87q0 50 -36.5 86.5t-86.5 36.5t-86.5 -36.5t-36.5 -86.5z" />
    <glyph glyph-name="invcircle" unicode="&#x25d9;" 
d="M0 -288v1080h600v-1080h-600zM71 252q0 -94 67.5 -161.5t161.5 -67.5t161.5 67.5t67.5 161.5t-67.5 161.5t-161.5 67.5t-161.5 -67.5t-67.5 -161.5zM113 252q0 77 55 132t132 55t132 -55t55 -132t-55 -132t-132 -55t-132 55t-55 132z" />
    <glyph glyph-name="smileface" unicode="&#x263a;" 
d="M10 330q0 122 84 206t206 84t206 -84t84 -206t-84 -206t-206 -84t-206 84t-84 206zM300 605q-115 0 -194.5 -79.5t-79.5 -195.5t79.5 -195.5t194.5 -79.5t194.5 79.5t79.5 195.5t-79.5 195.5t-194.5 79.5zM132 429q0 21 14.5 35.5t35.5 14.5t35.5 -14.5t14.5 -35.5
t-14.5 -35.5t-35.5 -14.5t-35.5 14.5t-14.5 35.5zM368 429q0 21 14.5 35.5t35.5 14.5t35.5 -14.5t14.5 -35.5t-14.5 -35.5t-35.5 -14.5t-35.5 14.5t-14.5 35.5zM300 110q-89 0 -140 62q-26 31 -16 60q5 17 15 7q1 -2 3 -5q50 -90 138 -90t138 90q9 16 17 2q11 -21 -7 -52
q-3 -6 -8 -12q-51 -62 -140 -62z" />
    <glyph glyph-name="invsmileface" unicode="&#x263b;" 
d="M10 330q0 122 84 206t206 84t206 -84t84 -206t-84 -206t-206 -84t-206 84t-84 206zM132 429q0 -21 14.5 -35.5t35.5 -14.5t35.5 14.5t14.5 35.5t-14.5 35.5t-35.5 14.5t-35.5 -14.5t-14.5 -35.5zM368 429q0 -21 14.5 -35.5t35.5 -14.5t35.5 14.5t14.5 35.5t-14.5 35.5
t-35.5 14.5t-35.5 -14.5t-14.5 -35.5zM300 110q89 0 140 62q26 31 16 60q-5 17 -15 7q-1 -2 -3 -5q-50 -90 -138 -90t-138 90q-9 16 -17 2q-11 -21 7 -52q3 -6 8 -12q51 -62 140 -62z" />
    <glyph glyph-name="sun" unicode="&#x263c;" 
d="M518 513l-88 -88q29 -32 36 -90h124v-32h-125q-7 -52 -38 -84l88 -88l-23 -23l-87 87q-36 -34 -89 -42v-123h-32v123q-58 8 -89 37l-87 -87l-22 23l87 87q-34 37 -39 90h-124v32h124q-1 57 35 96l-87 87l22 24l88 -88q35 27 92 31v125h32v-125q48 -2 91 -37l88 87z
M166 319q0 -58 36 -96t95 -38q61 0 99 38.5t38 95.5q-2 58 -39 96t-97 38q-60 -1 -96 -39t-36 -95z" />
    <glyph glyph-name="female" unicode="&#x2640;" 
d="M318 0h-36v171h-126v36h126v109q-65 11 -104.5 57t-39.5 107q0 67 47.5 113.5t114.5 46.5q68 0 115 -46.5t47 -113.5q0 -61 -39 -107t-105 -57v-109h126v-36h-126v-171zM170 478q0 -55 37.5 -92.5t91.5 -37.5q55 0 93 37.5t38 92.5t-38 92.5t-93 37.5q-54 0 -91.5 -37.5
t-37.5 -92.5z" />
    <glyph glyph-name="male" unicode="&#x2642;" 
d="M305 140q38 39 38 92t-38 91q-39 40 -92.5 40t-91.5 -39q-39 -39 -39 -92t40 -92q38 -38 91 -38t92 38zM315 359l170 171l-104 38v2h170v-170h-2l-39 104l-170 -170q38 -55 33.5 -115t-47.5 -103q-47 -47 -114 -46t-114 48q-48 48 -48 114t47 113q43 44 102.5 48.5
t115.5 -34.5z" />
    <glyph glyph-name="spade" unicode="&#x2660;" 
d="M542 0h-484l4 22q229 7 229 247h-2q-22 -50 -62 -80t-93 -30t-92 37.5t-39 90.5q0 74 82 150l51 45q69 59 108 109.5t55 120.5h2q16 -70 55 -120.5t108 -109.5q71 -61 93 -89q40 -52 40 -106q0 -53 -39 -90.5t-92 -37.5t-93 30t-62 80h-2q0 -240 229 -247z" />
    <glyph glyph-name="uni2662" unicode="&#x2662;" 
d="M300 712q108 -166 297 -362q-189 -196 -297 -362q-108 166 -297 362q189 196 297 362zM300 11q94 147 277 339q-183 192 -277 339q-94 -147 -277 -339q183 -192 277 -339z" />
    <glyph glyph-name="club" unicode="&#x2663;" 
d="M503 0h-406l6 21q46 11 77 26t59 44.5t42 80t14 124.5h-2q-18 -54 -60 -96t-93 -42q-62 0 -99.5 49t-37.5 113q0 55 30.5 107.5t78.5 52.5q38 0 86 -30q-32 62 -32 106q0 59 36.5 107.5t97.5 48.5t97.5 -48.5t36.5 -107.5q0 -44 -32 -106q48 30 86 30q48 0 78.5 -52.5
t30.5 -107.5q0 -64 -37.5 -113t-99.5 -49q-51 0 -93 42t-60 96h-2q0 -74 14 -124.5t42 -80t59 -44.5t77 -26z" />
    <glyph glyph-name="heart" unicode="&#x2665;" 
d="M301 -12h-2q-14 56 -45.5 118t-59 101l-75.5 103q-35 47 -55.5 79t-40.5 81.5t-20 92.5q0 63 40.5 106t103.5 43q56 0 98 -43.5t54 -101.5h2q12 58 54 101.5t98 43.5q63 0 103.5 -43t40.5 -106q0 -43 -20 -92.5t-40.5 -81.5t-55.5 -79l-75.5 -103t-59 -101t-45.5 -118z
" />
    <glyph glyph-name="diamond" unicode="&#x2666;" 
d="M300 712q108 -166 297 -362q-189 -196 -297 -362q-108 166 -297 362q189 196 297 362z" />
    <glyph glyph-name="musicalnote" unicode="&#x266a;" 
d="M286 181v531h44v-63l23 -29l39 -46q51 -61 76.5 -118.5t25.5 -127.5q0 -98 -59 -166h-29q43 73 43 154q0 61 -31.5 116.5t-87.5 64.5v-314q0 -84 -43 -128.5t-112 -44.5q-32 0 -50.5 16.5t-18.5 47.5q0 47 38.5 82.5t85.5 35.5q31 0 56 -11z" />
    <glyph glyph-name="uni266C" unicode="&#x266c;" 
d="M545 202v280l-309 -93v-241q0 -87 -43 -131t-113 -44q-31 0 -50 16.5t-19 46.5q0 48 38.5 83t86.5 35q31 0 56 -11v469l397 112v-517q0 -87 -43 -131t-113 -44q-31 0 -50 16.5t-19 46.5q0 48 38.5 83t86.5 35q31 0 56 -11zM236 468l309 94v72l-309 -94v-72z" />
    <glyph glyph-name="uni0044_uni004D" unicode="&#xe007;" 
d="M375 667l68 -273h2l68 273h79v-667h-60v536h-2l-85 -325h-2l-85 325h-2v-536h-60v667h79zM46 607h-39v60h126q38 0 64.5 -14t47 -49.5t30.5 -102.5t10 -168q0 -46 -1 -77t-5.5 -74t-14.5 -71.5t-26 -56t-42.5 -41t-61.5 -13.5h-127v60h39v547zM106 607v-547h27q21 0 35 8
t28.5 33.5t21.5 83.5t7 148q0 73 -5.5 126t-13.5 80.5t-19.5 43.5t-21 20t-21.5 4h-38z" />
    <glyph glyph-name="zero.slash" unicode="&#xf638;" 
d="M411 478l-202 -371q12 -25 37.5 -39t54.5 -14q30 0 48 7.5t35.5 34t25 85t7.5 152.5q0 25 -5 145h-1zM192 193l199 369q-12 24 -37 37.5t-53 13.5q-30 0 -47.5 -7t-35 -32.5t-25.5 -81.5t-8 -146q0 -26 5 -151v-2h2zM300 676q34 0 62 -9t47 -26.5t33 -36.5t22.5 -47
t13.5 -49.5t6.5 -53t2 -47.5t0 -43t-0.5 -31v-24q-1 -25 0 -54t-3 -59.5t-10 -60t-20 -55.5t-33 -46t-50 -31.5t-70 -11.5t-70 11t-50 30.5t-33 45t-20 54.5t-10 59.5t-3 60t0 55.5v26q0 145 12 198q27 129 141 143q16 2 33 2z" />
    <glyph glyph-name="Lslash.sc" unicode="&#xf6f9;" 
d="M237 521v-183l87 33v-67l-87 -33v-211h273v-60h-340v246l-87 -33v67l87 33v208h67z" />
    <glyph glyph-name="OE.sc" unicode="&#xf6fa;" 
d="M303 521h238v-60h-178v-156h146v-60h-146v-185h178v-60h-238q-9 -4 -25 -7q-18 -2 -27 -2q-54 0 -93 24t-59.5 65t-29.5 85t-9 95q0 75 17 130t45 84t58.5 42.5t64.5 13.5q35 0 58 -9zM296 68v385q-23 14 -51 14q-36 0 -60.5 -20.5t-35.5 -55t-15 -65.5t-4 -66
q0 -34 4 -65t15 -65.5t35.5 -55t60.5 -20.5q28 0 51 14z" />
    <glyph glyph-name="Scaron.sc" unicode="&#xf6fd;" 
d="M131 146l60 19q23 -111 114 -111q43 0 70.5 23t27.5 65q0 9 -2 17.5t-4 15.5t-7 13.5t-9 10.5t-12 9.5t-12 8t-14 7.5t-14 6.5t-15.5 6.5t-15.5 6l-24.5 10t-25.5 11l-22 10.5t-21.5 12.5t-17 13.5t-16 17l-11 20.5t-8.5 25.5t-2 29.5q0 64 44.5 100.5t108.5 36.5
q125 0 159 -131l-64 -19q-20 87 -96 87q-35 0 -60 -18t-25 -51q0 -18 4.5 -30.5t16 -22t21 -14.5t28.5 -14l111 -49q72 -40 72 -122q0 -73 -45.5 -114t-119.5 -41q-71 0 -116.5 42t-57.5 113zM173 687l127 -62l128 62l23 -36l-151 -102l-151 102z" />
    <glyph glyph-name="Zcaron.sc" unicode="&#xf6ff;" 
d="M104 0l273 461h-244v60h355l-271 -461h279v-60h-392zM173 687l127 -62l128 62l23 -36l-151 -102l-151 102z" />
    <glyph glyph-name="A.sc" unicode="&#xf761;" 
d="M393 142h-185l-49 -155l-66 24l164 510h86l164 -510l-66 -24zM374 202l-74 241l-74 -241h148z" />
    <glyph glyph-name="B.sc" unicode="&#xf762;" 
d="M243 60h78q52 0 83 17.5t31 66.5q0 41 -26 67.5t-72 26.5h-94v-178zM243 298h75q42 0 64.5 23.5t22.5 60.5q0 79 -91 79h-71v-163zM334 0h-212v60h54v401h-54v60h164q189 0 189 -139q0 -75 -59 -107q42 -13 65.5 -47t23.5 -79q0 -71 -44.5 -110t-126.5 -39z" />
    <glyph glyph-name="C.sc" unicode="&#xf763;" 
d="M432 138l55 -38q-69 -109 -173 -109q-55 0 -95 23.5t-62 63.5t-32.5 85t-10.5 97q0 74 18 129t48 84.5t62 43t66 13.5q58 0 96.5 -28t68.5 -83l-61 -31q-41 79 -103 79q-37 0 -63 -20t-38.5 -53.5t-18 -66t-5.5 -66.5q0 -35 5 -67t17.5 -66t38.5 -54t64 -20q42 0 68.5 21
t54.5 63z" />
    <glyph glyph-name="D.sc" unicode="&#xf764;" 
d="M119 461v60h174q114 0 164.5 -56.5t50.5 -197.5q0 -53 -4.5 -90.5t-17.5 -73t-36.5 -57t-62.5 -34t-94 -12.5h-174v60h54v401h-54zM240 461v-401h71q67 0 97 45t30 155q0 114 -31.5 157.5t-97.5 43.5h-69z" />
    <glyph glyph-name="E.sc" unicode="&#xf765;" 
d="M157 0v521h325v-60h-258v-156h213v-60h-213v-185h258v-60h-325z" />
    <glyph glyph-name="F.sc" unicode="&#xf766;" 
d="M176 0v521h328v-60h-261v-156h219v-60h-219v-245h-67z" />
    <glyph glyph-name="G.sc" unicode="&#xf767;" 
d="M476 278v-230q-32 -26 -76 -41.5t-84 -15.5q-55 0 -95 23.5t-61.5 64t-31 85.5t-9.5 97q0 51 10 96t31.5 85t61 64t92.5 24q51 0 95 -27t72 -73l-57 -37q-44 74 -114 74q-36 0 -62 -20.5t-37.5 -54.5t-16.5 -66t-5 -67t5 -67t17 -65t38 -53t63 -20q54 0 97 27v137h-125
v60h192z" />
    <glyph glyph-name="H.sc" unicode="&#xf768;" 
d="M130 0v521h67v-216h206v216h67v-521h-67v245h-206v-245h-67z" />
    <glyph glyph-name="I.sc" unicode="&#xf769;" 
d="M193 0v60h73v401h-73v60h214v-60h-74v-401h74v-60h-214z" />
    <glyph glyph-name="J.sc" unicode="&#xf76a;" 
d="M109 194h67q-3 -76 19.5 -108t74.5 -32q50 0 75.5 27.5t25.5 76.5v363h67v-376q0 -62 -43.5 -108t-124.5 -46q-84 0 -122.5 49t-38.5 154z" />
    <glyph glyph-name="K.sc" unicode="&#xf76b;" 
d="M229 521v-222h25l179 235l51 -40l-173 -219l203 -245l-51 -43l-211 257h-23v-244h-67v521h67z" />
    <glyph glyph-name="L.sc" unicode="&#xf76c;" 
d="M170 0v521h67v-461h273v-60h-340z" />
    <glyph glyph-name="M.sc" unicode="&#xf76d;" 
d="M300 147l-117 275h-2l-13 -422h-71l21 521h88l94 -226l94 226h88l21 -521h-71l-13 422h-2z" />
    <glyph glyph-name="N.sc" unicode="&#xf76e;" 
d="M126 0v521h83l202 -439l2 2l-6 135v302h67v-521h-83l-202 439l-2 -2l6 -136v-301h-67z" />
    <glyph glyph-name="O.sc" unicode="&#xf76f;" 
d="M300 530q34 0 64.5 -13.5t58.5 -42.5t45 -84t17 -130q0 -15 -0.5 -28.5t-4.5 -42.5t-10.5 -53t-20.5 -52t-32.5 -47.5t-49 -32.5t-67.5 -13q-27 0 -51.5 7.5t-49.5 27t-43 49t-29.5 77.5t-11.5 108q0 74 16.5 129t44 84.5t58.5 43t66 13.5zM300 467q-36 0 -60.5 -20.5
t-35.5 -55t-15 -65.5t-4 -66q0 -34 4 -65t15 -65.5t35.5 -55t60.5 -20.5t60.5 20.5t35.5 55t15 65.5t4 65q0 35 -4 66t-15 65.5t-35.5 55t-60.5 20.5z" />
    <glyph glyph-name="P.sc" unicode="&#xf770;" 
d="M229 224v-224h-67v521h162q85 0 126.5 -40t41.5 -102q0 -77 -45 -116t-106 -39h-112zM229 284h92q101 0 101 90q0 87 -101 87h-92v-177z" />
    <glyph glyph-name="Q.sc" unicode="&#xf771;" 
d="M441 70l59 -54l-42 -45l-58 53q-44 -33 -100 -33q-34 0 -64.5 13.5t-58.5 42t-45 83.5t-17 130q0 139 53 204.5t132 65.5q34 0 64.5 -13.5t58.5 -42.5t45 -84t17 -130q0 -125 -44 -190zM352 68l-87 79l41 46l84 -77q25 59 25 144q0 35 -4 66t-15 65.5t-35.5 55
t-60.5 20.5t-60.5 -20.5t-35.5 -55t-15 -65.5t-4 -66q0 -34 4 -65t15 -65.5t35.5 -55t60.5 -20.5q27 0 52 14z" />
    <glyph glyph-name="R.sc" unicode="&#xf772;" 
d="M216 283h88q49 0 78.5 26t29.5 70q0 37 -22.5 59.5t-65.5 22.5h-108v-178zM149 0v521h177q70 0 113 -35t43 -107q0 -49 -29.5 -90.5t-76.5 -55.5l128 -211l-58 -35l-133 236h-97v-223h-67z" />
    <glyph glyph-name="S.sc" unicode="&#xf773;" 
d="M131 146l60 19q23 -111 114 -111q43 0 70.5 23t27.5 65q0 9 -2 17.5t-4 15.5t-7 13.5t-9 10.5t-12 9.5t-12 8t-14 7.5t-14 6.5t-15.5 6.5t-15.5 6l-24.5 10t-25.5 11l-22 10.5t-21.5 12.5t-17 13.5t-16 17l-11 20.5t-8.5 25.5t-2 29.5q0 64 44.5 100.5t108.5 36.5
q125 0 159 -131l-64 -19q-20 87 -96 87q-35 0 -60 -18t-25 -51q0 -18 4.5 -30.5t16 -22t21 -14.5t28.5 -14l111 -49q72 -40 72 -122q0 -73 -45.5 -114t-119.5 -41q-71 0 -116.5 42t-57.5 113z" />
    <glyph glyph-name="T.sc" unicode="&#xf774;" 
d="M268 0v461h-144v60h352v-60h-141v-461h-67z" />
    <glyph glyph-name="U.sc" unicode="&#xf775;" 
d="M137 521h67v-355q0 -59 20.5 -85.5t70.5 -26.5q60 0 81 26t21 86v355h67v-387q0 -58 -42 -100.5t-122 -42.5t-121.5 42.5t-41.5 104.5v383z" />
    <glyph glyph-name="V.sc" unicode="&#xf776;" 
d="M300 152l142 382l64 -24l-200 -523h-12l-200 523l64 24z" />
    <glyph glyph-name="W.sc" unicode="&#xf777;" 
d="M93 526l69 8l40 -366h2l87 256h18l87 -256h2l41 366l68 -8l-75 -539h-23l-109 321l-109 -321h-23z" />
    <glyph glyph-name="X.sc" unicode="&#xf778;" 
d="M300 217l-139 -230l-60 34l161 255l-147 223l61 35l124 -198l124 198l61 -35l-147 -223l161 -255l-60 -34z" />
    <glyph glyph-name="Y.sc" unicode="&#xf779;" 
d="M300 266l139 268l63 -33l-169 -300v-201h-67v201l-168 300l63 33z" />
    <glyph glyph-name="Z.sc" unicode="&#xf77a;" 
d="M104 0l273 461h-244v60h355l-271 -461h279v-60h-392z" />
    <glyph glyph-name="Agrave.sc" unicode="&#xf7e0;" 
d="M393 142h-185l-49 -155l-66 24l164 510h86l164 -510l-66 -24zM374 202l-74 241l-74 -241h148zM236 695l177 -101l-26 -44l-187 82z" />
    <glyph glyph-name="Aacute.sc" unicode="&#xf7e1;" 
d="M393 142h-185l-49 -155l-66 24l164 510h86l164 -510l-66 -24zM374 202l-74 241l-74 -241h148zM377 695l36 -63l-187 -82l-26 44z" />
    <glyph glyph-name="Acircumflex.sc" unicode="&#xf7e2;" 
d="M393 142h-185l-49 -155l-66 24l164 510h86l164 -510l-66 -24zM374 202l-74 241l-74 -241h148zM300 613l-127 -62l-24 36l151 102l151 -102l-23 -36z" />
    <glyph glyph-name="Atilde.sc" unicode="&#xf7e3;" 
d="M393 142h-185l-49 -155l-66 24l164 510h86l164 -510l-66 -24zM374 202l-74 241l-74 -241h148zM403 680l51 -16q-6 -23 -11.5 -37t-16 -32t-26 -27t-36.5 -9q-32 0 -72 31q-32 26 -49 26q-9 0 -15.5 -4t-12 -12t-8 -14l-7 -17.5t-5.5 -14.5l-49 19q12 31 20.5 49t29 36
t47.5 18q26 0 66 -30q36 -28 52 -28q6 0 11 2t8.5 7l6.5 9t6 11.5t4 11.5l3 11.5t3 9.5z" />
    <glyph glyph-name="Adieresis.sc" unicode="&#xf7e4;" 
d="M393 142h-185l-49 -155l-66 24l164 510h86l164 -510l-66 -24zM374 202l-74 241l-74 -241h148zM208 680q23 0 35.5 -19.5t12.5 -43.5t-12.5 -43.5t-35.5 -19.5t-35.5 19.5t-12.5 43.5t12.5 43.5t35.5 19.5zM392 680q23 0 35.5 -19.5t12.5 -43.5t-12.5 -43.5t-35.5 -19.5
t-35.5 19.5t-12.5 43.5t12.5 43.5t35.5 19.5z" />
    <glyph glyph-name="Aring.sc" unicode="&#xf7e5;" 
d="M300 681q36 0 61.5 -25.5t25.5 -60.5q0 -51 -44 -76l164 -508l-66 -24l-48 155h-185l-49 -155l-66 24l163 508q-43 25 -43 76q0 35 25.5 60.5t61.5 25.5zM374 202l-74 241l-74 -241h148zM300 641q-19 0 -33 -13.5t-14 -32.5t13.5 -33t33.5 -14t33.5 14t13.5 33t-14 32.5
t-33 13.5z" />
    <glyph glyph-name="AE.sc" unicode="&#xf7e6;" 
d="M291 202v259h-42l-76 -259h118zM291 0v142h-137l-48 -155l-66 24l164 510h332v-60h-178v-156h145v-60h-145v-185h178v-60h-245z" />
    <glyph glyph-name="Ccedilla.sc" unicode="&#xf7e7;" 
d="M432 138l55 -38q-63 -98 -148 -107l-11 -35q34 -2 57 -20t23 -51q0 -34 -29 -55.5t-64 -21.5q-38 0 -102 29l20 51q42 -20 74 -20q31 0 31 20q0 9 -6.5 15.5t-18.5 9.5t-21 4.5t-23 2t-16 0.5l26 72q-45 7 -78 32.5t-51.5 63.5t-27 80.5t-8.5 89.5q0 74 18 129t48 84.5
t62 43t66 13.5q58 0 96.5 -28t68.5 -83l-61 -31q-41 79 -103 79q-37 0 -63 -20t-38.5 -53.5t-18 -66t-5.5 -66.5q0 -35 5 -67t17.5 -66t38.5 -54t64 -20q42 0 68.5 21t54.5 63z" />
    <glyph glyph-name="Egrave.sc" unicode="&#xf7e8;" 
d="M157 0v521h325v-60h-258v-156h213v-60h-213v-185h258v-60h-325zM236 695l177 -101l-26 -44l-187 82z" />
    <glyph glyph-name="Eacute.sc" unicode="&#xf7e9;" 
d="M157 0v521h325v-60h-258v-156h213v-60h-213v-185h258v-60h-325zM377 695l36 -63l-187 -82l-26 44z" />
    <glyph glyph-name="Ecircumflex.sc" unicode="&#xf7ea;" 
d="M157 0v521h325v-60h-258v-156h213v-60h-213v-185h258v-60h-325zM300 613l-127 -62l-24 36l151 102l151 -102l-23 -36z" />
    <glyph glyph-name="Edieresis.sc" unicode="&#xf7eb;" 
d="M157 0v521h325v-60h-258v-156h213v-60h-213v-185h258v-60h-325zM208 680q23 0 35.5 -19.5t12.5 -43.5t-12.5 -43.5t-35.5 -19.5t-35.5 19.5t-12.5 43.5t12.5 43.5t35.5 19.5zM392 680q23 0 35.5 -19.5t12.5 -43.5t-12.5 -43.5t-35.5 -19.5t-35.5 19.5t-12.5 43.5
t12.5 43.5t35.5 19.5z" />
    <glyph glyph-name="Igrave.sc" unicode="&#xf7ec;" 
d="M193 0v60h73v401h-73v60h214v-60h-74v-401h74v-60h-214zM236 695l177 -101l-26 -44l-187 82z" />
    <glyph glyph-name="Iacute.sc" unicode="&#xf7ed;" 
d="M193 0v60h73v401h-73v60h214v-60h-74v-401h74v-60h-214zM377 695l36 -63l-187 -82l-26 44z" />
    <glyph glyph-name="Icircumflex.sc" unicode="&#xf7ee;" 
d="M193 0v60h73v401h-73v60h214v-60h-74v-401h74v-60h-214zM300 613l-127 -62l-24 36l151 102l151 -102l-23 -36z" />
    <glyph glyph-name="Idieresis.sc" unicode="&#xf7ef;" 
d="M193 0v60h73v401h-73v60h214v-60h-74v-401h74v-60h-214zM208 680q23 0 35.5 -19.5t12.5 -43.5t-12.5 -43.5t-35.5 -19.5t-35.5 19.5t-12.5 43.5t12.5 43.5t35.5 19.5zM392 680q23 0 35.5 -19.5t12.5 -43.5t-12.5 -43.5t-35.5 -19.5t-35.5 19.5t-12.5 43.5t12.5 43.5
t35.5 19.5z" />
    <glyph glyph-name="Eth.sc" unicode="&#xf7f0;" 
d="M173 290v171h-54v60h174q114 0 164.5 -56.5t50.5 -197.5q0 -53 -4.5 -90.5t-17.5 -73t-36.5 -57t-62.5 -34t-94 -12.5h-174v60h54v170h-54v60h54zM240 290h79v-60h-79v-170h71q67 0 97 45t30 155q0 114 -31.5 157.5t-97.5 43.5h-69v-171z" />
    <glyph glyph-name="Ntilde.sc" unicode="&#xf7f1;" 
d="M126 0v521h83l202 -439l2 2l-6 135v302h67v-521h-83l-202 439l-2 -2l6 -136v-301h-67zM403 680l51 -16q-6 -23 -11.5 -37t-16 -32t-26 -27t-36.5 -9q-32 0 -72 31q-32 26 -49 26q-9 0 -15.5 -4t-12 -12t-8 -14l-7 -17.5t-5.5 -14.5l-49 19q12 31 20.5 49t29 36t47.5 18
q26 0 66 -30q36 -28 52 -28q6 0 11 2t8.5 7l6.5 9t6 11.5t4 11.5l3 11.5t3 9.5z" />
    <glyph glyph-name="Ograve.sc" unicode="&#xf7f2;" 
d="M300 530q34 0 64.5 -13.5t58.5 -42.5t45 -84t17 -130q0 -15 -0.5 -28.5t-4.5 -42.5t-10.5 -53t-20.5 -52t-32.5 -47.5t-49 -32.5t-67.5 -13q-27 0 -51.5 7.5t-49.5 27t-43 49t-29.5 77.5t-11.5 108q0 74 16.5 129t44 84.5t58.5 43t66 13.5zM300 467q-36 0 -60.5 -20.5
t-35.5 -55t-15 -65.5t-4 -66q0 -34 4 -65t15 -65.5t35.5 -55t60.5 -20.5t60.5 20.5t35.5 55t15 65.5t4 65q0 35 -4 66t-15 65.5t-35.5 55t-60.5 20.5zM236 695l177 -101l-26 -44l-187 82z" />
    <glyph glyph-name="Oacute.sc" unicode="&#xf7f3;" 
d="M300 530q34 0 64.5 -13.5t58.5 -42.5t45 -84t17 -130q0 -15 -0.5 -28.5t-4.5 -42.5t-10.5 -53t-20.5 -52t-32.5 -47.5t-49 -32.5t-67.5 -13q-27 0 -51.5 7.5t-49.5 27t-43 49t-29.5 77.5t-11.5 108q0 74 16.5 129t44 84.5t58.5 43t66 13.5zM300 467q-36 0 -60.5 -20.5
t-35.5 -55t-15 -65.5t-4 -66q0 -34 4 -65t15 -65.5t35.5 -55t60.5 -20.5t60.5 20.5t35.5 55t15 65.5t4 65q0 35 -4 66t-15 65.5t-35.5 55t-60.5 20.5zM377 695l36 -63l-187 -82l-26 44z" />
    <glyph glyph-name="Ocircumflex.sc" unicode="&#xf7f4;" 
d="M300 530q34 0 64.5 -13.5t58.5 -42.5t45 -84t17 -130q0 -15 -0.5 -28.5t-4.5 -42.5t-10.5 -53t-20.5 -52t-32.5 -47.5t-49 -32.5t-67.5 -13q-27 0 -51.5 7.5t-49.5 27t-43 49t-29.5 77.5t-11.5 108q0 74 16.5 129t44 84.5t58.5 43t66 13.5zM300 467q-36 0 -60.5 -20.5
t-35.5 -55t-15 -65.5t-4 -66q0 -34 4 -65t15 -65.5t35.5 -55t60.5 -20.5t60.5 20.5t35.5 55t15 65.5t4 65q0 35 -4 66t-15 65.5t-35.5 55t-60.5 20.5zM300 613l-127 -62l-24 36l151 102l151 -102l-23 -36z" />
    <glyph glyph-name="Otilde.sc" unicode="&#xf7f5;" 
d="M300 530q34 0 64.5 -13.5t58.5 -42.5t45 -84t17 -130q0 -15 -0.5 -28.5t-4.5 -42.5t-10.5 -53t-20.5 -52t-32.5 -47.5t-49 -32.5t-67.5 -13q-27 0 -51.5 7.5t-49.5 27t-43 49t-29.5 77.5t-11.5 108q0 74 16.5 129t44 84.5t58.5 43t66 13.5zM300 467q-36 0 -60.5 -20.5
t-35.5 -55t-15 -65.5t-4 -66q0 -34 4 -65t15 -65.5t35.5 -55t60.5 -20.5t60.5 20.5t35.5 55t15 65.5t4 65q0 35 -4 66t-15 65.5t-35.5 55t-60.5 20.5zM403 680l51 -16q-6 -23 -11.5 -37t-16 -32t-26 -27t-36.5 -9q-32 0 -72 31q-32 26 -49 26q-9 0 -15.5 -4t-12 -12t-8 -14
l-7 -17.5t-5.5 -14.5l-49 19q12 31 20.5 49t29 36t47.5 18q26 0 66 -30q36 -28 52 -28q6 0 11 2t8.5 7l6.5 9t6 11.5t4 11.5l3 11.5t3 9.5z" />
    <glyph glyph-name="Odieresis.sc" unicode="&#xf7f6;" 
d="M300 530q34 0 64.5 -13.5t58.5 -42.5t45 -84t17 -130q0 -15 -0.5 -28.5t-4.5 -42.5t-10.5 -53t-20.5 -52t-32.5 -47.5t-49 -32.5t-67.5 -13q-27 0 -51.5 7.5t-49.5 27t-43 49t-29.5 77.5t-11.5 108q0 74 16.5 129t44 84.5t58.5 43t66 13.5zM300 467q-36 0 -60.5 -20.5
t-35.5 -55t-15 -65.5t-4 -66q0 -34 4 -65t15 -65.5t35.5 -55t60.5 -20.5t60.5 20.5t35.5 55t15 65.5t4 65q0 35 -4 66t-15 65.5t-35.5 55t-60.5 20.5zM208 680q23 0 35.5 -19.5t12.5 -43.5t-12.5 -43.5t-35.5 -19.5t-35.5 19.5t-12.5 43.5t12.5 43.5t35.5 19.5zM392 680
q23 0 35.5 -19.5t12.5 -43.5t-12.5 -43.5t-35.5 -19.5t-35.5 19.5t-12.5 43.5t12.5 43.5t35.5 19.5z" />
    <glyph glyph-name="Oslash.sc" unicode="&#xf7f8;" 
d="M200 141l165 301q-25 25 -65 25q-36 0 -60.5 -20.5t-35.5 -55t-15 -65.5t-4 -66q0 -67 15 -119zM399 383l-166 -303q29 -26 67 -26q36 0 60.5 20.5t35.5 55t15 65.5t4 65q0 71 -16 123zM396 500l21 38l50 -28l-29 -55q47 -71 47 -195q0 -138 -53 -203.5t-132 -65.5
q-57 0 -98 32l-21 -39l-51 27l31 57q-46 67 -46 192q0 139 53 204.5t132 65.5q55 0 96 -30z" />
    <glyph glyph-name="Ugrave.sc" unicode="&#xf7f9;" 
d="M137 521h67v-355q0 -59 20.5 -85.5t70.5 -26.5q60 0 81 26t21 86v355h67v-387q0 -58 -42 -100.5t-122 -42.5t-121.5 42.5t-41.5 104.5v383zM236 695l177 -101l-26 -44l-187 82z" />
    <glyph glyph-name="Uacute.sc" unicode="&#xf7fa;" 
d="M137 521h67v-355q0 -59 20.5 -85.5t70.5 -26.5q60 0 81 26t21 86v355h67v-387q0 -58 -42 -100.5t-122 -42.5t-121.5 42.5t-41.5 104.5v383zM377 695l36 -63l-187 -82l-26 44z" />
    <glyph glyph-name="Ucircumflex.sc" unicode="&#xf7fb;" 
d="M137 521h67v-355q0 -59 20.5 -85.5t70.5 -26.5q60 0 81 26t21 86v355h67v-387q0 -58 -42 -100.5t-122 -42.5t-121.5 42.5t-41.5 104.5v383zM300 613l-127 -62l-24 36l151 102l151 -102l-23 -36z" />
    <glyph glyph-name="Udieresis.sc" unicode="&#xf7fc;" 
d="M137 521h67v-355q0 -59 20.5 -85.5t70.5 -26.5q60 0 81 26t21 86v355h67v-387q0 -58 -42 -100.5t-122 -42.5t-121.5 42.5t-41.5 104.5v383zM208 680q23 0 35.5 -19.5t12.5 -43.5t-12.5 -43.5t-35.5 -19.5t-35.5 19.5t-12.5 43.5t12.5 43.5t35.5 19.5zM392 680
q23 0 35.5 -19.5t12.5 -43.5t-12.5 -43.5t-35.5 -19.5t-35.5 19.5t-12.5 43.5t12.5 43.5t35.5 19.5z" />
    <glyph glyph-name="Yacute.sc" unicode="&#xf7fd;" 
d="M300 266l139 268l63 -33l-169 -300v-201h-67v201l-168 300l63 33zM377 695l36 -63l-187 -82l-26 44z" />
    <glyph glyph-name="Thorn.sc" unicode="&#xf7fe;" 
d="M229 112v-112h-67v521h67v-112h95q85 0 126.5 -40t41.5 -102q0 -77 -45 -116t-106 -39h-112zM229 172h92q101 0 101 90q0 87 -101 87h-92v-177z" />
    <glyph glyph-name="Ydieresis.sc" unicode="&#xf7ff;" 
d="M300 266l139 268l63 -33l-169 -300v-201h-67v201l-168 300l63 33zM208 680q23 0 35.5 -19.5t12.5 -43.5t-12.5 -43.5t-35.5 -19.5t-35.5 19.5t-12.5 43.5t12.5 43.5t35.5 19.5zM392 680q23 0 35.5 -19.5t12.5 -43.5t-12.5 -43.5t-35.5 -19.5t-35.5 19.5t-12.5 43.5
t12.5 43.5t35.5 19.5z" />
    <glyph glyph-name="fi" unicode="&#xfb01;" 
d="M540 521v-60h-73v-401h73v-60h-213v60h73v401h-243v-156h152v-60h-152v-245h-67v521h450z" />
    <glyph glyph-name="fl" unicode="&#xfb02;" 
d="M430 521v-461h160v-60h-227v461h-220v-156h152v-60h-152v-245h-67v521h354z" />
    <glyph glyph-name="f_i" 
d="M540 521v-60h-73v-401h73v-60h-213v60h73v401h-243v-156h152v-60h-152v-245h-67v521h450z" />
    <glyph glyph-name="f_l" 
d="M430 521v-461h160v-60h-227v461h-220v-156h152v-60h-152v-245h-67v521h354z" />
    <glyph glyph-name="a.superior" 
d="M351 428h-102l-32 -90l-63 20l111 309h70l111 -309l-63 -20zM333 483l-33 97l-33 -97h66zM140 236v55h320v-55h-320z" />
    <glyph glyph-name="o.superior" 
d="M140 236v55h320v-55h-320zM300 676q66 0 98 -48t32 -117t-32 -116.5t-98 -47.5t-97.5 47.5t-31.5 116.5q0 70 31.5 117.5t97.5 47.5zM300 621q-62 0 -62 -110q0 -109 62 -109q63 0 63 109q0 110 -63 110z" />
    <glyph glyph-name="one.superior" 
d="M281 382v227l-62 -21l-18 45l140 47v-298h58v-50h-192v50h74z" />
    <glyph glyph-name="two.superior" 
d="M189 332v42l132 152q1 2 8.5 10t9.5 11t6 10t5.5 13t1.5 13q0 20 -13 31.5t-33 11.5q-54 0 -61 -65l-57 7q6 51 36 79.5t81 28.5q45 0 76 -24t31 -67q0 -39 -45 -90l-100 -113h144v-50h-222z" />
    <glyph glyph-name="three.superior" 
d="M408 676v-42l-86 -79q38 -4 65 -28t27 -61q0 -19 -9 -40.5t-30.5 -45.5t-69 -38t-113.5 -10v50q162 -2 162 83q0 46 -70 46q-17 0 -53 -6v39l92 82h-136v50h221z" />
    <glyph glyph-name="Hbar.sc" 
d="M403 382h-206v-77h206v77zM403 245h-206v-245h-67v382h-70v60h70v79h67v-79h206v79h67v-79h70v-60h-70v-382h-67v245z" />
    <glyph glyph-name="Tbar.sc" 
d="M476 461h-141v-147h100v-60h-100v-254h-67v254h-100v60h100v147h-144v60h352v-60z" />
    <glyph glyph-name="Eng.sc" 
d="M193 521v-38q47 47 115 47q40 0 70.5 -12.5t48.5 -37.5t29.5 -51t16.5 -64.5t6.5 -66t1.5 -66.5q0 -127 -17 -182q-37 -119 -166 -118v60q33 0 51.5 6.5t35 30.5t23 73t6.5 131q0 135 -29.5 186t-86.5 51q-40 0 -72.5 -25.5t-32.5 -64.5v-380h-67v521h67z" />
    <glyph glyph-name="Ldot.sc" 
d="M170 0v521h67v-461h273v-60h-340zM460 228v123h82v-123h-82z" />
    <glyph glyph-name="IJ.sc" 
d="M23 0v60h63v401h-63v60h194v-60h-64v-401h64v-60h-194zM239 242h67v-60q0 -128 81 -128t81 137v330h67v-335q0 -195 -146 -195q-150 0 -150 178v73z" />
    <glyph glyph-name="A.superior" 
d="M351 428h-102l-32 -90l-63 20l111 309h70l111 -309l-63 -20zM333 483l-33 97l-33 -97h66zM140 236v55h320v-55h-320z" />
    <glyph glyph-name="O.superior" 
d="M140 236v55h320v-55h-320zM300 676q66 0 98 -48t32 -117t-32 -116.5t-98 -47.5t-97.5 47.5t-31.5 116.5q0 70 31.5 117.5t97.5 47.5zM300 621q-62 0 -62 -110q0 -109 62 -109q63 0 63 109q0 110 -63 110z" />
  </font>
</defs>
</svg>
