<svg xmlns="http://www.w3.org/2000/svg" viewBox="0 0 498 498"><defs><style>.a{fill:#0071bc;}.b{fill:#fff;stroke:#27aae1;stroke-miterlimit:10;stroke-width:5px;}.c{fill:#003959;}</style></defs><title>frame</title><circle class="a" cx="249" cy="249" r="249"/><circle class="b" cx="249" cy="249" r="225"/><path d="M1608.48-873.4h-4.69v-25.66l-0.84.72q-0.45.38-.87,0.7l-6.15,4.39v-4.66l9.55-7.18h3v31.69Z" transform="translate(-1368 944.41)"/><path d="M1632.67-896.3a5.49,5.49,0,0,0-1.18-3.76,4.36,4.36,0,0,0-3.45-1.34,8.12,8.12,0,0,0-2.12.31,13.39,13.39,0,0,0-2.21.82,16.25,16.25,0,0,0-2.08,1.17,11.14,11.14,0,0,0-1.7,1.37v-4.42a10.5,10.5,0,0,1,1.66-1.25,13.15,13.15,0,0,1,2.06-1,15,15,0,0,1,2.36-.71,12.15,12.15,0,0,1,2.56-.27,11.56,11.56,0,0,1,3.83.6,8,8,0,0,1,2.89,1.72,7.7,7.7,0,0,1,1.83,2.7,9.22,9.22,0,0,1,.65,3.53,12.64,12.64,0,0,1-.5,3.67,14.27,14.27,0,0,1-1.39,3.15,24.14,24.14,0,0,1-2.1,3l-2.65,3.21-5.35,6.49h13v4H1620v-3.44l7.45-9.2,2.14-2.69a20.78,20.78,0,0,0,1.65-2.39,10.91,10.91,0,0,0,1-2.42A9.76,9.76,0,0,0,1632.67-896.3Z" transform="translate(-1368 944.41)"/><path d="M1715.24-855.65h-2.81V-871l-0.51.43-0.52.42-3.69,2.64v-2.8l5.73-4.31h1.8v19Z" transform="translate(-1368 944.41)"/><path d="M1786.84-799.13a3.3,3.3,0,0,0-.71-2.26,2.62,2.62,0,0,0-2.07-.81,4.87,4.87,0,0,0-1.27.18,8.05,8.05,0,0,0-1.33.49,9.64,9.64,0,0,0-1.24.7,6.61,6.61,0,0,0-1,.82v-2.65a6.31,6.31,0,0,1,1-.75,7.9,7.9,0,0,1,1.24-.62,9,9,0,0,1,1.41-.42,7.27,7.27,0,0,1,1.54-.16,6.93,6.93,0,0,1,2.3.36,4.79,4.79,0,0,1,1.74,1,4.63,4.63,0,0,1,1.1,1.62,5.52,5.52,0,0,1,.39,2.12,7.57,7.57,0,0,1-.3,2.2,8.61,8.61,0,0,1-.83,1.89,14.8,14.8,0,0,1-1.26,1.79l-1.59,1.93-3.21,3.9h7.82v2.37h-11.28v-2.07l4.47-5.52,1.28-1.61a12.45,12.45,0,0,0,1-1.44,6.53,6.53,0,0,0,.63-1.45A5.85,5.85,0,0,0,1786.84-799.13Z" transform="translate(-1368 944.41)"/><path d="M1823.63-691.57a9.3,9.3,0,0,1-.79,3.89,8.42,8.42,0,0,1-2.25,3,10.32,10.32,0,0,1-3.47,1.9,14,14,0,0,1-4.46.67,18.11,18.11,0,0,1-4.11-.45,11.89,11.89,0,0,1-3.48-1.38v-4.47a14.31,14.31,0,0,0,1.83,1.06,16.43,16.43,0,0,0,2,.81,14.91,14.91,0,0,0,1.92.51,9.17,9.17,0,0,0,1.75.18,6.32,6.32,0,0,0,4.63-1.48,5.43,5.43,0,0,0,1.48-4,4.51,4.51,0,0,0-.55-2.25,4.8,4.8,0,0,0-1.56-1.65,7.62,7.62,0,0,0-2.41-1,12.92,12.92,0,0,0-3.08-.34h-2.34v-4h1.49a11.18,11.18,0,0,0,3.27-.43,6.88,6.88,0,0,0,2.31-1.16,4.64,4.64,0,0,0,1.37-1.73,5.15,5.15,0,0,0,.45-2.15,5.36,5.36,0,0,0-.38-2.12,3.87,3.87,0,0,0-1-1.44,4.11,4.11,0,0,0-1.56-.82,7.23,7.23,0,0,0-2-.26,8.6,8.6,0,0,0-1.6.17,14.29,14.29,0,0,0-1.87.5,20.48,20.48,0,0,0-2,.78,13.36,13.36,0,0,0-1.87,1v-4.25a13.15,13.15,0,0,1,3.7-1.6,16.24,16.24,0,0,1,4.07-.5,12.84,12.84,0,0,1,4,.56,8.12,8.12,0,0,1,2.93,1.62,7.07,7.07,0,0,1,1.83,2.56,8.68,8.68,0,0,1,.63,3.41,7.1,7.1,0,0,1-.45,2.55,7.83,7.83,0,0,1-1.23,2.15,8.5,8.5,0,0,1-1.87,1.7,10.86,10.86,0,0,1-2.36,1.2,10.69,10.69,0,0,1,2.92,1,8.53,8.53,0,0,1,2.25,1.61,6.74,6.74,0,0,1,1.44,2.15A6.51,6.51,0,0,1,1823.63-691.57Z" transform="translate(-1368 944.41)"/><path d="M1793.68-599.19H1791v4.89h-2.8v-4.89h-8l-0.18-.86a9.23,9.23,0,0,1,.7-2.12,25.51,25.51,0,0,1,1.3-2.5q0.76-1.3,1.68-2.62t1.83-2.48q0.91-1.16,1.76-2.09a14.3,14.3,0,0,1,1.47-1.44H1791v11.91h2.72v2.21Zm-5.52-2.21v-7.79a5.11,5.11,0,0,1,0-.53,0.42,0.42,0,0,0-.1.15,0.42,0.42,0,0,1-.1.15q-0.22.22-.6,0.67t-0.84,1.07c-0.31.41-.63,0.86-1,1.36s-0.68,1-1,1.57-0.64,1.1-.93,1.67a17.84,17.84,0,0,0-.76,1.67h5.3Z" transform="translate(-1368 944.41)"/><path d="M1721.33-526.67a6.38,6.38,0,0,1-.54,2.68,5.94,5.94,0,0,1-1.48,2,6.49,6.49,0,0,1-2.17,1.26,7.86,7.86,0,0,1-2.62.43,10.17,10.17,0,0,1-2.37-.26,7.35,7.35,0,0,1-1.91-.72v-2.64a6.83,6.83,0,0,0,.92.51,9.47,9.47,0,0,0,1.08.42,10.62,10.62,0,0,0,1.13.3,5.24,5.24,0,0,0,1.06.12,4.45,4.45,0,0,0,1.65-.29,3.69,3.69,0,0,0,1.27-.82,3.7,3.7,0,0,0,.82-1.26,4.26,4.26,0,0,0,.29-1.6,3.71,3.71,0,0,0-.34-1.63,3.38,3.38,0,0,0-.9-1.16,3.71,3.71,0,0,0-1.3-.68,5.07,5.07,0,0,0-1.54-.21,7.33,7.33,0,0,0-1.92.25,8.86,8.86,0,0,0-1.66.62l-0.59-.78v-9.39h10.25v2.4h-7.68v4.88l0.48-.06,0.55-.05,0.56,0h0.5a8.39,8.39,0,0,1,2.58.38,5.94,5.94,0,0,1,2,1.11,5.05,5.05,0,0,1,1.34,1.79A5.79,5.79,0,0,1,1721.33-526.67Z" transform="translate(-1368 944.41)"/><path d="M1627-503.25a11.13,11.13,0,0,1-.73,4.08,9.5,9.5,0,0,1-2.08,3.25,9.5,9.5,0,0,1-3.22,2.14,10.93,10.93,0,0,1-4.17.77,11.6,11.6,0,0,1-4.33-.76,8.58,8.58,0,0,1-3.17-2.15,9.2,9.2,0,0,1-1.94-3.37,13.92,13.92,0,0,1-.66-4.42,18.69,18.69,0,0,1,.78-5.13,31.22,31.22,0,0,1,2.2-5.53,40.48,40.48,0,0,1,3.41-5.53,44.6,44.6,0,0,1,4.38-5.15h5.2q-1.44,1.66-2.81,3.38t-2.56,3.42q-1.2,1.7-2.15,3.31a27.8,27.8,0,0,0-1.59,3.08q0.71-.15,1.64-0.27a16.06,16.06,0,0,1,2.08-.12,11.78,11.78,0,0,1,3.72.59A9.15,9.15,0,0,1,1624-510a8.3,8.3,0,0,1,2.13,2.82A9,9,0,0,1,1627-503.25Zm-4.86.29a6.65,6.65,0,0,0-.45-2.59,4.77,4.77,0,0,0-1.24-1.77,5.05,5.05,0,0,0-1.86-1,7.67,7.67,0,0,0-2.28-.33,9.14,9.14,0,0,0-2.27.28,12.45,12.45,0,0,0-1.88.62,7.4,7.4,0,0,0-.57,2,14.13,14.13,0,0,0-.18,2.23,9.63,9.63,0,0,0,.4,2.94,6,6,0,0,0,1.12,2.1,4.52,4.52,0,0,0,1.71,1.26,5.52,5.52,0,0,0,2.16.42,5.6,5.6,0,0,0,2.19-.42,4.61,4.61,0,0,0,1.68-1.2,5.55,5.55,0,0,0,1.09-1.92A7.91,7.91,0,0,0,1622.1-503Z" transform="translate(-1368 944.41)"/><path d="M1533.83-538.72q-1.22,2.18-2.37,4.39t-2.21,4.48q-1.05,2.26-2,4.58t-1.66,4.72h-2.87v-0.66q0.42-1.23,1-2.63t1.21-2.86q0.65-1.46,1.35-2.93t1.4-2.83q0.69-1.36,1.37-2.55t1.25-2.09h-8.67v-2.4h11.65Z" transform="translate(-1368 944.41)"/><path d="M1462.93-600a5.21,5.21,0,0,1-.47,2.23,5.2,5.2,0,0,1-1.3,1.73,5.88,5.88,0,0,1-2,1.12,7.3,7.3,0,0,1-2.43.4,8,8,0,0,1-2.31-.33,5.75,5.75,0,0,1-1.93-1,4.75,4.75,0,0,1-1.33-1.66,5.21,5.21,0,0,1-.49-2.33,4.6,4.6,0,0,1,.93-2.93,7,7,0,0,1,2.59-2,5.36,5.36,0,0,1-1.22-.75,5.06,5.06,0,0,1-1-1,4.84,4.84,0,0,1-.63-1.27,4.57,4.57,0,0,1-.23-1.45,4.52,4.52,0,0,1,.41-1.93,4.41,4.41,0,0,1,1.15-1.51,5.36,5.36,0,0,1,1.77-1,7,7,0,0,1,2.28-.35,7.2,7.2,0,0,1,2.2.32,5.15,5.15,0,0,1,1.75.94,4.36,4.36,0,0,1,1.16,1.49,4.6,4.6,0,0,1,.42,2,4.45,4.45,0,0,1-.21,1.39,5,5,0,0,1-.59,1.2,5.42,5.42,0,0,1-.9,1,7.85,7.85,0,0,1-1.16.85,5.9,5.9,0,0,1,2.63,1.9A4.81,4.81,0,0,1,1462.93-600Zm-2.86,0a3.79,3.79,0,0,0-.16-1.08,2.94,2.94,0,0,0-.55-1,4,4,0,0,0-1-.86,5.47,5.47,0,0,0-1.61-.61,4.77,4.77,0,0,0-1.27.51,4,4,0,0,0-1,.81,3.52,3.52,0,0,0-.64,1,3.34,3.34,0,0,0-.23,1.24,3.52,3.52,0,0,0,.23,1.32,2.81,2.81,0,0,0,.65,1,2.89,2.89,0,0,0,1,.62,3.64,3.64,0,0,0,1.29.22,3.63,3.63,0,0,0,1.41-.26,3,3,0,0,0,1-.7,3,3,0,0,0,.64-1A3.38,3.38,0,0,0,1460.08-600Zm-0.63-9.16a2.89,2.89,0,0,0-.18-1,2.25,2.25,0,0,0-.53-0.81,2.42,2.42,0,0,0-.84-0.53,3.1,3.1,0,0,0-1.11-.19,2.77,2.77,0,0,0-2,.68,2.54,2.54,0,0,0-.73,2,2.65,2.65,0,0,0,.23,1.08,3.33,3.33,0,0,0,.61.92,3.6,3.6,0,0,0,.89.7,4.12,4.12,0,0,0,1.08.42,4.18,4.18,0,0,0,1.17-.51,3.07,3.07,0,0,0,.79-0.73,2.74,2.74,0,0,0,.45-0.91A3.89,3.89,0,0,0,1459.45-609.13Z" transform="translate(-1368 944.41)"/><path d="M1413.51-705.87a11,11,0,0,1,.73-4.06,9.41,9.41,0,0,1,2.09-3.23,9.6,9.6,0,0,1,3.25-2.14,11,11,0,0,1,4.19-.77,11.68,11.68,0,0,1,4.32.74,8.46,8.46,0,0,1,3.16,2.14,9.3,9.3,0,0,1,2,3.37,13.67,13.67,0,0,1,.67,4.42,17.15,17.15,0,0,1-.81,4.92,33.83,33.83,0,0,1-2.23,5.49,47.44,47.44,0,0,1-3.38,5.63,48,48,0,0,1-4.27,5.3h-5.52q1.51-1.71,2.91-3.42t2.6-3.38q1.21-1.67,2.17-3.3a23.75,23.75,0,0,0,1.58-3.11,13.63,13.63,0,0,1-1.61.33,13.83,13.83,0,0,1-2,.13,12.2,12.2,0,0,1-3.83-.59,8.78,8.78,0,0,1-3.1-1.75,8.21,8.21,0,0,1-2.08-2.84A9.38,9.38,0,0,1,1413.51-705.87Zm4.91-.34a6.74,6.74,0,0,0,.45,2.6,4.8,4.8,0,0,0,1.23,1.78,4.92,4.92,0,0,0,1.84,1,7.65,7.65,0,0,0,2.28.33,10,10,0,0,0,2.27-.26,12.62,12.62,0,0,0,1.93-.6,9.05,9.05,0,0,0,.51-1.9,14.73,14.73,0,0,0,.17-2.34,9.31,9.31,0,0,0-.4-2.89,6.15,6.15,0,0,0-1.11-2.08,4.47,4.47,0,0,0-1.68-1.26,5.44,5.44,0,0,0-2.15-.42,5.74,5.74,0,0,0-2.19.4,4.55,4.55,0,0,0-1.68,1.17,5.44,5.44,0,0,0-1.09,1.88A7.67,7.67,0,0,0,1418.42-706.21Z" transform="translate(-1368 944.41)"/><path d="M1446.29-780.39h-2.81v-15.4l-0.51.43-0.52.42-3.69,2.64v-2.8l5.73-4.31h1.8v19Z" transform="translate(-1368 944.41)"/><path d="M1465.21-789.93a17.38,17.38,0,0,1-.45,4.12,9.53,9.53,0,0,1-1.3,3.08,5.9,5.9,0,0,1-2.07,1.93,5.7,5.7,0,0,1-2.78.67,5.69,5.69,0,0,1-2.71-.62,5.36,5.36,0,0,1-2-1.82,8.91,8.91,0,0,1-1.19-2.94,17.79,17.79,0,0,1-.4-4,20.75,20.75,0,0,1,.4-4.31A9.52,9.52,0,0,1,1454-797a5.58,5.58,0,0,1,2.07-2,6.09,6.09,0,0,1,2.92-.67Q1465.21-799.6,1465.21-789.93Zm-2.87.21a14.24,14.24,0,0,0-.88-5.72,2.78,2.78,0,0,0-2.58-1.9,2.94,2.94,0,0,0-2.74,1.93,14.12,14.12,0,0,0-.92,5.84,12.35,12.35,0,0,0,.91,5.39,2.87,2.87,0,0,0,2.67,1.79,2.85,2.85,0,0,0,2.64-1.82A12.94,12.94,0,0,0,1462.34-789.73Z" transform="translate(-1368 944.41)"/><path d="M1521.46-856.17h-2.81v-15.4l-0.51.43-0.52.42-3.69,2.64v-2.8l5.73-4.31h1.8v19Z" transform="translate(-1368 944.41)"/><path d="M1536.6-856.17h-2.81v-15.4l-0.51.43-0.52.42-3.69,2.64v-2.8l5.73-4.31h1.8v19Z" transform="translate(-1368 944.41)"/><circle class="c" cx="248.43" cy="248.87" r="10.75"/></svg>