<?xml version="1.0" encoding="UTF-8" standalone="no"?>
<svg width="500px" height="500px" viewBox="0 0 500 500" version="1.1" xmlns="http://www.w3.org/2000/svg" xmlns:xlink="http://www.w3.org/1999/xlink">
    <!-- Generator: Sketch 3.8.2 (29753) - http://www.bohemiancoding.com/sketch -->
    <title>Group 3</title>
    <desc>Created with Sketch.</desc>
    <defs>
        <linearGradient x1="50%" y1="0%" x2="50%" y2="100%" id="linearGradient-1">
            <stop stop-color="#FFFFFF" offset="0%"></stop>
            <stop stop-color="#D8D8D8" offset="100%"></stop>
        </linearGradient>
        <linearGradient x1="50%" y1="0%" x2="50%" y2="100%" id="linearGradient-2">
            <stop stop-color="#E5E5E5" offset="0%"></stop>
            <stop stop-color="#FFFFFF" offset="100%"></stop>
        </linearGradient>
        <circle id="path-3" cx="250" cy="250" r="15"></circle>
        <mask id="mask-4" maskContentUnits="userSpaceOnUse" maskUnits="objectBoundingBox" x="0" y="0" width="30" height="30" fill="white">
            <use xlink:href="#path-3"></use>
        </mask>
    </defs>
    <g id="Page-1" stroke="none" stroke-width="1" fill="none" fill-rule="evenodd">
        <g id="Group-3">
            <rect id="Rectangle-1" fill="url(#linearGradient-1)" x="0" y="0" width="500" height="500" rx="76"></rect>
            <path d="M89,249.667 C89,338.4 160.933,410.333 249.666,410.333 L249.666,410.333 C338.4,410.333 410.333,338.4 410.333,249.667 L410.333,249.667 C410.333,160.933 338.4,89 249.666,89 L249.666,89 C160.933,89 89,160.933 89,249.667" id="Fill-6" fill="url(#linearGradient-2)"></path>
            <use id="Oval-2" stroke="#000000" mask="url(#mask-4)" stroke-width="6" xlink:href="#path-3"></use>
            <path d="M241.71,52 L241.71,27.988 L239.082,27.988 L233.07,34.18 L234.87,36.016 L238.722,31.948 L238.722,52 L241.71,52 Z M266.95,52 L266.95,49.336 L255.178,49.336 C261.874,44.044 266.842,39.58 266.842,34.684 C266.842,29.896 262.774,27.628 258.778,27.628 C255.394,27.628 252.262,28.996 250.426,31.408 L252.262,33.316 C253.666,31.516 255.898,30.292 258.778,30.292 C261.262,30.292 263.782,31.624 263.782,34.684 C263.782,38.824 259.102,42.82 250.462,49.624 L250.462,52 L266.95,52 Z" id="12" fill="#000000"></path>
            <path d="M29.046,255.396 C35.778,255.396 38.802,249.492 38.802,243.012 C38.802,236.46 36.246,230.592 29.514,230.592 C24.294,230.592 21.126,234.3 21.126,238.44 C21.126,243.552 24.69,246.108 29.01,246.108 C32.07,246.108 34.734,244.02 35.778,242.364 C35.814,242.688 35.814,243.012 35.814,243.336 C35.814,247.872 33.906,252.732 29.046,252.732 C26.562,252.732 25.122,251.724 23.898,250.284 L22.386,252.516 C23.898,254.244 25.986,255.396 29.046,255.396 L29.046,255.396 Z M29.694,243.516 C26.598,243.516 24.15,241.86 24.15,238.332 C24.15,236.064 25.986,233.256 29.658,233.256 C33.834,233.256 35.418,236.964 35.67,239.952 C34.41,242.076 32.07,243.516 29.694,243.516 L29.694,243.516 Z" id="9" fill="#000000"></path>
            <path d="M465.55,255.432 C470.842,255.432 474.046,252.516 474.046,248.52 C474.046,244.668 470.698,242.796 468.502,242.616 C470.77,242.22 473.686,240.492 473.686,237.036 C473.686,232.968 470.158,230.628 465.55,230.628 C461.842,230.628 459.07,232.248 457.342,234.336 L458.998,236.208 C460.762,234.3 462.706,233.292 465.334,233.292 C468.25,233.292 470.698,234.732 470.698,237.396 C470.698,240.168 468.142,241.356 465.118,241.356 C464.146,241.356 463.03,241.356 462.634,241.32 L462.634,244.056 C462.994,244.02 464.11,244.02 465.118,244.02 C468.646,244.02 471.094,245.28 471.094,248.268 C471.094,251.04 468.97,252.768 465.478,252.768 C462.634,252.768 460.186,251.472 458.782,249.6 L457.018,251.472 C458.494,253.632 461.482,255.432 465.55,255.432 L465.55,255.432 Z" id="3" fill="#000000"></path>
            <path d="M249.45,470.432 C254.706,470.432 257.874,466.76 257.874,462.584 C257.874,457.472 254.346,454.916 250.026,454.916 C246.93,454.916 244.266,457.004 243.222,458.66 C243.186,458.336 243.186,458.048 243.186,457.724 C243.186,453.008 245.31,448.292 249.954,448.292 C252.474,448.292 253.878,449.3 255.102,450.74 L256.614,448.508 C255.138,446.816 253.05,445.628 249.954,445.628 C243.222,445.628 240.198,451.532 240.198,458.048 C240.198,464.564 242.754,470.432 249.45,470.432 L249.45,470.432 Z M249.342,467.768 C245.166,467.768 243.582,464.096 243.294,461.108 C244.626,458.984 246.93,457.508 249.306,457.508 C252.402,457.508 254.85,459.164 254.85,462.692 C254.85,464.996 253.05,467.768 249.342,467.768 L249.342,467.768 Z" id="6" fill="#000000"></path>
        </g>
    </g>
</svg>