<?xml version="1.0" encoding="UTF-8"?>
<svg width="84px" height="84px" viewBox="0 0 84 84" version="1.1" xmlns="http://www.w3.org/2000/svg" xmlns:xlink="http://www.w3.org/1999/xlink">
    <!-- Generator: Sketch 42 (36781) - http://www.bohemiancoding.com/sketch -->
    <title>Group 4</title>
    <desc>Created with Sketch.</desc>
    <defs></defs>
    <g id="Page-1" stroke="none" stroke-width="1" fill="none" fill-rule="evenodd">
        <g id="Group-5">
            <g id="Group-4">
                <g id="Group-3" transform="translate(3.000000, 20.000000)">
                    <g id="Group-2-Copy">
                        <g id="Group" transform="translate(0.000000, -0.000000)">
                            <path d="M26.1488683,44.0014545 C27.8087701,44.0014545 28.7172419,42.7279954 28.1783518,41.1581381 L15.2547454,3.50998313 C14.7156963,1.93966281 12.9343142,0.666666667 11.2727713,0.666666667 L2.43059616,0.666666667 C0.770461628,0.666666667 -0.110722482,1.92846728 0.459329259,3.47659336 L14.3467409,41.1915279 C14.9181747,42.7434075 16.7271012,44.0014545 18.3869315,44.0014545 L26.1488683,44.0014545 Z" id="V" fill="#3E75B5"></path>
                            <path d="M59.4822017,44.0014545 C61.1421035,44.0014545 62.0505752,42.7279954 61.5116851,41.1581381 L48.5880787,3.50998313 C48.0490297,1.93966281 46.2676475,0.666666667 44.6061046,0.666666667 L35.7639295,0.666666667 C34.103795,0.666666667 33.2226109,1.92846728 33.7926626,3.47659336 L47.6800742,41.1915279 C48.2515081,42.7434075 50.0604346,44.0014545 51.7202648,44.0014545 L59.4822017,44.0014545 Z" id="V-Copy" fill="#417FC6" opacity="0.600000024"></path>
                            <path d="M30.9624797,41.1741666 C31.5114506,42.7348313 32.4211002,42.7381994 32.991152,41.1900733 L46.8785636,3.47513881 C47.4499975,1.92325915 46.5688396,0.665212121 44.9072967,0.665212121 L36.0651216,0.665212121 C34.404987,0.665212121 32.6296486,1.9425052 32.1034347,3.50729436 L26.0257403,21.5803824 C25.4978956,23.1500211 25.5165284,25.6919168 26.0639926,27.248298 L30.9624797,41.1741666 Z" id="V" fill="#417FC6" opacity="0.800000012"></path>
                            <path d="M60.9624797,41.1741666 C61.5114506,42.7348313 62.4211002,42.7381994 62.991152,41.1900733 L76.8785636,3.47513881 C77.4499975,1.92325915 76.5688396,0.665212121 74.9072967,0.665212121 L66.0651216,0.665212121 C64.404987,0.665212121 62.6296486,1.9425052 62.1034347,3.50729436 L56.0257403,21.5803824 C55.4978956,23.1500211 55.5165284,25.6919168 56.0639926,27.248298 L60.9624797,41.1741666 Z" id="V" fill="#417FC6" opacity="0.300000012"></path>
                        </g>
                    </g>
                </g>
                <rect id="Rectangle-2" x="0" y="0" width="84" height="84"></rect>
            </g>
        </g>
    </g>
</svg>