<svg xmlns="http://www.w3.org/2000/svg" xmlns:xlink="http://www.w3.org/1999/xlink" viewBox="0 0 500 499.99"><defs><style>.a{fill:url(#a);}.b{fill:#3d2e28;}.c{fill:#736357;}.d{fill:url(#b);}.e{fill:#8e704a;}.f{fill:#322212;}</style><linearGradient id="a" x1="250" y1="25.56" x2="250" y2="449.36" gradientUnits="userSpaceOnUse"><stop offset="0.21" stop-color="#3b2d2a"/><stop offset="1"/></linearGradient><radialGradient id="b" cx="250" cy="250" r="202.92" gradientUnits="userSpaceOnUse"><stop offset="0.46" stop-color="#fff"/><stop offset="0.54" stop-color="#fcfcfa"/><stop offset="0.62" stop-color="#f5f4ec"/><stop offset="0.72" stop-color="#e8e6d4"/><stop offset="0.82" stop-color="#d6d3b4"/><stop offset="1" stop-color="#b0af96"/></radialGradient></defs><title>frame</title><circle class="a" cx="250" cy="250" r="250"/><circle class="b" cx="250" cy="250" r="215.4"/><ellipse class="c" cx="250" cy="250" rx="207.72" ry="207.71"/><circle class="d" cx="250" cy="250" r="202.92"/><path class="e" d="M3155.19,276.41h-0.12c-1.88,0-3.79,0-5.7-.13l0.07-1.44c1.87,0.08,3.76.13,5.62,0.13Zm5.81-.14-0.07-1.44c1.93-.1,3.85-0.23,5.73-0.42l0.14,1.44C3164.91,276,3163,276.17,3161,276.27Zm-17.43-.41c-2-.19-3.89-0.42-5.78-0.69l0.22-1.42c1.85,0.26,3.78.5,5.7,0.68Zm29-.73-0.21-1.42c1.9-.29,3.8-0.61,5.67-1l0.28,1.41C3176.43,274.51,3174.49,274.84,3172.58,275.13Zm-40.52-.95c-1.88-.37-3.79-0.8-5.67-1.27l0.35-1.39c1.86,0.46,3.75.88,5.61,1.25Zm51.92-1.33-0.35-1.39c1.84-.46,3.7-1,5.54-1.54l0.41,1.39C3187.73,271.88,3185.84,272.4,3184,272.86Zm-63.21-1.48c-1.82-.55-3.68-1.17-5.54-1.82l0.48-1.35c1.84,0.65,3.68,1.26,5.47,1.8Zm74.35-1.9-0.48-1.36c1.78-.64,3.58-1.33,5.34-2.07l0.55,1.34C3198.75,268.13,3196.93,268.82,3195.12,269.48Zm-85.33-2c-1.79-.75-3.59-1.54-5.33-2.36l0.62-1.3c1.72,0.81,3.49,1.6,5.26,2.33Zm96-2.43-0.62-1.3c1.72-.82,3.45-1.69,5.13-2.58l0.68,1.27C3209.32,263.32,3207.58,264.2,3205.84,265Zm-106.58-2.55c-1.68-.89-3.39-1.85-5.07-2.87l0.74-1.24c1.67,1,3.35,2,5,2.84Zm116.81-2.94-0.74-1.23c1.64-1,3.27-2,4.85-3.08l0.8,1.2C3219.37,257.49,3217.73,258.55,3216.07,259.54Zm-126.8-3c-1.58-1.05-3.18-2.19-4.76-3.35l0.86-1.16c1.56,1.15,3.14,2.27,4.7,3.31Zm136.45-3.42-0.86-1.16c1.53-1.14,3.05-2.32,4.53-3.54l0.91,1.12C3228.82,250.72,3227.27,251.93,3225.72,253.08Zm-145.8-3.51c-1.48-1.21-3-2.49-4.41-3.8l1-1.06c1.43,1.29,2.9,2.56,4.35,3.75Zm154.78-3.88-1-1.07c1.42-1.28,2.82-2.61,4.16-4l1,1C3237.56,243.05,3236.14,244.4,3234.71,245.7Zm-163.42-3.94c-1.35-1.35-2.7-2.76-4-4.21l1.07-1c1.29,1.42,2.63,2.82,4,4.16Zm171.65-4.29-1.07-1c1.28-1.42,2.55-2.88,3.76-4.36l1.12,0.92C3245.51,234.56,3244.24,236,3242.94,237.47Zm-179.47-4.31c-1.22-1.48-2.42-3-3.59-4.58l1.16-.86c1.15,1.54,2.35,3.06,3.54,4.52Zm186.85-4.68-1.16-.86c1.15-1.54,2.27-3.12,3.33-4.7l1.19,0.81C3252.61,225.32,3251.48,226.91,3250.32,228.48Zm-193.79-4.65c-1.1-1.63-2.14-3.27-3.12-4.9l1.24-.75c1,1.61,2,3.24,3.08,4.84Zm200.27-5-1.24-.74c1-1.61,1.93-3.3,2.85-5l1.27,0.68C3258.75,215.47,3257.78,217.18,3256.81,218.81Zm-206.27-4.92c-0.89-1.66-1.78-3.4-2.63-5.18l1.3-.62c0.84,1.76,1.71,3.48,2.59,5.12Zm211.77-5.35-1.3-.61c0.81-1.72,1.6-3.49,2.33-5.26l1.33,0.55C3263.92,205,3263.12,206.79,3262.3,208.53Zm-216.76-5.14c-0.75-1.8-1.46-3.62-2.1-5.41l1.35-.49c0.64,1.76,1.34,3.57,2.08,5.35Zm221.21-5.62-1.36-.48c0.65-1.82,1.26-3.67,1.81-5.47l1.37,0.41C3268,194.06,3267.43,195.92,3266.76,197.77Zm-225.14-5.31c-0.57-1.87-1.1-3.76-1.56-5.61l1.4-.35c0.45,1.83,1,3.69,1.54,5.53Zm228.52-5.84-1.39-.35c0.47-1.88.89-3.77,1.25-5.61l1.42,0.28C3271,182.81,3270.61,184.72,3270.14,186.63Zm-231.36-5.44c-0.38-1.91-.72-3.85-1-5.73l1.43-.21c0.27,1.86.6,3.76,1,5.66Zm233.63-6L3271,175c0.29-2,.51-3.88.69-5.71l1.43,0.14C3272.92,171.29,3272.69,173.24,3272.4,175.21Zm-235.34-5.53c-0.19-2-.34-3.9-0.44-5.8l1.44-.07c0.09,1.88.24,3.8,0.43,5.73Zm236.46-6-1.44-.07c0.1-1.86.14-3.79,0.14-5.74v-0.49h1.44v0.49C3273.66,159.8,3273.62,161.76,3273.52,163.64Zm-235.6-5.58h-1.44v-0.24c0-1.82,0-3.7.13-5.58l1.44,0.07c-0.08,1.85-.13,3.71-0.13,5.51v0.24Zm234.13-6.47c-0.11-2-.25-3.89-0.44-5.73l1.43-.15c0.19,1.87.34,3.82,0.45,5.8Zm-233.61-5-1.43-.14c0.18-1.89.41-3.83,0.69-5.77l1.43,0.2C3038.86,142.79,3038.63,144.71,3038.45,146.59Zm232.44-6.43c-0.26-1.82-.6-3.73-1-5.65l1.41-.29c0.4,1.95.74,3.88,1,5.73Zm-230.78-4.94-1.42-.28c0.38-1.91.8-3.82,1.26-5.68l1.4,0.35C3040.89,131.44,3040.47,133.33,3040.11,135.21Zm228.52-6.32c-0.45-1.78-1-3.64-1.55-5.53l1.38-.42c0.59,1.91,1.11,3.79,1.57,5.6Zm-225.76-4.84-1.39-.42c0.56-1.85,1.17-3.72,1.82-5.54l1.36,0.48C3044,120.39,3043.41,122.23,3042.86,124.06Zm222.39-6.14c-0.66-1.82-1.36-3.62-2.09-5.34l1.33-.56c0.74,1.74,1.44,3.56,2.11,5.41Zm-218.53-4.71-1.33-.55c0.71-1.73,1.51-3.53,2.35-5.33l1.3,0.61C3048.21,109.72,3047.42,111.49,3046.72,113.21Zm214.11-5.87c-0.83-1.72-1.7-3.44-2.61-5.11l1.27-.68c0.91,1.69,1.8,3.43,2.63,5.17Zm-209.2-4.55-1.27-.67c0.89-1.69,1.86-3.4,2.87-5.08l1.24,0.74C3053.46,99.44,3052.51,101.13,3051.62,102.79Zm203.75-5.54c-1-1.65-2.05-3.28-3.1-4.84l1.19-.8c1.07,1.58,2.12,3.23,3.14,4.9Zm-197.84-4.33-1.21-.8c1.08-1.62,2.21-3.22,3.35-4.77l1.16,0.86C3059.7,89.74,3058.59,91.33,3057.53,92.93Zm191.42-5.2c-1.13-1.51-2.33-3-3.55-4.51l1.11-.92c1.24,1.5,2.45,3,3.59,4.57Zm-184.58-4-1.11-.91c1.23-1.51,2.51-3,3.79-4.42l1.07,1C3066.85,80.73,3065.58,82.19,3064.36,83.68Zm177.25-4.8c-1.26-1.38-2.59-2.78-4-4.15l1-1c1.4,1.39,2.75,2.8,4,4.2Zm-169.55-3.73-1-1c1.38-1.39,2.79-2.74,4.21-4l1,1.06C3074.83,72.45,3073.43,73.78,3072.07,75.15Zm161.41-4.37c-1.42-1.28-2.89-2.54-4.36-3.74l0.91-1.11c1.5,1.22,3,2.5,4.42,3.79Zm-152.92-3.36-0.91-1.11c1.51-1.24,3-2.45,4.56-3.59l0.87,1.15C3083.58,65,3082.06,66.19,3080.56,67.42Zm144-3.91c-1.5-1.11-3.09-2.22-4.71-3.3l0.8-1.2c1.64,1.09,3.25,2.22,4.77,3.34Zm-134.81-3-0.8-1.19c1.62-1.1,3.27-2.14,4.9-3.13l0.74,1.23C3093,58.43,3091.37,59.47,3089.77,60.55ZM3215,57.14c-1.63-1-3.32-1.93-5-2.83l0.68-1.27c1.72,0.91,3.42,1.87,5.08,2.86Zm-115.4-2.52-0.68-1.27c1.66-.9,3.4-1.78,5.18-2.63l0.62,1.3C3103,52.86,3101.23,53.73,3099.59,54.62Zm105.24-2.88c-1.71-.81-3.48-1.59-5.27-2.32l0.56-1.33c1.81,0.74,3.6,1.53,5.34,2.35Zm-94.89-2.06-0.55-1.33c1.79-.76,3.61-1.46,5.41-2.11l0.48,1.36C3113.52,48.24,3111.72,48.94,3109.94,49.68Zm84.24-2.32c-1.84-.65-3.68-1.25-5.46-1.78l0.41-1.38c1.81,0.54,3.67,1.15,5.53,1.81Zm-73.44-1.57-0.43-1.38c1.83-.56,3.71-1.09,5.61-1.56l0.35,1.39C3124.4,44.71,3122.54,45.23,3120.74,45.79Zm62.43-1.72c-1.83-.45-3.72-0.87-5.61-1.24l0.27-1.42c1.91,0.37,3.82.79,5.69,1.25Zm-51.3-1.1-0.28-1.41c1.87-.38,3.79-0.71,5.73-1l0.21,1.42C3135.62,42.27,3133.72,42.6,3131.88,43Zm40-1.09c-1.88-.27-3.8-0.5-5.71-0.68l0.13-1.44c1.93,0.18,3.88.41,5.78,0.69Zm-28.66-.61-0.15-1.44c1.93-.19,3.89-0.34,5.8-0.44l0.08,1.44C3147.08,40.93,3145.15,41.08,3143.24,41.27Zm17.22-.47c-1.8-.08-3.61-0.12-5.39-0.12h-0.35V39.23h0.35c1.8,0,3.64,0,5.46.12Z" transform="translate(-2905.07 92.17)"/><path class="f" d="M3228.71,25.16l-0.59,1-9.42-5.37,0.58-1,0.78,0.45a2.38,2.38,0,0,0,2.75-.23,15.81,15.81,0,0,0,2.82-4l13.84-24.24a23,23,0,0,0,1.93-3.88,2.63,2.63,0,0,0,0-1.57,2.48,2.48,0,0,0-1.11-1.52l-0.78-.45,0.58-1,9.43,5.38-0.58,1-0.8-.45a2.38,2.38,0,0,0-2.75.24,15.47,15.47,0,0,0-2.83,4l-13.83,24.24a24.24,24.24,0,0,0-1.94,3.89,2.72,2.72,0,0,0,0,1.58,2.46,2.46,0,0,0,1.09,1.51Z" transform="translate(-2905.07 92.17)"/><path class="f" d="M3280.27,76.45l-1,.68L3273,68.27l1-.68,0.51,0.73a2.37,2.37,0,0,0,2.59,1,15.65,15.65,0,0,0,4.27-2.47l22.76-16.13a23.39,23.39,0,0,0,3.4-2.71,2.73,2.73,0,0,0,.68-1.42,2.49,2.49,0,0,0-.38-1.85l-0.52-.73,1-.68,6.27,8.86-1,.68-0.53-.74a2.35,2.35,0,0,0-2.57-.95,15.19,15.19,0,0,0-4.28,2.46l-22.77,16.14a23.17,23.17,0,0,0-3.39,2.71,2.68,2.68,0,0,0-.66,1.43,2.41,2.41,0,0,0,.36,1.83Z" transform="translate(-2905.07 92.17)"/><path class="f" d="M3287.63,86.84l-1,.68-6.27-8.86,1-.68,0.52,0.73a2.36,2.36,0,0,0,2.58,1,15.49,15.49,0,0,0,4.27-2.47l22.77-16.13a24,24,0,0,0,3.39-2.71,2.77,2.77,0,0,0,.68-1.42,2.52,2.52,0,0,0-.37-1.85l-0.52-.73,1-.68,6.26,8.85-1,.68-0.53-.74a2.35,2.35,0,0,0-2.58-.94,15.13,15.13,0,0,0-4.27,2.45l-22.77,16.14a23.85,23.85,0,0,0-3.39,2.7,2.75,2.75,0,0,0-.66,1.43,2.41,2.41,0,0,0,.36,1.83Z" transform="translate(-2905.07 92.17)"/><path class="f" d="M3301.54,151.09l-1.17,0-0.17-10.85,1.18,0v0.9a2.39,2.39,0,0,0,1.6,2.26,15.69,15.69,0,0,0,4.91.37l27.91-.42a24,24,0,0,0,4.32-.32,2.69,2.69,0,0,0,1.36-.78,2.46,2.46,0,0,0,.74-1.73v-0.9h1.17l0.17,10.85-1.18,0v-0.92a2.37,2.37,0,0,0-1.6-2.24,15.26,15.26,0,0,0-4.91-.39l-27.91.42a23.92,23.92,0,0,0-4.31.31,2.68,2.68,0,0,0-1.36.81,2.47,2.47,0,0,0-.74,1.71Z" transform="translate(-2905.07 92.17)"/><path class="f" d="M3301.73,163.83l-1.17,0L3300.38,153l1.18,0,0,0.9a2.34,2.34,0,0,0,1.59,2.25,15.37,15.37,0,0,0,4.91.38l27.9-.42a24.67,24.67,0,0,0,4.33-.31,2.8,2.8,0,0,0,1.36-.79,2.47,2.47,0,0,0,.73-1.73v-0.9h1.18l0.16,10.85-1.17,0,0-.92a2.35,2.35,0,0,0-1.59-2.24,15.3,15.3,0,0,0-4.92-.39l-27.91.42a24.05,24.05,0,0,0-4.32.31,2.75,2.75,0,0,0-1.36.81,2.46,2.46,0,0,0-.74,1.72v0.91Z" transform="translate(-2905.07 92.17)"/><path class="f" d="M3301.93,176.56l-1.17,0-0.17-10.85,1.18,0v0.9a2.37,2.37,0,0,0,1.59,2.26,15.72,15.72,0,0,0,4.92.37l27.9-.43a23.94,23.94,0,0,0,4.33-.31,2.68,2.68,0,0,0,1.36-.79,2.47,2.47,0,0,0,.74-1.73v-0.9h1.18l0.17,10.85h-1.17V175a2.36,2.36,0,0,0-1.6-2.24,15.22,15.22,0,0,0-4.91-.39l-27.91.43a23.45,23.45,0,0,0-4.33.31,2.71,2.71,0,0,0-1.35.8,2.46,2.46,0,0,0-.75,1.71Z" transform="translate(-2905.07 92.17)"/><path class="f" d="M3284.54,225l-1-.66,6-9,1,0.66-0.5.74a2.37,2.37,0,0,0,0,2.76,15.61,15.61,0,0,0,3.83,3.09L3317.16,238a23,23,0,0,0,3.74,2.2,2.73,2.73,0,0,0,1.56.12,2.52,2.52,0,0,0,1.59-1l0.5-.75,1,0.66-6,9-1-.66,0.5-.76a2.36,2.36,0,0,0,0-2.75,15.41,15.41,0,0,0-3.83-3.11l-23.24-15.45a22.47,22.47,0,0,0-3.74-2.18,2.64,2.64,0,0,0-1.58-.11,2.41,2.41,0,0,0-1.57,1Z" transform="translate(-2905.07 92.17)"/><path class="f" d="M3304,271.7l-1-.66a3.62,3.62,0,0,0-.1-2.51,16.25,16.25,0,0,0-3-4.11l-25.72-27.71,0.38-.57,36.27,12.72a26.92,26.92,0,0,0,3.48,1.08,4.42,4.42,0,0,0,1.93-.1,3.69,3.69,0,0,0,1.62-1.14l1,0.65L3313.1,258l-1-.66a3.43,3.43,0,0,0,.41-2.46,3.12,3.12,0,0,0-1.27-1.47,22.66,22.66,0,0,0-4.62-2L3282,242.68l17.52,18.83a25.8,25.8,0,0,0,3.77,3.57,3.22,3.22,0,0,0,1.78.53,3,3,0,0,0,2-.86l0.25-.22,1,0.65Z" transform="translate(-2905.07 92.17)"/><path class="f" d="M3238.81,324l-0.56-1a3.68,3.68,0,0,0,1.1-2.26,16.55,16.55,0,0,0-.74-5l-9.77-36.53,0.61-.33,26.1,28.21a29,29,0,0,0,2.57,2.59,4.36,4.36,0,0,0,1.75.81,3.64,3.64,0,0,0,2-.25l0.56,1-9.09,4.94-0.56-1a3.48,3.48,0,0,0,1.52-2,3.15,3.15,0,0,0-.44-1.9,22.66,22.66,0,0,0-3.13-4L3232.95,288l6.67,24.83a26.4,26.4,0,0,0,1.67,4.92,3.32,3.32,0,0,0,1.33,1.3,3,3,0,0,0,2.17.17l0.33-.06,0.57,1Z" transform="translate(-2905.07 92.17)"/><path class="f" d="M3146.26,345l0-1.18a3.65,3.65,0,0,0,2.06-1.43,16.52,16.52,0,0,0,1.84-4.75l9.45-36.61h0.69l8.87,37.4a28.46,28.46,0,0,0,1,3.52,4.47,4.47,0,0,0,1.13,1.57,3.59,3.59,0,0,0,1.82.74v1.18l-10.35-.17,0-1.18a3.43,3.43,0,0,0,2.29-1,3.14,3.14,0,0,0,.56-1.87,22.15,22.15,0,0,0-.78-5l-6-25.44-6.39,24.91a25.78,25.78,0,0,0-1,5.11,3.24,3.24,0,0,0,.5,1.78,3,3,0,0,0,1.82,1.23l0.31,0.1v1.18Z" transform="translate(-2905.07 92.17)"/><path class="f" d="M3134.71,302.76v-1.18l10.85,0.19,0,1.18-0.89,0a2.37,2.37,0,0,0-2.3,1.53,15.65,15.65,0,0,0-.54,4.89l-0.47,27.9a24.13,24.13,0,0,0,.17,4.34,2.69,2.69,0,0,0,.75,1.38,2.43,2.43,0,0,0,1.7.79l0.9,0,0,1.17-10.85-.18,0-1.17h0.91a2.37,2.37,0,0,0,2.29-1.52,15.79,15.79,0,0,0,.55-4.9l0.47-27.91a24.58,24.58,0,0,0-.17-4.33,2.71,2.71,0,0,0-.76-1.38,2.45,2.45,0,0,0-1.69-.8h-0.91Z" transform="translate(-2905.07 92.17)"/><path class="f" d="M3064,321.05l0.55-1a3.6,3.6,0,0,0,2.48-.37,16.39,16.39,0,0,0,3.75-3.43l24.77-28.58,0.61,0.32-8.72,37.43a27.64,27.64,0,0,0-.69,3.59,4.44,4.44,0,0,0,.3,1.9,3.74,3.74,0,0,0,1.31,1.49l-0.54,1-9.19-4.77,0.55-1a3.46,3.46,0,0,0,2.49.14,3.25,3.25,0,0,0,1.33-1.43,22.91,22.91,0,0,0,1.52-4.8l5.94-25.46-16.82,19.45a26.69,26.69,0,0,0-3.15,4.15,3.21,3.21,0,0,0-.33,1.82,3,3,0,0,0,1.08,1.9,2.22,2.22,0,0,0,.23.23l-0.54,1.05Z" transform="translate(-2905.07 92.17)"/><path class="f" d="M3072.45,278.1l0.54-1,9.64,5-0.54,1-0.79-.41a2.39,2.39,0,0,0-2.75.34,15.88,15.88,0,0,0-2.66,4.14L3063,311.95a24.15,24.15,0,0,0-1.77,4,2.69,2.69,0,0,0,0,1.57,2.53,2.53,0,0,0,1.18,1.47l0.8,0.42-0.54,1-9.64-5,0.54-1,0.81,0.42a2.34,2.34,0,0,0,2.72-.35,14.85,14.85,0,0,0,2.67-4.14l12.84-24.77a24.37,24.37,0,0,0,1.78-4,2.74,2.74,0,0,0-.07-1.58,2.46,2.46,0,0,0-1.15-1.47Z" transform="translate(-2905.07 92.17)"/><path class="f" d="M3061.14,272.24l0.54-1,9.64,5-0.54,1-0.8-.41a2.38,2.38,0,0,0-2.75.34,15.91,15.91,0,0,0-2.66,4.15l-12.84,24.77a24.15,24.15,0,0,0-1.77,4,2.7,2.7,0,0,0,0,1.57,2.52,2.52,0,0,0,1.17,1.47l0.8,0.41-0.54,1-9.63-5,0.54-1,0.81,0.42a2.34,2.34,0,0,0,2.73-.35,14.84,14.84,0,0,0,2.67-4.14l12.85-24.77a23.34,23.34,0,0,0,1.78-4,2.69,2.69,0,0,0-.07-1.58,2.44,2.44,0,0,0-1.15-1.47Z" transform="translate(-2905.07 92.17)"/><path class="f" d="M2994,259.26l1-.6a3.59,3.59,0,0,0,2.29,1,15.85,15.85,0,0,0,5-.91l36.17-11,0.35,0.6-27.32,27a30.43,30.43,0,0,0-2.49,2.66,4.5,4.5,0,0,0-.75,1.78,3.74,3.74,0,0,0,.32,2l-1,.59-5.24-8.92,1-.6a3.34,3.34,0,0,0,2,1.45,3.19,3.19,0,0,0,1.88-.5,22.72,22.72,0,0,0,3.85-3.25l18.58-18.38-24.59,7.51a26.64,26.64,0,0,0-4.87,1.84,3.28,3.28,0,0,0-1.25,1.36,3.05,3.05,0,0,0-.1,2.18,1.71,1.71,0,0,0,.08.33l-1,.59Z" transform="translate(-2905.07 92.17)"/><path class="f" d="M3024,227.4l1-.6,5.5,9.36-1,.6L3029,236a2.36,2.36,0,0,0-2.49-1.17,15.4,15.4,0,0,0-4.46,2.09L2998,251a24.55,24.55,0,0,0-3.61,2.4,2.88,2.88,0,0,0-.8,1.35,2.57,2.57,0,0,0,.22,1.87l0.45,0.77-1,.6-5.5-9.36,1-.6,0.46,0.78a2.37,2.37,0,0,0,2.5,1.17,15.3,15.3,0,0,0,4.46-2.08l24.07-14.13a24.09,24.09,0,0,0,3.61-2.41,2.75,2.75,0,0,0,.78-1.37,2.46,2.46,0,0,0-.2-1.85Z" transform="translate(-2905.07 92.17)"/><path class="f" d="M3017.54,216.42l1-.6,5.49,9.36-1,.6-0.45-.78a2.37,2.37,0,0,0-2.5-1.17,15.25,15.25,0,0,0-4.46,2.09l-24.06,14.14a23.64,23.64,0,0,0-3.61,2.39,2.85,2.85,0,0,0-.8,1.36,2.5,2.5,0,0,0,.22,1.87l0.46,0.77-1,.6-5.49-9.37,1-.6,0.46,0.79a2.35,2.35,0,0,0,2.49,1.16,15,15,0,0,0,4.47-2.08l24.06-14.14a24.53,24.53,0,0,0,3.62-2.41,2.69,2.69,0,0,0,.78-1.38,2.39,2.39,0,0,0-.2-1.84Z" transform="translate(-2905.07 92.17)"/><path class="f" d="M3011.08,205.44l1-.6,5.5,9.36-1,.6-0.45-.77a2.37,2.37,0,0,0-2.5-1.18,15.5,15.5,0,0,0-4.45,2.11l-24.07,14.13a23.78,23.78,0,0,0-3.61,2.4,2.74,2.74,0,0,0-.8,1.36,2.42,2.42,0,0,0,.22,1.86l0.45,0.77-1,.6-5.5-9.36,1-.59,0.46,0.78a2.37,2.37,0,0,0,2.49,1.16,15.1,15.1,0,0,0,4.47-2.08l24.06-14.13a24.64,24.64,0,0,0,3.61-2.4,2.74,2.74,0,0,0,.78-1.38,2.44,2.44,0,0,0-.2-1.85Z" transform="translate(-2905.07 92.17)"/><path class="f" d="M3004.31,166.54h1.17v10.85h-1.17v-0.9a2.37,2.37,0,0,0-1.56-2.27,15.6,15.6,0,0,0-4.91-.46h-27.9a24,24,0,0,0-4.34.25,2.77,2.77,0,0,0-1.37.77,2.5,2.5,0,0,0-.77,1.72v0.9h-1.18V166.54h1.18v0.92a2.38,2.38,0,0,0,1.57,2.27,15.25,15.25,0,0,0,4.91.47h27.9a23.28,23.28,0,0,0,4.34-.25,2.69,2.69,0,0,0,1.37-.78,2.44,2.44,0,0,0,.77-1.7v-0.92Z" transform="translate(-2905.07 92.17)"/><path class="f" d="M2981.56,150l13.83-5.43a41.29,41.29,0,0,0,7.24-3.36,3.77,3.77,0,0,0,1.68-2.77h1.17V149.3h-1.17a3.09,3.09,0,0,0-.38-1.6,2.07,2.07,0,0,0-.88-0.65,3.13,3.13,0,0,0-1.2-.25,6.5,6.5,0,0,0-1.47.16c-0.36.09-1.29,0.43-2.8,1l-11.09,4.3,11.59,5.31a22.42,22.42,0,0,0,2.46,1,5.13,5.13,0,0,0,1.29.17,2.75,2.75,0,0,0,1.69-.5,2.55,2.55,0,0,0,.77-1.93h1.17v9h-1.17a3.76,3.76,0,0,0-.67-1.64,10.29,10.29,0,0,0-2.23-2.21,25,25,0,0,0-4.3-2.39l-12.87-6-12.46,5q-5.06,2-6.65,3.46a4.63,4.63,0,0,0-1.67,3.27h-1.18V153.11h1.18a2.35,2.35,0,0,0,2.45,2.6,10.55,10.55,0,0,0,3.45-.9l9.91-3.89-9.72-4.5a21.6,21.6,0,0,0-2.36-1,5,5,0,0,0-1.3-.17,2.9,2.9,0,0,0-1.18.22,2,2,0,0,0-.95.71,4,4,0,0,0-.3,1.77h-1.18v-9h1.18a3.51,3.51,0,0,0,.57,1.73,7.77,7.77,0,0,0,2,1.85,36.15,36.15,0,0,0,4.59,2.37Z" transform="translate(-2905.07 92.17)"/><path class="f" d="M3002.22,74.8L3016.92,77a42.58,42.58,0,0,0,8,.72,3.75,3.75,0,0,0,2.84-1.56l1,0.59-5.44,9.41-1-.59a3.06,3.06,0,0,0,.48-1.58,2,2,0,0,0-.43-1,3.26,3.26,0,0,0-.92-0.81,6.49,6.49,0,0,0-1.35-.59c-0.36-.11-1.34-0.28-2.94-0.51l-11.76-1.83,7.39,10.39a21.7,21.7,0,0,0,1.63,2.11,5.29,5.29,0,0,0,1,.8,2.77,2.77,0,0,0,1.72.41,2.54,2.54,0,0,0,1.63-1.29l1,0.59-4.49,7.78-1-.59a3.87,3.87,0,0,0,.25-1.76,10.17,10.17,0,0,0-.84-3,24.82,24.82,0,0,0-2.53-4.22L3003,78.84l-13.27-1.91c-3.61-.51-6.1-0.63-7.49-0.33a4.67,4.67,0,0,0-3.08,2l-1-.59L2984,67.87l1,0.59a2.37,2.37,0,0,0,.83,3.47,10.47,10.47,0,0,0,3.43.95l10.52,1.59-6.16-8.76a22.76,22.76,0,0,0-1.56-2,5.15,5.15,0,0,0-1-.8,3,3,0,0,0-1.14-.4,2,2,0,0,0-1.17.14,4.08,4.08,0,0,0-1.15,1.39l-1-.59,4.49-7.78,1,0.59a3.36,3.36,0,0,0-.38,1.79,7.66,7.66,0,0,0,.78,2.58,35.71,35.71,0,0,0,2.78,4.35Z" transform="translate(-2905.07 92.17)"/><path class="f" d="M3055,13.18l11.64,9.23a41.3,41.3,0,0,0,6.54,4.58,3.75,3.75,0,0,0,3.24.06l0.59,1-9.39,5.46-0.6-1a3,3,0,0,0,1.19-1.14,1.92,1.92,0,0,0,.13-1.09,2.87,2.87,0,0,0-.39-1.16,6.24,6.24,0,0,0-.87-1.18c-0.26-.27-1-0.9-2.3-1.91l-9.28-7.43,1.24,12.69a22.69,22.69,0,0,0,.36,2.64,5.41,5.41,0,0,0,.5,1.2,2.77,2.77,0,0,0,1.3,1.21,2.5,2.5,0,0,0,2-.3l0.59,1-7.76,4.51-0.59-1a3.63,3.63,0,0,0,1.08-1.4,10,10,0,0,0,.79-3,24.93,24.93,0,0,0-.09-4.92l-1.3-14.13L3043,8.8c-2.87-2.24-5-3.58-6.32-4a4.63,4.63,0,0,0-3.66.19l-0.59-1,10.12-5.88,0.59,1a2.67,2.67,0,0,0-1.35,1.74,2.62,2.62,0,0,0,.34,1.68,10.17,10.17,0,0,0,2.51,2.52l8.33,6.62L3052,1a21.22,21.22,0,0,0-.35-2.52,4.84,4.84,0,0,0-.5-1.21,3,3,0,0,0-.79-0.91,2,2,0,0,0-1.08-.45,4,4,0,0,0-1.69.63l-0.59-1L3054.79-9l0.59,1a3.45,3.45,0,0,0-1.21,1.37,7.63,7.63,0,0,0-.61,2.64,35.68,35.68,0,0,0,.26,5.16Z" transform="translate(-2905.07 92.17)"/><path class="f" d="M3087,20.89l0.59,1-9.38,5.45-0.6-1,0.78-.45a2.38,2.38,0,0,0,1.19-2.49,16,16,0,0,0-2.07-4.47l-14-24.13a25.19,25.19,0,0,0-2.39-3.62,2.81,2.81,0,0,0-1.35-.8,2.51,2.51,0,0,0-1.87.2L3057.1-9l-0.59-1,9.38-5.45,0.59,1-0.78.46a2.37,2.37,0,0,0-1.17,2.49A15.13,15.13,0,0,0,3066.58-7l14,24.13a23.12,23.12,0,0,0,2.39,3.62,2.68,2.68,0,0,0,1.36.79,2.43,2.43,0,0,0,1.85-.19Z" transform="translate(-2905.07 92.17)"/><path class="f" d="M3141.39-16.76l5.43,13.83a41,41,0,0,0,3.36,7.25A3.77,3.77,0,0,0,3152.95,6V7.17h-10.87V6a3.08,3.08,0,0,0,1.6-.38,2,2,0,0,0,.65-0.88,3,3,0,0,0,.26-1.19,6.5,6.5,0,0,0-.17-1.47c-0.09-.36-0.43-1.3-1-2.8l-4.29-11.09L3133.78-.23a21,21,0,0,0-1,2.47,4.83,4.83,0,0,0-.17,1.29,2.73,2.73,0,0,0,.5,1.69A2.53,2.53,0,0,0,3135,6V7.17h-9V6a3.79,3.79,0,0,0,1.65-.67,10,10,0,0,0,2.2-2.23,24.73,24.73,0,0,0,2.39-4.3l6-12.87-5-12.46c-1.36-3.37-2.51-5.59-3.46-6.64a4.61,4.61,0,0,0-3.27-1.67V-36h11.71v1.18a2.64,2.64,0,0,0-2,.83,2.66,2.66,0,0,0-.55,1.62,10.53,10.53,0,0,0,.9,3.44l3.89,9.91,4.5-9.72a21.8,21.8,0,0,0,1-2.36,5.05,5.05,0,0,0,.17-1.31,2.9,2.9,0,0,0-.22-1.18,2,2,0,0,0-.71-0.94,4,4,0,0,0-1.78-.3V-36h9v1.18a3.44,3.44,0,0,0-1.73.57,7.59,7.59,0,0,0-1.84,2,35.81,35.81,0,0,0-2.38,4.59Z" transform="translate(-2905.07 92.17)"/><path class="f" d="M3165.19,6V7.17h-10.85V6h0.89a2.37,2.37,0,0,0,2.28-1.56,15.73,15.73,0,0,0,.46-4.9V-28.39a23.36,23.36,0,0,0-.25-4.33,2.72,2.72,0,0,0-.77-1.37,2.49,2.49,0,0,0-1.72-.76h-0.89V-36h10.85v1.18h-0.91a2.36,2.36,0,0,0-2.27,1.56,15.46,15.46,0,0,0-.47,4.91V-0.48a23.16,23.16,0,0,0,.25,4.33,2.67,2.67,0,0,0,.78,1.37,2.44,2.44,0,0,0,1.7.77h0.91Z" transform="translate(-2905.07 92.17)"/><path class="f" d="M3177.93,6V7.17h-10.85V6H3168a2.37,2.37,0,0,0,2.28-1.56,15.55,15.55,0,0,0,.46-4.9V-28.39a23.94,23.94,0,0,0-.25-4.33,2.77,2.77,0,0,0-.77-1.37,2.49,2.49,0,0,0-1.72-.76h-0.89V-36h10.85v1.18H3177a2.36,2.36,0,0,0-2.26,1.56,15.27,15.27,0,0,0-.47,4.91V-0.48a23.36,23.36,0,0,0,.25,4.33,2.69,2.69,0,0,0,.79,1.37A2.42,2.42,0,0,0,3177,6h0.92Z" transform="translate(-2905.07 92.17)"/><path d="M3155.07,147.58a10.24,10.24,0,1,0,10.24,10.25A10.24,10.24,0,0,0,3155.07,147.58Zm0,16.28a6,6,0,1,1,6-6A6,6,0,0,1,3155.07,163.86Z" transform="translate(-2905.07 92.17)"/></svg>